G04*
G04 #@! TF.GenerationSoftware,Altium Limited,Altium Designer,23.10.1 (27)*
G04*
G04 Layer_Color=32896*
%FSLAX42Y42*%
%MOMM*%
G71*
G04*
G04 #@! TF.SameCoordinates,D788F153-7B32-47A3-9728-DC68925F5BF0*
G04*
G04*
G04 #@! TF.FilePolarity,Positive*
G04*
G01*
G75*
G36*
X166Y3181D02*
X167Y3180D01*
X168Y3180D01*
X169Y3180D01*
X169Y3180D01*
X170Y3180D01*
X171Y3179D01*
X171Y3179D01*
X172Y3179D01*
X172Y3178D01*
X173Y3178D01*
X173Y3178D01*
X173Y3178D01*
X174Y3177D01*
X174Y3177D01*
X174Y3177D01*
X174Y3177D01*
X175Y3176D01*
X175Y3175D01*
X176Y3175D01*
X176Y3174D01*
X176Y3173D01*
X177Y3172D01*
X177Y3171D01*
X177Y3171D01*
X177Y3170D01*
X177Y3170D01*
X177Y3170D01*
Y3169D01*
X177Y3168D01*
X177Y3167D01*
X177Y3166D01*
X177Y3166D01*
X176Y3165D01*
X176Y3165D01*
X176Y3164D01*
X176Y3164D01*
Y3164D01*
X175Y3163D01*
X175Y3162D01*
X174Y3162D01*
X174Y3161D01*
X173Y3161D01*
X173Y3160D01*
X172Y3160D01*
X172Y3160D01*
X173D01*
X174Y3160D01*
X175Y3160D01*
X176Y3160D01*
X177Y3160D01*
X177Y3160D01*
X178Y3160D01*
X179Y3161D01*
X179Y3161D01*
X180Y3161D01*
X180Y3161D01*
X180Y3161D01*
X181Y3161D01*
X181Y3161D01*
X181Y3161D01*
X181D01*
X182Y3162D01*
X183Y3162D01*
X184Y3163D01*
X185Y3164D01*
X185Y3164D01*
X185Y3164D01*
X186Y3165D01*
X186Y3165D01*
X186Y3165D01*
X186Y3166D01*
X187Y3167D01*
X187Y3167D01*
X187Y3168D01*
X187Y3168D01*
Y3169D01*
X187Y3170D01*
X187Y3171D01*
X186Y3171D01*
X186Y3172D01*
X186Y3173D01*
X185Y3173D01*
X185Y3173D01*
X185Y3173D01*
X184Y3174D01*
X184Y3174D01*
X183Y3175D01*
X183Y3175D01*
X182Y3175D01*
X181Y3175D01*
X181Y3175D01*
X181Y3175D01*
X181D01*
X181Y3180D01*
X183Y3180D01*
X184Y3179D01*
X186Y3179D01*
X187Y3178D01*
X187Y3177D01*
X188Y3177D01*
X188Y3177D01*
X188Y3177D01*
X188Y3177D01*
X188Y3177D01*
X188Y3176D01*
X189Y3176D01*
X189Y3175D01*
X190Y3174D01*
X190Y3173D01*
X191Y3172D01*
X191Y3171D01*
X191Y3170D01*
Y3170D01*
X191Y3169D01*
Y3169D01*
X191Y3168D01*
X191Y3167D01*
X190Y3166D01*
X190Y3165D01*
X190Y3164D01*
X189Y3163D01*
X189Y3163D01*
X189Y3162D01*
X188Y3161D01*
X188Y3161D01*
X188Y3160D01*
X187Y3160D01*
X187Y3160D01*
X187Y3160D01*
X187Y3159D01*
X186Y3159D01*
X185Y3159D01*
X184Y3158D01*
X183Y3157D01*
X182Y3157D01*
X180Y3157D01*
X179Y3156D01*
X178Y3156D01*
X176Y3156D01*
X175Y3156D01*
X174Y3155D01*
X173Y3155D01*
X172Y3155D01*
X171D01*
X171Y3155D01*
X171D01*
X170D01*
X170D01*
X170D01*
X169Y3155D01*
X167Y3155D01*
X165Y3156D01*
X164Y3156D01*
X163Y3156D01*
X161Y3156D01*
X160Y3157D01*
X159Y3157D01*
X159Y3157D01*
X158Y3158D01*
X157Y3158D01*
X157Y3158D01*
X156Y3159D01*
X156Y3159D01*
X156Y3159D01*
X156Y3159D01*
X155Y3160D01*
X155Y3160D01*
X154Y3161D01*
X154Y3162D01*
X153Y3163D01*
X153Y3164D01*
X153Y3164D01*
X152Y3165D01*
X152Y3166D01*
X152Y3167D01*
X152Y3167D01*
X152Y3168D01*
Y3168D01*
X152Y3168D01*
Y3169D01*
X152Y3170D01*
X152Y3171D01*
X152Y3172D01*
X153Y3173D01*
X153Y3174D01*
X153Y3174D01*
X153Y3174D01*
X153Y3175D01*
X153Y3175D01*
Y3175D01*
X154Y3176D01*
X155Y3177D01*
X156Y3177D01*
X156Y3178D01*
X157Y3178D01*
X158Y3179D01*
X158Y3179D01*
X158Y3179D01*
X158Y3179D01*
X158D01*
X159Y3180D01*
X160Y3180D01*
X162Y3180D01*
X163Y3180D01*
X164Y3181D01*
X164D01*
X164Y3181D01*
X164D01*
X165D01*
X165D01*
X165D01*
X166Y3181D01*
D02*
G37*
G36*
X181Y3151D02*
X182Y3151D01*
X183Y3151D01*
X183Y3150D01*
X184Y3150D01*
X184Y3150D01*
X185Y3150D01*
X185Y3150D01*
X186Y3149D01*
X186Y3149D01*
X187Y3148D01*
X188Y3148D01*
X188Y3147D01*
X188Y3147D01*
X188Y3147D01*
X189Y3147D01*
X189Y3146D01*
X189Y3145D01*
X190Y3144D01*
X190Y3144D01*
X190Y3143D01*
X190Y3142D01*
X190Y3142D01*
Y3142D01*
X190Y3141D01*
X191Y3140D01*
X191Y3139D01*
X191Y3138D01*
X191Y3137D01*
Y3122D01*
X152D01*
Y3127D01*
X168D01*
Y3137D01*
X168Y3138D01*
X168Y3139D01*
X168Y3141D01*
X169Y3142D01*
X169Y3143D01*
X169Y3144D01*
X169Y3145D01*
X170Y3145D01*
X170Y3146D01*
X170Y3146D01*
X171Y3147D01*
X171Y3147D01*
X171Y3147D01*
X171Y3148D01*
X171Y3148D01*
X171Y3148D01*
X172Y3148D01*
X173Y3149D01*
X173Y3149D01*
X174Y3150D01*
X175Y3150D01*
X175Y3150D01*
X177Y3151D01*
X177Y3151D01*
X178Y3151D01*
X178Y3151D01*
X179Y3151D01*
X179Y3151D01*
X179D01*
X180D01*
X180D01*
X181Y3151D01*
D02*
G37*
G36*
X191Y3086D02*
X186D01*
Y3099D01*
X152D01*
Y3104D01*
X186D01*
Y3116D01*
X191D01*
Y3086D01*
D02*
G37*
G36*
X-660Y3282D02*
X-659Y3282D01*
X-658Y3282D01*
X-657Y3281D01*
X-657Y3281D01*
X-656Y3281D01*
X-656Y3280D01*
X-656Y3280D01*
X-655Y3280D01*
X-654Y3279D01*
X-653Y3278D01*
X-653Y3277D01*
X-653Y3276D01*
X-653Y3276D01*
X-652Y3275D01*
X-652Y3275D01*
X-652Y3275D01*
Y3275D01*
X-652Y3276D01*
X-651Y3277D01*
X-651Y3277D01*
X-650Y3278D01*
X-650Y3278D01*
X-649Y3279D01*
X-649Y3279D01*
X-649Y3279D01*
X-648Y3279D01*
X-648Y3280D01*
X-647Y3280D01*
X-646Y3280D01*
X-645Y3280D01*
X-645Y3280D01*
X-645D01*
X-645D01*
X-644Y3280D01*
X-643Y3280D01*
X-642Y3280D01*
X-641Y3280D01*
X-641Y3279D01*
X-640Y3279D01*
X-640Y3279D01*
X-640Y3279D01*
X-639Y3278D01*
X-638Y3278D01*
X-637Y3277D01*
X-637Y3276D01*
X-637Y3276D01*
X-636Y3275D01*
X-636Y3275D01*
X-636Y3275D01*
Y3275D01*
X-636Y3274D01*
X-635Y3273D01*
X-635Y3272D01*
X-635Y3271D01*
X-635Y3270D01*
X-635Y3270D01*
Y3268D01*
X-635Y3267D01*
X-635Y3266D01*
X-635Y3265D01*
X-636Y3264D01*
X-636Y3263D01*
X-636Y3263D01*
X-637Y3262D01*
X-637Y3262D01*
X-637Y3262D01*
X-637Y3262D01*
X-637Y3262D01*
X-637Y3262D01*
X-638Y3260D01*
X-639Y3260D01*
X-641Y3259D01*
X-642Y3258D01*
X-643Y3258D01*
X-643Y3258D01*
X-644Y3258D01*
X-644Y3258D01*
X-644Y3258D01*
X-644Y3258D01*
X-645D01*
X-645Y3262D01*
X-644Y3263D01*
X-643Y3263D01*
X-642Y3263D01*
X-641Y3264D01*
X-641Y3264D01*
X-641Y3264D01*
X-640Y3265D01*
X-640Y3265D01*
X-640Y3265D01*
X-639Y3266D01*
X-639Y3267D01*
X-639Y3268D01*
X-639Y3268D01*
X-638Y3269D01*
Y3269D01*
X-639Y3270D01*
X-639Y3271D01*
X-639Y3272D01*
X-639Y3273D01*
X-640Y3273D01*
X-640Y3273D01*
X-640Y3274D01*
X-640Y3274D01*
X-641Y3274D01*
X-642Y3275D01*
X-642Y3275D01*
X-643Y3275D01*
X-644Y3275D01*
X-644Y3276D01*
X-644D01*
X-644D01*
X-644D01*
X-645D01*
X-646Y3275D01*
X-647Y3275D01*
X-647Y3275D01*
X-648Y3274D01*
X-649Y3274D01*
X-649Y3273D01*
X-649Y3273D01*
X-649Y3273D01*
Y3273D01*
X-650Y3272D01*
X-650Y3271D01*
X-650Y3270D01*
X-651Y3269D01*
X-651Y3269D01*
X-651Y3268D01*
Y3267D01*
X-651Y3267D01*
Y3267D01*
X-655Y3266D01*
X-655Y3267D01*
X-655Y3268D01*
X-655Y3268D01*
X-654Y3269D01*
X-654Y3269D01*
Y3270D01*
X-655Y3271D01*
X-655Y3272D01*
X-655Y3273D01*
X-655Y3274D01*
X-656Y3274D01*
X-656Y3275D01*
X-656Y3275D01*
X-657Y3275D01*
X-657Y3276D01*
X-658Y3276D01*
X-659Y3277D01*
X-660Y3277D01*
X-661Y3277D01*
X-661Y3277D01*
X-662Y3277D01*
X-662D01*
X-662D01*
X-662D01*
X-663Y3277D01*
X-664Y3277D01*
X-665Y3277D01*
X-666Y3276D01*
X-667Y3276D01*
X-667Y3275D01*
X-668Y3275D01*
X-668Y3275D01*
X-668Y3274D01*
X-669Y3273D01*
X-669Y3272D01*
X-670Y3271D01*
X-670Y3270D01*
X-670Y3270D01*
X-670Y3270D01*
Y3269D01*
X-670Y3268D01*
X-670Y3267D01*
X-669Y3267D01*
X-669Y3266D01*
X-669Y3265D01*
X-668Y3265D01*
X-668Y3265D01*
X-668Y3265D01*
X-667Y3264D01*
X-667Y3263D01*
X-666Y3263D01*
X-665Y3262D01*
X-664Y3262D01*
X-663Y3262D01*
X-663Y3262D01*
X-663Y3262D01*
X-663Y3262D01*
X-662Y3262D01*
X-662D01*
X-663Y3257D01*
X-664Y3257D01*
X-665Y3257D01*
X-666Y3258D01*
X-668Y3259D01*
X-668Y3259D01*
X-669Y3259D01*
X-669Y3260D01*
X-670Y3260D01*
X-670Y3260D01*
X-670Y3260D01*
X-670Y3261D01*
X-671Y3261D01*
X-671Y3261D01*
X-671Y3261D01*
X-671Y3262D01*
X-672Y3262D01*
X-672Y3263D01*
X-672Y3264D01*
X-673Y3265D01*
X-673Y3266D01*
X-673Y3267D01*
X-674Y3267D01*
X-674Y3268D01*
X-674Y3268D01*
X-674Y3269D01*
Y3269D01*
X-674Y3270D01*
X-674Y3271D01*
X-673Y3272D01*
X-673Y3273D01*
X-673Y3274D01*
X-673Y3275D01*
X-672Y3275D01*
X-672Y3276D01*
X-672Y3277D01*
X-671Y3277D01*
X-671Y3278D01*
X-671Y3278D01*
X-671Y3278D01*
X-670Y3278D01*
X-670Y3278D01*
X-670Y3279D01*
X-670Y3279D01*
X-669Y3280D01*
X-668Y3280D01*
X-667Y3281D01*
X-667Y3281D01*
X-666Y3281D01*
X-665Y3282D01*
X-664Y3282D01*
X-664Y3282D01*
X-663Y3282D01*
X-663Y3282D01*
X-662Y3282D01*
X-662D01*
X-662D01*
X-662D01*
X-660Y3282D01*
D02*
G37*
G36*
X-645Y3252D02*
X-644Y3252D01*
X-643Y3252D01*
X-642Y3252D01*
X-642Y3252D01*
X-641Y3252D01*
X-641Y3251D01*
X-641Y3251D01*
X-640Y3251D01*
X-639Y3250D01*
X-638Y3250D01*
X-638Y3249D01*
X-638Y3249D01*
X-637Y3249D01*
X-637Y3248D01*
X-637Y3248D01*
X-637Y3248D01*
X-636Y3247D01*
X-636Y3246D01*
X-636Y3245D01*
X-635Y3245D01*
X-635Y3244D01*
X-635Y3244D01*
Y3244D01*
X-635Y3243D01*
X-635Y3242D01*
X-635Y3241D01*
X-635Y3240D01*
X-635Y3239D01*
Y3223D01*
X-673D01*
Y3228D01*
X-658D01*
Y3238D01*
X-657Y3240D01*
X-657Y3241D01*
X-657Y3242D01*
X-657Y3243D01*
X-657Y3244D01*
X-656Y3245D01*
X-656Y3246D01*
X-656Y3247D01*
X-656Y3247D01*
X-655Y3248D01*
X-655Y3248D01*
X-655Y3249D01*
X-654Y3249D01*
X-654Y3249D01*
X-654Y3249D01*
X-654Y3249D01*
X-653Y3250D01*
X-653Y3250D01*
X-652Y3251D01*
X-651Y3251D01*
X-651Y3252D01*
X-650Y3252D01*
X-649Y3252D01*
X-648Y3252D01*
X-648Y3252D01*
X-647Y3252D01*
X-647Y3252D01*
X-646Y3253D01*
X-646D01*
X-646D01*
X-646D01*
X-645Y3252D01*
D02*
G37*
G36*
X-635Y3188D02*
X-639D01*
Y3200D01*
X-673D01*
Y3205D01*
X-639D01*
Y3218D01*
X-635D01*
Y3188D01*
D02*
G37*
G36*
X-669Y3034D02*
X-668Y3035D01*
X-667Y3035D01*
X-667Y3036D01*
X-667Y3036D01*
X-666Y3036D01*
X-666Y3036D01*
X-666Y3036D01*
X-666Y3037D01*
X-666Y3037D01*
X-665Y3038D01*
X-664Y3039D01*
X-663Y3040D01*
X-662Y3040D01*
X-662Y3041D01*
X-662Y3041D01*
X-662Y3041D01*
X-661Y3042D01*
X-661Y3042D01*
X-661Y3042D01*
X-660Y3043D01*
X-660Y3044D01*
X-659Y3044D01*
X-658Y3045D01*
X-658Y3046D01*
X-657Y3046D01*
X-657Y3047D01*
X-656Y3047D01*
X-656Y3048D01*
X-655Y3048D01*
X-655Y3048D01*
X-655Y3049D01*
X-655Y3049D01*
X-654Y3049D01*
X-654Y3050D01*
X-653Y3050D01*
X-652Y3051D01*
X-651Y3051D01*
X-651Y3052D01*
X-650Y3052D01*
X-650Y3052D01*
X-650Y3052D01*
X-649Y3053D01*
X-648Y3053D01*
X-647Y3053D01*
X-647Y3053D01*
X-646Y3053D01*
X-646Y3053D01*
X-645D01*
X-645D01*
X-644Y3053D01*
X-644Y3053D01*
X-643Y3053D01*
X-642Y3053D01*
X-641Y3052D01*
X-640Y3052D01*
X-639Y3051D01*
X-639Y3051D01*
X-639Y3051D01*
X-638Y3050D01*
X-638Y3050D01*
X-638Y3050D01*
X-638Y3050D01*
X-638Y3050D01*
X-637Y3049D01*
X-637Y3049D01*
X-636Y3048D01*
X-636Y3047D01*
X-635Y3046D01*
X-635Y3044D01*
X-635Y3044D01*
X-635Y3043D01*
X-635Y3043D01*
X-635Y3042D01*
X-635Y3042D01*
Y3041D01*
X-635Y3040D01*
X-635Y3039D01*
X-635Y3038D01*
X-635Y3038D01*
X-635Y3037D01*
X-636Y3036D01*
X-636Y3035D01*
X-636Y3035D01*
X-636Y3034D01*
X-637Y3034D01*
X-637Y3033D01*
X-637Y3033D01*
X-637Y3033D01*
X-637Y3033D01*
X-637Y3032D01*
X-637Y3032D01*
X-638Y3032D01*
X-639Y3031D01*
X-639Y3031D01*
X-640Y3030D01*
X-641Y3030D01*
X-643Y3029D01*
X-643Y3029D01*
X-644Y3029D01*
X-644Y3029D01*
X-645Y3029D01*
X-645Y3029D01*
X-645D01*
X-646Y3029D01*
X-646D01*
X-646Y3034D01*
X-645Y3034D01*
X-644Y3034D01*
X-643Y3034D01*
X-642Y3035D01*
X-641Y3035D01*
X-641Y3035D01*
X-641Y3035D01*
X-641Y3036D01*
X-640Y3036D01*
X-639Y3037D01*
X-639Y3038D01*
X-639Y3039D01*
X-639Y3040D01*
X-639Y3040D01*
X-638Y3041D01*
Y3041D01*
X-639Y3042D01*
X-639Y3043D01*
X-639Y3044D01*
X-639Y3045D01*
X-640Y3046D01*
X-640Y3046D01*
X-640Y3046D01*
X-640Y3046D01*
X-641Y3047D01*
X-642Y3047D01*
X-643Y3048D01*
X-644Y3048D01*
X-644Y3048D01*
X-645Y3048D01*
X-645Y3048D01*
X-645D01*
X-645D01*
X-646Y3048D01*
X-647Y3048D01*
X-648Y3048D01*
X-649Y3047D01*
X-650Y3047D01*
X-650Y3046D01*
X-651Y3046D01*
X-651Y3046D01*
X-651Y3046D01*
X-651D01*
X-651Y3046D01*
X-652Y3045D01*
X-653Y3044D01*
X-653Y3044D01*
X-655Y3042D01*
X-656Y3041D01*
X-657Y3040D01*
X-657Y3040D01*
X-658Y3039D01*
X-658Y3039D01*
X-658Y3038D01*
X-659Y3038D01*
X-659Y3038D01*
X-659Y3038D01*
X-660Y3036D01*
X-661Y3035D01*
X-662Y3034D01*
X-663Y3033D01*
X-664Y3032D01*
X-664Y3032D01*
X-665Y3032D01*
X-665Y3031D01*
X-665D01*
X-666Y3031D01*
X-667Y3030D01*
X-667Y3030D01*
X-668Y3029D01*
X-669Y3029D01*
X-669Y3029D01*
X-670Y3028D01*
X-670Y3028D01*
X-670D01*
X-670Y3028D01*
X-671Y3028D01*
X-672Y3028D01*
X-672Y3028D01*
X-672Y3028D01*
X-673D01*
X-673D01*
X-673D01*
Y3053D01*
X-669D01*
Y3034D01*
D02*
G37*
G36*
X-645Y3024D02*
X-644Y3024D01*
X-643Y3024D01*
X-642Y3023D01*
X-642Y3023D01*
X-641Y3023D01*
X-641Y3023D01*
X-641Y3023D01*
X-640Y3022D01*
X-639Y3022D01*
X-638Y3021D01*
X-638Y3021D01*
X-638Y3020D01*
X-637Y3020D01*
X-637Y3020D01*
X-637Y3020D01*
X-637Y3019D01*
X-636Y3018D01*
X-636Y3017D01*
X-636Y3017D01*
X-635Y3016D01*
X-635Y3015D01*
X-635Y3015D01*
Y3015D01*
X-635Y3014D01*
X-635Y3013D01*
X-635Y3012D01*
X-635Y3011D01*
X-635Y3010D01*
Y2995D01*
X-673D01*
Y3000D01*
X-658D01*
Y3010D01*
X-657Y3011D01*
X-657Y3012D01*
X-657Y3014D01*
X-657Y3015D01*
X-657Y3016D01*
X-656Y3017D01*
X-656Y3018D01*
X-656Y3018D01*
X-656Y3019D01*
X-655Y3019D01*
X-655Y3020D01*
X-655Y3020D01*
X-654Y3020D01*
X-654Y3021D01*
X-654Y3021D01*
X-654Y3021D01*
X-653Y3021D01*
X-653Y3022D01*
X-652Y3022D01*
X-651Y3023D01*
X-651Y3023D01*
X-650Y3023D01*
X-649Y3024D01*
X-648Y3024D01*
X-648Y3024D01*
X-647Y3024D01*
X-647Y3024D01*
X-646Y3024D01*
X-646D01*
X-646D01*
X-646D01*
X-645Y3024D01*
D02*
G37*
G36*
X-635Y2959D02*
X-639D01*
Y2972D01*
X-673D01*
Y2977D01*
X-639D01*
Y2989D01*
X-635D01*
Y2959D01*
D02*
G37*
G36*
X-807Y2895D02*
X-806Y2894D01*
X-806Y2893D01*
X-805Y2892D01*
X-804Y2892D01*
X-804Y2891D01*
X-804Y2891D01*
X-803Y2891D01*
X-803Y2891D01*
X-803Y2891D01*
X-802Y2890D01*
X-801Y2889D01*
X-800Y2888D01*
X-799Y2888D01*
X-798Y2887D01*
X-797Y2887D01*
X-797Y2887D01*
X-797Y2887D01*
X-797Y2886D01*
X-797Y2886D01*
X-796D01*
Y2882D01*
X-797Y2882D01*
X-798Y2883D01*
X-799Y2883D01*
X-800Y2883D01*
X-800Y2884D01*
X-801Y2884D01*
X-801Y2884D01*
X-801Y2884D01*
X-801D01*
X-802Y2885D01*
X-803Y2885D01*
X-804Y2886D01*
X-805Y2886D01*
X-805Y2887D01*
X-806Y2887D01*
X-806Y2887D01*
X-806Y2887D01*
Y2858D01*
X-811D01*
Y2896D01*
X-808D01*
X-807Y2895D01*
D02*
G37*
G36*
X-823Y2876D02*
X-828Y2875D01*
X-828Y2876D01*
X-829Y2876D01*
X-829Y2877D01*
X-830Y2877D01*
X-830Y2877D01*
X-830Y2878D01*
X-831Y2878D01*
X-831Y2878D01*
X-831Y2878D01*
X-832Y2878D01*
X-833Y2878D01*
X-833Y2879D01*
X-834Y2879D01*
X-834Y2879D01*
X-836D01*
X-836Y2879D01*
X-837Y2878D01*
X-838Y2878D01*
X-839Y2878D01*
X-840Y2877D01*
X-840Y2877D01*
X-841Y2876D01*
X-841Y2876D01*
Y2876D01*
X-842Y2875D01*
X-842Y2874D01*
X-843Y2873D01*
X-843Y2872D01*
X-843Y2871D01*
X-843Y2871D01*
Y2871D01*
X-843Y2870D01*
Y2870D01*
Y2870D01*
Y2870D01*
Y2869D01*
X-843Y2869D01*
X-843Y2867D01*
X-842Y2866D01*
X-842Y2865D01*
X-841Y2864D01*
X-841Y2864D01*
X-841Y2864D01*
X-841Y2863D01*
X-841Y2863D01*
X-841Y2863D01*
X-840Y2863D01*
X-840Y2862D01*
X-839Y2862D01*
X-838Y2861D01*
X-837Y2861D01*
X-836Y2861D01*
X-835Y2861D01*
X-835Y2861D01*
X-835D01*
X-834Y2861D01*
X-833Y2861D01*
X-832Y2861D01*
X-831Y2862D01*
X-831Y2862D01*
X-830Y2862D01*
X-830Y2862D01*
X-830Y2862D01*
X-829Y2863D01*
X-829Y2864D01*
X-828Y2865D01*
X-828Y2866D01*
X-828Y2867D01*
X-828Y2867D01*
X-828Y2868D01*
X-828Y2868D01*
Y2868D01*
Y2868D01*
X-823Y2868D01*
X-823Y2867D01*
X-823Y2866D01*
X-823Y2864D01*
X-824Y2863D01*
X-824Y2862D01*
X-825Y2862D01*
X-825Y2861D01*
X-825Y2861D01*
X-826Y2861D01*
X-826Y2860D01*
X-826Y2860D01*
X-826Y2860D01*
X-826Y2860D01*
X-826Y2860D01*
X-827Y2859D01*
X-828Y2859D01*
X-828Y2858D01*
X-829Y2858D01*
X-831Y2858D01*
X-832Y2857D01*
X-833Y2857D01*
X-833Y2857D01*
X-834Y2857D01*
X-834Y2857D01*
X-834Y2857D01*
X-835D01*
X-836Y2857D01*
X-837Y2857D01*
X-838Y2857D01*
X-839Y2858D01*
X-840Y2858D01*
X-841Y2858D01*
X-842Y2859D01*
X-842Y2859D01*
X-843Y2860D01*
X-844Y2860D01*
X-844Y2860D01*
X-844Y2861D01*
X-845Y2861D01*
X-845Y2861D01*
X-845Y2861D01*
X-845Y2861D01*
X-846Y2862D01*
X-846Y2863D01*
X-846Y2864D01*
X-847Y2864D01*
X-847Y2866D01*
X-848Y2867D01*
X-848Y2868D01*
X-848Y2869D01*
X-848Y2869D01*
X-848Y2870D01*
X-848Y2870D01*
Y2870D01*
Y2870D01*
Y2870D01*
X-848Y2871D01*
X-848Y2872D01*
X-848Y2873D01*
X-848Y2874D01*
X-847Y2875D01*
X-847Y2876D01*
X-847Y2876D01*
X-846Y2877D01*
X-846Y2878D01*
X-846Y2878D01*
X-845Y2878D01*
X-845Y2879D01*
X-845Y2879D01*
X-845Y2879D01*
X-845Y2879D01*
X-845Y2879D01*
X-844Y2880D01*
X-843Y2881D01*
X-843Y2881D01*
X-842Y2881D01*
X-841Y2882D01*
X-840Y2882D01*
X-839Y2882D01*
X-838Y2883D01*
X-838Y2883D01*
X-837Y2883D01*
X-837Y2883D01*
X-837Y2883D01*
X-835D01*
X-835Y2883D01*
X-833Y2883D01*
X-832Y2882D01*
X-831Y2882D01*
X-830Y2881D01*
X-830Y2881D01*
X-829Y2881D01*
X-829Y2881D01*
X-829Y2881D01*
X-829Y2881D01*
X-829Y2880D01*
X-831Y2891D01*
X-846D01*
Y2895D01*
X-827D01*
X-823Y2876D01*
D02*
G37*
G36*
X-756Y2858D02*
X-761D01*
Y2874D01*
X-768D01*
X-768Y2874D01*
X-769D01*
X-769Y2874D01*
X-770Y2874D01*
X-770D01*
X-770Y2874D01*
X-770D01*
X-771Y2874D01*
X-771Y2874D01*
X-772Y2874D01*
X-772Y2874D01*
X-772Y2873D01*
X-772Y2873D01*
X-772Y2873D01*
X-773Y2873D01*
X-773Y2873D01*
X-774Y2872D01*
X-774Y2871D01*
X-775Y2871D01*
X-775Y2871D01*
X-775Y2871D01*
X-775Y2870D01*
X-776Y2869D01*
X-777Y2868D01*
X-777Y2867D01*
X-778Y2867D01*
X-778Y2866D01*
X-778Y2866D01*
X-778Y2866D01*
X-779Y2866D01*
Y2865D01*
X-784Y2858D01*
X-790D01*
X-783Y2868D01*
X-783Y2869D01*
X-782Y2870D01*
X-781Y2871D01*
X-780Y2872D01*
X-780Y2872D01*
X-779Y2873D01*
X-779Y2873D01*
X-779Y2873D01*
X-779Y2873D01*
X-778Y2874D01*
X-777Y2874D01*
X-777Y2875D01*
X-776Y2875D01*
X-776Y2875D01*
X-776Y2875D01*
X-777Y2875D01*
X-778Y2875D01*
X-779Y2876D01*
X-780Y2876D01*
X-780Y2876D01*
X-781Y2876D01*
X-782Y2877D01*
X-782Y2877D01*
X-783Y2877D01*
X-783Y2878D01*
X-783Y2878D01*
X-784Y2878D01*
X-784Y2878D01*
X-784Y2878D01*
X-784Y2878D01*
X-784Y2878D01*
X-785Y2879D01*
X-785Y2880D01*
X-786Y2881D01*
X-786Y2882D01*
X-786Y2883D01*
X-787Y2884D01*
X-787Y2884D01*
Y2885D01*
X-787Y2885D01*
Y2885D01*
Y2885D01*
Y2885D01*
X-787Y2887D01*
X-787Y2888D01*
X-786Y2889D01*
X-786Y2889D01*
X-786Y2890D01*
X-785Y2891D01*
X-785Y2891D01*
X-785Y2891D01*
Y2891D01*
X-785Y2892D01*
X-784Y2893D01*
X-783Y2893D01*
X-783Y2894D01*
X-782Y2894D01*
X-781Y2895D01*
X-781Y2895D01*
X-781Y2895D01*
X-781D01*
X-780Y2895D01*
X-780Y2895D01*
X-779Y2895D01*
X-777Y2896D01*
X-776Y2896D01*
X-775Y2896D01*
X-774D01*
X-774Y2896D01*
X-756D01*
Y2858D01*
D02*
G37*
G36*
X166Y2965D02*
X167Y2965D01*
X168Y2965D01*
X169Y2964D01*
X170Y2964D01*
X171Y2964D01*
X171Y2964D01*
X172Y2963D01*
X172Y2963D01*
X173Y2963D01*
X173Y2962D01*
X174Y2962D01*
X174Y2962D01*
X174Y2962D01*
X174Y2962D01*
X174Y2962D01*
X175Y2961D01*
X175Y2960D01*
X176Y2959D01*
X176Y2959D01*
X177Y2958D01*
X177Y2957D01*
X177Y2956D01*
X178Y2955D01*
X178Y2955D01*
X178Y2954D01*
X178Y2954D01*
X178Y2954D01*
Y2952D01*
X178Y2952D01*
X177Y2950D01*
X177Y2949D01*
X177Y2948D01*
X176Y2947D01*
X176Y2947D01*
X176Y2946D01*
X176Y2946D01*
X175Y2946D01*
X175Y2946D01*
X175Y2946D01*
X186Y2948D01*
Y2963D01*
X190D01*
Y2944D01*
X171Y2940D01*
X170Y2945D01*
X171Y2945D01*
X171Y2946D01*
X172Y2946D01*
X172Y2947D01*
X172Y2947D01*
X172Y2947D01*
X173Y2948D01*
X173Y2948D01*
X173Y2948D01*
X173Y2949D01*
X173Y2950D01*
X174Y2950D01*
X174Y2951D01*
X174Y2951D01*
Y2952D01*
X174Y2953D01*
X173Y2954D01*
X173Y2955D01*
X173Y2956D01*
X172Y2957D01*
X172Y2957D01*
X171Y2958D01*
X171Y2958D01*
X171D01*
X170Y2959D01*
X169Y2959D01*
X168Y2959D01*
X167Y2960D01*
X166Y2960D01*
X166Y2960D01*
X166D01*
X165Y2960D01*
X165D01*
X165D01*
X165D01*
X164D01*
X163Y2960D01*
X162Y2960D01*
X161Y2959D01*
X160Y2959D01*
X159Y2958D01*
X159Y2958D01*
X158Y2958D01*
X158Y2958D01*
X158Y2958D01*
X158Y2958D01*
X158Y2957D01*
X157Y2957D01*
X157Y2956D01*
X156Y2955D01*
X156Y2954D01*
X156Y2953D01*
X156Y2952D01*
X156Y2952D01*
Y2952D01*
X156Y2951D01*
X156Y2950D01*
X156Y2949D01*
X156Y2948D01*
X157Y2948D01*
X157Y2947D01*
X157Y2947D01*
X157Y2947D01*
X158Y2946D01*
X159Y2946D01*
X160Y2945D01*
X161Y2945D01*
X162Y2945D01*
X162Y2945D01*
X162Y2945D01*
X163Y2945D01*
X163D01*
X163D01*
X162Y2940D01*
X162Y2940D01*
X161Y2940D01*
X159Y2940D01*
X158Y2941D01*
X157Y2941D01*
X157Y2942D01*
X156Y2942D01*
X156Y2942D01*
X155Y2943D01*
X155Y2943D01*
X155Y2943D01*
X155Y2943D01*
X155Y2943D01*
X155Y2943D01*
X154Y2944D01*
X154Y2945D01*
X153Y2945D01*
X153Y2946D01*
X152Y2947D01*
X152Y2949D01*
X152Y2949D01*
X152Y2950D01*
X152Y2951D01*
X152Y2951D01*
X152Y2951D01*
Y2952D01*
X152Y2953D01*
X152Y2954D01*
X152Y2955D01*
X152Y2956D01*
X153Y2957D01*
X153Y2958D01*
X154Y2959D01*
X154Y2959D01*
X155Y2960D01*
X155Y2960D01*
X155Y2961D01*
X156Y2961D01*
X156Y2962D01*
X156Y2962D01*
X156Y2962D01*
X156Y2962D01*
X157Y2963D01*
X158Y2963D01*
X159Y2963D01*
X159Y2964D01*
X161Y2964D01*
X162Y2965D01*
X163Y2965D01*
X164Y2965D01*
X164Y2965D01*
X164Y2965D01*
X165Y2965D01*
X165D01*
X165D01*
X165D01*
X166Y2965D01*
D02*
G37*
G36*
X181Y2935D02*
X182Y2935D01*
X183Y2935D01*
X183Y2934D01*
X184Y2934D01*
X184Y2934D01*
X185Y2934D01*
X185Y2934D01*
X186Y2933D01*
X186Y2933D01*
X187Y2932D01*
X188Y2932D01*
X188Y2931D01*
X188Y2931D01*
X188Y2931D01*
X189Y2931D01*
X189Y2930D01*
X189Y2929D01*
X190Y2928D01*
X190Y2928D01*
X190Y2927D01*
X190Y2927D01*
X190Y2926D01*
Y2926D01*
X190Y2925D01*
X191Y2924D01*
X191Y2923D01*
X191Y2922D01*
X191Y2922D01*
Y2906D01*
X152D01*
Y2911D01*
X168D01*
Y2921D01*
X168Y2922D01*
X168Y2924D01*
X168Y2925D01*
X169Y2926D01*
X169Y2927D01*
X169Y2928D01*
X169Y2929D01*
X170Y2929D01*
X170Y2930D01*
X170Y2931D01*
X171Y2931D01*
X171Y2931D01*
X171Y2932D01*
X171Y2932D01*
X171Y2932D01*
X171Y2932D01*
X172Y2932D01*
X173Y2933D01*
X173Y2933D01*
X174Y2934D01*
X175Y2934D01*
X175Y2934D01*
X177Y2935D01*
X177Y2935D01*
X178Y2935D01*
X178Y2935D01*
X179Y2935D01*
X179Y2935D01*
X179D01*
X180D01*
X180D01*
X181Y2935D01*
D02*
G37*
G36*
X191Y2870D02*
X186D01*
Y2883D01*
X152D01*
Y2888D01*
X186D01*
Y2901D01*
X191D01*
Y2870D01*
D02*
G37*
G36*
X306Y3048D02*
X330D01*
Y3044D01*
X306Y3027D01*
X301D01*
Y3044D01*
X292D01*
Y3048D01*
X301D01*
Y3053D01*
X306D01*
Y3048D01*
D02*
G37*
G36*
X320Y3024D02*
X321Y3024D01*
X322Y3024D01*
X323Y3023D01*
X324Y3023D01*
X324Y3023D01*
X324Y3023D01*
X325Y3023D01*
X325Y3022D01*
X326Y3022D01*
X327Y3021D01*
X327Y3021D01*
X328Y3020D01*
X328Y3020D01*
X328Y3020D01*
X328Y3020D01*
X329Y3019D01*
X329Y3018D01*
X329Y3017D01*
X330Y3017D01*
X330Y3016D01*
X330Y3015D01*
X330Y3015D01*
Y3015D01*
X330Y3014D01*
X330Y3013D01*
X330Y3012D01*
X330Y3011D01*
X330Y3010D01*
Y2995D01*
X292D01*
Y3000D01*
X308D01*
Y3010D01*
X308Y3011D01*
X308Y3012D01*
X308Y3014D01*
X308Y3015D01*
X308Y3016D01*
X309Y3017D01*
X309Y3018D01*
X309Y3018D01*
X310Y3019D01*
X310Y3019D01*
X310Y3020D01*
X311Y3020D01*
X311Y3020D01*
X311Y3021D01*
X311Y3021D01*
X311Y3021D01*
X312Y3021D01*
X312Y3022D01*
X313Y3022D01*
X314Y3023D01*
X314Y3023D01*
X315Y3023D01*
X316Y3024D01*
X317Y3024D01*
X318Y3024D01*
X318Y3024D01*
X318Y3024D01*
X319Y3024D01*
X319D01*
X319D01*
X319D01*
X320Y3024D01*
D02*
G37*
G36*
X330Y2959D02*
X326D01*
Y2972D01*
X292D01*
Y2977D01*
X326D01*
Y2989D01*
X330D01*
Y2959D01*
D02*
G37*
G36*
X128Y2767D02*
X153D01*
Y2764D01*
X128Y2746D01*
X123D01*
Y2763D01*
X114D01*
Y2767D01*
X123D01*
Y2773D01*
X128D01*
Y2767D01*
D02*
G37*
G36*
X125Y2738D02*
X126Y2737D01*
X127Y2736D01*
X128Y2736D01*
X128Y2735D01*
X129Y2735D01*
X129Y2734D01*
X130Y2734D01*
X130Y2734D01*
X130Y2733D01*
X131Y2733D01*
X131Y2732D01*
X131Y2731D01*
X132Y2731D01*
X132Y2731D01*
X132Y2731D01*
X132Y2732D01*
X132Y2733D01*
X132Y2733D01*
X133Y2734D01*
X133Y2735D01*
X133Y2736D01*
X133Y2736D01*
X134Y2737D01*
X134Y2737D01*
X134Y2738D01*
X135Y2738D01*
X135Y2738D01*
X135Y2739D01*
X135Y2739D01*
X135Y2739D01*
X135Y2739D01*
X136Y2739D01*
X136Y2740D01*
X138Y2740D01*
X139Y2741D01*
X140Y2741D01*
X141Y2741D01*
X141Y2741D01*
X141D01*
X142Y2742D01*
X142D01*
X142D01*
X142D01*
X143Y2741D01*
X144Y2741D01*
X145Y2741D01*
X146Y2741D01*
X147Y2740D01*
X147Y2740D01*
X148Y2740D01*
X148Y2740D01*
X148D01*
X149Y2739D01*
X150Y2739D01*
X150Y2738D01*
X151Y2737D01*
X151Y2737D01*
X151Y2736D01*
X152Y2736D01*
X152Y2736D01*
Y2736D01*
X152Y2735D01*
X152Y2735D01*
X152Y2733D01*
X152Y2732D01*
X153Y2731D01*
X153Y2730D01*
Y2729D01*
X153Y2729D01*
Y2711D01*
X114D01*
Y2716D01*
X131D01*
Y2723D01*
X131Y2723D01*
Y2724D01*
X131Y2724D01*
X131Y2724D01*
Y2724D01*
X131Y2725D01*
Y2725D01*
X131Y2726D01*
X131Y2726D01*
X130Y2726D01*
X130Y2727D01*
X130Y2727D01*
X130Y2727D01*
X130Y2727D01*
X130Y2727D01*
X129Y2728D01*
X129Y2729D01*
X128Y2729D01*
X128Y2729D01*
X128Y2730D01*
X128Y2730D01*
X127Y2730D01*
X126Y2731D01*
X125Y2731D01*
X124Y2732D01*
X123Y2732D01*
X123Y2733D01*
X123Y2733D01*
X122Y2733D01*
X122Y2733D01*
X122D01*
X114Y2738D01*
Y2745D01*
X125Y2738D01*
D02*
G37*
G36*
X267Y2773D02*
X268Y2772D01*
X269Y2772D01*
X270Y2772D01*
X271Y2771D01*
X271Y2771D01*
X271Y2771D01*
X271Y2771D01*
X272Y2770D01*
X273Y2769D01*
X274Y2768D01*
X274Y2767D01*
X274Y2767D01*
X275Y2766D01*
X275Y2766D01*
X275Y2766D01*
X275Y2766D01*
Y2765D01*
X275Y2766D01*
X276Y2767D01*
X276Y2768D01*
X277Y2768D01*
X277Y2769D01*
X278Y2769D01*
X278Y2769D01*
X278Y2769D01*
X279Y2770D01*
X280Y2770D01*
X280Y2770D01*
X281Y2771D01*
X282Y2771D01*
X282Y2771D01*
X282D01*
X283D01*
X283Y2771D01*
X284Y2771D01*
X285Y2770D01*
X286Y2770D01*
X287Y2770D01*
X287Y2770D01*
X287Y2769D01*
X287Y2769D01*
X288Y2769D01*
X289Y2768D01*
X290Y2767D01*
X290Y2767D01*
X291Y2766D01*
X291Y2766D01*
X291Y2765D01*
X291Y2765D01*
Y2765D01*
X292Y2764D01*
X292Y2763D01*
X292Y2762D01*
X292Y2761D01*
X292Y2761D01*
X292Y2760D01*
Y2759D01*
X292Y2758D01*
X292Y2756D01*
X292Y2755D01*
X291Y2754D01*
X291Y2754D01*
X291Y2753D01*
X290Y2753D01*
X290Y2753D01*
X290Y2752D01*
X290Y2752D01*
X290Y2752D01*
X290Y2752D01*
X289Y2751D01*
X288Y2750D01*
X286Y2749D01*
X285Y2749D01*
X284Y2749D01*
X284Y2748D01*
X283Y2748D01*
X283Y2748D01*
X283Y2748D01*
X283Y2748D01*
X283D01*
X282Y2753D01*
X283Y2753D01*
X284Y2753D01*
X285Y2754D01*
X286Y2754D01*
X286Y2755D01*
X287Y2755D01*
X287Y2755D01*
X287Y2755D01*
X287Y2756D01*
X288Y2757D01*
X288Y2757D01*
X288Y2758D01*
X288Y2759D01*
X289Y2759D01*
Y2760D01*
X289Y2761D01*
X288Y2762D01*
X288Y2762D01*
X288Y2763D01*
X287Y2764D01*
X287Y2764D01*
X287Y2764D01*
X287Y2764D01*
X286Y2765D01*
X286Y2765D01*
X285Y2766D01*
X284Y2766D01*
X284Y2766D01*
X283Y2766D01*
X283D01*
X283D01*
X283D01*
X282D01*
X281Y2766D01*
X281Y2766D01*
X280Y2765D01*
X279Y2765D01*
X278Y2764D01*
X278Y2764D01*
X278Y2764D01*
X278Y2764D01*
Y2764D01*
X277Y2763D01*
X277Y2762D01*
X277Y2761D01*
X276Y2760D01*
X276Y2759D01*
X276Y2759D01*
Y2758D01*
X276Y2758D01*
Y2757D01*
X272Y2757D01*
X272Y2758D01*
X272Y2758D01*
X273Y2759D01*
X273Y2759D01*
X273Y2760D01*
Y2760D01*
X273Y2761D01*
X272Y2762D01*
X272Y2763D01*
X272Y2764D01*
X271Y2765D01*
X271Y2765D01*
X271Y2765D01*
X271Y2766D01*
X270Y2766D01*
X269Y2767D01*
X268Y2767D01*
X267Y2767D01*
X266Y2768D01*
X266Y2768D01*
X266Y2768D01*
X265D01*
X265D01*
X265D01*
X264Y2768D01*
X263Y2767D01*
X262Y2767D01*
X261Y2767D01*
X260Y2766D01*
X260Y2766D01*
X260Y2765D01*
X259Y2765D01*
X259Y2765D01*
X258Y2764D01*
X258Y2763D01*
X257Y2762D01*
X257Y2761D01*
X257Y2760D01*
X257Y2760D01*
Y2760D01*
X257Y2759D01*
X257Y2758D01*
X258Y2757D01*
X258Y2756D01*
X258Y2756D01*
X259Y2755D01*
X259Y2755D01*
X259Y2755D01*
X260Y2754D01*
X261Y2754D01*
X262Y2753D01*
X263Y2753D01*
X263Y2753D01*
X264Y2753D01*
X264Y2752D01*
X264Y2752D01*
X265Y2752D01*
X265Y2752D01*
X265D01*
X264Y2748D01*
X263Y2748D01*
X262Y2748D01*
X261Y2748D01*
X260Y2749D01*
X259Y2749D01*
X258Y2750D01*
X258Y2750D01*
X258Y2750D01*
X257Y2751D01*
X257Y2751D01*
X257Y2751D01*
X256Y2751D01*
X256Y2751D01*
X256Y2751D01*
X256Y2752D01*
X255Y2753D01*
X255Y2753D01*
X255Y2754D01*
X254Y2755D01*
X254Y2757D01*
X254Y2757D01*
X254Y2758D01*
X253Y2758D01*
X253Y2759D01*
X253Y2759D01*
Y2760D01*
X253Y2761D01*
X254Y2762D01*
X254Y2763D01*
X254Y2764D01*
X254Y2764D01*
X254Y2765D01*
X255Y2766D01*
X255Y2766D01*
X255Y2767D01*
X256Y2768D01*
X256Y2768D01*
X256Y2768D01*
X256Y2769D01*
X257Y2769D01*
X257Y2769D01*
X257Y2769D01*
X257Y2770D01*
X258Y2770D01*
X259Y2771D01*
X260Y2771D01*
X260Y2771D01*
X261Y2772D01*
X262Y2772D01*
X263Y2772D01*
X264Y2772D01*
X264Y2773D01*
X264Y2773D01*
X265Y2773D01*
X265D01*
X265D01*
X265D01*
X267Y2773D01*
D02*
G37*
G36*
X264Y2738D02*
X266Y2737D01*
X267Y2736D01*
X267Y2736D01*
X268Y2735D01*
X269Y2735D01*
X269Y2734D01*
X269Y2734D01*
X270Y2734D01*
X270Y2733D01*
X270Y2733D01*
X271Y2732D01*
X271Y2731D01*
X271Y2731D01*
X271Y2731D01*
X271Y2731D01*
X272Y2732D01*
X272Y2733D01*
X272Y2733D01*
X272Y2734D01*
X273Y2735D01*
X273Y2736D01*
X273Y2736D01*
X273Y2737D01*
X274Y2737D01*
X274Y2738D01*
X274Y2738D01*
X274Y2738D01*
X275Y2739D01*
X275Y2739D01*
X275Y2739D01*
X275Y2739D01*
X275Y2739D01*
X276Y2740D01*
X277Y2740D01*
X278Y2741D01*
X279Y2741D01*
X280Y2741D01*
X281Y2741D01*
X281D01*
X281Y2742D01*
X282D01*
X282D01*
X282D01*
X283Y2741D01*
X284Y2741D01*
X285Y2741D01*
X286Y2741D01*
X287Y2740D01*
X287Y2740D01*
X288Y2740D01*
X288Y2740D01*
X288D01*
X288Y2739D01*
X289Y2739D01*
X290Y2738D01*
X290Y2737D01*
X291Y2737D01*
X291Y2736D01*
X291Y2736D01*
X291Y2736D01*
Y2736D01*
X291Y2735D01*
X292Y2735D01*
X292Y2733D01*
X292Y2732D01*
X292Y2731D01*
X292Y2730D01*
Y2729D01*
X292Y2729D01*
Y2711D01*
X254D01*
Y2716D01*
X271D01*
Y2723D01*
X271Y2723D01*
Y2724D01*
X271Y2724D01*
X271Y2724D01*
Y2724D01*
X271Y2725D01*
Y2725D01*
X271Y2726D01*
X270Y2726D01*
X270Y2726D01*
X270Y2727D01*
X270Y2727D01*
X270Y2727D01*
X270Y2727D01*
X269Y2727D01*
X269Y2728D01*
X268Y2729D01*
X268Y2729D01*
X268Y2729D01*
X267Y2730D01*
X267Y2730D01*
X266Y2730D01*
X266Y2731D01*
X265Y2731D01*
X264Y2732D01*
X263Y2732D01*
X263Y2733D01*
X262Y2733D01*
X262Y2733D01*
X262Y2733D01*
X262D01*
X254Y2738D01*
Y2745D01*
X264Y2738D01*
D02*
G37*
G36*
X-622Y2840D02*
X-623Y2839D01*
X-624Y2839D01*
X-625Y2838D01*
X-625Y2837D01*
X-626Y2837D01*
X-627Y2836D01*
X-627Y2836D01*
X-627Y2836D01*
X-627Y2836D01*
X-627Y2836D01*
X-628Y2835D01*
X-629Y2833D01*
X-630Y2832D01*
X-630Y2831D01*
X-631Y2830D01*
X-631Y2830D01*
X-631Y2830D01*
X-631Y2829D01*
X-631Y2829D01*
X-632Y2829D01*
Y2829D01*
X-636D01*
X-636Y2830D01*
X-635Y2831D01*
X-635Y2831D01*
X-635Y2832D01*
X-634Y2833D01*
X-634Y2833D01*
X-634Y2834D01*
X-634Y2834D01*
Y2834D01*
X-633Y2835D01*
X-632Y2836D01*
X-632Y2836D01*
X-631Y2837D01*
X-631Y2838D01*
X-631Y2838D01*
X-630Y2838D01*
X-630Y2838D01*
X-660D01*
Y2843D01*
X-622D01*
Y2840D01*
D02*
G37*
G36*
X-632Y2821D02*
X-631Y2821D01*
X-630Y2820D01*
X-630Y2820D01*
X-629Y2820D01*
X-628Y2820D01*
X-628Y2820D01*
X-628Y2820D01*
X-627Y2819D01*
X-626Y2819D01*
X-626Y2818D01*
X-625Y2818D01*
X-625Y2817D01*
X-625Y2817D01*
X-624Y2817D01*
X-624Y2816D01*
X-624Y2816D01*
X-623Y2815D01*
X-623Y2814D01*
X-623Y2813D01*
X-623Y2813D01*
X-623Y2812D01*
X-622Y2812D01*
Y2812D01*
X-622Y2811D01*
X-622Y2810D01*
X-622Y2809D01*
X-622Y2808D01*
X-622Y2807D01*
Y2792D01*
X-660D01*
Y2797D01*
X-645D01*
Y2806D01*
X-645Y2808D01*
X-645Y2809D01*
X-645Y2810D01*
X-644Y2812D01*
X-644Y2813D01*
X-644Y2813D01*
X-643Y2814D01*
X-643Y2815D01*
X-643Y2816D01*
X-643Y2816D01*
X-642Y2817D01*
X-642Y2817D01*
X-642Y2817D01*
X-642Y2817D01*
X-642Y2818D01*
X-641Y2818D01*
X-641Y2818D01*
X-640Y2819D01*
X-639Y2819D01*
X-639Y2819D01*
X-638Y2820D01*
X-637Y2820D01*
X-636Y2820D01*
X-635Y2820D01*
X-635Y2821D01*
X-634Y2821D01*
X-634Y2821D01*
X-634Y2821D01*
X-633D01*
X-633D01*
X-633D01*
X-632Y2821D01*
D02*
G37*
G36*
X-622Y2756D02*
X-627D01*
Y2769D01*
X-660D01*
Y2774D01*
X-627D01*
Y2786D01*
X-622D01*
Y2756D01*
D02*
G37*
G36*
X-800Y3111D02*
X-799Y3110D01*
X-799Y3109D01*
X-798Y3108D01*
X-797Y3108D01*
X-797Y3107D01*
X-797Y3107D01*
X-797Y3107D01*
X-796Y3107D01*
X-796Y3107D01*
X-795Y3106D01*
X-794Y3105D01*
X-793Y3104D01*
X-792Y3104D01*
X-791Y3103D01*
X-791Y3103D01*
X-790Y3103D01*
X-790Y3102D01*
X-790Y3102D01*
X-790Y3102D01*
X-790D01*
Y3098D01*
X-790Y3098D01*
X-791Y3098D01*
X-792Y3099D01*
X-793Y3099D01*
X-793Y3100D01*
X-794Y3100D01*
X-794Y3100D01*
X-794Y3100D01*
X-794D01*
X-795Y3101D01*
X-796Y3101D01*
X-797Y3102D01*
X-798Y3102D01*
X-798Y3103D01*
X-799Y3103D01*
X-799Y3103D01*
X-799Y3103D01*
Y3073D01*
X-804D01*
Y3112D01*
X-801D01*
X-800Y3111D01*
D02*
G37*
G36*
X-749Y3073D02*
X-754D01*
Y3090D01*
X-761D01*
X-762Y3090D01*
X-762D01*
X-762Y3090D01*
X-763Y3090D01*
X-763D01*
X-763Y3090D01*
X-763D01*
X-764Y3090D01*
X-764Y3090D01*
X-765Y3090D01*
X-765Y3089D01*
X-765Y3089D01*
X-765Y3089D01*
X-765Y3089D01*
X-766Y3089D01*
X-766Y3088D01*
X-767Y3088D01*
X-767Y3087D01*
X-768Y3087D01*
X-768Y3087D01*
X-768Y3087D01*
X-769Y3086D01*
X-769Y3085D01*
X-770Y3084D01*
X-770Y3083D01*
X-771Y3083D01*
X-771Y3082D01*
X-771Y3082D01*
X-772Y3082D01*
X-772Y3081D01*
Y3081D01*
X-777Y3073D01*
X-783D01*
X-776Y3084D01*
X-776Y3085D01*
X-775Y3086D01*
X-774Y3087D01*
X-774Y3088D01*
X-773Y3088D01*
X-773Y3089D01*
X-772Y3089D01*
X-772Y3089D01*
X-772Y3089D01*
X-771Y3090D01*
X-770Y3090D01*
X-770Y3090D01*
X-769Y3091D01*
X-769Y3091D01*
X-769Y3091D01*
X-770Y3091D01*
X-771Y3091D01*
X-772Y3091D01*
X-773Y3092D01*
X-773Y3092D01*
X-774Y3092D01*
X-775Y3093D01*
X-775Y3093D01*
X-776Y3093D01*
X-776Y3093D01*
X-776Y3094D01*
X-777Y3094D01*
X-777Y3094D01*
X-777Y3094D01*
X-777Y3094D01*
X-777Y3094D01*
X-778Y3095D01*
X-778Y3095D01*
X-779Y3097D01*
X-779Y3098D01*
X-780Y3099D01*
X-780Y3100D01*
X-780Y3100D01*
Y3101D01*
X-780Y3101D01*
Y3101D01*
Y3101D01*
Y3101D01*
X-780Y3102D01*
X-780Y3103D01*
X-779Y3104D01*
X-779Y3105D01*
X-779Y3106D01*
X-779Y3107D01*
X-778Y3107D01*
X-778Y3107D01*
Y3107D01*
X-778Y3108D01*
X-777Y3109D01*
X-776Y3109D01*
X-776Y3110D01*
X-775Y3110D01*
X-774Y3110D01*
X-774Y3111D01*
X-774Y3111D01*
X-774D01*
X-774Y3111D01*
X-773Y3111D01*
X-772Y3111D01*
X-770Y3111D01*
X-769Y3112D01*
X-768Y3112D01*
X-768D01*
X-767Y3112D01*
X-749D01*
Y3073D01*
D02*
G37*
G36*
X-814Y3087D02*
Y3083D01*
X-831D01*
Y3073D01*
X-836D01*
Y3083D01*
X-841D01*
Y3087D01*
X-836D01*
Y3112D01*
X-832D01*
X-814Y3087D01*
D02*
G37*
G36*
X621Y2045D02*
X622Y2045D01*
X623Y2044D01*
X624Y2044D01*
X625Y2044D01*
X625Y2043D01*
X626Y2043D01*
X626Y2043D01*
X626Y2043D01*
X626Y2043D01*
X626Y2043D01*
X627Y2042D01*
X628Y2041D01*
X628Y2040D01*
X629Y2039D01*
X630Y2038D01*
X630Y2037D01*
X630Y2036D01*
X630Y2036D01*
X630Y2036D01*
X630Y2035D01*
X630Y2035D01*
Y2035D01*
X626Y2034D01*
X625Y2036D01*
X625Y2037D01*
X625Y2037D01*
X624Y2038D01*
X624Y2039D01*
X624Y2039D01*
X623Y2039D01*
X623Y2039D01*
X623Y2040D01*
X622Y2040D01*
X621Y2041D01*
X620Y2041D01*
X620Y2041D01*
X619Y2041D01*
X619D01*
X618Y2041D01*
X617Y2041D01*
X616Y2041D01*
X616Y2040D01*
X615Y2040D01*
X615Y2040D01*
X614Y2040D01*
X614Y2039D01*
X614Y2039D01*
X613Y2038D01*
X613Y2037D01*
X613Y2037D01*
X613Y2036D01*
X613Y2036D01*
Y2035D01*
Y2035D01*
Y2035D01*
Y2035D01*
X613Y2034D01*
X613Y2033D01*
X613Y2032D01*
X614Y2032D01*
X614Y2031D01*
X615Y2031D01*
X615Y2030D01*
X615Y2030D01*
X615D01*
X616Y2030D01*
X617Y2030D01*
X618Y2029D01*
X619Y2029D01*
X619Y2029D01*
X620Y2029D01*
X621D01*
X621Y2029D01*
X621D01*
X622Y2025D01*
X621Y2025D01*
X620Y2025D01*
X620Y2025D01*
X619Y2025D01*
X619Y2025D01*
X618D01*
X617Y2025D01*
X616Y2025D01*
X615Y2025D01*
X614Y2024D01*
X614Y2024D01*
X613Y2023D01*
X613Y2023D01*
X613Y2023D01*
X612Y2022D01*
X612Y2021D01*
X611Y2021D01*
X611Y2020D01*
X611Y2019D01*
X611Y2018D01*
X611Y2018D01*
Y2018D01*
Y2018D01*
Y2018D01*
X611Y2017D01*
X611Y2015D01*
X612Y2015D01*
X612Y2014D01*
X612Y2013D01*
X613Y2013D01*
X613Y2012D01*
X613Y2012D01*
X614Y2011D01*
X615Y2011D01*
X616Y2010D01*
X617Y2010D01*
X618Y2010D01*
X618Y2010D01*
X618Y2010D01*
X619D01*
X620Y2010D01*
X621Y2010D01*
X621Y2010D01*
X622Y2011D01*
X623Y2011D01*
X623Y2011D01*
X623Y2011D01*
X623Y2012D01*
X624Y2012D01*
X625Y2013D01*
X625Y2014D01*
X626Y2015D01*
X626Y2016D01*
X626Y2016D01*
X626Y2017D01*
X626Y2017D01*
X626Y2017D01*
X626Y2017D01*
Y2017D01*
X631Y2017D01*
X631Y2016D01*
X631Y2015D01*
X630Y2013D01*
X630Y2012D01*
X629Y2012D01*
X629Y2011D01*
X629Y2011D01*
X628Y2010D01*
X628Y2010D01*
X628Y2009D01*
X627Y2009D01*
X627Y2009D01*
X627Y2009D01*
X627Y2009D01*
X626Y2008D01*
X626Y2008D01*
X625Y2008D01*
X624Y2007D01*
X623Y2007D01*
X622Y2006D01*
X621Y2006D01*
X621Y2006D01*
X620Y2006D01*
X620Y2006D01*
X619Y2006D01*
X619D01*
X618Y2006D01*
X617Y2006D01*
X616Y2006D01*
X615Y2006D01*
X614Y2007D01*
X613Y2007D01*
X613Y2007D01*
X612Y2008D01*
X611Y2008D01*
X611Y2008D01*
X611Y2009D01*
X610Y2009D01*
X610Y2009D01*
X610Y2009D01*
X610Y2009D01*
X610Y2009D01*
X609Y2010D01*
X608Y2011D01*
X608Y2012D01*
X607Y2012D01*
X607Y2013D01*
X607Y2014D01*
X606Y2015D01*
X606Y2016D01*
X606Y2016D01*
X606Y2017D01*
X606Y2017D01*
X606Y2017D01*
Y2018D01*
Y2018D01*
Y2018D01*
X606Y2019D01*
X606Y2020D01*
X606Y2021D01*
X607Y2022D01*
X607Y2023D01*
X607Y2024D01*
X608Y2024D01*
X608Y2024D01*
X608Y2025D01*
X609Y2026D01*
X610Y2026D01*
X611Y2027D01*
X612Y2027D01*
X612Y2027D01*
X613Y2027D01*
X613Y2027D01*
X613Y2027D01*
X613D01*
X612Y2028D01*
X611Y2028D01*
X611Y2029D01*
X610Y2029D01*
X610Y2030D01*
X609Y2030D01*
X609Y2030D01*
X609Y2031D01*
X609Y2031D01*
X608Y2032D01*
X608Y2033D01*
X608Y2034D01*
X608Y2034D01*
X608Y2035D01*
Y2035D01*
Y2035D01*
X608Y2036D01*
X608Y2037D01*
X608Y2038D01*
X608Y2039D01*
X609Y2039D01*
X609Y2040D01*
X609Y2040D01*
X609Y2040D01*
X610Y2041D01*
X610Y2042D01*
X611Y2042D01*
X612Y2043D01*
X612Y2043D01*
X613Y2043D01*
X613Y2044D01*
X613Y2044D01*
X613D01*
X614Y2044D01*
X615Y2044D01*
X616Y2045D01*
X617Y2045D01*
X618Y2045D01*
X618Y2045D01*
X620D01*
X621Y2045D01*
D02*
G37*
G36*
X647Y2044D02*
X647Y2043D01*
X648Y2042D01*
X649Y2042D01*
X649Y2041D01*
X650Y2040D01*
X650Y2040D01*
X650Y2040D01*
X650Y2040D01*
X650Y2040D01*
X651Y2039D01*
X653Y2038D01*
X654Y2037D01*
X655Y2037D01*
X656Y2036D01*
X656Y2036D01*
X656Y2036D01*
X657Y2036D01*
X657Y2036D01*
X657Y2035D01*
X657D01*
Y2031D01*
X656Y2031D01*
X655Y2032D01*
X655Y2032D01*
X654Y2032D01*
X653Y2033D01*
X653Y2033D01*
X652Y2033D01*
X652Y2033D01*
X652D01*
X651Y2034D01*
X650Y2035D01*
X650Y2035D01*
X649Y2036D01*
X648Y2036D01*
X648Y2036D01*
X648Y2037D01*
X648Y2037D01*
Y2007D01*
X643D01*
Y2045D01*
X646D01*
X647Y2044D01*
D02*
G37*
G36*
X697Y2007D02*
X692D01*
Y2024D01*
X686D01*
X685Y2024D01*
X685D01*
X684Y2023D01*
X684Y2023D01*
X684D01*
X684Y2023D01*
X684D01*
X683Y2023D01*
X682Y2023D01*
X682Y2023D01*
X682Y2023D01*
X682Y2022D01*
X681Y2022D01*
X681Y2022D01*
X681Y2022D01*
X680Y2022D01*
X680Y2021D01*
X679Y2020D01*
X679Y2020D01*
X679Y2020D01*
X679Y2020D01*
X678Y2019D01*
X678Y2018D01*
X677Y2017D01*
X676Y2017D01*
X676Y2016D01*
X675Y2015D01*
X675Y2015D01*
X675Y2015D01*
X675Y2015D01*
Y2015D01*
X670Y2007D01*
X664D01*
X670Y2017D01*
X671Y2018D01*
X672Y2019D01*
X673Y2020D01*
X673Y2021D01*
X674Y2021D01*
X674Y2022D01*
X674Y2022D01*
X675Y2022D01*
X675Y2022D01*
X675Y2023D01*
X676Y2023D01*
X677Y2024D01*
X677Y2024D01*
X677Y2024D01*
X678Y2024D01*
X677Y2024D01*
X676Y2024D01*
X675Y2025D01*
X674Y2025D01*
X673Y2025D01*
X673Y2025D01*
X672Y2026D01*
X671Y2026D01*
X671Y2026D01*
X671Y2027D01*
X670Y2027D01*
X670Y2027D01*
X670Y2027D01*
X670Y2027D01*
X669Y2027D01*
X669Y2028D01*
X669Y2028D01*
X669Y2029D01*
X668Y2030D01*
X667Y2031D01*
X667Y2032D01*
X667Y2033D01*
X667Y2033D01*
Y2034D01*
X667Y2034D01*
Y2034D01*
Y2034D01*
Y2034D01*
X667Y2036D01*
X667Y2037D01*
X667Y2038D01*
X668Y2038D01*
X668Y2039D01*
X668Y2040D01*
X668Y2040D01*
X668Y2040D01*
Y2040D01*
X669Y2041D01*
X670Y2042D01*
X670Y2043D01*
X671Y2043D01*
X672Y2043D01*
X672Y2044D01*
X673Y2044D01*
X673Y2044D01*
X673D01*
X673Y2044D01*
X674Y2044D01*
X675Y2044D01*
X676Y2045D01*
X678Y2045D01*
X679Y2045D01*
X679D01*
X680Y2045D01*
X697D01*
Y2007D01*
D02*
G37*
G36*
X645Y2528D02*
X646Y2528D01*
X646Y2527D01*
X647Y2527D01*
X648Y2527D01*
X649Y2527D01*
X649Y2527D01*
X650Y2526D01*
X651Y2526D01*
X651Y2526D01*
X651Y2525D01*
X652Y2525D01*
X652Y2525D01*
X652Y2525D01*
X652Y2525D01*
X652Y2525D01*
X653Y2524D01*
X653Y2524D01*
X654Y2523D01*
X654Y2522D01*
X655Y2521D01*
X655Y2520D01*
X656Y2519D01*
X656Y2518D01*
X656Y2518D01*
X656Y2517D01*
X656Y2517D01*
Y2517D01*
X656Y2517D01*
Y2517D01*
X651Y2516D01*
X651Y2517D01*
X651Y2518D01*
X651Y2519D01*
X650Y2520D01*
X650Y2521D01*
X650Y2521D01*
X649Y2522D01*
X649Y2522D01*
X648Y2522D01*
X648Y2523D01*
X647Y2523D01*
X646Y2524D01*
X645Y2524D01*
X644Y2524D01*
X644Y2524D01*
X644D01*
X643Y2524D01*
X642Y2524D01*
X641Y2523D01*
X640Y2523D01*
X639Y2522D01*
X639Y2522D01*
X639Y2522D01*
X639Y2522D01*
X638Y2521D01*
X637Y2520D01*
X637Y2520D01*
X637Y2519D01*
X637Y2518D01*
X637Y2518D01*
X636Y2517D01*
Y2517D01*
Y2517D01*
X637Y2516D01*
X637Y2515D01*
X637Y2514D01*
X638Y2513D01*
X638Y2513D01*
X638Y2512D01*
X639Y2512D01*
X639Y2512D01*
X639Y2512D01*
Y2511D01*
X639Y2511D01*
X640Y2510D01*
X640Y2510D01*
X641Y2509D01*
X642Y2508D01*
X644Y2506D01*
X645Y2506D01*
X645Y2505D01*
X646Y2505D01*
X646Y2504D01*
X647Y2504D01*
X647Y2504D01*
X647Y2503D01*
X647Y2503D01*
X649Y2502D01*
X650Y2501D01*
X651Y2500D01*
X652Y2499D01*
X652Y2499D01*
X653Y2498D01*
X653Y2498D01*
X653Y2498D01*
Y2498D01*
X654Y2497D01*
X655Y2496D01*
X655Y2495D01*
X656Y2494D01*
X656Y2493D01*
X656Y2493D01*
X656Y2493D01*
X656Y2493D01*
Y2492D01*
X657Y2492D01*
X657Y2491D01*
X657Y2491D01*
X657Y2490D01*
X657Y2490D01*
Y2489D01*
Y2489D01*
Y2489D01*
X632D01*
Y2494D01*
X650D01*
X650Y2495D01*
X649Y2495D01*
X649Y2495D01*
X649Y2496D01*
X649Y2496D01*
X649Y2496D01*
X648Y2496D01*
X648Y2497D01*
X648Y2497D01*
X647Y2498D01*
X646Y2498D01*
X645Y2499D01*
X644Y2500D01*
X644Y2500D01*
X644Y2501D01*
X643Y2501D01*
X643Y2501D01*
X643Y2501D01*
X643Y2501D01*
X642Y2502D01*
X641Y2503D01*
X640Y2503D01*
X640Y2504D01*
X639Y2505D01*
X639Y2505D01*
X638Y2506D01*
X638Y2506D01*
X637Y2506D01*
X637Y2507D01*
X636Y2507D01*
X636Y2507D01*
X636Y2508D01*
X636Y2508D01*
X635Y2509D01*
X634Y2510D01*
X634Y2510D01*
X633Y2511D01*
X633Y2512D01*
X633Y2512D01*
X633Y2512D01*
X633Y2513D01*
X632Y2513D01*
X632Y2514D01*
X632Y2515D01*
X632Y2516D01*
X632Y2516D01*
X632Y2517D01*
Y2517D01*
Y2517D01*
X632Y2518D01*
X632Y2519D01*
X632Y2519D01*
X632Y2520D01*
X633Y2521D01*
X633Y2522D01*
X634Y2523D01*
X634Y2523D01*
X634Y2524D01*
X634Y2524D01*
X635Y2524D01*
X635Y2524D01*
X635Y2525D01*
X635Y2525D01*
X636Y2525D01*
X636Y2526D01*
X637Y2526D01*
X638Y2526D01*
X639Y2527D01*
X641Y2527D01*
X641Y2527D01*
X642Y2528D01*
X642Y2528D01*
X643Y2528D01*
X643Y2528D01*
X644D01*
X645Y2528D01*
D02*
G37*
G36*
X672Y2527D02*
X673Y2526D01*
X673Y2525D01*
X674Y2524D01*
X675Y2524D01*
X675Y2523D01*
X675Y2523D01*
X676Y2523D01*
X676Y2523D01*
X676Y2523D01*
X677Y2522D01*
X678Y2521D01*
X679Y2520D01*
X680Y2519D01*
X681Y2519D01*
X682Y2519D01*
X682Y2518D01*
X682Y2518D01*
X682Y2518D01*
X682Y2518D01*
X683D01*
Y2514D01*
X682Y2514D01*
X681Y2514D01*
X680Y2515D01*
X679Y2515D01*
X679Y2515D01*
X678Y2516D01*
X678Y2516D01*
X678Y2516D01*
X678D01*
X677Y2516D01*
X676Y2517D01*
X675Y2518D01*
X674Y2518D01*
X674Y2519D01*
X673Y2519D01*
X673Y2519D01*
X673Y2519D01*
Y2489D01*
X668D01*
Y2528D01*
X671D01*
X672Y2527D01*
D02*
G37*
G36*
X723Y2489D02*
X718D01*
Y2506D01*
X711D01*
X711Y2506D01*
X710D01*
X710Y2506D01*
X709Y2506D01*
X709D01*
X709Y2506D01*
X709D01*
X708Y2506D01*
X708Y2506D01*
X707Y2505D01*
X707Y2505D01*
X707Y2505D01*
X707Y2505D01*
X707Y2505D01*
X706Y2505D01*
X706Y2504D01*
X705Y2503D01*
X705Y2503D01*
X704Y2503D01*
X704Y2502D01*
X704Y2502D01*
X704Y2502D01*
X703Y2501D01*
X702Y2500D01*
X702Y2499D01*
X701Y2498D01*
X701Y2498D01*
X701Y2498D01*
X701Y2497D01*
X700Y2497D01*
Y2497D01*
X695Y2489D01*
X689D01*
X696Y2500D01*
X696Y2501D01*
X697Y2502D01*
X698Y2503D01*
X699Y2503D01*
X699Y2504D01*
X700Y2504D01*
X700Y2505D01*
X700Y2505D01*
X700Y2505D01*
X701Y2505D01*
X702Y2506D01*
X702Y2506D01*
X703Y2506D01*
X703Y2507D01*
X703Y2507D01*
X702Y2507D01*
X701Y2507D01*
X700Y2507D01*
X699Y2507D01*
X699Y2508D01*
X698Y2508D01*
X697Y2508D01*
X697Y2509D01*
X696Y2509D01*
X696Y2509D01*
X696Y2509D01*
X695Y2510D01*
X695Y2510D01*
X695Y2510D01*
X695Y2510D01*
X695Y2510D01*
X694Y2511D01*
X694Y2511D01*
X693Y2512D01*
X693Y2514D01*
X693Y2515D01*
X692Y2516D01*
X692Y2516D01*
Y2516D01*
X692Y2517D01*
Y2517D01*
Y2517D01*
Y2517D01*
X692Y2518D01*
X692Y2519D01*
X693Y2520D01*
X693Y2521D01*
X693Y2522D01*
X694Y2522D01*
X694Y2523D01*
X694Y2523D01*
Y2523D01*
X694Y2524D01*
X695Y2524D01*
X696Y2525D01*
X696Y2526D01*
X697Y2526D01*
X698Y2526D01*
X698Y2526D01*
X698Y2526D01*
X698D01*
X699Y2527D01*
X699Y2527D01*
X700Y2527D01*
X702Y2527D01*
X703Y2527D01*
X704Y2527D01*
X705D01*
X705Y2528D01*
X723D01*
Y2489D01*
D02*
G37*
G36*
X-970Y3317D02*
X-971Y3316D01*
X-972Y3315D01*
X-973Y3314D01*
X-973Y3313D01*
X-974Y3313D01*
X-974Y3312D01*
X-975Y3312D01*
X-975Y3312D01*
X-975Y3312D01*
X-976Y3311D01*
X-977Y3311D01*
X-977Y3310D01*
X-977Y3310D01*
X-978Y3310D01*
X-978Y3310D01*
X-977Y3310D01*
X-976Y3310D01*
X-975Y3309D01*
X-974Y3309D01*
X-973Y3309D01*
X-973Y3309D01*
X-972Y3308D01*
X-972Y3308D01*
X-971Y3308D01*
X-971Y3307D01*
X-970Y3307D01*
X-970Y3307D01*
X-970Y3307D01*
X-970Y3307D01*
X-970Y3307D01*
X-970Y3306D01*
X-969Y3306D01*
X-969Y3305D01*
X-968Y3304D01*
X-968Y3303D01*
X-967Y3302D01*
X-967Y3301D01*
X-967Y3301D01*
Y3300D01*
X-967Y3300D01*
Y3300D01*
Y3300D01*
Y3300D01*
X-967Y3298D01*
X-967Y3297D01*
X-967Y3296D01*
X-968Y3296D01*
X-968Y3295D01*
X-968Y3294D01*
X-968Y3294D01*
X-968Y3294D01*
Y3294D01*
X-969Y3293D01*
X-970Y3292D01*
X-971Y3291D01*
X-971Y3291D01*
X-972Y3291D01*
X-972Y3290D01*
X-973Y3290D01*
X-973Y3290D01*
X-973D01*
X-973Y3290D01*
X-974Y3290D01*
X-975Y3290D01*
X-976Y3289D01*
X-978Y3289D01*
X-979Y3289D01*
X-979D01*
X-980Y3289D01*
X-998D01*
Y3327D01*
X-992D01*
Y3310D01*
X-986D01*
X-985Y3310D01*
X-985D01*
X-984Y3311D01*
X-984Y3311D01*
X-984D01*
X-984Y3311D01*
X-984D01*
X-983Y3311D01*
X-982Y3311D01*
X-982Y3311D01*
X-982Y3311D01*
X-982Y3312D01*
X-981Y3312D01*
X-981Y3312D01*
X-981Y3312D01*
X-981Y3312D01*
X-980Y3313D01*
X-979Y3314D01*
X-979Y3314D01*
X-979Y3314D01*
X-979Y3314D01*
X-978Y3315D01*
X-978Y3316D01*
X-977Y3317D01*
X-976Y3317D01*
X-976Y3318D01*
X-976Y3319D01*
X-975Y3319D01*
X-975Y3319D01*
X-975Y3319D01*
Y3319D01*
X-970Y3327D01*
X-964D01*
X-970Y3317D01*
D02*
G37*
G36*
X-943Y3289D02*
X-946D01*
X-947Y3290D01*
X-947Y3291D01*
X-948Y3292D01*
X-949Y3292D01*
X-949Y3293D01*
X-950Y3294D01*
X-950Y3294D01*
X-950Y3294D01*
X-950Y3294D01*
X-950Y3294D01*
X-952Y3295D01*
X-953Y3296D01*
X-954Y3297D01*
X-955Y3297D01*
X-956Y3298D01*
X-956Y3298D01*
X-957Y3298D01*
X-957Y3298D01*
X-957Y3298D01*
X-957Y3299D01*
X-957D01*
Y3303D01*
X-956Y3303D01*
X-956Y3302D01*
X-955Y3302D01*
X-954Y3302D01*
X-953Y3301D01*
X-953Y3301D01*
X-952Y3301D01*
X-952Y3301D01*
X-952D01*
X-951Y3300D01*
X-950Y3299D01*
X-950Y3299D01*
X-949Y3298D01*
X-948Y3298D01*
X-948Y3298D01*
X-948Y3297D01*
X-948Y3297D01*
Y3327D01*
X-943D01*
Y3289D01*
D02*
G37*
G36*
X-920Y3325D02*
X-920Y3323D01*
X-920Y3322D01*
X-920Y3321D01*
X-919Y3320D01*
X-919Y3319D01*
X-919Y3319D01*
X-919Y3318D01*
X-919Y3318D01*
X-919Y3317D01*
X-919Y3317D01*
X-919Y3317D01*
Y3317D01*
X-918Y3314D01*
X-917Y3312D01*
X-917Y3311D01*
X-916Y3310D01*
X-916Y3309D01*
X-915Y3308D01*
X-915Y3307D01*
X-914Y3306D01*
X-914Y3305D01*
X-914Y3305D01*
X-914Y3304D01*
X-913Y3304D01*
X-913Y3304D01*
X-913Y3304D01*
X-913Y3302D01*
X-912Y3301D01*
X-911Y3300D01*
X-911Y3299D01*
X-910Y3298D01*
X-909Y3297D01*
X-909Y3297D01*
X-908Y3296D01*
X-908Y3295D01*
X-907Y3295D01*
X-907Y3294D01*
X-907Y3294D01*
X-906Y3294D01*
X-906Y3293D01*
X-906Y3293D01*
X-906Y3293D01*
Y3290D01*
X-931D01*
Y3294D01*
X-912D01*
X-913Y3296D01*
X-915Y3297D01*
X-916Y3299D01*
X-917Y3301D01*
X-917Y3301D01*
X-918Y3302D01*
X-918Y3303D01*
X-918Y3303D01*
X-918Y3304D01*
X-919Y3304D01*
X-919Y3304D01*
X-919Y3304D01*
X-920Y3306D01*
X-921Y3309D01*
X-922Y3311D01*
X-922Y3312D01*
X-922Y3313D01*
X-923Y3313D01*
X-923Y3314D01*
X-923Y3315D01*
X-923Y3315D01*
X-923Y3316D01*
X-924Y3316D01*
X-924Y3316D01*
Y3317D01*
X-924Y3319D01*
X-924Y3320D01*
X-925Y3321D01*
X-925Y3322D01*
X-925Y3323D01*
X-925Y3324D01*
X-925Y3324D01*
X-925Y3325D01*
X-925Y3326D01*
X-925Y3326D01*
Y3327D01*
X-925Y3327D01*
Y3327D01*
Y3327D01*
Y3327D01*
X-921D01*
X-920Y3325D01*
D02*
G37*
G36*
X687Y3063D02*
X687Y3062D01*
X686Y3061D01*
X685Y3060D01*
X685Y3059D01*
X684Y3059D01*
X684Y3058D01*
X683Y3058D01*
X683Y3058D01*
X683Y3058D01*
X682Y3057D01*
X681Y3057D01*
X681Y3056D01*
X680Y3056D01*
X680Y3056D01*
X680Y3056D01*
X681Y3056D01*
X682Y3056D01*
X683Y3055D01*
X684Y3055D01*
X684Y3055D01*
X685Y3055D01*
X686Y3054D01*
X686Y3054D01*
X687Y3054D01*
X687Y3053D01*
X687Y3053D01*
X688Y3053D01*
X688Y3053D01*
X688Y3053D01*
X688Y3053D01*
X688Y3052D01*
X689Y3052D01*
X689Y3051D01*
X690Y3050D01*
X690Y3049D01*
X691Y3048D01*
X691Y3047D01*
X691Y3047D01*
Y3046D01*
X691Y3046D01*
Y3046D01*
Y3046D01*
Y3046D01*
X691Y3044D01*
X691Y3043D01*
X690Y3042D01*
X690Y3042D01*
X690Y3041D01*
X690Y3040D01*
X689Y3040D01*
X689Y3040D01*
Y3040D01*
X689Y3039D01*
X688Y3038D01*
X687Y3037D01*
X687Y3037D01*
X686Y3037D01*
X685Y3036D01*
X685Y3036D01*
X685Y3036D01*
X685D01*
X685Y3036D01*
X684Y3036D01*
X683Y3036D01*
X681Y3035D01*
X680Y3035D01*
X679Y3035D01*
X679D01*
X678Y3035D01*
X660D01*
Y3073D01*
X665D01*
Y3056D01*
X672D01*
X673Y3056D01*
X673D01*
X673Y3057D01*
X674Y3057D01*
X674D01*
X674Y3057D01*
X674D01*
X675Y3057D01*
X675Y3057D01*
X676Y3057D01*
X676Y3057D01*
X676Y3058D01*
X676Y3058D01*
X676Y3058D01*
X677Y3058D01*
X677Y3058D01*
X678Y3059D01*
X678Y3060D01*
X679Y3060D01*
X679Y3060D01*
X679Y3060D01*
X680Y3061D01*
X680Y3062D01*
X681Y3063D01*
X681Y3063D01*
X682Y3064D01*
X682Y3065D01*
X682Y3065D01*
X683Y3065D01*
X683Y3065D01*
Y3065D01*
X688Y3073D01*
X694D01*
X687Y3063D01*
D02*
G37*
G36*
X710Y3074D02*
X712Y3074D01*
X713Y3074D01*
X714Y3073D01*
X714Y3073D01*
X715Y3073D01*
X716Y3072D01*
X717Y3072D01*
X717Y3071D01*
X718Y3071D01*
X718Y3070D01*
X719Y3070D01*
X719Y3070D01*
X719Y3070D01*
X719Y3069D01*
X719Y3069D01*
X720Y3069D01*
X720Y3068D01*
X721Y3067D01*
X721Y3066D01*
X722Y3065D01*
X722Y3063D01*
X722Y3063D01*
X722Y3062D01*
X722Y3062D01*
X722Y3061D01*
X722Y3061D01*
Y3061D01*
Y3060D01*
Y3060D01*
X722Y3059D01*
X722Y3059D01*
X722Y3058D01*
X722Y3057D01*
X722Y3056D01*
X721Y3055D01*
X721Y3055D01*
X721Y3054D01*
X720Y3053D01*
X720Y3053D01*
X720Y3052D01*
X719Y3052D01*
X719Y3052D01*
X719Y3052D01*
X719Y3052D01*
X719Y3051D01*
X718Y3051D01*
X718Y3050D01*
X717Y3050D01*
X716Y3049D01*
X715Y3049D01*
X715Y3049D01*
X713Y3048D01*
X713Y3048D01*
X712Y3048D01*
X712Y3048D01*
X711Y3048D01*
X711Y3048D01*
X710D01*
X709Y3048D01*
X708Y3048D01*
X706Y3049D01*
X705Y3049D01*
X704Y3050D01*
X704Y3050D01*
X704Y3050D01*
X703Y3050D01*
X703Y3050D01*
X703Y3050D01*
X703Y3050D01*
X705Y3040D01*
X721D01*
Y3036D01*
X701D01*
X698Y3055D01*
X702Y3056D01*
X703Y3055D01*
X703Y3055D01*
X704Y3054D01*
X704Y3054D01*
X704Y3054D01*
X705Y3053D01*
X705Y3053D01*
X705Y3053D01*
X706Y3053D01*
X706Y3053D01*
X707Y3052D01*
X708Y3052D01*
X708Y3052D01*
X709Y3052D01*
X710D01*
X711Y3052D01*
X712Y3053D01*
X713Y3053D01*
X714Y3053D01*
X714Y3054D01*
X715Y3054D01*
X715Y3054D01*
X715Y3054D01*
Y3055D01*
X716Y3055D01*
X716Y3056D01*
X717Y3058D01*
X717Y3059D01*
X717Y3059D01*
X717Y3060D01*
Y3060D01*
X717Y3060D01*
Y3061D01*
Y3061D01*
Y3061D01*
Y3062D01*
X717Y3062D01*
X717Y3064D01*
X717Y3065D01*
X716Y3066D01*
X716Y3067D01*
X715Y3067D01*
X715Y3067D01*
X715Y3068D01*
X715Y3068D01*
X715Y3068D01*
X715Y3068D01*
X714Y3068D01*
X713Y3069D01*
X712Y3070D01*
X711Y3070D01*
X710Y3070D01*
X710Y3070D01*
X710Y3070D01*
X709D01*
X708Y3070D01*
X707Y3070D01*
X706Y3070D01*
X706Y3069D01*
X705Y3069D01*
X705Y3069D01*
X704Y3068D01*
X704Y3068D01*
X704Y3068D01*
X703Y3067D01*
X703Y3066D01*
X702Y3065D01*
X702Y3064D01*
X702Y3064D01*
X702Y3063D01*
X702Y3063D01*
Y3063D01*
Y3063D01*
X697Y3063D01*
X697Y3064D01*
X697Y3065D01*
X698Y3067D01*
X698Y3068D01*
X699Y3069D01*
X699Y3069D01*
X699Y3070D01*
X700Y3070D01*
X700Y3070D01*
X700Y3071D01*
X700Y3071D01*
X701Y3071D01*
X701Y3071D01*
X701Y3071D01*
X701Y3072D01*
X702Y3072D01*
X703Y3073D01*
X703Y3073D01*
X705Y3073D01*
X706Y3074D01*
X707Y3074D01*
X707Y3074D01*
X708Y3074D01*
X708Y3074D01*
X709Y3074D01*
X709D01*
X710Y3074D01*
D02*
G37*
G36*
X-520Y2447D02*
X-519Y2447D01*
X-518Y2447D01*
X-517Y2447D01*
X-516Y2446D01*
X-516Y2446D01*
X-515Y2446D01*
X-514Y2446D01*
X-514Y2445D01*
X-513Y2445D01*
X-513Y2445D01*
X-513Y2445D01*
X-512Y2444D01*
X-512Y2444D01*
X-512Y2444D01*
X-512Y2444D01*
X-511Y2444D01*
X-511Y2443D01*
X-510Y2442D01*
X-510Y2442D01*
X-509Y2440D01*
X-509Y2439D01*
X-509Y2438D01*
X-509Y2438D01*
X-509Y2437D01*
X-508Y2437D01*
X-508Y2436D01*
Y2436D01*
X-508Y2436D01*
Y2436D01*
X-513Y2435D01*
X-513Y2437D01*
X-513Y2438D01*
X-514Y2439D01*
X-514Y2440D01*
X-515Y2440D01*
X-515Y2441D01*
X-515Y2441D01*
X-515Y2441D01*
X-516Y2442D01*
X-517Y2442D01*
X-518Y2443D01*
X-519Y2443D01*
X-519Y2443D01*
X-520Y2443D01*
X-520Y2443D01*
X-521D01*
X-522Y2443D01*
X-523Y2443D01*
X-524Y2442D01*
X-525Y2442D01*
X-525Y2442D01*
X-526Y2442D01*
X-526Y2441D01*
X-526Y2441D01*
X-527Y2440D01*
X-527Y2440D01*
X-527Y2439D01*
X-528Y2438D01*
X-528Y2437D01*
X-528Y2437D01*
X-528Y2437D01*
Y2437D01*
Y2436D01*
X-528Y2435D01*
X-528Y2434D01*
X-527Y2433D01*
X-527Y2433D01*
X-526Y2432D01*
X-526Y2431D01*
X-526Y2431D01*
X-526Y2431D01*
X-526Y2431D01*
Y2431D01*
X-525Y2430D01*
X-525Y2430D01*
X-524Y2429D01*
X-523Y2428D01*
X-522Y2427D01*
X-521Y2426D01*
X-520Y2425D01*
X-519Y2424D01*
X-519Y2424D01*
X-518Y2423D01*
X-518Y2423D01*
X-518Y2423D01*
X-517Y2423D01*
X-517Y2423D01*
X-516Y2421D01*
X-515Y2420D01*
X-514Y2419D01*
X-513Y2419D01*
X-512Y2418D01*
X-511Y2417D01*
X-511Y2417D01*
X-511Y2417D01*
Y2417D01*
X-510Y2416D01*
X-510Y2415D01*
X-509Y2414D01*
X-509Y2413D01*
X-508Y2413D01*
X-508Y2412D01*
X-508Y2412D01*
X-508Y2412D01*
Y2412D01*
X-508Y2411D01*
X-508Y2411D01*
X-508Y2410D01*
X-507Y2410D01*
X-507Y2409D01*
Y2409D01*
Y2409D01*
Y2409D01*
X-533D01*
Y2413D01*
X-514D01*
X-515Y2414D01*
X-515Y2414D01*
X-515Y2415D01*
X-516Y2415D01*
X-516Y2415D01*
X-516Y2415D01*
X-516Y2416D01*
X-516Y2416D01*
X-517Y2416D01*
X-517Y2417D01*
X-518Y2418D01*
X-519Y2418D01*
X-520Y2419D01*
X-520Y2420D01*
X-521Y2420D01*
X-521Y2420D01*
X-521Y2420D01*
X-521Y2420D01*
X-521Y2420D01*
X-522Y2421D01*
X-523Y2422D01*
X-524Y2423D01*
X-525Y2423D01*
X-525Y2424D01*
X-526Y2424D01*
X-526Y2425D01*
X-527Y2425D01*
X-527Y2426D01*
X-528Y2426D01*
X-528Y2426D01*
X-528Y2427D01*
X-529Y2427D01*
X-529Y2427D01*
X-529Y2428D01*
X-530Y2429D01*
X-531Y2430D01*
X-531Y2430D01*
X-531Y2431D01*
X-532Y2431D01*
X-532Y2432D01*
X-532Y2432D01*
X-532Y2433D01*
X-532Y2433D01*
X-533Y2434D01*
X-533Y2435D01*
X-533Y2436D01*
X-533Y2436D01*
Y2436D01*
Y2436D01*
X-533Y2437D01*
X-533Y2438D01*
X-533Y2439D01*
X-532Y2439D01*
X-532Y2441D01*
X-531Y2442D01*
X-531Y2442D01*
X-531Y2443D01*
X-530Y2443D01*
X-530Y2443D01*
X-530Y2444D01*
X-530Y2444D01*
X-530Y2444D01*
X-530Y2444D01*
X-529Y2444D01*
X-528Y2445D01*
X-528Y2445D01*
X-527Y2446D01*
X-525Y2446D01*
X-524Y2447D01*
X-523Y2447D01*
X-523Y2447D01*
X-522Y2447D01*
X-522Y2447D01*
X-521Y2447D01*
X-521D01*
X-520Y2447D01*
D02*
G37*
G36*
X-486Y2447D02*
X-484Y2447D01*
X-483Y2447D01*
X-482Y2447D01*
X-481Y2446D01*
X-481Y2446D01*
X-480Y2446D01*
X-480Y2446D01*
X-479Y2446D01*
X-479Y2445D01*
X-479Y2445D01*
X-479Y2445D01*
X-479Y2445D01*
X-477Y2444D01*
X-476Y2443D01*
X-475Y2442D01*
X-474Y2441D01*
X-473Y2440D01*
X-473Y2439D01*
X-473Y2439D01*
X-472Y2439D01*
X-472Y2439D01*
X-472Y2438D01*
X-472Y2438D01*
X-471Y2437D01*
X-471Y2435D01*
X-470Y2433D01*
X-470Y2431D01*
X-470Y2431D01*
X-470Y2430D01*
X-470Y2429D01*
Y2429D01*
X-470Y2429D01*
Y2428D01*
Y2428D01*
Y2428D01*
X-470Y2426D01*
X-470Y2424D01*
X-471Y2422D01*
X-471Y2421D01*
X-471Y2421D01*
X-471Y2420D01*
X-471Y2419D01*
X-471Y2419D01*
X-472Y2418D01*
X-472Y2418D01*
X-472Y2418D01*
X-472Y2418D01*
Y2418D01*
X-473Y2416D01*
X-474Y2414D01*
X-475Y2413D01*
X-475Y2413D01*
X-476Y2412D01*
X-476Y2412D01*
X-476Y2411D01*
X-477Y2411D01*
X-477Y2411D01*
X-477Y2411D01*
X-478Y2410D01*
X-478Y2410D01*
X-478Y2410D01*
X-479Y2410D01*
X-479Y2409D01*
X-481Y2409D01*
X-483Y2408D01*
X-484Y2408D01*
X-485Y2408D01*
X-486Y2408D01*
X-486Y2408D01*
X-487D01*
X-487Y2408D01*
X-488D01*
X-489Y2408D01*
X-490Y2408D01*
X-491Y2408D01*
X-492Y2408D01*
X-493Y2409D01*
X-494Y2409D01*
X-494Y2409D01*
X-495Y2409D01*
X-496Y2410D01*
X-496Y2410D01*
X-497Y2410D01*
X-497Y2411D01*
X-498Y2411D01*
X-498Y2411D01*
X-498Y2411D01*
X-498Y2411D01*
X-499Y2412D01*
X-499Y2412D01*
X-500Y2413D01*
X-501Y2414D01*
X-502Y2416D01*
X-502Y2417D01*
X-503Y2418D01*
X-503Y2418D01*
X-503Y2419D01*
X-503Y2420D01*
X-504Y2420D01*
X-504Y2420D01*
X-504Y2421D01*
Y2421D01*
X-499Y2422D01*
X-498Y2421D01*
X-498Y2420D01*
X-498Y2419D01*
X-498Y2419D01*
X-497Y2418D01*
X-497Y2417D01*
X-497Y2417D01*
X-496Y2416D01*
X-496Y2416D01*
X-496Y2416D01*
X-495Y2415D01*
X-495Y2415D01*
X-495Y2415D01*
X-495Y2415D01*
X-495Y2415D01*
X-495Y2415D01*
X-494Y2414D01*
X-493Y2414D01*
X-492Y2413D01*
X-491Y2413D01*
X-490Y2412D01*
X-489Y2412D01*
X-489Y2412D01*
X-488D01*
X-488Y2412D01*
X-487D01*
X-486Y2412D01*
X-485Y2412D01*
X-484Y2413D01*
X-483Y2413D01*
X-482Y2413D01*
X-482Y2414D01*
X-481Y2414D01*
X-481Y2414D01*
X-481Y2414D01*
X-481Y2414D01*
X-481D01*
X-480Y2415D01*
X-479Y2416D01*
X-478Y2416D01*
X-478Y2417D01*
X-477Y2418D01*
X-477Y2419D01*
X-477Y2419D01*
X-477Y2419D01*
X-476Y2419D01*
Y2419D01*
X-476Y2421D01*
X-476Y2422D01*
X-475Y2424D01*
X-475Y2425D01*
X-475Y2426D01*
X-475Y2426D01*
Y2427D01*
X-475Y2427D01*
Y2427D01*
Y2428D01*
Y2428D01*
Y2428D01*
X-475Y2429D01*
X-475Y2431D01*
X-475Y2432D01*
X-476Y2433D01*
X-476Y2434D01*
X-476Y2434D01*
X-476Y2435D01*
X-476Y2435D01*
X-476Y2435D01*
X-476Y2435D01*
Y2435D01*
X-477Y2437D01*
X-477Y2438D01*
X-478Y2439D01*
X-479Y2440D01*
X-479Y2440D01*
X-480Y2441D01*
X-480Y2441D01*
X-480Y2441D01*
X-480D01*
X-482Y2442D01*
X-483Y2442D01*
X-484Y2443D01*
X-485Y2443D01*
X-486Y2443D01*
X-487Y2443D01*
X-487D01*
X-487Y2443D01*
X-488D01*
X-489Y2443D01*
X-490Y2443D01*
X-492Y2443D01*
X-492Y2442D01*
X-493Y2442D01*
X-494Y2442D01*
X-494Y2441D01*
X-494Y2441D01*
X-495Y2440D01*
X-496Y2439D01*
X-497Y2438D01*
X-497Y2437D01*
X-498Y2437D01*
X-498Y2436D01*
X-498Y2436D01*
X-498Y2436D01*
X-498Y2435D01*
X-498Y2435D01*
Y2435D01*
X-503Y2436D01*
X-503Y2437D01*
X-502Y2438D01*
X-502Y2439D01*
X-502Y2440D01*
X-501Y2441D01*
X-501Y2441D01*
X-500Y2442D01*
X-500Y2442D01*
X-499Y2443D01*
X-499Y2443D01*
X-499Y2444D01*
X-498Y2444D01*
X-498Y2444D01*
X-498Y2444D01*
X-498Y2444D01*
X-498Y2445D01*
X-497Y2445D01*
X-496Y2446D01*
X-495Y2446D01*
X-494Y2446D01*
X-493Y2447D01*
X-491Y2447D01*
X-491Y2447D01*
X-490Y2447D01*
X-489Y2447D01*
X-489Y2447D01*
X-489Y2447D01*
X-488D01*
X-486Y2447D01*
D02*
G37*
G36*
X-522Y2628D02*
X-522Y2627D01*
X-521Y2627D01*
X-520Y2626D01*
X-520Y2625D01*
X-519Y2625D01*
X-519Y2624D01*
X-519Y2624D01*
X-519Y2624D01*
X-519Y2624D01*
X-517Y2623D01*
X-516Y2622D01*
X-515Y2622D01*
X-514Y2621D01*
X-513Y2620D01*
X-513Y2620D01*
X-512Y2620D01*
X-512Y2620D01*
X-512Y2620D01*
X-512Y2620D01*
X-512D01*
Y2615D01*
X-513Y2615D01*
X-513Y2616D01*
X-514Y2616D01*
X-515Y2617D01*
X-516Y2617D01*
X-516Y2617D01*
X-517Y2617D01*
X-517Y2617D01*
X-517D01*
X-518Y2618D01*
X-519Y2619D01*
X-519Y2619D01*
X-520Y2620D01*
X-520Y2620D01*
X-521Y2620D01*
X-521Y2621D01*
X-521Y2621D01*
Y2591D01*
X-526D01*
Y2629D01*
X-523D01*
X-522Y2628D01*
D02*
G37*
G36*
X-486Y2630D02*
X-484Y2629D01*
X-483Y2629D01*
X-482Y2629D01*
X-481Y2629D01*
X-481Y2628D01*
X-480Y2628D01*
X-480Y2628D01*
X-479Y2628D01*
X-479Y2628D01*
X-479Y2628D01*
X-479Y2628D01*
X-479Y2627D01*
X-477Y2627D01*
X-476Y2625D01*
X-475Y2624D01*
X-474Y2623D01*
X-473Y2622D01*
X-473Y2622D01*
X-473Y2621D01*
X-472Y2621D01*
X-472Y2621D01*
X-472Y2621D01*
X-472Y2621D01*
X-471Y2619D01*
X-471Y2617D01*
X-470Y2615D01*
X-470Y2614D01*
X-470Y2613D01*
X-470Y2612D01*
X-470Y2612D01*
Y2611D01*
X-470Y2611D01*
Y2611D01*
Y2610D01*
Y2610D01*
X-470Y2608D01*
X-470Y2606D01*
X-471Y2605D01*
X-471Y2604D01*
X-471Y2603D01*
X-471Y2602D01*
X-471Y2602D01*
X-471Y2601D01*
X-472Y2601D01*
X-472Y2600D01*
X-472Y2600D01*
X-472Y2600D01*
Y2600D01*
X-473Y2598D01*
X-474Y2597D01*
X-475Y2596D01*
X-475Y2595D01*
X-476Y2595D01*
X-476Y2594D01*
X-476Y2594D01*
X-477Y2593D01*
X-477Y2593D01*
X-477Y2593D01*
X-478Y2593D01*
X-478Y2593D01*
X-478Y2593D01*
X-479Y2592D01*
X-479Y2592D01*
X-481Y2591D01*
X-483Y2591D01*
X-484Y2590D01*
X-485Y2590D01*
X-486Y2590D01*
X-486Y2590D01*
X-487D01*
X-487Y2590D01*
X-488D01*
X-489Y2590D01*
X-490Y2590D01*
X-491Y2590D01*
X-492Y2591D01*
X-493Y2591D01*
X-494Y2591D01*
X-494Y2591D01*
X-495Y2592D01*
X-496Y2592D01*
X-496Y2592D01*
X-497Y2593D01*
X-497Y2593D01*
X-498Y2593D01*
X-498Y2593D01*
X-498Y2593D01*
X-498Y2593D01*
X-499Y2594D01*
X-499Y2595D01*
X-500Y2596D01*
X-501Y2596D01*
X-502Y2598D01*
X-502Y2599D01*
X-503Y2600D01*
X-503Y2601D01*
X-503Y2601D01*
X-503Y2602D01*
X-504Y2602D01*
X-504Y2603D01*
X-504Y2603D01*
Y2603D01*
X-499Y2604D01*
X-498Y2603D01*
X-498Y2602D01*
X-498Y2602D01*
X-498Y2601D01*
X-497Y2600D01*
X-497Y2600D01*
X-497Y2599D01*
X-496Y2599D01*
X-496Y2598D01*
X-496Y2598D01*
X-495Y2598D01*
X-495Y2597D01*
X-495Y2597D01*
X-495Y2597D01*
X-495Y2597D01*
X-495Y2597D01*
X-494Y2596D01*
X-493Y2596D01*
X-492Y2596D01*
X-491Y2595D01*
X-490Y2595D01*
X-489Y2595D01*
X-489Y2595D01*
X-488D01*
X-488Y2594D01*
X-487D01*
X-486Y2595D01*
X-485Y2595D01*
X-484Y2595D01*
X-483Y2595D01*
X-482Y2596D01*
X-482Y2596D01*
X-481Y2596D01*
X-481Y2596D01*
X-481Y2596D01*
X-481Y2596D01*
X-481D01*
X-480Y2597D01*
X-479Y2598D01*
X-478Y2599D01*
X-478Y2600D01*
X-477Y2600D01*
X-477Y2601D01*
X-477Y2601D01*
X-477Y2602D01*
X-476Y2602D01*
Y2602D01*
X-476Y2603D01*
X-476Y2605D01*
X-475Y2606D01*
X-475Y2607D01*
X-475Y2608D01*
X-475Y2609D01*
Y2609D01*
X-475Y2609D01*
Y2610D01*
Y2610D01*
Y2610D01*
Y2610D01*
X-475Y2612D01*
X-475Y2613D01*
X-475Y2614D01*
X-476Y2615D01*
X-476Y2616D01*
X-476Y2617D01*
X-476Y2617D01*
X-476Y2617D01*
X-476Y2617D01*
X-476Y2618D01*
Y2618D01*
X-477Y2619D01*
X-477Y2620D01*
X-478Y2621D01*
X-479Y2622D01*
X-479Y2622D01*
X-480Y2623D01*
X-480Y2623D01*
X-480Y2623D01*
X-480D01*
X-482Y2624D01*
X-483Y2625D01*
X-484Y2625D01*
X-485Y2625D01*
X-486Y2625D01*
X-487Y2625D01*
X-487D01*
X-487Y2625D01*
X-488D01*
X-489Y2625D01*
X-490Y2625D01*
X-492Y2625D01*
X-492Y2625D01*
X-493Y2624D01*
X-494Y2624D01*
X-494Y2624D01*
X-494Y2624D01*
X-495Y2623D01*
X-496Y2622D01*
X-497Y2621D01*
X-497Y2620D01*
X-498Y2619D01*
X-498Y2618D01*
X-498Y2618D01*
X-498Y2618D01*
X-498Y2618D01*
X-498Y2617D01*
Y2617D01*
X-503Y2619D01*
X-503Y2620D01*
X-502Y2620D01*
X-502Y2621D01*
X-502Y2622D01*
X-501Y2623D01*
X-501Y2624D01*
X-500Y2624D01*
X-500Y2625D01*
X-499Y2625D01*
X-499Y2626D01*
X-499Y2626D01*
X-498Y2626D01*
X-498Y2627D01*
X-498Y2627D01*
X-498Y2627D01*
X-498Y2627D01*
X-497Y2627D01*
X-496Y2628D01*
X-495Y2628D01*
X-494Y2629D01*
X-493Y2629D01*
X-491Y2629D01*
X-491Y2630D01*
X-490Y2630D01*
X-489Y2630D01*
X-489Y2630D01*
X-489Y2630D01*
X-488D01*
X-486Y2630D01*
D02*
G37*
%LPC*%
G36*
X165Y3176D02*
X165D01*
X165D01*
X165D01*
X163Y3176D01*
X162Y3175D01*
X161Y3175D01*
X160Y3175D01*
X159Y3174D01*
X158Y3174D01*
X158Y3174D01*
X158Y3174D01*
X158D01*
X158Y3173D01*
X157Y3173D01*
X157Y3172D01*
X156Y3171D01*
X156Y3170D01*
X156Y3170D01*
X156Y3169D01*
X156Y3169D01*
Y3168D01*
X156Y3168D01*
X156Y3167D01*
X156Y3166D01*
X156Y3166D01*
X156Y3165D01*
X157Y3165D01*
X157Y3165D01*
X157Y3165D01*
X157Y3164D01*
X158Y3163D01*
X158Y3163D01*
X159Y3162D01*
X159Y3162D01*
X160Y3162D01*
X160Y3162D01*
X160Y3162D01*
X161Y3161D01*
X162Y3161D01*
X163Y3161D01*
X163Y3161D01*
X164Y3161D01*
X164Y3161D01*
X165D01*
X165D01*
X166Y3161D01*
X167Y3161D01*
X168Y3161D01*
X169Y3162D01*
X170Y3162D01*
X170Y3163D01*
X171Y3163D01*
X171Y3163D01*
X172Y3164D01*
X172Y3165D01*
X173Y3166D01*
X173Y3166D01*
X173Y3167D01*
X173Y3168D01*
X173Y3168D01*
Y3168D01*
X173Y3169D01*
X173Y3171D01*
X172Y3171D01*
X172Y3172D01*
X172Y3173D01*
X171Y3173D01*
X171Y3174D01*
X171Y3174D01*
X170Y3174D01*
X169Y3175D01*
X168Y3175D01*
X167Y3176D01*
X166Y3176D01*
X166Y3176D01*
X165D01*
X165Y3176D01*
D02*
G37*
G36*
X180Y3146D02*
X180D01*
X179D01*
X179D01*
X178Y3146D01*
X177Y3145D01*
X176Y3145D01*
X176Y3145D01*
X175Y3144D01*
X175Y3144D01*
X174Y3144D01*
X174Y3144D01*
X174Y3143D01*
X174Y3143D01*
X173Y3142D01*
X173Y3141D01*
X173Y3139D01*
X173Y3138D01*
X173Y3138D01*
Y3137D01*
X173Y3137D01*
Y3127D01*
X186D01*
Y3138D01*
X186Y3139D01*
X186Y3140D01*
X186Y3140D01*
X186Y3141D01*
X186Y3141D01*
X186Y3141D01*
Y3141D01*
X186Y3142D01*
X185Y3143D01*
X185Y3143D01*
X184Y3144D01*
X184Y3144D01*
X184Y3144D01*
X184Y3144D01*
X184Y3145D01*
X183Y3145D01*
X182Y3145D01*
X181Y3145D01*
X181Y3146D01*
X180Y3146D01*
X180Y3146D01*
D02*
G37*
G36*
X-646Y3247D02*
X-646D01*
X-646D01*
X-646D01*
X-647Y3247D01*
X-648Y3247D01*
X-649Y3247D01*
X-650Y3246D01*
X-650Y3246D01*
X-651Y3246D01*
X-651Y3245D01*
X-651Y3245D01*
X-652Y3245D01*
X-652Y3244D01*
X-652Y3243D01*
X-653Y3242D01*
X-653Y3241D01*
X-653Y3240D01*
X-653Y3239D01*
Y3239D01*
X-653Y3239D01*
Y3228D01*
X-639D01*
Y3239D01*
X-639Y3240D01*
X-639Y3241D01*
X-639Y3242D01*
X-640Y3242D01*
X-640Y3243D01*
X-640Y3243D01*
Y3243D01*
X-640Y3244D01*
X-640Y3244D01*
X-641Y3245D01*
X-641Y3245D01*
X-641Y3246D01*
X-642Y3246D01*
X-642Y3246D01*
X-642Y3246D01*
X-643Y3247D01*
X-643Y3247D01*
X-644Y3247D01*
X-645Y3247D01*
X-645Y3247D01*
X-646Y3247D01*
D02*
G37*
G36*
Y3019D02*
X-646D01*
X-646D01*
X-646D01*
X-647Y3019D01*
X-648Y3018D01*
X-649Y3018D01*
X-650Y3018D01*
X-650Y3017D01*
X-651Y3017D01*
X-651Y3017D01*
X-651Y3017D01*
X-652Y3016D01*
X-652Y3016D01*
X-652Y3015D01*
X-653Y3014D01*
X-653Y3012D01*
X-653Y3011D01*
X-653Y3011D01*
Y3010D01*
X-653Y3010D01*
Y3000D01*
X-639D01*
Y3011D01*
X-639Y3012D01*
X-639Y3013D01*
X-639Y3013D01*
X-640Y3014D01*
X-640Y3014D01*
X-640Y3014D01*
Y3014D01*
X-640Y3015D01*
X-640Y3016D01*
X-641Y3016D01*
X-641Y3017D01*
X-641Y3017D01*
X-642Y3017D01*
X-642Y3017D01*
X-642Y3018D01*
X-643Y3018D01*
X-643Y3018D01*
X-644Y3018D01*
X-645Y3019D01*
X-645Y3019D01*
X-646Y3019D01*
D02*
G37*
G36*
X-761Y2892D02*
X-773D01*
X-775Y2891D01*
X-776Y2891D01*
X-777Y2891D01*
X-778Y2891D01*
X-779Y2890D01*
X-779Y2890D01*
X-780Y2890D01*
X-780Y2890D01*
X-780Y2889D01*
X-781Y2888D01*
X-781Y2888D01*
X-781Y2887D01*
X-782Y2886D01*
X-782Y2886D01*
X-782Y2885D01*
Y2885D01*
Y2885D01*
X-782Y2885D01*
X-781Y2884D01*
X-781Y2883D01*
X-781Y2883D01*
X-781Y2882D01*
X-781Y2882D01*
X-781Y2882D01*
X-781Y2882D01*
X-780Y2881D01*
X-780Y2881D01*
X-779Y2880D01*
X-779Y2880D01*
X-778Y2880D01*
X-778Y2880D01*
X-778Y2880D01*
X-778Y2880D01*
X-777Y2879D01*
X-776Y2879D01*
X-775Y2879D01*
X-774Y2879D01*
X-773Y2879D01*
X-773Y2879D01*
X-761D01*
Y2892D01*
D02*
G37*
G36*
X180Y2930D02*
X180D01*
X179D01*
X179D01*
X178Y2930D01*
X177Y2930D01*
X176Y2929D01*
X176Y2929D01*
X175Y2928D01*
X175Y2928D01*
X174Y2928D01*
X174Y2928D01*
X174Y2927D01*
X174Y2927D01*
X173Y2926D01*
X173Y2925D01*
X173Y2923D01*
X173Y2922D01*
X173Y2922D01*
Y2922D01*
X173Y2921D01*
Y2911D01*
X186D01*
Y2922D01*
X186Y2923D01*
X186Y2924D01*
X186Y2924D01*
X186Y2925D01*
X186Y2925D01*
X186Y2925D01*
Y2925D01*
X186Y2926D01*
X185Y2927D01*
X185Y2927D01*
X184Y2928D01*
X184Y2928D01*
X184Y2928D01*
X184Y2929D01*
X184Y2929D01*
X183Y2929D01*
X182Y2929D01*
X181Y2930D01*
X181Y2930D01*
X180Y2930D01*
X180Y2930D01*
D02*
G37*
G36*
X323Y3044D02*
X306D01*
Y3031D01*
X323Y3044D01*
D02*
G37*
G36*
X320Y3019D02*
X319D01*
X319D01*
X319D01*
X318Y3019D01*
X317Y3018D01*
X316Y3018D01*
X315Y3018D01*
X315Y3017D01*
X314Y3017D01*
X314Y3017D01*
X314Y3017D01*
X314Y3016D01*
X313Y3016D01*
X313Y3015D01*
X313Y3014D01*
X312Y3012D01*
X312Y3011D01*
X312Y3011D01*
Y3010D01*
X312Y3010D01*
Y3000D01*
X326D01*
Y3011D01*
X326Y3012D01*
X326Y3013D01*
X326Y3013D01*
X326Y3014D01*
X326Y3014D01*
X325Y3014D01*
Y3014D01*
X325Y3015D01*
X325Y3016D01*
X325Y3016D01*
X324Y3017D01*
X324Y3017D01*
X323Y3017D01*
X323Y3017D01*
X323Y3018D01*
X323Y3018D01*
X322Y3018D01*
X321Y3018D01*
X321Y3019D01*
X320Y3019D01*
X320Y3019D01*
D02*
G37*
G36*
X145Y2763D02*
X128D01*
Y2751D01*
X145Y2763D01*
D02*
G37*
G36*
X142Y2736D02*
X142D01*
X142D01*
X141Y2736D01*
X141Y2736D01*
X140Y2736D01*
X140Y2736D01*
X139Y2736D01*
X139Y2735D01*
X139Y2735D01*
X139Y2735D01*
X138Y2735D01*
X138Y2734D01*
X137Y2734D01*
X137Y2733D01*
X137Y2733D01*
X137Y2733D01*
X136Y2732D01*
X136Y2732D01*
X136Y2731D01*
X136Y2731D01*
X136Y2730D01*
X136Y2729D01*
X136Y2728D01*
X136Y2727D01*
Y2716D01*
X148D01*
Y2728D01*
X148Y2730D01*
X148Y2731D01*
X148Y2732D01*
X147Y2733D01*
X147Y2733D01*
X147Y2734D01*
X147Y2734D01*
X147Y2734D01*
X146Y2735D01*
X145Y2735D01*
X144Y2736D01*
X144Y2736D01*
X143Y2736D01*
X143Y2736D01*
X142Y2736D01*
D02*
G37*
G36*
X282D02*
X282D01*
X282D01*
X281Y2736D01*
X280Y2736D01*
X280Y2736D01*
X279Y2736D01*
X279Y2736D01*
X279Y2735D01*
X278Y2735D01*
X278Y2735D01*
X278Y2735D01*
X277Y2734D01*
X277Y2734D01*
X277Y2733D01*
X276Y2733D01*
X276Y2733D01*
X276Y2732D01*
X276Y2732D01*
X276Y2731D01*
X276Y2731D01*
X276Y2730D01*
X275Y2729D01*
X275Y2728D01*
X275Y2727D01*
Y2716D01*
X288D01*
Y2728D01*
X288Y2730D01*
X288Y2731D01*
X288Y2732D01*
X287Y2733D01*
X287Y2733D01*
X287Y2734D01*
X286Y2734D01*
X286Y2734D01*
X286Y2735D01*
X285Y2735D01*
X284Y2736D01*
X283Y2736D01*
X283Y2736D01*
X282Y2736D01*
X282Y2736D01*
D02*
G37*
G36*
X-633Y2816D02*
X-633D01*
X-633D01*
X-633D01*
X-635Y2815D01*
X-636Y2815D01*
X-636Y2815D01*
X-637Y2814D01*
X-638Y2814D01*
X-638Y2814D01*
X-638Y2814D01*
X-638Y2813D01*
X-639Y2813D01*
X-639Y2813D01*
X-640Y2811D01*
X-640Y2810D01*
X-640Y2809D01*
X-640Y2808D01*
X-640Y2808D01*
Y2807D01*
X-640Y2807D01*
Y2797D01*
X-627D01*
Y2808D01*
X-627Y2809D01*
X-627Y2809D01*
X-627Y2810D01*
X-627Y2810D01*
X-627Y2811D01*
X-627Y2811D01*
Y2811D01*
X-627Y2812D01*
X-628Y2812D01*
X-628Y2813D01*
X-628Y2813D01*
X-629Y2814D01*
X-629Y2814D01*
X-629Y2814D01*
X-629Y2814D01*
X-630Y2815D01*
X-631Y2815D01*
X-631Y2815D01*
X-632Y2815D01*
X-632Y2815D01*
X-633Y2816D01*
D02*
G37*
G36*
X-754Y3107D02*
X-766D01*
X-768Y3107D01*
X-769Y3107D01*
X-770Y3107D01*
X-771Y3107D01*
X-772Y3106D01*
X-772Y3106D01*
X-773Y3106D01*
X-773Y3106D01*
X-773Y3105D01*
X-774Y3104D01*
X-774Y3103D01*
X-774Y3103D01*
X-775Y3102D01*
X-775Y3102D01*
X-775Y3101D01*
Y3101D01*
Y3101D01*
X-775Y3101D01*
X-775Y3100D01*
X-774Y3099D01*
X-774Y3099D01*
X-774Y3098D01*
X-774Y3098D01*
X-774Y3098D01*
X-774Y3098D01*
X-773Y3097D01*
X-773Y3097D01*
X-772Y3096D01*
X-772Y3096D01*
X-771Y3096D01*
X-771Y3096D01*
X-771Y3095D01*
X-771Y3095D01*
X-770Y3095D01*
X-769Y3095D01*
X-768Y3095D01*
X-767Y3095D01*
X-766Y3095D01*
X-766Y3095D01*
X-754D01*
Y3107D01*
D02*
G37*
G36*
X-831Y3104D02*
Y3087D01*
X-819D01*
X-831Y3104D01*
D02*
G37*
G36*
X692Y2041D02*
X680D01*
X679Y2041D01*
X677Y2040D01*
X676Y2040D01*
X676Y2040D01*
X675Y2039D01*
X674Y2039D01*
X674Y2039D01*
X674Y2039D01*
X673Y2038D01*
X673Y2037D01*
X672Y2037D01*
X672Y2036D01*
X672Y2035D01*
X672Y2035D01*
X672Y2035D01*
Y2034D01*
Y2034D01*
X672Y2034D01*
X672Y2033D01*
X672Y2033D01*
X672Y2032D01*
X673Y2032D01*
X673Y2031D01*
X673Y2031D01*
X673Y2031D01*
X673Y2030D01*
X674Y2030D01*
X674Y2030D01*
X675Y2029D01*
X675Y2029D01*
X676Y2029D01*
X676Y2029D01*
X676Y2029D01*
X677Y2028D01*
X678Y2028D01*
X679Y2028D01*
X679Y2028D01*
X680Y2028D01*
X681Y2028D01*
X692D01*
Y2041D01*
D02*
G37*
G36*
X718Y2523D02*
X706D01*
X704Y2523D01*
X703Y2523D01*
X702Y2523D01*
X701Y2522D01*
X700Y2522D01*
X700Y2522D01*
X699Y2522D01*
X699Y2521D01*
X699Y2521D01*
X698Y2520D01*
X698Y2519D01*
X698Y2519D01*
X697Y2518D01*
X697Y2517D01*
X697Y2517D01*
Y2517D01*
Y2517D01*
X697Y2516D01*
X698Y2516D01*
X698Y2515D01*
X698Y2515D01*
X698Y2514D01*
X698Y2514D01*
X698Y2514D01*
X698Y2514D01*
X699Y2513D01*
X699Y2513D01*
X700Y2512D01*
X700Y2512D01*
X701Y2512D01*
X701Y2511D01*
X701Y2511D01*
X701Y2511D01*
X702Y2511D01*
X703Y2511D01*
X704Y2511D01*
X705Y2511D01*
X706Y2511D01*
X706Y2511D01*
X718D01*
Y2523D01*
D02*
G37*
G36*
X-981Y3306D02*
X-992D01*
Y3293D01*
X-980D01*
X-979Y3293D01*
X-978Y3294D01*
X-976Y3294D01*
X-976Y3294D01*
X-975Y3295D01*
X-974Y3295D01*
X-974Y3295D01*
X-974Y3295D01*
X-973Y3296D01*
X-973Y3297D01*
X-973Y3297D01*
X-972Y3298D01*
X-972Y3299D01*
X-972Y3299D01*
X-972Y3299D01*
Y3300D01*
Y3300D01*
X-972Y3300D01*
X-972Y3301D01*
X-972Y3301D01*
X-973Y3302D01*
X-973Y3302D01*
X-973Y3303D01*
X-973Y3303D01*
X-973Y3303D01*
X-974Y3304D01*
X-974Y3304D01*
X-975Y3304D01*
X-975Y3305D01*
X-975Y3305D01*
X-976Y3305D01*
X-976Y3305D01*
X-976Y3305D01*
X-977Y3306D01*
X-978Y3306D01*
X-979Y3306D01*
X-980Y3306D01*
X-980Y3306D01*
X-981Y3306D01*
D02*
G37*
G36*
X677Y3052D02*
X665D01*
Y3039D01*
X677D01*
X679Y3039D01*
X680Y3040D01*
X681Y3040D01*
X682Y3040D01*
X683Y3041D01*
X683Y3041D01*
X684Y3041D01*
X684Y3041D01*
X684Y3042D01*
X685Y3043D01*
X685Y3043D01*
X685Y3044D01*
X686Y3045D01*
X686Y3045D01*
X686Y3045D01*
Y3046D01*
Y3046D01*
X686Y3046D01*
X686Y3047D01*
X685Y3047D01*
X685Y3048D01*
X685Y3048D01*
X685Y3049D01*
X685Y3049D01*
X685Y3049D01*
X684Y3050D01*
X684Y3050D01*
X683Y3050D01*
X683Y3051D01*
X682Y3051D01*
X682Y3051D01*
X682Y3051D01*
X682Y3051D01*
X681Y3052D01*
X680Y3052D01*
X679Y3052D01*
X678Y3052D01*
X677Y3052D01*
X677Y3052D01*
D02*
G37*
%LPD*%
M02*
