G04*
G04 #@! TF.GenerationSoftware,Altium Limited,Altium Designer,23.10.1 (27)*
G04*
G04 Layer_Color=32768*
%FSLAX42Y42*%
%MOMM*%
G71*
G04*
G04 #@! TF.SameCoordinates,D788F153-7B32-47A3-9728-DC68925F5BF0*
G04*
G04*
G04 #@! TF.FilePolarity,Positive*
G04*
G01*
G75*
%ADD11C,0.20*%
%ADD96C,0.10*%
%ADD97C,0.05*%
D11*
X-365Y-5065D02*
X1975D01*
X-365D02*
Y-3851D01*
X1975D01*
Y-5065D02*
Y-3851D01*
X-1550Y-3604D02*
Y4146D01*
X560D01*
Y-3604D02*
Y4146D01*
X-1550Y-3604D02*
X560D01*
D96*
X1296Y-1981D02*
X1396D01*
X1346Y-2031D02*
Y-1931D01*
X1575Y623D02*
Y723D01*
X1525Y673D02*
X1625D01*
X1575Y2800D02*
Y2900D01*
X1525Y2850D02*
X1625D01*
X1344Y-721D02*
Y-671D01*
X1319Y-696D02*
X1369D01*
X1346Y-165D02*
Y-115D01*
X1321Y-140D02*
X1371D01*
X1344Y-430D02*
Y-380D01*
X1319Y-405D02*
X1369D01*
D97*
X1521Y-2242D02*
Y-1720D01*
X1171Y-2242D02*
Y-1720D01*
X1521D01*
X1171Y-2242D02*
X1521D01*
X1055Y395D02*
Y951D01*
Y395D02*
X1225D01*
Y270D02*
Y395D01*
Y270D02*
X1925D01*
Y1076D01*
X1055Y951D02*
X1225D01*
Y1076D01*
X1925D01*
X1658Y-726D02*
Y-671D01*
X1630Y-699D02*
X1685D01*
X1573Y-743D02*
X1743D01*
X1573Y-653D02*
X1743D01*
Y-743D02*
Y-653D01*
X1573Y-743D02*
Y-653D01*
X1651Y-167D02*
Y-112D01*
X1624Y-140D02*
X1678D01*
X1566Y-185D02*
X1736D01*
X1566Y-95D02*
X1736D01*
Y-185D02*
Y-95D01*
X1566Y-185D02*
Y-95D01*
X1658Y-421D02*
Y-366D01*
X1630Y-394D02*
X1685D01*
X1573Y-439D02*
X1743D01*
X1573Y-349D02*
X1743D01*
Y-439D02*
Y-349D01*
X1573Y-439D02*
Y-349D01*
X1055Y2572D02*
Y3128D01*
Y2572D02*
X1225D01*
Y2447D02*
Y2572D01*
Y2447D02*
X1925D01*
Y3253D01*
X1055Y3128D02*
X1225D01*
Y3253D01*
X1925D01*
X1217Y1380D02*
Y2151D01*
Y1380D02*
X1755D01*
Y2151D01*
X1217D02*
X1755D01*
X1469Y-746D02*
Y-646D01*
X1219Y-746D02*
X1469D01*
X1219D02*
Y-646D01*
X1469D01*
X1471Y-190D02*
Y-90D01*
X1221Y-190D02*
X1471D01*
X1221D02*
Y-90D01*
X1471D01*
X1469Y-455D02*
Y-355D01*
X1219Y-455D02*
X1469D01*
X1219D02*
Y-355D01*
X1469D01*
M02*
