G04*
G04 #@! TF.GenerationSoftware,Altium Limited,Altium Designer,23.10.1 (27)*
G04*
G04 Layer_Color=255*
%FSLAX42Y42*%
%MOMM*%
G71*
G04*
G04 #@! TF.SameCoordinates,D788F153-7B32-47A3-9728-DC68925F5BF0*
G04*
G04*
G04 #@! TF.FilePolarity,Positive*
G04*
G01*
G75*
%ADD18R,7.45X3.00*%
G04:AMPARAMS|DCode=19|XSize=0.55mm|YSize=0.5mm|CornerRadius=0.06mm|HoleSize=0mm|Usage=FLASHONLY|Rotation=90.000|XOffset=0mm|YOffset=0mm|HoleType=Round|Shape=RoundedRectangle|*
%AMROUNDEDRECTD19*
21,1,0.55,0.38,0,0,90.0*
21,1,0.43,0.50,0,0,90.0*
1,1,0.13,0.19,0.21*
1,1,0.13,0.19,-0.21*
1,1,0.13,-0.19,-0.21*
1,1,0.13,-0.19,0.21*
%
%ADD19ROUNDEDRECTD19*%
%ADD20R,1.27X2.54*%
%ADD21R,3.43X1.65*%
%ADD22R,0.80X0.80*%
%ADD32R,2.02X2.02*%
%ADD33C,2.02*%
%ADD34C,3.55*%
%ADD35C,2.39*%
%ADD39C,0.60*%
%ADD41R,2.15X2.15*%
%ADD42C,2.15*%
%ADD43C,1.40*%
%ADD44C,5.00*%
%ADD45R,1.40X1.40*%
D18*
X1346Y-1295D02*
D03*
Y-2692D02*
D03*
D19*
X1703Y-699D02*
D03*
X1613D02*
D03*
X1696Y-140D02*
D03*
X1606D02*
D03*
X1703Y-394D02*
D03*
X1613D02*
D03*
D20*
X205Y-3988D02*
D03*
X505D02*
D03*
X805D02*
D03*
X1105D02*
D03*
X1405D02*
D03*
X205Y-4928D02*
D03*
X505D02*
D03*
X805D02*
D03*
X1105D02*
D03*
X1405D02*
D03*
D21*
X1794Y-4458D02*
D03*
X-183D02*
D03*
D22*
X1269Y-696D02*
D03*
X1419D02*
D03*
X1271Y-140D02*
D03*
X1421D02*
D03*
X1269Y-405D02*
D03*
X1419D02*
D03*
D32*
X-495Y-3340D02*
D03*
D33*
Y3882D02*
D03*
D34*
X-1295Y3031D02*
D03*
X305Y-2489D02*
D03*
D35*
Y3851D02*
D03*
D39*
X1041Y-140D02*
D03*
X1054Y-696D02*
D03*
Y-405D02*
D03*
D41*
X1435Y475D02*
D03*
X1435Y2652D02*
D03*
D42*
X1435Y871D02*
D03*
X1435Y3048D02*
D03*
D43*
X1359Y1765D02*
D03*
Y2019D02*
D03*
X1613Y1511D02*
D03*
Y1765D02*
D03*
X1359Y1511D02*
D03*
D44*
X-2223Y3962D02*
D03*
X-546Y-5169D02*
D03*
X1346Y-3302D02*
D03*
X1270Y4013D02*
D03*
D45*
X1613Y2019D02*
D03*
M02*
