G04*
G04 #@! TF.GenerationSoftware,Altium Limited,Altium Designer,23.10.1 (27)*
G04*
G04 Layer_Physical_Order=1*
G04 Layer_Color=255*
%FSLAX42Y42*%
%MOMM*%
G71*
G04*
G04 #@! TF.SameCoordinates,D788F153-7B32-47A3-9728-DC68925F5BF0*
G04*
G04*
G04 #@! TF.FilePolarity,Positive*
G04*
G01*
G75*
%ADD16C,0.25*%
%ADD18R,7.45X3.00*%
G04:AMPARAMS|DCode=19|XSize=0.55mm|YSize=0.5mm|CornerRadius=0.06mm|HoleSize=0mm|Usage=FLASHONLY|Rotation=90.000|XOffset=0mm|YOffset=0mm|HoleType=Round|Shape=RoundedRectangle|*
%AMROUNDEDRECTD19*
21,1,0.55,0.38,0,0,90.0*
21,1,0.43,0.50,0,0,90.0*
1,1,0.13,0.19,0.21*
1,1,0.13,0.19,-0.21*
1,1,0.13,-0.19,-0.21*
1,1,0.13,-0.19,0.21*
%
%ADD19ROUNDEDRECTD19*%
%ADD20R,1.27X2.54*%
%ADD21R,3.43X1.65*%
%ADD22R,0.80X0.80*%
%ADD32R,2.02X2.02*%
%ADD33C,2.02*%
%ADD34C,3.55*%
%ADD35C,2.39*%
%ADD39C,0.60*%
%ADD40C,0.99*%
%ADD41R,2.15X2.15*%
%ADD42C,2.15*%
%ADD43C,1.40*%
%ADD44C,5.00*%
%ADD45R,1.40X1.40*%
%ADD46C,0.50*%
%ADD47C,0.64*%
%ADD48C,1.27*%
%ADD49C,0.51*%
G36*
X1284Y4587D02*
X1290Y4579D01*
X2019Y3850D01*
Y3835D01*
Y-3416D01*
X2019Y-3416D01*
X2019Y-3417D01*
X2032Y-4498D01*
Y-5563D01*
X-914D01*
Y-4623D01*
X-916Y-4613D01*
X-921Y-4604D01*
X-1777Y-3749D01*
X-1764Y3287D01*
X-1764Y3287D01*
X-1764Y3287D01*
X-1765Y3292D01*
X-1766Y3297D01*
X-1766Y3297D01*
X-1766Y3297D01*
X-1769Y3301D01*
X-1772Y3306D01*
X-1772Y3306D01*
X-1772Y3306D01*
X-1873Y3407D01*
X-1882Y3413D01*
X-1892Y3415D01*
X-2365D01*
X-2664Y3652D01*
X-2667Y3654D01*
X-2670Y3656D01*
X-2671Y3656D01*
X-2673Y3657D01*
X-2676Y3657D01*
X-2680Y3658D01*
Y4597D01*
X1282D01*
X1284Y4587D01*
D02*
G37*
%LPC*%
G36*
X-479Y4008D02*
X-512D01*
X-544Y4000D01*
X-573Y3983D01*
X-596Y3960D01*
X-613Y3931D01*
X-622Y3899D01*
Y3865D01*
X-613Y3833D01*
X-596Y3804D01*
X-573Y3781D01*
X-544Y3764D01*
X-512Y3756D01*
X-479D01*
X-447Y3764D01*
X-418Y3781D01*
X-394Y3804D01*
X-378Y3833D01*
X-369Y3865D01*
Y3899D01*
X-378Y3931D01*
X-394Y3960D01*
X-418Y3983D01*
X-447Y4000D01*
X-479Y4008D01*
D02*
G37*
G36*
X324Y3996D02*
X286D01*
X249Y3986D01*
X216Y3967D01*
X189Y3940D01*
X170Y3907D01*
X160Y3870D01*
Y3832D01*
X170Y3795D01*
X189Y3762D01*
X216Y3735D01*
X249Y3716D01*
X286Y3706D01*
X324D01*
X361Y3716D01*
X394Y3735D01*
X421Y3762D01*
X440Y3795D01*
X450Y3832D01*
Y3870D01*
X440Y3907D01*
X421Y3940D01*
X394Y3967D01*
X361Y3986D01*
X324Y3996D01*
D02*
G37*
G36*
X761Y3848D02*
X738D01*
X715Y3842D01*
X695Y3830D01*
X678Y3814D01*
X666Y3794D01*
X660Y3771D01*
Y3747D01*
X666Y3725D01*
X678Y3705D01*
X695Y3688D01*
X715Y3676D01*
X738Y3670D01*
X761D01*
X784Y3676D01*
X804Y3688D01*
X820Y3705D01*
X832Y3725D01*
X838Y3747D01*
Y3771D01*
X832Y3794D01*
X820Y3814D01*
X804Y3830D01*
X784Y3842D01*
X761Y3848D01*
D02*
G37*
G36*
X-1080Y3505D02*
X-1104D01*
X-1127Y3499D01*
X-1147Y3487D01*
X-1163Y3471D01*
X-1175Y3451D01*
X-1181Y3428D01*
Y3405D01*
X-1175Y3382D01*
X-1163Y3362D01*
X-1147Y3345D01*
X-1127Y3333D01*
X-1104Y3327D01*
X-1080D01*
X-1058Y3333D01*
X-1038Y3345D01*
X-1021Y3362D01*
X-1009Y3382D01*
X-1003Y3405D01*
Y3428D01*
X-1009Y3451D01*
X-1021Y3471D01*
X-1038Y3487D01*
X-1058Y3499D01*
X-1080Y3505D01*
D02*
G37*
G36*
X-1275Y3234D02*
X-1315D01*
X-1354Y3226D01*
X-1391Y3211D01*
X-1425Y3189D01*
X-1453Y3160D01*
X-1475Y3127D01*
X-1490Y3090D01*
X-1498Y3051D01*
Y3011D01*
X-1490Y2972D01*
X-1475Y2935D01*
X-1453Y2902D01*
X-1425Y2873D01*
X-1391Y2851D01*
X-1354Y2836D01*
X-1315Y2828D01*
X-1275D01*
X-1236Y2836D01*
X-1199Y2851D01*
X-1166Y2873D01*
X-1138Y2902D01*
X-1115Y2935D01*
X-1100Y2972D01*
X-1092Y3011D01*
Y3051D01*
X-1100Y3090D01*
X-1115Y3127D01*
X-1138Y3160D01*
X-1166Y3189D01*
X-1199Y3211D01*
X-1236Y3226D01*
X-1275Y3234D01*
D02*
G37*
G36*
X-26Y2972D02*
X-50D01*
X-72Y2966D01*
X-93Y2954D01*
X-109Y2937D01*
X-121Y2917D01*
X-127Y2895D01*
Y2871D01*
X-121Y2849D01*
X-109Y2828D01*
X-93Y2812D01*
X-72Y2800D01*
X-50Y2794D01*
X-26D01*
X-4Y2800D01*
X16Y2812D01*
X33Y2828D01*
X45Y2849D01*
X51Y2871D01*
Y2895D01*
X45Y2917D01*
X33Y2937D01*
X16Y2954D01*
X-4Y2966D01*
X-26Y2972D01*
D02*
G37*
G36*
X-1080Y2858D02*
X-1104D01*
X-1127Y2851D01*
X-1147Y2840D01*
X-1163Y2823D01*
X-1175Y2803D01*
X-1181Y2780D01*
Y2757D01*
X-1175Y2734D01*
X-1163Y2714D01*
X-1147Y2697D01*
X-1127Y2686D01*
X-1104Y2680D01*
X-1080D01*
X-1058Y2686D01*
X-1038Y2697D01*
X-1021Y2714D01*
X-1009Y2734D01*
X-1003Y2757D01*
Y2780D01*
X-1009Y2803D01*
X-1021Y2823D01*
X-1038Y2840D01*
X-1058Y2851D01*
X-1080Y2858D01*
D02*
G37*
G36*
X-306Y3639D02*
X-329D01*
X-350Y3630D01*
X-366Y3614D01*
X-375Y3593D01*
Y3570D01*
X-367Y3550D01*
X-651D01*
X-666Y3547D01*
X-679Y3539D01*
X-851Y3367D01*
X-859Y3354D01*
X-862Y3339D01*
Y3242D01*
X-872Y3233D01*
X-881Y3212D01*
Y3189D01*
X-872Y3168D01*
X-856Y3152D01*
X-835Y3143D01*
X-812D01*
X-791Y3152D01*
X-775Y3168D01*
X-766Y3189D01*
Y3212D01*
X-775Y3233D01*
X-785Y3242D01*
Y3323D01*
X-635Y3473D01*
X-154D01*
X-158Y3469D01*
X-166Y3448D01*
Y3425D01*
X-158Y3404D01*
X-142Y3388D01*
X-121Y3379D01*
X-98D01*
X-77Y3388D01*
X-62Y3403D01*
X15D01*
X90Y3328D01*
X71Y3320D01*
X55Y3304D01*
X46Y3283D01*
Y3260D01*
X55Y3239D01*
X71Y3223D01*
X92Y3214D01*
X114D01*
X115Y3215D01*
X128Y3202D01*
X140Y3194D01*
X155Y3191D01*
X174D01*
X190Y3175D01*
Y2997D01*
X193Y2982D01*
X201Y2970D01*
X571Y2600D01*
Y1783D01*
X286Y2067D01*
Y2522D01*
X305Y2504D01*
Y2491D01*
X314Y2470D01*
X330Y2453D01*
X351Y2445D01*
X373D01*
X394Y2453D01*
X410Y2470D01*
X419Y2491D01*
Y2513D01*
X410Y2534D01*
X394Y2550D01*
X389Y2553D01*
X405D01*
X428Y2559D01*
X448Y2570D01*
X465Y2587D01*
X477Y2607D01*
X483Y2630D01*
Y2653D01*
X477Y2676D01*
X465Y2696D01*
X448Y2713D01*
X428Y2724D01*
X405Y2731D01*
X382D01*
X359Y2724D01*
X339Y2713D01*
X323Y2696D01*
X317Y2686D01*
X313Y2691D01*
X246Y2758D01*
X234Y2766D01*
X219Y2769D01*
X-236D01*
X-231Y2774D01*
X-222Y2795D01*
Y2818D01*
X-231Y2839D01*
X-247Y2855D01*
X-268Y2864D01*
X-291D01*
X-312Y2855D01*
X-328Y2839D01*
X-336Y2820D01*
X-423Y2906D01*
X-420Y2909D01*
X-411Y2930D01*
Y2953D01*
X-420Y2974D01*
X-436Y2990D01*
X-457Y2999D01*
X-480D01*
X-501Y2990D01*
X-517Y2974D01*
X-525Y2953D01*
Y2930D01*
X-525Y2929D01*
X-558Y2962D01*
Y3362D01*
X-548Y3371D01*
X-540Y3392D01*
Y3415D01*
X-548Y3436D01*
X-565Y3452D01*
X-586Y3461D01*
X-608D01*
X-629Y3452D01*
X-645Y3436D01*
X-654Y3415D01*
Y3392D01*
X-645Y3371D01*
X-636Y3362D01*
Y2946D01*
X-634Y2937D01*
X-703Y3006D01*
X-716Y3015D01*
X-731Y3018D01*
X-781D01*
X-790Y3027D01*
X-811Y3036D01*
X-834D01*
X-855Y3027D01*
X-871Y3011D01*
X-880Y2990D01*
Y2968D01*
X-871Y2946D01*
X-855Y2930D01*
X-834Y2922D01*
X-811D01*
X-790Y2930D01*
X-781Y2940D01*
X-747D01*
X-434Y2627D01*
X-421Y2618D01*
X-406Y2615D01*
X6D01*
X0Y2601D01*
Y2581D01*
X8Y2562D01*
X22Y2548D01*
X41Y2540D01*
X61D01*
X80Y2548D01*
X94Y2562D01*
X102Y2581D01*
Y2601D01*
X96Y2615D01*
X139D01*
Y2137D01*
X129Y2128D01*
X121Y2107D01*
Y2084D01*
X129Y2063D01*
X145Y2047D01*
X166Y2038D01*
X189D01*
X210Y2047D01*
X211Y2038D01*
X212Y2036D01*
X220Y2024D01*
X685Y1559D01*
Y-584D01*
X688Y-599D01*
X696Y-612D01*
X808Y-724D01*
X821Y-732D01*
X836Y-735D01*
X1015D01*
X1023Y-743D01*
X1043Y-751D01*
X1065D01*
X1085Y-743D01*
X1094Y-735D01*
X1204D01*
Y-761D01*
X1335D01*
Y-631D01*
X1204D01*
Y-657D01*
X1094D01*
X1085Y-649D01*
X1065Y-641D01*
X1043D01*
X1023Y-649D01*
X1015Y-657D01*
X852D01*
X763Y-568D01*
Y-424D01*
X771Y-432D01*
X783Y-440D01*
X798Y-443D01*
X1015D01*
X1023Y-451D01*
X1043Y-460D01*
X1065D01*
X1085Y-451D01*
X1094Y-443D01*
X1204D01*
Y-470D01*
X1335D01*
Y-339D01*
X1204D01*
Y-366D01*
X1094D01*
X1085Y-358D01*
X1065Y-349D01*
X1043D01*
X1023Y-358D01*
X1015Y-366D01*
X814D01*
X814Y-365D01*
Y33D01*
X986Y-139D01*
Y-151D01*
X994Y-171D01*
X1010Y-187D01*
X1030Y-195D01*
X1052D01*
X1073Y-187D01*
X1081Y-179D01*
X1206D01*
Y-205D01*
X1337D01*
Y-74D01*
X1206D01*
Y-101D01*
X1081D01*
X1073Y-93D01*
X1052Y-84D01*
X1041D01*
X864Y92D01*
Y1622D01*
X1145Y1903D01*
X1153Y1916D01*
X1156Y1930D01*
Y2262D01*
X1271Y2147D01*
X1284Y2139D01*
X1286Y2138D01*
X1298Y2136D01*
X1574D01*
Y2115D01*
X1518D01*
Y1924D01*
X1656D01*
X1644Y1912D01*
X1467D01*
X1452Y1909D01*
X1439Y1901D01*
X1393Y1855D01*
X1371Y1861D01*
X1346D01*
X1322Y1854D01*
X1300Y1842D01*
X1290Y1831D01*
Y1895D01*
X1324Y1930D01*
X1346Y1924D01*
X1371D01*
X1396Y1931D01*
X1417Y1943D01*
X1435Y1961D01*
X1448Y1983D01*
X1454Y2007D01*
Y2032D01*
X1448Y2056D01*
X1435Y2078D01*
X1417Y2096D01*
X1396Y2108D01*
X1371Y2115D01*
X1346D01*
X1322Y2108D01*
X1300Y2096D01*
X1283Y2078D01*
X1270Y2056D01*
X1264Y2032D01*
Y2007D01*
X1270Y1985D01*
X1223Y1939D01*
X1215Y1926D01*
X1212Y1911D01*
Y1721D01*
X1215Y1706D01*
X1223Y1693D01*
X1315Y1601D01*
X1328Y1593D01*
X1343Y1590D01*
X1378D01*
X1447Y1521D01*
Y1384D01*
X1450Y1369D01*
X1458Y1357D01*
X1522Y1293D01*
X1535Y1285D01*
X1537Y1284D01*
X1549Y1282D01*
X1791D01*
X1806Y1285D01*
X1818Y1293D01*
X1882Y1357D01*
X1890Y1369D01*
X1891Y1372D01*
X1893Y1384D01*
Y3175D01*
X1890Y3190D01*
X1882Y3202D01*
X1539Y3545D01*
X1526Y3554D01*
X1511Y3557D01*
X229D01*
X228Y3558D01*
X215Y3567D01*
X201Y3570D01*
X143D01*
X128Y3567D01*
X115Y3558D01*
X114Y3557D01*
X-22D01*
X-74Y3609D01*
X-87Y3617D01*
X-102Y3620D01*
X-276D01*
X-285Y3630D01*
X-306Y3639D01*
D02*
G37*
G36*
X-459Y2216D02*
X-481D01*
X-502Y2207D01*
X-518Y2191D01*
X-527Y2170D01*
Y2148D01*
X-518Y2127D01*
X-502Y2111D01*
X-481Y2102D01*
X-459D01*
X-438Y2111D01*
X-421Y2127D01*
X-413Y2148D01*
Y2170D01*
X-421Y2191D01*
X-438Y2207D01*
X-459Y2216D01*
D02*
G37*
G36*
X-204Y2134D02*
X-228D01*
X-250Y2128D01*
X-270Y2116D01*
X-287Y2099D01*
X-299Y2079D01*
X-305Y2056D01*
Y2033D01*
X-299Y2010D01*
X-287Y1990D01*
X-270Y1974D01*
X-250Y1962D01*
X-228Y1956D01*
X-204D01*
X-182Y1962D01*
X-161Y1974D01*
X-145Y1990D01*
X-133Y2010D01*
X-127Y2033D01*
Y2056D01*
X-133Y2079D01*
X-145Y2099D01*
X-161Y2116D01*
X-182Y2128D01*
X-204Y2134D01*
D02*
G37*
G36*
X393Y1664D02*
X369D01*
X347Y1658D01*
X326Y1646D01*
X310Y1629D01*
X298Y1609D01*
X292Y1587D01*
Y1563D01*
X298Y1540D01*
X310Y1520D01*
X326Y1504D01*
X347Y1492D01*
X369Y1486D01*
X393D01*
X415Y1492D01*
X436Y1504D01*
X452Y1520D01*
X464Y1540D01*
X470Y1563D01*
Y1587D01*
X464Y1609D01*
X452Y1629D01*
X436Y1646D01*
X415Y1658D01*
X393Y1664D01*
D02*
G37*
G36*
X-1080Y1651D02*
X-1104D01*
X-1127Y1645D01*
X-1147Y1633D01*
X-1163Y1617D01*
X-1175Y1596D01*
X-1181Y1574D01*
Y1550D01*
X-1175Y1528D01*
X-1163Y1508D01*
X-1147Y1491D01*
X-1127Y1479D01*
X-1104Y1473D01*
X-1080D01*
X-1058Y1479D01*
X-1038Y1491D01*
X-1021Y1508D01*
X-1009Y1528D01*
X-1003Y1550D01*
Y1574D01*
X-1009Y1596D01*
X-1021Y1617D01*
X-1038Y1633D01*
X-1058Y1645D01*
X-1080Y1651D01*
D02*
G37*
G36*
X37Y1219D02*
X14D01*
X-9Y1213D01*
X-29Y1201D01*
X-46Y1185D01*
X-57Y1165D01*
X-63Y1142D01*
Y1119D01*
X-57Y1096D01*
X-46Y1076D01*
X-29Y1059D01*
X-9Y1047D01*
X14Y1041D01*
X37D01*
X60Y1047D01*
X80Y1059D01*
X97Y1076D01*
X108Y1096D01*
X114Y1119D01*
Y1142D01*
X108Y1165D01*
X97Y1185D01*
X80Y1201D01*
X60Y1213D01*
X37Y1219D01*
D02*
G37*
G36*
X-458D02*
X-482D01*
X-504Y1213D01*
X-524Y1201D01*
X-541Y1185D01*
X-553Y1165D01*
X-559Y1142D01*
Y1119D01*
X-553Y1096D01*
X-541Y1076D01*
X-524Y1059D01*
X-504Y1047D01*
X-482Y1041D01*
X-458D01*
X-436Y1047D01*
X-415Y1059D01*
X-399Y1076D01*
X-387Y1096D01*
X-381Y1119D01*
Y1142D01*
X-387Y1165D01*
X-399Y1185D01*
X-415Y1201D01*
X-436Y1213D01*
X-458Y1219D01*
D02*
G37*
G36*
X1452Y1004D02*
X1417D01*
X1384Y995D01*
X1353Y977D01*
X1328Y953D01*
X1311Y922D01*
X1302Y889D01*
Y854D01*
X1311Y820D01*
X1328Y789D01*
X1353Y765D01*
X1384Y747D01*
X1417Y738D01*
X1452D01*
X1486Y747D01*
X1516Y765D01*
X1541Y789D01*
X1559Y820D01*
X1568Y854D01*
Y889D01*
X1559Y922D01*
X1541Y953D01*
X1516Y977D01*
X1486Y995D01*
X1452Y1004D01*
D02*
G37*
G36*
X1568Y608D02*
X1302D01*
Y342D01*
X1568D01*
Y608D01*
D02*
G37*
G36*
X1487Y-74D02*
X1356D01*
Y-205D01*
X1487D01*
Y-179D01*
X1561D01*
X1564Y-184D01*
X1575Y-191D01*
X1587Y-193D01*
X1625D01*
X1637Y-191D01*
X1648Y-184D01*
X1655Y-173D01*
X1657Y-161D01*
Y-118D01*
X1655Y-106D01*
X1648Y-96D01*
X1637Y-89D01*
X1625Y-86D01*
X1587D01*
X1575Y-89D01*
X1564Y-96D01*
X1561Y-101D01*
X1487D01*
Y-74D01*
D02*
G37*
G36*
X1485Y-339D02*
X1354D01*
Y-470D01*
X1485D01*
Y-433D01*
X1568D01*
X1571Y-438D01*
X1582Y-445D01*
X1594Y-447D01*
X1632D01*
X1644Y-445D01*
X1654Y-438D01*
X1661Y-427D01*
X1664Y-415D01*
Y-372D01*
X1661Y-360D01*
X1654Y-350D01*
X1644Y-343D01*
X1632Y-340D01*
X1594D01*
X1582Y-343D01*
X1571Y-350D01*
X1568Y-355D01*
X1485D01*
Y-339D01*
D02*
G37*
G36*
X1485Y-631D02*
X1354D01*
Y-761D01*
X1485D01*
Y-737D01*
X1568D01*
X1571Y-743D01*
X1582Y-750D01*
X1594Y-752D01*
X1632D01*
X1644Y-750D01*
X1654Y-743D01*
X1661Y-732D01*
X1664Y-720D01*
Y-677D01*
X1661Y-665D01*
X1654Y-654D01*
X1644Y-647D01*
X1632Y-645D01*
X1594D01*
X1582Y-647D01*
X1571Y-654D01*
X1568Y-660D01*
X1485D01*
Y-631D01*
D02*
G37*
G36*
X1294Y-902D02*
X1271D01*
X1248Y-908D01*
X1228Y-919D01*
X1212Y-936D01*
X1200Y-956D01*
X1194Y-979D01*
Y-1002D01*
X1200Y-1025D01*
X1212Y-1045D01*
X1228Y-1062D01*
X1248Y-1073D01*
X1270Y-1079D01*
X1271Y-1080D01*
Y-1120D01*
X948D01*
Y-1471D01*
X1744D01*
Y-1120D01*
X1422D01*
Y-1049D01*
X1419Y-1029D01*
X1412Y-1011D01*
X1400Y-995D01*
X1367Y-963D01*
X1366Y-956D01*
X1354Y-936D01*
X1337Y-919D01*
X1317Y-908D01*
X1294Y-902D01*
D02*
G37*
G36*
X1744Y-2517D02*
X948D01*
Y-2617D01*
X898D01*
X885Y-2610D01*
X863Y-2603D01*
X839D01*
X817Y-2610D01*
X796Y-2621D01*
X780Y-2638D01*
X768Y-2658D01*
X762Y-2681D01*
Y-2704D01*
X768Y-2727D01*
X780Y-2747D01*
X796Y-2764D01*
X817Y-2775D01*
X839Y-2781D01*
X863D01*
X885Y-2775D01*
X898Y-2768D01*
X948D01*
Y-2868D01*
X1744D01*
Y-2517D01*
D02*
G37*
G36*
X325Y-2286D02*
X285D01*
X246Y-2294D01*
X209Y-2309D01*
X175Y-2331D01*
X147Y-2360D01*
X125Y-2393D01*
X110Y-2430D01*
X102Y-2469D01*
Y-2509D01*
X110Y-2548D01*
X125Y-2585D01*
X147Y-2618D01*
X175Y-2647D01*
X209Y-2669D01*
X246Y-2684D01*
X285Y-2692D01*
X325D01*
X364Y-2684D01*
X401Y-2669D01*
X434Y-2647D01*
X462Y-2618D01*
X485Y-2585D01*
X500Y-2548D01*
X508Y-2509D01*
Y-2469D01*
X500Y-2430D01*
X485Y-2393D01*
X462Y-2360D01*
X434Y-2331D01*
X401Y-2309D01*
X364Y-2294D01*
X325Y-2286D01*
D02*
G37*
G36*
X-369Y-3214D02*
X-622D01*
Y-3467D01*
X-369D01*
Y-3214D01*
D02*
G37*
G36*
X842Y-3752D02*
X-41D01*
X-41Y-3752D01*
X-41Y-3752D01*
X-41D01*
X-43Y-3753D01*
X-43Y-3753D01*
X-43Y-3753D01*
X-43Y-3753D01*
X-44Y-3752D01*
X-44Y-3752D01*
X-45Y-3753D01*
X-45Y-3753D01*
X-47Y-3753D01*
X-49Y-3753D01*
X-49Y-3754D01*
X-50Y-3754D01*
X-53Y-3755D01*
X-53Y-3755D01*
X-53Y-3755D01*
X-53Y-3755D01*
X-54Y-3755D01*
X-55Y-3756D01*
X-55Y-3756D01*
X-55Y-3756D01*
X-55Y-3756D01*
X-57Y-3757D01*
X-58Y-3758D01*
X-59Y-3758D01*
X-60Y-3759D01*
X-62Y-3760D01*
X-62Y-3761D01*
X-63Y-3761D01*
X-63Y-3761D01*
X-63Y-3762D01*
X-64Y-3763D01*
X-92Y-3797D01*
X-92Y-3797D01*
X-119Y-3828D01*
X-119Y-3828D01*
X-119Y-3828D01*
X-119Y-3829D01*
Y-3829D01*
X-120Y-3830D01*
X-120Y-3831D01*
X-120Y-3831D01*
X-121Y-3831D01*
X-122Y-3832D01*
X-123Y-3834D01*
X-123Y-3835D01*
X-124Y-3836D01*
X-125Y-3838D01*
X-125Y-3838D01*
X-125Y-3838D01*
X-125Y-3839D01*
X-125Y-3839D01*
X-126Y-3840D01*
X-126Y-3840D01*
X-126Y-3840D01*
X-126Y-3841D01*
X-126Y-3843D01*
X-127Y-3844D01*
X-127Y-3846D01*
Y-3847D01*
X-127Y-3848D01*
Y-3849D01*
X-127Y-3851D01*
Y-4345D01*
Y-4348D01*
X-127Y-4350D01*
X-127Y-4353D01*
X-127Y-4353D01*
X-127Y-4354D01*
X-127Y-4354D01*
X-126Y-4356D01*
X-126Y-4358D01*
X-125Y-4358D01*
X-125Y-4358D01*
X-125Y-4359D01*
X-124Y-4361D01*
X-123Y-4362D01*
X-123Y-4362D01*
X-123Y-4363D01*
X-122Y-4363D01*
X-122Y-4364D01*
X-121Y-4364D01*
X-119Y-4368D01*
X-119Y-4368D01*
X-119Y-4368D01*
X-115Y-4370D01*
X-114Y-4371D01*
X-114Y-4372D01*
X-113Y-4372D01*
X-113Y-4372D01*
X-111Y-4373D01*
X-111Y-4373D01*
X-111Y-4373D01*
X-111D01*
X-109Y-4374D01*
X-109Y-4374D01*
X-109Y-4374D01*
X-106Y-4375D01*
X-104Y-4376D01*
X-102Y-4376D01*
X-99Y-4376D01*
X-12D01*
Y-4540D01*
X-99D01*
X-102Y-4541D01*
X-104Y-4541D01*
X-105Y-4541D01*
X-105Y-4541D01*
X-105Y-4541D01*
X-107Y-4542D01*
X-109Y-4542D01*
X-109Y-4542D01*
X-109Y-4542D01*
X-111Y-4543D01*
X-113Y-4544D01*
X-113Y-4544D01*
X-114Y-4545D01*
X-114Y-4545D01*
X-114Y-4545D01*
X-115Y-4546D01*
X-116Y-4546D01*
X-119Y-4548D01*
X-119Y-4548D01*
X-119Y-4548D01*
X-122Y-4553D01*
X-122Y-4553D01*
X-123Y-4554D01*
X-123Y-4554D01*
X-124Y-4555D01*
X-125Y-4557D01*
X-125Y-4557D01*
X-125Y-4557D01*
Y-4557D01*
X-125Y-4558D01*
X-125Y-4558D01*
X-126Y-4559D01*
X-126Y-4561D01*
X-127Y-4564D01*
X-127Y-4566D01*
X-127Y-4569D01*
Y-5311D01*
Y-5312D01*
X-127Y-5314D01*
Y-5315D01*
X-127Y-5316D01*
Y-5317D01*
X-127Y-5319D01*
X-126Y-5320D01*
X-126Y-5323D01*
X-126Y-5323D01*
X-126Y-5323D01*
X-126Y-5323D01*
X-125Y-5324D01*
X-125Y-5325D01*
X-125Y-5325D01*
X-125Y-5325D01*
X-125Y-5325D01*
X-124Y-5326D01*
X-124Y-5327D01*
X-124Y-5327D01*
X-123Y-5328D01*
X-123Y-5328D01*
X-123Y-5330D01*
X-121Y-5331D01*
X-121Y-5332D01*
X-120Y-5332D01*
X-120Y-5334D01*
X-119Y-5335D01*
X-119Y-5335D01*
X-46Y-5419D01*
X-46Y-5419D01*
X-46Y-5419D01*
X-45Y-5420D01*
X-45Y-5421D01*
X-44Y-5421D01*
D01*
X-44Y-5421D01*
X-44Y-5422D01*
X-42Y-5423D01*
X-41Y-5424D01*
X-41Y-5424D01*
X-41Y-5424D01*
X-41Y-5424D01*
X-40Y-5424D01*
X-40Y-5424D01*
X-40Y-5424D01*
X-40Y-5424D01*
X-40Y-5425D01*
X-40Y-5425D01*
X-40Y-5425D01*
X-39Y-5425D01*
X-37Y-5427D01*
X-37Y-5427D01*
X-37Y-5427D01*
X-37Y-5427D01*
X-36Y-5427D01*
X-35Y-5427D01*
X-35Y-5427D01*
X-35Y-5427D01*
X-35Y-5428D01*
X-32Y-5428D01*
X-31Y-5429D01*
X-31Y-5429D01*
X-29Y-5429D01*
X-27Y-5429D01*
X-26Y-5429D01*
X-26Y-5429D01*
X-25Y-5429D01*
X-25Y-5429D01*
X-24Y-5430D01*
X677D01*
X678Y-5430D01*
X679Y-5430D01*
X680Y-5429D01*
X682Y-5429D01*
X682Y-5429D01*
X682Y-5429D01*
X682D01*
X685Y-5429D01*
X687Y-5428D01*
X689Y-5427D01*
X691Y-5426D01*
X692Y-5425D01*
X693Y-5426D01*
X695Y-5427D01*
X698Y-5428D01*
X701Y-5429D01*
X713Y-5431D01*
X715Y-5431D01*
X718Y-5432D01*
X1220D01*
X1223Y-5431D01*
X1226Y-5431D01*
X1228Y-5431D01*
X1229Y-5430D01*
X1230Y-5430D01*
X1234Y-5428D01*
X1237Y-5427D01*
X1238Y-5426D01*
X1239Y-5425D01*
X1243Y-5422D01*
X1243Y-5422D01*
X1243Y-5422D01*
X1244Y-5421D01*
X1244Y-5421D01*
X1245Y-5420D01*
X1246Y-5420D01*
X1246Y-5420D01*
X1255Y-5425D01*
X1255Y-5426D01*
X1255Y-5426D01*
X1257Y-5426D01*
X1259Y-5428D01*
X1259Y-5428D01*
X1262Y-5428D01*
X1265Y-5429D01*
X1265Y-5429D01*
X1267Y-5429D01*
X1269Y-5430D01*
X1269Y-5430D01*
X1270Y-5430D01*
X1879D01*
X1879Y-5430D01*
X1880Y-5430D01*
X1881Y-5429D01*
X1883Y-5429D01*
X1884Y-5429D01*
X1887Y-5428D01*
X1889Y-5428D01*
X1891Y-5427D01*
X1893Y-5426D01*
X1895Y-5424D01*
X1898Y-5422D01*
X1898Y-5422D01*
X1900Y-5420D01*
X1901Y-5419D01*
X1901Y-5419D01*
X1901Y-5418D01*
X1975Y-5313D01*
X1976Y-5313D01*
X1976Y-5313D01*
X1977Y-5311D01*
X1977Y-5311D01*
X1977Y-5311D01*
X1978Y-5309D01*
X1978Y-5309D01*
X1978Y-5309D01*
X1978Y-5308D01*
X1978Y-5308D01*
X1980Y-5306D01*
X1980Y-5306D01*
X1980Y-5306D01*
X1980Y-5306D01*
X1980Y-5304D01*
X1981Y-5302D01*
X1981Y-5302D01*
X1981Y-5302D01*
X1981Y-5301D01*
X1981Y-5299D01*
X1981Y-5299D01*
X1981Y-5298D01*
Y-5298D01*
X1982Y-5296D01*
X1982Y-5296D01*
X1982Y-5296D01*
Y-5294D01*
D01*
X1982Y-5293D01*
Y-4569D01*
X1981Y-4566D01*
Y-4563D01*
X1981Y-4561D01*
X1980Y-4559D01*
X1980Y-4559D01*
X1980Y-4558D01*
X1977Y-4552D01*
X1970Y-4545D01*
X1963Y-4542D01*
X1963Y-4542D01*
X1963Y-4542D01*
X1960Y-4541D01*
X1958Y-4541D01*
X1956D01*
X1953Y-4540D01*
X1623D01*
Y-4376D01*
X1953D01*
X1956Y-4376D01*
X1958D01*
X1960Y-4375D01*
X1963Y-4374D01*
X1963Y-4374D01*
X1963Y-4374D01*
X1970Y-4371D01*
X1977Y-4364D01*
X1980Y-4358D01*
X1980Y-4358D01*
X1980Y-4357D01*
X1981Y-4355D01*
X1981Y-4353D01*
Y-4350D01*
X1982Y-4348D01*
Y-3866D01*
X1982Y-3866D01*
X1982Y-3863D01*
X1981Y-3861D01*
X1981Y-3858D01*
X1980Y-3856D01*
X1980Y-3856D01*
X1980Y-3855D01*
X1980Y-3855D01*
X1980Y-3853D01*
X1980Y-3853D01*
X1980Y-3853D01*
X1979Y-3851D01*
X1978Y-3849D01*
D01*
X1978Y-3849D01*
X1977Y-3847D01*
X1976Y-3845D01*
X1974Y-3843D01*
X1972Y-3841D01*
X1971Y-3839D01*
X1971Y-3839D01*
X1971Y-3839D01*
X1900Y-3768D01*
X1898Y-3767D01*
X1896Y-3765D01*
X1893Y-3764D01*
X1891Y-3762D01*
X1891Y-3762D01*
D01*
X1888Y-3761D01*
X1887Y-3761D01*
X1887Y-3761D01*
X1887Y-3761D01*
X1884Y-3760D01*
X1882Y-3759D01*
X1880Y-3759D01*
X1877Y-3759D01*
X1310D01*
X1308Y-3759D01*
X1308Y-3759D01*
X1308Y-3759D01*
X1308Y-3759D01*
X1307Y-3759D01*
X1306Y-3759D01*
X1304Y-3759D01*
X1303Y-3760D01*
X1301Y-3760D01*
X1298Y-3761D01*
X1298Y-3761D01*
X1297Y-3762D01*
X1295Y-3763D01*
X1293Y-3764D01*
X1292Y-3765D01*
X1291Y-3766D01*
X1290Y-3767D01*
X1290Y-3767D01*
X1289Y-3767D01*
X1289Y-3768D01*
X1289Y-3768D01*
X1288Y-3769D01*
X1233Y-3829D01*
X1232Y-3830D01*
X1232Y-3831D01*
X1231Y-3831D01*
X1230Y-3833D01*
X1229Y-3835D01*
X1229Y-3836D01*
X1227Y-3838D01*
X1227Y-3839D01*
X1227Y-3840D01*
X1226Y-3842D01*
X1226Y-3844D01*
X1225Y-3846D01*
Y-3848D01*
X1225Y-3848D01*
Y-3849D01*
X1225Y-3851D01*
Y-4127D01*
X947D01*
Y-3860D01*
X947Y-3860D01*
X947Y-3857D01*
X946Y-3854D01*
X946Y-3852D01*
X945Y-3850D01*
X945Y-3849D01*
X945Y-3849D01*
X945Y-3849D01*
X945Y-3847D01*
X945Y-3847D01*
X945Y-3847D01*
X944Y-3845D01*
X943Y-3843D01*
D01*
X943Y-3843D01*
X941Y-3841D01*
X940Y-3838D01*
X939Y-3836D01*
X937Y-3834D01*
X935Y-3833D01*
X935Y-3833D01*
X935Y-3833D01*
X865Y-3762D01*
X863Y-3760D01*
X861Y-3759D01*
X858Y-3758D01*
X856Y-3756D01*
X856Y-3756D01*
D01*
X853Y-3755D01*
X852Y-3754D01*
X852Y-3754D01*
X852Y-3754D01*
X849Y-3754D01*
X847Y-3753D01*
X844Y-3753D01*
X842Y-3752D01*
D02*
G37*
%LPD*%
G36*
X1720Y3102D02*
Y2208D01*
X1662Y2266D01*
X1650Y2275D01*
X1635Y2278D01*
X1400D01*
X1408Y2286D01*
X1420Y2306D01*
X1426Y2329D01*
Y2352D01*
X1420Y2375D01*
X1408Y2395D01*
X1392Y2411D01*
X1371Y2423D01*
X1349Y2429D01*
X1325D01*
X1303Y2423D01*
X1282Y2411D01*
X1266Y2395D01*
X1254Y2375D01*
X1248Y2352D01*
Y2340D01*
X184Y3404D01*
X204Y3412D01*
X214Y3422D01*
X1400D01*
X1720Y3102D01*
D02*
G37*
G36*
X1079Y2340D02*
Y1946D01*
X798Y1666D01*
X790Y1653D01*
X787Y1638D01*
Y1634D01*
X648Y1772D01*
Y2616D01*
X645Y2631D01*
X637Y2644D01*
X267Y3013D01*
Y3151D01*
X1079Y2340D01*
D02*
G37*
G36*
X1537Y1824D02*
X1524Y1802D01*
X1518Y1778D01*
Y1753D01*
X1524Y1729D01*
X1537Y1707D01*
X1554Y1689D01*
X1576Y1677D01*
X1600Y1670D01*
X1625D01*
X1650Y1677D01*
X1671Y1689D01*
X1688Y1706D01*
Y1642D01*
X1647Y1601D01*
X1625Y1607D01*
X1600D01*
X1576Y1600D01*
X1554Y1588D01*
X1537Y1570D01*
X1524Y1548D01*
X1523Y1545D01*
X1522Y1552D01*
X1513Y1564D01*
X1422Y1656D01*
X1409Y1665D01*
X1394Y1668D01*
X1359D01*
X1356Y1670D01*
X1371D01*
X1396Y1677D01*
X1417Y1689D01*
X1435Y1707D01*
X1448Y1729D01*
X1454Y1753D01*
Y1778D01*
X1448Y1800D01*
X1483Y1834D01*
X1547D01*
X1537Y1824D01*
D02*
G37*
G36*
X1815Y3159D02*
Y1400D01*
X1775Y1360D01*
X1565D01*
X1525Y1400D01*
Y1473D01*
X1537Y1453D01*
X1554Y1435D01*
X1576Y1423D01*
X1600Y1416D01*
X1625D01*
X1650Y1423D01*
X1671Y1435D01*
X1689Y1453D01*
X1702Y1475D01*
X1708Y1499D01*
Y1524D01*
X1702Y1546D01*
X1755Y1598D01*
X1763Y1611D01*
X1766Y1626D01*
Y1870D01*
X1786Y1890D01*
X1795Y1903D01*
X1798Y1918D01*
Y3118D01*
X1795Y3133D01*
X1786Y3145D01*
X1453Y3479D01*
X1495D01*
X1815Y3159D01*
D02*
G37*
%LPC*%
G36*
X888Y3327D02*
X865D01*
X842Y3321D01*
X822Y3310D01*
X805Y3293D01*
X793Y3273D01*
X787Y3250D01*
Y3227D01*
X793Y3204D01*
X805Y3184D01*
X822Y3167D01*
X842Y3156D01*
X865Y3150D01*
X888D01*
X911Y3156D01*
X931Y3167D01*
X947Y3184D01*
X959Y3204D01*
X965Y3227D01*
Y3250D01*
X959Y3273D01*
X947Y3293D01*
X931Y3310D01*
X911Y3321D01*
X888Y3327D01*
D02*
G37*
G36*
X926Y2972D02*
X903D01*
X880Y2966D01*
X860Y2954D01*
X843Y2937D01*
X832Y2917D01*
X826Y2895D01*
Y2871D01*
X832Y2849D01*
X843Y2828D01*
X860Y2812D01*
X880Y2800D01*
X903Y2794D01*
X926D01*
X949Y2800D01*
X969Y2812D01*
X986Y2828D01*
X997Y2849D01*
X1003Y2871D01*
Y2895D01*
X997Y2917D01*
X986Y2937D01*
X969Y2954D01*
X949Y2966D01*
X926Y2972D01*
D02*
G37*
G36*
X1568Y2785D02*
X1302D01*
Y2519D01*
X1568D01*
Y2785D01*
D02*
G37*
G36*
X952Y2057D02*
X928D01*
X905Y2051D01*
X885Y2040D01*
X869Y2023D01*
X857Y2003D01*
X851Y1980D01*
Y1957D01*
X857Y1934D01*
X869Y1914D01*
X885Y1897D01*
X905Y1886D01*
X928Y1880D01*
X952D01*
X974Y1886D01*
X994Y1897D01*
X1011Y1914D01*
X1023Y1934D01*
X1029Y1957D01*
Y1980D01*
X1023Y2003D01*
X1011Y2023D01*
X994Y2040D01*
X974Y2051D01*
X952Y2057D01*
D02*
G37*
%LPD*%
G36*
X842Y-3778D02*
X843Y-3779D01*
X843Y-3779D01*
X843Y-3779D01*
X846Y-3780D01*
X846Y-3780D01*
X917Y-3851D01*
X919Y-3853D01*
X919Y-3853D01*
X920Y-3855D01*
X920Y-3855D01*
X920Y-3855D01*
X921Y-3857D01*
X921Y-3857D01*
X921Y-3860D01*
X921Y-3860D01*
Y-4127D01*
Y-4153D01*
Y-4395D01*
X918Y-4395D01*
X813D01*
X770Y-4446D01*
X686Y-4546D01*
X686Y-4546D01*
X679Y-4553D01*
Y-4562D01*
Y-5403D01*
Y-5403D01*
X677Y-5404D01*
X677Y-5404D01*
X677Y-5404D01*
X-24D01*
X-24Y-5404D01*
X-25Y-5404D01*
X-25Y-5403D01*
X-25Y-5403D01*
X-26Y-5403D01*
X-26Y-5403D01*
X-26Y-5403D01*
X-26Y-5403D01*
X-27Y-5402D01*
X-27Y-5402D01*
X-27Y-5402D01*
Y-5402D01*
X-99Y-5318D01*
X-99Y-5318D01*
X-100Y-5317D01*
X-101Y-5316D01*
X-101Y-5316D01*
X-101Y-5316D01*
X-101Y-5315D01*
X-101Y-5315D01*
X-101Y-5315D01*
Y-5314D01*
X-102Y-5312D01*
Y-5311D01*
Y-4569D01*
D01*
X-101Y-4568D01*
X-101Y-4567D01*
X-99Y-4566D01*
X-99Y-4566D01*
X-99Y-4566D01*
X14D01*
Y-4350D01*
X-99D01*
D01*
X-99Y-4350D01*
X-101Y-4349D01*
X-101Y-4348D01*
X-102Y-4348D01*
X-102Y-4348D01*
Y-4345D01*
Y-3851D01*
X-101Y-3849D01*
Y-3848D01*
X-101Y-3848D01*
X-101Y-3848D01*
X-101Y-3847D01*
X-100Y-3846D01*
X-99Y-3845D01*
X-99Y-3845D01*
D01*
X-72Y-3813D01*
X-72Y-3813D01*
X-72Y-3813D01*
X-44Y-3780D01*
X-44Y-3780D01*
X-44Y-3779D01*
X-43Y-3779D01*
X-43Y-3779D01*
X-43Y-3778D01*
X-42Y-3778D01*
X-41Y-3778D01*
X-41D01*
D01*
X-41Y-3778D01*
X842D01*
X842Y-3778D01*
D02*
G37*
G36*
X1877Y-3785D02*
X1878Y-3785D01*
X1878Y-3785D01*
X1878Y-3785D01*
X1881Y-3786D01*
X1881Y-3786D01*
X1952Y-3857D01*
X1954Y-3859D01*
X1954Y-3859D01*
X1955Y-3861D01*
X1955Y-3861D01*
X1955Y-3861D01*
X1956Y-3863D01*
X1956Y-3863D01*
X1956Y-3866D01*
X1956Y-3866D01*
Y-4348D01*
X1955Y-4350D01*
X1953Y-4350D01*
X1597D01*
Y-4376D01*
Y-4540D01*
Y-4566D01*
X1953D01*
X1955Y-4566D01*
X1956Y-4569D01*
Y-5293D01*
X1956Y-5294D01*
Y-5296D01*
X1956Y-5296D01*
X1956Y-5296D01*
X1954Y-5298D01*
X1954Y-5298D01*
X1880Y-5403D01*
X1880Y-5404D01*
X1879Y-5404D01*
X1270D01*
X1269Y-5404D01*
X1269Y-5404D01*
X1260Y-5398D01*
X1259Y-5398D01*
X1258Y-5397D01*
X1258Y-5397D01*
X1258Y-5396D01*
X1252Y-4547D01*
X1251Y-4545D01*
X1251Y-4542D01*
X1251Y-4540D01*
X1250Y-4538D01*
X1250Y-4537D01*
X1249Y-4537D01*
X1249Y-4535D01*
X1248Y-4533D01*
X1248Y-4533D01*
X1248Y-4533D01*
X1247Y-4531D01*
X1245Y-4529D01*
X1244Y-4527D01*
X1242Y-4525D01*
X1123Y-4406D01*
X1121Y-4405D01*
X1120Y-4403D01*
X1118Y-4402D01*
X1118Y-4402D01*
X1115Y-4401D01*
X1115Y-4401D01*
X1115Y-4401D01*
X1111Y-4399D01*
X1111Y-4399D01*
X1111Y-4399D01*
X1108Y-4398D01*
X1106Y-4397D01*
X1103D01*
X1101Y-4397D01*
X959D01*
X947Y-4395D01*
Y-4153D01*
X1251D01*
Y-3851D01*
X1251Y-3849D01*
Y-3848D01*
X1251Y-3848D01*
X1252Y-3846D01*
X1307Y-3786D01*
X1308Y-3785D01*
X1308Y-3785D01*
X1309Y-3785D01*
X1310Y-3785D01*
X1877D01*
X1877Y-3785D01*
D02*
G37*
G36*
X937Y-4421D02*
X947Y-4423D01*
X1101D01*
X1103Y-4423D01*
X1105Y-4424D01*
X1224Y-4543D01*
X1225Y-4545D01*
X1226Y-4548D01*
X1232Y-5397D01*
X1232Y-5397D01*
X1232Y-5397D01*
X1232Y-5398D01*
X1232Y-5398D01*
X1231Y-5398D01*
X1230Y-5400D01*
X1229Y-5400D01*
X1227Y-5401D01*
X1227Y-5401D01*
X1227Y-5401D01*
X1226Y-5402D01*
X1223Y-5405D01*
X1220Y-5406D01*
X718D01*
X705Y-5403D01*
Y-4562D01*
X825Y-4421D01*
X921D01*
X931Y-4419D01*
X933Y-4418D01*
X937Y-4421D01*
D02*
G37*
D16*
X-597Y2946D02*
Y3404D01*
Y2946D02*
X-343Y2692D01*
X836Y-696D02*
X1054D01*
X724Y-584D02*
X836Y-696D01*
X775Y-381D02*
X798Y-405D01*
X1054D01*
X1269D01*
X1054Y-696D02*
X1269D01*
X1430Y-394D02*
X1613D01*
X1419Y-405D02*
X1430Y-394D01*
X1422Y-699D02*
X1613D01*
X1419Y-696D02*
X1422Y-699D01*
X1121Y2353D02*
X1298Y2175D01*
X1118Y1930D02*
Y2350D01*
X1295Y2239D02*
X1635D01*
X32Y3442D02*
X1121Y2353D01*
X-104Y3442D02*
X32D01*
X54Y3480D02*
X1295Y2239D01*
X-38Y3518D02*
X130D01*
X-54Y3480D02*
X54D01*
X143Y3531D02*
X201D01*
X130Y3518D02*
X143Y3531D01*
X172Y3461D02*
X1416D01*
X201Y3531D02*
X213Y3518D01*
X1511D01*
X-823Y3339D02*
X-651Y3512D01*
X190Y3230D02*
X229Y3191D01*
Y2997D02*
Y3191D01*
X155Y3230D02*
X190D01*
X113Y3271D02*
X155Y3230D01*
X103Y3271D02*
X113D01*
X1298Y2175D02*
X1598D01*
X826Y76D02*
Y1638D01*
X1118Y1930D01*
X1613Y2019D02*
Y2160D01*
X1598Y2175D02*
X1613Y2160D01*
X1721Y1934D02*
Y2153D01*
X1635Y2239D02*
X1721Y2153D01*
X1759Y1918D02*
Y3118D01*
X1416Y3461D02*
X1759Y3118D01*
X-823Y3200D02*
Y3339D01*
X-86Y3512D02*
X-54Y3480D01*
X1660Y1873D02*
X1721Y1934D01*
X1467Y1873D02*
X1660D01*
X1359Y1765D02*
X1467Y1873D01*
X1394Y1629D02*
X1486Y1537D01*
X1251Y1721D02*
X1343Y1629D01*
X1486Y1384D02*
Y1537D01*
X1343Y1629D02*
X1394D01*
X-651Y3512D02*
X-86D01*
X1727Y1626D02*
Y1886D01*
X1251Y1721D02*
Y1911D01*
X-109Y3436D02*
X-104Y3442D01*
X1727Y1886D02*
X1759Y1918D01*
X1251Y1911D02*
X1359Y2019D01*
X-343Y2692D02*
X203D01*
X-467Y2895D02*
X-302Y2731D01*
X-468Y2942D02*
X-467Y2940D01*
Y2895D02*
Y2940D01*
X-302Y2731D02*
X219D01*
X286Y2578D02*
Y2664D01*
X219Y2731D02*
X286Y2664D01*
X203Y2692D02*
X248Y2648D01*
X-823Y2979D02*
X-731D01*
X-406Y2654D01*
X163D01*
X178Y2639D01*
Y2095D02*
Y2639D01*
X286Y2578D02*
X362Y2502D01*
X248Y2051D02*
Y2648D01*
X229Y2997D02*
X610Y2616D01*
Y1756D02*
Y2616D01*
Y1756D02*
X775Y1591D01*
X-317Y3581D02*
X-102D01*
X-38Y3518D01*
X1854Y1384D02*
Y3175D01*
X1511Y3518D02*
X1854Y3175D01*
X1549Y1321D02*
X1791D01*
X1854Y1384D01*
X1486D02*
X1549Y1321D01*
X1613Y1511D02*
X1727Y1626D01*
X248Y2051D02*
X724Y1575D01*
X826Y76D02*
X1041Y-140D01*
X724Y-584D02*
Y1575D01*
X775Y-381D02*
Y1591D01*
X1041Y-140D02*
X1260D01*
X1410D02*
X1606D01*
D18*
X1346Y-1295D02*
D03*
Y-2692D02*
D03*
D19*
X1703Y-699D02*
D03*
X1613D02*
D03*
X1696Y-140D02*
D03*
X1606D02*
D03*
X1703Y-394D02*
D03*
X1613D02*
D03*
D20*
X205Y-3988D02*
D03*
X505D02*
D03*
X805D02*
D03*
X1105D02*
D03*
X1405D02*
D03*
X205Y-4928D02*
D03*
X505D02*
D03*
X805D02*
D03*
X1105D02*
D03*
X1405D02*
D03*
D21*
X1794Y-4458D02*
D03*
X-183D02*
D03*
D22*
X1269Y-696D02*
D03*
X1419D02*
D03*
X1271Y-140D02*
D03*
X1421D02*
D03*
X1269Y-405D02*
D03*
X1419D02*
D03*
D32*
X-495Y-3340D02*
D03*
D33*
Y3882D02*
D03*
D34*
X-1295Y3031D02*
D03*
X305Y-2489D02*
D03*
D35*
Y3851D02*
D03*
D39*
X1041Y-140D02*
D03*
X1054Y-696D02*
D03*
Y-405D02*
D03*
D40*
X851Y-2692D02*
X1346D01*
X1283Y-991D02*
X1288D01*
X1346Y-1049D01*
Y-1295D02*
Y-1049D01*
D41*
X1435Y475D02*
D03*
X1435Y2652D02*
D03*
D42*
X1435Y871D02*
D03*
X1435Y3048D02*
D03*
D43*
X1359Y1765D02*
D03*
Y2019D02*
D03*
X1613Y1511D02*
D03*
Y1765D02*
D03*
X1359Y1511D02*
D03*
D44*
X-2223Y3962D02*
D03*
X-546Y-5169D02*
D03*
X1346Y-3302D02*
D03*
X1270Y4013D02*
D03*
D45*
X1613Y2019D02*
D03*
D46*
X1511Y241D02*
D03*
X-13Y-267D02*
D03*
X495D02*
D03*
Y-775D02*
D03*
X-13D02*
D03*
Y-1283D02*
D03*
X495D02*
D03*
X1511Y-1791D02*
D03*
Y-2299D02*
D03*
X1003D02*
D03*
Y-1791D02*
D03*
X495D02*
D03*
X-13D02*
D03*
Y-2299D02*
D03*
X495Y-2807D02*
D03*
X-13D02*
D03*
Y-3315D02*
D03*
X495D02*
D03*
X1003D02*
D03*
Y241D02*
D03*
Y749D02*
D03*
Y1257D02*
D03*
X495D02*
D03*
Y749D02*
D03*
Y241D02*
D03*
X-13D02*
D03*
Y749D02*
D03*
X978Y4432D02*
D03*
X470D02*
D03*
X-38Y3924D02*
D03*
Y4432D02*
D03*
X-546D02*
D03*
X-521Y749D02*
D03*
Y241D02*
D03*
Y-267D02*
D03*
Y-775D02*
D03*
Y-1283D02*
D03*
Y-1791D02*
D03*
Y-2299D02*
D03*
Y-2807D02*
D03*
Y-3823D02*
D03*
Y-4331D02*
D03*
X-1029D02*
D03*
Y-3823D02*
D03*
Y-3315D02*
D03*
Y-2807D02*
D03*
Y-2299D02*
D03*
Y-1791D02*
D03*
Y-1283D02*
D03*
Y-775D02*
D03*
Y-267D02*
D03*
Y241D02*
D03*
Y749D02*
D03*
Y1257D02*
D03*
Y2273D02*
D03*
Y3924D02*
D03*
Y4432D02*
D03*
X-1524Y-3823D02*
D03*
Y-3315D02*
D03*
Y-2807D02*
D03*
Y-2299D02*
D03*
Y-1791D02*
D03*
Y-1283D02*
D03*
Y-775D02*
D03*
Y-267D02*
D03*
Y241D02*
D03*
Y749D02*
D03*
Y1257D02*
D03*
Y1765D02*
D03*
Y2273D02*
D03*
Y2781D02*
D03*
Y3416D02*
D03*
Y3924D02*
D03*
Y4432D02*
D03*
X-2019Y3683D02*
D03*
X-2515Y3696D02*
D03*
X-2019Y4445D02*
D03*
X-2540Y4458D02*
D03*
D47*
X-597Y3404D02*
D03*
X172Y3461D02*
D03*
X103Y3271D02*
D03*
X-109Y3436D02*
D03*
X-279Y2807D02*
D03*
X-468Y2942D02*
D03*
X362Y2502D02*
D03*
X-470Y2159D02*
D03*
X-823Y3200D02*
D03*
X-823Y2979D02*
D03*
X178Y2095D02*
D03*
X-317Y3581D02*
D03*
D48*
X317Y-5182D02*
D03*
X1600D02*
D03*
X1778Y-5271D02*
D03*
X1092D02*
D03*
X495D02*
D03*
X1422D02*
D03*
X851D02*
D03*
X140D02*
D03*
X-38Y2883D02*
D03*
X1337Y2340D02*
D03*
X394Y2642D02*
D03*
X940Y1968D02*
D03*
X914Y2883D02*
D03*
X-216Y2045D02*
D03*
X-1092Y2769D02*
D03*
Y1562D02*
D03*
X876Y3238D02*
D03*
X-1092Y3416D02*
D03*
X25Y1130D02*
D03*
X-470D02*
D03*
X851Y-2692D02*
D03*
X1283Y-991D02*
D03*
X749Y3759D02*
D03*
X381Y1575D02*
D03*
D49*
X51Y2591D02*
D03*
M02*
