G04*
G04 #@! TF.GenerationSoftware,Altium Limited,Altium Designer,23.10.1 (27)*
G04*
G04 Layer_Color=16711935*
%FSLAX42Y42*%
%MOMM*%
G71*
G04*
G04 #@! TF.SameCoordinates,D788F153-7B32-47A3-9728-DC68925F5BF0*
G04*
G04*
G04 #@! TF.FilePolarity,Positive*
G04*
G01*
G75*
%ADD11C,0.20*%
%ADD13C,0.13*%
%ADD96C,0.10*%
%ADD97C,0.05*%
G36*
X1248Y-4477D02*
X1249Y-4477D01*
X1250Y-4477D01*
X1251Y-4478D01*
X1252Y-4478D01*
X1254Y-4478D01*
X1257Y-4479D01*
X1258Y-4480D01*
X1259Y-4481D01*
X1260Y-4481D01*
X1261Y-4482D01*
X1261Y-4482D01*
X1261Y-4482D01*
X1262Y-4483D01*
X1262Y-4483D01*
X1262Y-4484D01*
X1263Y-4484D01*
X1263Y-4485D01*
X1264Y-4486D01*
X1264Y-4487D01*
X1265Y-4488D01*
X1266Y-4490D01*
X1267Y-4492D01*
X1267Y-4494D01*
X1267Y-4495D01*
X1259Y-4496D01*
Y-4496D01*
X1259Y-4496D01*
X1259Y-4496D01*
X1259Y-4495D01*
X1259Y-4495D01*
X1259Y-4494D01*
X1258Y-4493D01*
X1258Y-4491D01*
X1257Y-4489D01*
X1256Y-4488D01*
X1255Y-4487D01*
X1255Y-4486D01*
X1254Y-4486D01*
X1254Y-4486D01*
X1253Y-4485D01*
X1252Y-4485D01*
X1250Y-4484D01*
X1249Y-4484D01*
X1247Y-4484D01*
X1246D01*
X1246Y-4484D01*
X1245Y-4484D01*
X1244Y-4484D01*
X1242Y-4485D01*
X1241Y-4485D01*
X1239Y-4486D01*
X1238Y-4487D01*
X1237Y-4488D01*
X1237Y-4488D01*
X1236Y-4489D01*
X1236Y-4490D01*
X1235Y-4492D01*
X1234Y-4493D01*
X1234Y-4495D01*
X1234Y-4497D01*
Y-4497D01*
Y-4497D01*
Y-4498D01*
X1234Y-4498D01*
X1234Y-4499D01*
X1234Y-4500D01*
X1235Y-4502D01*
X1235Y-4503D01*
X1236Y-4505D01*
X1237Y-4506D01*
X1238Y-4506D01*
X1238Y-4507D01*
X1239Y-4507D01*
X1240Y-4508D01*
X1241Y-4508D01*
X1243Y-4509D01*
X1244Y-4509D01*
X1246Y-4509D01*
X1247D01*
X1248Y-4509D01*
X1249Y-4509D01*
X1250Y-4509D01*
X1251Y-4509D01*
X1252Y-4509D01*
X1251Y-4516D01*
X1251D01*
X1250Y-4515D01*
X1249D01*
X1248Y-4516D01*
X1247Y-4516D01*
X1245Y-4516D01*
X1244Y-4517D01*
X1242Y-4517D01*
X1241Y-4518D01*
X1241D01*
X1241Y-4518D01*
X1240Y-4519D01*
X1239Y-4519D01*
X1239Y-4520D01*
X1238Y-4521D01*
X1237Y-4523D01*
X1237Y-4524D01*
X1237Y-4525D01*
Y-4526D01*
Y-4526D01*
Y-4526D01*
Y-4527D01*
X1237Y-4528D01*
X1237Y-4529D01*
X1237Y-4530D01*
X1238Y-4531D01*
X1239Y-4532D01*
X1240Y-4533D01*
X1240Y-4533D01*
X1240Y-4534D01*
X1241Y-4534D01*
X1242Y-4535D01*
X1243Y-4535D01*
X1244Y-4536D01*
X1246Y-4536D01*
X1247Y-4536D01*
X1248D01*
X1249Y-4536D01*
X1250Y-4536D01*
X1251Y-4535D01*
X1252Y-4535D01*
X1254Y-4534D01*
X1255Y-4533D01*
X1255Y-4533D01*
X1255Y-4533D01*
X1256Y-4532D01*
X1256Y-4531D01*
X1257Y-4530D01*
X1258Y-4528D01*
X1258Y-4527D01*
X1259Y-4525D01*
X1267Y-4526D01*
Y-4526D01*
X1266Y-4526D01*
X1266Y-4527D01*
X1266Y-4527D01*
X1266Y-4528D01*
X1266Y-4529D01*
X1265Y-4530D01*
X1264Y-4532D01*
X1263Y-4535D01*
X1262Y-4536D01*
X1260Y-4538D01*
X1260Y-4538D01*
X1260Y-4538D01*
X1259Y-4539D01*
X1259Y-4539D01*
X1259Y-4539D01*
X1258Y-4540D01*
X1257Y-4540D01*
X1257Y-4540D01*
X1255Y-4541D01*
X1253Y-4542D01*
X1250Y-4542D01*
X1249Y-4543D01*
X1246D01*
X1245Y-4542D01*
X1244Y-4542D01*
X1243Y-4542D01*
X1241Y-4542D01*
X1239Y-4541D01*
X1238Y-4540D01*
X1238D01*
X1238Y-4540D01*
X1237Y-4540D01*
X1236Y-4539D01*
X1235Y-4539D01*
X1234Y-4538D01*
X1233Y-4537D01*
X1232Y-4536D01*
X1231Y-4534D01*
X1231Y-4534D01*
X1231Y-4534D01*
X1230Y-4533D01*
X1230Y-4532D01*
X1229Y-4530D01*
X1229Y-4529D01*
X1229Y-4527D01*
X1229Y-4526D01*
Y-4526D01*
Y-4525D01*
X1229Y-4524D01*
X1229Y-4523D01*
X1229Y-4522D01*
X1230Y-4521D01*
X1230Y-4520D01*
X1231Y-4518D01*
X1231Y-4518D01*
X1231Y-4518D01*
X1232Y-4517D01*
X1233Y-4516D01*
X1234Y-4516D01*
X1235Y-4515D01*
X1236Y-4514D01*
X1237Y-4513D01*
X1237D01*
X1237Y-4513D01*
X1237Y-4513D01*
X1237Y-4513D01*
X1236Y-4512D01*
X1234Y-4512D01*
X1233Y-4511D01*
X1231Y-4510D01*
X1230Y-4509D01*
X1229Y-4508D01*
X1229Y-4507D01*
X1228Y-4507D01*
X1228Y-4506D01*
X1227Y-4505D01*
X1226Y-4503D01*
X1226Y-4501D01*
X1226Y-4499D01*
X1225Y-4497D01*
Y-4497D01*
Y-4497D01*
Y-4496D01*
X1226Y-4496D01*
X1226Y-4495D01*
X1226Y-4494D01*
X1226Y-4493D01*
X1226Y-4492D01*
X1227Y-4490D01*
X1228Y-4489D01*
X1228Y-4488D01*
X1229Y-4487D01*
X1230Y-4485D01*
X1231Y-4484D01*
X1232Y-4483D01*
X1232Y-4483D01*
X1232Y-4483D01*
X1232Y-4482D01*
X1233Y-4482D01*
X1233Y-4482D01*
X1234Y-4481D01*
X1235Y-4481D01*
X1236Y-4480D01*
X1237Y-4480D01*
X1238Y-4479D01*
X1239Y-4479D01*
X1241Y-4478D01*
X1242Y-4478D01*
X1244Y-4477D01*
X1245Y-4477D01*
X1247Y-4477D01*
X1248D01*
X1248Y-4477D01*
D02*
G37*
G36*
X1297D02*
X1298Y-4477D01*
X1299Y-4477D01*
X1301Y-4478D01*
X1303Y-4478D01*
X1305Y-4479D01*
X1306Y-4480D01*
X1307Y-4480D01*
X1308Y-4481D01*
X1309Y-4482D01*
X1309Y-4482D01*
X1309Y-4482D01*
X1309Y-4483D01*
X1310Y-4483D01*
X1310Y-4483D01*
X1310Y-4484D01*
X1311Y-4485D01*
X1311Y-4486D01*
X1312Y-4487D01*
X1312Y-4488D01*
X1312Y-4489D01*
X1313Y-4490D01*
X1313Y-4491D01*
X1313Y-4493D01*
X1313Y-4495D01*
Y-4496D01*
X1306Y-4497D01*
Y-4497D01*
Y-4497D01*
Y-4497D01*
X1306Y-4496D01*
X1305Y-4496D01*
Y-4495D01*
X1305Y-4493D01*
X1305Y-4492D01*
X1304Y-4490D01*
X1304Y-4489D01*
X1303Y-4488D01*
X1303Y-4487D01*
X1303Y-4487D01*
X1302Y-4487D01*
X1302Y-4487D01*
X1301Y-4486D01*
X1300Y-4486D01*
X1299Y-4485D01*
X1298Y-4485D01*
X1296Y-4485D01*
X1296D01*
X1295Y-4485D01*
X1294Y-4485D01*
X1293Y-4485D01*
X1292Y-4485D01*
X1292Y-4486D01*
X1291Y-4486D01*
X1291Y-4486D01*
X1290Y-4486D01*
X1290Y-4487D01*
X1289Y-4487D01*
X1289Y-4488D01*
X1288Y-4488D01*
X1288Y-4489D01*
X1288Y-4490D01*
Y-4490D01*
X1287Y-4491D01*
X1287Y-4491D01*
X1287Y-4492D01*
X1287Y-4493D01*
X1287Y-4495D01*
X1287Y-4496D01*
Y-4498D01*
Y-4542D01*
X1278D01*
Y-4499D01*
Y-4499D01*
Y-4498D01*
Y-4498D01*
Y-4497D01*
X1278Y-4497D01*
Y-4496D01*
X1278Y-4494D01*
X1279Y-4492D01*
X1279Y-4490D01*
X1279Y-4488D01*
X1280Y-4486D01*
Y-4486D01*
X1280Y-4486D01*
X1280Y-4485D01*
X1281Y-4485D01*
X1282Y-4484D01*
X1283Y-4483D01*
X1284Y-4482D01*
X1285Y-4480D01*
X1286Y-4480D01*
X1286Y-4479D01*
X1287Y-4479D01*
X1288Y-4479D01*
X1289Y-4478D01*
X1291Y-4478D01*
X1292Y-4478D01*
X1294Y-4477D01*
X1296Y-4477D01*
X1297D01*
X1297Y-4477D01*
D02*
G37*
G36*
X-478Y338D02*
X-528D01*
X-528Y338D01*
X-527Y338D01*
X-527Y337D01*
X-526Y336D01*
X-525Y335D01*
X-524Y334D01*
X-523Y333D01*
X-522Y331D01*
Y331D01*
X-522Y331D01*
X-522Y330D01*
X-521Y329D01*
X-521Y328D01*
X-520Y327D01*
X-519Y326D01*
X-519Y324D01*
X-518Y323D01*
X-526D01*
Y323D01*
X-526Y323D01*
X-526Y323D01*
X-526Y324D01*
X-527Y324D01*
X-527Y325D01*
X-528Y327D01*
X-529Y329D01*
X-530Y330D01*
X-532Y332D01*
X-533Y334D01*
X-533Y334D01*
X-533Y334D01*
X-534Y335D01*
X-534Y335D01*
X-535Y336D01*
X-536Y337D01*
X-537Y338D01*
X-539Y339D01*
X-540Y340D01*
X-542Y341D01*
Y346D01*
X-478D01*
Y338D01*
D02*
G37*
G36*
X-496Y306D02*
X-495D01*
X-493Y306D01*
X-491Y306D01*
X-489Y305D01*
X-487Y305D01*
X-485Y304D01*
X-485D01*
X-485Y304D01*
X-485Y304D01*
X-484Y303D01*
X-483Y303D01*
X-482Y302D01*
X-481Y301D01*
X-480Y299D01*
X-479Y298D01*
X-479Y298D01*
X-478Y297D01*
X-478Y296D01*
X-478Y295D01*
X-477Y294D01*
X-477Y292D01*
X-477Y290D01*
X-476Y288D01*
Y287D01*
X-477Y287D01*
X-477Y286D01*
X-477Y285D01*
X-477Y283D01*
X-478Y281D01*
X-479Y279D01*
X-479Y278D01*
X-480Y277D01*
X-480Y276D01*
X-481Y275D01*
X-481Y275D01*
X-481Y275D01*
X-482Y275D01*
X-482Y275D01*
X-483Y274D01*
X-483Y274D01*
X-484Y273D01*
X-485Y273D01*
X-486Y273D01*
X-487Y272D01*
X-488Y272D01*
X-489Y271D01*
X-491Y271D01*
X-492Y271D01*
X-494Y271D01*
X-496D01*
X-497Y279D01*
X-497D01*
X-496D01*
X-496D01*
X-496Y279D01*
X-495Y279D01*
X-494D01*
X-493Y279D01*
X-491Y279D01*
X-489Y280D01*
X-488Y280D01*
X-487Y281D01*
X-487Y281D01*
X-487Y281D01*
X-486Y282D01*
X-486Y282D01*
X-485Y283D01*
X-485Y284D01*
X-485Y285D01*
X-484Y287D01*
X-484Y288D01*
Y289D01*
X-484Y289D01*
X-484Y290D01*
X-484Y291D01*
X-485Y292D01*
X-485Y293D01*
X-485Y294D01*
X-486Y294D01*
X-486Y294D01*
X-486Y294D01*
X-486Y295D01*
X-487Y295D01*
X-488Y296D01*
X-488Y296D01*
X-489Y297D01*
X-490D01*
X-490Y297D01*
X-491Y297D01*
X-491Y297D01*
X-492Y297D01*
X-494Y297D01*
X-496Y298D01*
X-497D01*
X-542D01*
Y306D01*
X-498D01*
X-498D01*
X-498D01*
X-497D01*
X-497D01*
X-496Y306D01*
D02*
G37*
D11*
X1840Y2019D02*
G03*
X1840Y2019I-10J0D01*
G01*
X-365Y-5065D02*
X1975D01*
X-365D02*
Y-3851D01*
X1975D01*
Y-5065D02*
Y-3851D01*
X-1550Y-3604D02*
Y4146D01*
X560D01*
Y-3604D02*
Y4146D01*
X-1550Y-3604D02*
X560D01*
D13*
X1242Y1405D02*
Y2126D01*
Y1405D02*
X1730D01*
Y2126D01*
X1242D02*
X1730D01*
D96*
X952Y-1118D02*
X1740D01*
Y-2870D02*
Y-1118D01*
X952Y-2870D02*
Y-1118D01*
Y-2870D02*
X1740D01*
X1235Y1066D02*
X1915D01*
Y280D02*
Y1066D01*
X1235Y280D02*
X1915D01*
X1065Y941D02*
X1235D01*
X1065Y405D02*
X1235D01*
Y280D02*
Y405D01*
Y941D02*
Y1066D01*
X1065Y405D02*
Y941D01*
X1605Y-726D02*
X1710D01*
X1605Y-671D02*
X1710D01*
Y-726D02*
Y-671D01*
X1605Y-726D02*
Y-671D01*
X1598Y-167D02*
X1703D01*
X1598Y-112D02*
X1703D01*
Y-167D02*
Y-112D01*
X1598Y-167D02*
Y-112D01*
X1605Y-421D02*
X1710D01*
X1605Y-366D02*
X1710D01*
Y-421D02*
Y-366D01*
X1605Y-421D02*
Y-366D01*
X1235Y3243D02*
X1915D01*
Y2457D02*
Y3243D01*
X1235Y2457D02*
X1915D01*
X1065Y3118D02*
X1235D01*
X1065Y2582D02*
X1235D01*
Y2457D02*
Y2582D01*
Y3118D02*
Y3243D01*
X1065Y2582D02*
Y3118D01*
X1424Y-736D02*
Y-656D01*
X1264Y-736D02*
X1424D01*
X1264D02*
Y-656D01*
X1424D01*
X1426Y-180D02*
Y-100D01*
X1266Y-180D02*
X1426D01*
X1266D02*
Y-100D01*
X1426D01*
X1424Y-445D02*
Y-364D01*
X1264Y-445D02*
X1424D01*
X1264D02*
Y-364D01*
X1424D01*
D97*
X1091Y-190D02*
Y-90D01*
X991D02*
X1091D01*
X991Y-190D02*
Y-90D01*
Y-190D02*
X1091D01*
X1104Y-746D02*
Y-646D01*
X1004D02*
X1104D01*
X1004Y-746D02*
Y-646D01*
Y-746D02*
X1104D01*
Y-455D02*
Y-355D01*
X1004D02*
X1104D01*
X1004Y-455D02*
Y-355D01*
Y-455D02*
X1104D01*
M02*
