G04*
G04 #@! TF.GenerationSoftware,Altium Limited,Altium Designer,23.10.1 (27)*
G04*
G04 Layer_Color=8388736*
%FSLAX42Y42*%
%MOMM*%
G71*
G04*
G04 #@! TF.SameCoordinates,D788F153-7B32-47A3-9728-DC68925F5BF0*
G04*
G04*
G04 #@! TF.FilePolarity,Positive*
G04*
G01*
G75*
%ADD11C,0.20*%
%ADD13C,0.13*%
%ADD96C,0.10*%
%ADD97C,0.05*%
G36*
X-171Y2413D02*
X-169Y2413D01*
X-168Y2413D01*
X-166Y2412D01*
X-165Y2412D01*
X-164Y2412D01*
X-163Y2412D01*
X-162Y2412D01*
X-161Y2411D01*
X-160Y2411D01*
X-159Y2411D01*
X-159Y2411D01*
X-159Y2411D01*
X-158Y2411D01*
X-158D01*
X-156Y2410D01*
X-154Y2408D01*
X-153Y2407D01*
X-152Y2406D01*
X-151Y2404D01*
X-150Y2403D01*
X-150Y2403D01*
X-150Y2403D01*
X-149Y2403D01*
Y2402D01*
X-148Y2400D01*
X-148Y2398D01*
X-147Y2395D01*
X-147Y2393D01*
X-147Y2392D01*
X-146Y2391D01*
X-146Y2390D01*
Y2389D01*
X-146Y2389D01*
Y2388D01*
X-146Y2384D01*
X-147Y2383D01*
X-147Y2382D01*
X-147Y2380D01*
X-147Y2379D01*
X-148Y2378D01*
X-148Y2377D01*
X-148Y2376D01*
X-149Y2375D01*
X-149Y2374D01*
X-149Y2374D01*
X-150Y2373D01*
X-150Y2373D01*
X-150Y2373D01*
Y2373D01*
X-151Y2371D01*
X-153Y2369D01*
X-154Y2368D01*
X-156Y2367D01*
X-157Y2366D01*
X-158Y2365D01*
X-158Y2365D01*
X-159Y2365D01*
X-159Y2365D01*
X-159D01*
X-160Y2365D01*
X-161Y2364D01*
X-164Y2364D01*
X-166Y2363D01*
X-169Y2363D01*
X-170Y2363D01*
X-171Y2363D01*
X-172D01*
X-173Y2363D01*
X-173D01*
X-174D01*
X-174D01*
X-174D01*
X-211D01*
Y2371D01*
X-174D01*
X-172D01*
X-170Y2371D01*
X-168Y2372D01*
X-167Y2372D01*
X-165Y2372D01*
X-164Y2373D01*
X-163Y2373D01*
X-162Y2373D01*
X-161Y2374D01*
X-160Y2374D01*
X-159Y2374D01*
X-159Y2375D01*
X-159Y2375D01*
X-158Y2375D01*
X-158Y2375D01*
X-158Y2375D01*
X-157Y2376D01*
X-157Y2377D01*
X-156Y2379D01*
X-155Y2381D01*
X-155Y2383D01*
X-154Y2385D01*
X-154Y2386D01*
Y2387D01*
X-154Y2388D01*
Y2388D01*
X-154Y2390D01*
X-154Y2392D01*
X-155Y2394D01*
X-155Y2395D01*
X-155Y2396D01*
X-156Y2397D01*
X-156Y2398D01*
X-156Y2398D01*
X-157Y2399D01*
X-158Y2400D01*
X-159Y2401D01*
X-160Y2402D01*
X-161Y2402D01*
X-161Y2403D01*
X-162Y2403D01*
X-162Y2403D01*
X-163Y2403D01*
X-164Y2403D01*
X-166Y2404D01*
X-168Y2404D01*
X-170Y2404D01*
X-172Y2404D01*
X-172D01*
X-173Y2404D01*
X-174D01*
X-174D01*
X-174D01*
X-174D01*
X-211D01*
Y2413D01*
X-174D01*
X-173D01*
X-171Y2413D01*
D02*
G37*
G36*
X-147Y2310D02*
X-155D01*
Y2342D01*
X-157Y2341D01*
X-157Y2340D01*
X-158Y2340D01*
X-158Y2339D01*
X-159Y2339D01*
X-159Y2339D01*
X-159Y2339D01*
X-160Y2338D01*
X-160Y2338D01*
X-161Y2336D01*
X-163Y2335D01*
X-164Y2333D01*
X-165Y2332D01*
X-166Y2331D01*
X-166Y2331D01*
X-167Y2330D01*
X-167Y2330D01*
X-167Y2330D01*
X-167Y2330D01*
X-169Y2328D01*
X-170Y2327D01*
X-171Y2325D01*
X-172Y2324D01*
X-173Y2323D01*
X-174Y2322D01*
X-175Y2321D01*
X-175Y2320D01*
X-176Y2320D01*
X-177Y2319D01*
X-177Y2319D01*
X-178Y2318D01*
X-178Y2318D01*
X-178Y2317D01*
X-180Y2316D01*
X-181Y2315D01*
X-183Y2314D01*
X-184Y2313D01*
X-185Y2313D01*
X-186Y2312D01*
X-186Y2312D01*
X-186Y2312D01*
X-188Y2312D01*
X-189Y2311D01*
X-190Y2311D01*
X-191Y2311D01*
X-193Y2311D01*
X-193Y2311D01*
X-194D01*
X-194D01*
X-195Y2311D01*
X-197Y2311D01*
X-198Y2311D01*
X-199Y2311D01*
X-201Y2312D01*
X-203Y2313D01*
X-204Y2314D01*
X-204Y2314D01*
X-205Y2315D01*
X-206Y2315D01*
X-206Y2316D01*
X-206Y2316D01*
X-206Y2316D01*
X-206Y2316D01*
X-207Y2317D01*
X-208Y2318D01*
X-209Y2319D01*
X-209Y2321D01*
X-210Y2323D01*
X-211Y2325D01*
X-211Y2326D01*
X-211Y2327D01*
X-211Y2328D01*
X-212Y2329D01*
X-212Y2330D01*
Y2331D01*
X-212Y2332D01*
X-211Y2334D01*
X-211Y2335D01*
X-211Y2337D01*
X-211Y2338D01*
X-210Y2339D01*
X-210Y2340D01*
X-209Y2341D01*
X-209Y2342D01*
X-208Y2343D01*
X-208Y2344D01*
X-208Y2344D01*
X-207Y2345D01*
X-207Y2345D01*
X-207Y2345D01*
X-207Y2345D01*
X-206Y2346D01*
X-205Y2347D01*
X-204Y2348D01*
X-203Y2348D01*
X-200Y2350D01*
X-198Y2350D01*
X-197Y2351D01*
X-196Y2351D01*
X-195Y2351D01*
X-195Y2351D01*
X-194Y2351D01*
X-194D01*
X-193Y2351D01*
X-193D01*
X-192Y2343D01*
X-194Y2343D01*
X-196Y2343D01*
X-198Y2342D01*
X-199Y2342D01*
X-200Y2341D01*
X-201Y2341D01*
X-202Y2340D01*
X-202Y2340D01*
X-203Y2339D01*
X-204Y2337D01*
X-204Y2336D01*
X-205Y2334D01*
X-205Y2333D01*
X-205Y2332D01*
X-205Y2331D01*
Y2331D01*
X-205Y2329D01*
X-205Y2327D01*
X-204Y2326D01*
X-204Y2324D01*
X-203Y2323D01*
X-202Y2323D01*
X-202Y2322D01*
X-202Y2322D01*
X-201Y2321D01*
X-199Y2320D01*
X-198Y2319D01*
X-197Y2319D01*
X-196Y2319D01*
X-195Y2319D01*
X-194Y2319D01*
X-194D01*
X-194D01*
X-192Y2319D01*
X-191Y2319D01*
X-189Y2320D01*
X-188Y2320D01*
X-186Y2321D01*
X-185Y2322D01*
X-185Y2322D01*
X-185Y2322D01*
X-185Y2322D01*
X-185D01*
X-184Y2323D01*
X-183Y2324D01*
X-181Y2325D01*
X-180Y2326D01*
X-178Y2328D01*
X-176Y2331D01*
X-175Y2332D01*
X-174Y2333D01*
X-173Y2334D01*
X-172Y2335D01*
X-172Y2336D01*
X-171Y2336D01*
X-171Y2336D01*
X-171Y2337D01*
X-169Y2339D01*
X-167Y2341D01*
X-166Y2343D01*
X-164Y2344D01*
X-163Y2345D01*
X-162Y2346D01*
X-162Y2347D01*
X-161Y2347D01*
X-161D01*
X-160Y2348D01*
X-158Y2349D01*
X-157Y2350D01*
X-156Y2351D01*
X-154Y2351D01*
X-154Y2352D01*
X-153Y2352D01*
X-153Y2352D01*
X-153D01*
X-152Y2352D01*
X-151Y2353D01*
X-150Y2353D01*
X-149Y2353D01*
X-148Y2353D01*
X-148D01*
X-147D01*
X-147D01*
Y2310D01*
D02*
G37*
G36*
X978Y2346D02*
X950D01*
Y2335D01*
X950Y2334D01*
Y2333D01*
X950Y2332D01*
X950Y2332D01*
Y2332D01*
X950Y2331D01*
Y2331D01*
X950Y2330D01*
X951Y2329D01*
X951Y2329D01*
X951Y2328D01*
X951Y2328D01*
X951Y2328D01*
X952Y2327D01*
X952Y2327D01*
X953Y2326D01*
X954Y2325D01*
X955Y2324D01*
X955Y2323D01*
X956Y2323D01*
X956Y2323D01*
X957Y2322D01*
X958Y2321D01*
X960Y2320D01*
X961Y2319D01*
X963Y2318D01*
X964Y2318D01*
X964Y2317D01*
X964Y2317D01*
X964Y2317D01*
X965D01*
X978Y2309D01*
Y2298D01*
X961Y2309D01*
X959Y2310D01*
X957Y2312D01*
X956Y2313D01*
X954Y2314D01*
X953Y2315D01*
X953Y2315D01*
X952Y2316D01*
X952Y2316D01*
X951Y2317D01*
X951Y2318D01*
X950Y2319D01*
X949Y2320D01*
X949Y2321D01*
X949Y2321D01*
X949Y2321D01*
X948Y2320D01*
X948Y2318D01*
X948Y2317D01*
X947Y2315D01*
X947Y2314D01*
X946Y2313D01*
X946Y2312D01*
X945Y2311D01*
X945Y2310D01*
X944Y2309D01*
X944Y2309D01*
X944Y2308D01*
X943Y2308D01*
X943Y2308D01*
X943Y2308D01*
X943Y2308D01*
X942Y2307D01*
X941Y2306D01*
X939Y2305D01*
X937Y2304D01*
X935Y2304D01*
X934Y2303D01*
X933Y2303D01*
X933D01*
X932Y2303D01*
X932D01*
X931D01*
X931D01*
X929Y2303D01*
X928Y2304D01*
X926Y2304D01*
X925Y2304D01*
X923Y2305D01*
X923Y2305D01*
X922Y2306D01*
X922Y2306D01*
X922D01*
X920Y2307D01*
X919Y2308D01*
X918Y2309D01*
X917Y2310D01*
X916Y2311D01*
X916Y2312D01*
X916Y2313D01*
X916Y2313D01*
Y2313D01*
X915Y2314D01*
X915Y2315D01*
X915Y2317D01*
X914Y2319D01*
X914Y2321D01*
X914Y2323D01*
Y2324D01*
X914Y2325D01*
Y2354D01*
X978D01*
Y2346D01*
D02*
G37*
G36*
Y2252D02*
X970D01*
Y2283D01*
X969Y2282D01*
X968Y2282D01*
X967Y2281D01*
X967Y2281D01*
X967Y2280D01*
X966Y2280D01*
X966Y2280D01*
X966Y2279D01*
X965Y2279D01*
X964Y2278D01*
X963Y2276D01*
X961Y2275D01*
X960Y2273D01*
X960Y2272D01*
X959Y2272D01*
X959Y2271D01*
X958Y2271D01*
X958Y2271D01*
X958Y2271D01*
X957Y2269D01*
X956Y2268D01*
X954Y2267D01*
X953Y2265D01*
X952Y2264D01*
X951Y2263D01*
X951Y2262D01*
X950Y2262D01*
X949Y2261D01*
X948Y2260D01*
X948Y2260D01*
X948Y2259D01*
X947Y2259D01*
X947Y2259D01*
X945Y2257D01*
X944Y2256D01*
X942Y2255D01*
X941Y2255D01*
X940Y2254D01*
X940Y2254D01*
X939Y2254D01*
X939Y2253D01*
X938Y2253D01*
X936Y2253D01*
X935Y2252D01*
X934Y2252D01*
X933Y2252D01*
X932Y2252D01*
X932D01*
X931D01*
X930Y2252D01*
X929Y2252D01*
X927Y2252D01*
X926Y2253D01*
X924Y2254D01*
X922Y2255D01*
X922Y2255D01*
X921Y2256D01*
X920Y2256D01*
X920Y2256D01*
X919Y2257D01*
X919Y2257D01*
X919Y2257D01*
X919Y2257D01*
X918Y2258D01*
X917Y2259D01*
X916Y2261D01*
X916Y2262D01*
X915Y2264D01*
X914Y2267D01*
X914Y2268D01*
X914Y2269D01*
X914Y2270D01*
X914Y2270D01*
X914Y2271D01*
Y2272D01*
X914Y2274D01*
X914Y2275D01*
X914Y2277D01*
X914Y2278D01*
X915Y2279D01*
X915Y2280D01*
X916Y2282D01*
X916Y2283D01*
X917Y2284D01*
X917Y2284D01*
X917Y2285D01*
X918Y2285D01*
X918Y2286D01*
X918Y2286D01*
X918Y2286D01*
X918Y2287D01*
X919Y2287D01*
X920Y2288D01*
X922Y2289D01*
X923Y2290D01*
X925Y2291D01*
X927Y2292D01*
X928Y2292D01*
X929Y2292D01*
X930Y2292D01*
X931Y2293D01*
X931Y2293D01*
X932D01*
X932Y2293D01*
X932D01*
X933Y2285D01*
X931Y2284D01*
X929Y2284D01*
X927Y2284D01*
X926Y2283D01*
X925Y2282D01*
X924Y2282D01*
X924Y2281D01*
X924Y2281D01*
X922Y2280D01*
X922Y2278D01*
X921Y2277D01*
X921Y2275D01*
X920Y2274D01*
X920Y2273D01*
X920Y2273D01*
Y2272D01*
X920Y2270D01*
X921Y2268D01*
X921Y2267D01*
X922Y2266D01*
X922Y2265D01*
X923Y2264D01*
X923Y2263D01*
X923Y2263D01*
X925Y2262D01*
X926Y2261D01*
X927Y2261D01*
X929Y2260D01*
X930Y2260D01*
X930Y2260D01*
X931Y2260D01*
X931D01*
X931D01*
X933Y2260D01*
X935Y2260D01*
X936Y2261D01*
X938Y2262D01*
X939Y2262D01*
X940Y2263D01*
X940Y2263D01*
X941Y2263D01*
X941Y2264D01*
X941D01*
X942Y2264D01*
X943Y2265D01*
X944Y2266D01*
X945Y2267D01*
X947Y2270D01*
X949Y2272D01*
X950Y2273D01*
X951Y2274D01*
X952Y2275D01*
X953Y2276D01*
X953Y2277D01*
X954Y2277D01*
X954Y2278D01*
X954Y2278D01*
X956Y2280D01*
X958Y2282D01*
X960Y2284D01*
X961Y2285D01*
X962Y2287D01*
X963Y2287D01*
X964Y2288D01*
X964Y2288D01*
X964D01*
X966Y2289D01*
X967Y2290D01*
X968Y2291D01*
X970Y2292D01*
X971Y2293D01*
X972Y2293D01*
X972Y2293D01*
X972Y2293D01*
X972D01*
X973Y2294D01*
X974Y2294D01*
X975Y2294D01*
X976Y2294D01*
X977Y2294D01*
X977D01*
X978D01*
X978D01*
Y2252D01*
D02*
G37*
%LPC*%
G36*
X942Y2346D02*
X921D01*
Y2326D01*
X921Y2323D01*
X922Y2321D01*
X922Y2319D01*
X923Y2318D01*
X923Y2317D01*
X924Y2316D01*
X924Y2315D01*
X924Y2315D01*
X925Y2314D01*
X926Y2313D01*
X928Y2313D01*
X929Y2312D01*
X930Y2312D01*
X931Y2312D01*
X931Y2312D01*
X931D01*
X931D01*
X933Y2312D01*
X934Y2312D01*
X935Y2312D01*
X935Y2313D01*
X936Y2313D01*
X937Y2313D01*
X937Y2314D01*
X937Y2314D01*
X938Y2314D01*
X939Y2315D01*
X940Y2316D01*
X940Y2317D01*
X941Y2317D01*
X941Y2318D01*
X941Y2318D01*
X941Y2319D01*
X941Y2320D01*
X942Y2321D01*
X942Y2323D01*
X942Y2324D01*
X942Y2326D01*
X942Y2327D01*
Y2346D01*
D02*
G37*
%LPD*%
D11*
X752Y1843D02*
G03*
X752Y1843I-10J0D01*
G01*
X782Y2846D02*
G03*
X782Y2846I-10J0D01*
G01*
X-41Y3391D02*
G03*
X-41Y3391I-10J0D01*
G01*
X-320Y2582D02*
X-10D01*
Y2244D02*
Y2582D01*
X-320Y2244D02*
X-10D01*
X-320D02*
Y2582D01*
X837Y2620D02*
X1118D01*
Y2089D02*
Y2620D01*
X837Y2089D02*
X1118D01*
X837D02*
Y2620D01*
D13*
X667Y1678D02*
Y1878D01*
X467D02*
X667D01*
X467Y1678D02*
Y1878D01*
Y1678D02*
X667D01*
X697Y2681D02*
Y2881D01*
X497D02*
X697D01*
X497Y2681D02*
Y2881D01*
Y2681D02*
X697D01*
X-1252Y1811D02*
X-932D01*
X-1252Y2451D02*
X-932D01*
Y1811D02*
Y2451D01*
X-1252Y1811D02*
Y2451D01*
X-479Y2962D02*
X-79D01*
X-479Y3362D02*
X-79D01*
X-479Y2962D02*
Y3362D01*
X-79Y2962D02*
Y3362D01*
D96*
X595Y3203D02*
Y3528D01*
X420Y3203D02*
Y3528D01*
Y3203D02*
X595D01*
X420Y3528D02*
X595D01*
X-325Y1319D02*
Y1893D01*
X-615Y1319D02*
Y1893D01*
Y1319D02*
X-325D01*
X-615Y1893D02*
X-325D01*
X-831Y2843D02*
Y2898D01*
X-936Y2843D02*
Y2898D01*
X-831D01*
X-936Y2843D02*
X-831D01*
X100Y2785D02*
X154D01*
X100Y2890D02*
X154D01*
Y2785D02*
Y2890D01*
X100Y2785D02*
Y2890D01*
X239Y2785D02*
X294D01*
X239Y2890D02*
X294D01*
Y2785D02*
Y2890D01*
X239Y2785D02*
Y2890D01*
X-824Y3059D02*
Y3114D01*
X-929Y3059D02*
Y3114D01*
X-824D01*
X-929Y3059D02*
X-824D01*
X460Y1952D02*
X680D01*
X460Y2087D02*
X680D01*
X460Y1952D02*
Y2087D01*
X680Y1952D02*
Y2087D01*
X486Y2434D02*
X706D01*
X486Y2569D02*
X706D01*
X486Y2434D02*
Y2569D01*
X706Y2434D02*
Y2569D01*
X-120Y1906D02*
X170D01*
X-120Y1332D02*
X170D01*
X-120D02*
Y1906D01*
X170Y1332D02*
Y1906D01*
X-923Y3342D02*
X-818D01*
X-923Y3287D02*
X-818D01*
Y3342D01*
X-923Y3287D02*
Y3342D01*
X677Y2993D02*
Y3128D01*
X897Y2993D02*
Y3128D01*
X677Y2993D02*
X897D01*
X677Y3128D02*
X897D01*
X-684Y2374D02*
X-509D01*
X-684Y2469D02*
X-509D01*
X-684Y2374D02*
Y2469D01*
X-509Y2374D02*
Y2469D01*
X-684Y2556D02*
X-509D01*
X-684Y2651D02*
X-509D01*
X-684Y2556D02*
Y2651D01*
X-509Y2556D02*
Y2651D01*
D97*
X77Y3138D02*
X177D01*
Y3238D01*
X77D02*
X177D01*
X77Y3138D02*
Y3238D01*
X-749Y3265D02*
X-649D01*
Y3365D01*
X-749D02*
X-649D01*
X-749Y3265D02*
Y3365D01*
Y3036D02*
X-649D01*
Y3136D01*
X-749D02*
X-649D01*
X-749Y3036D02*
Y3136D01*
X77Y2947D02*
X177D01*
Y3047D01*
X77D02*
X177D01*
X77Y2947D02*
Y3047D01*
X217Y3036D02*
X317D01*
Y3136D01*
X217D02*
X317D01*
X217Y3036D02*
Y3136D01*
X-736Y2833D02*
X-636D01*
Y2933D01*
X-736D02*
X-636D01*
X-736Y2833D02*
Y2933D01*
M02*
