G04*
G04 #@! TF.GenerationSoftware,Altium Limited,Altium Designer,23.10.1 (27)*
G04*
G04 Layer_Color=0*
%FSLAX42Y42*%
%MOMM*%
G71*
G04*
G04 #@! TF.SameCoordinates,D788F153-7B32-47A3-9728-DC68925F5BF0*
G04*
G04*
G04 #@! TF.FilePolarity,Positive*
G04*
G01*
G75*
%ADD11C,0.20*%
%ADD96C,0.10*%
%ADD97C,0.05*%
D11*
X-320Y2582D02*
X-10D01*
Y2244D02*
Y2582D01*
X-320Y2244D02*
X-10D01*
X-320D02*
Y2582D01*
X837Y2620D02*
X1118D01*
Y2089D02*
Y2620D01*
X837Y2089D02*
X1118D01*
X837D02*
Y2620D01*
D96*
X458Y3365D02*
X558D01*
X508Y3315D02*
Y3415D01*
X-520Y1606D02*
X-420D01*
X-470Y1556D02*
Y1656D01*
X25Y1569D02*
Y1669D01*
X-25Y1619D02*
X75D01*
D97*
X422Y1903D02*
X712D01*
X422Y1653D02*
Y1903D01*
Y1653D02*
X712D01*
Y1903D01*
X623Y3140D02*
Y3590D01*
X393Y3140D02*
Y3590D01*
Y3140D02*
X623D01*
X393Y3590D02*
X623D01*
X452Y2906D02*
X742D01*
X452Y2656D02*
Y2906D01*
Y2656D02*
X742D01*
Y2906D01*
X-295Y1345D02*
Y1867D01*
X-645Y1345D02*
Y1867D01*
Y1345D02*
X-295D01*
X-645Y1867D02*
X-295D01*
X-1277Y1701D02*
X-907D01*
X-1277D02*
Y2561D01*
X-907D01*
Y1701D02*
Y2561D01*
X-798Y2825D02*
Y2915D01*
X-968Y2825D02*
Y2915D01*
X-798D01*
X-968Y2825D02*
X-798D01*
X-911Y2870D02*
X-856D01*
X-883Y2843D02*
Y2898D01*
X-540Y2902D02*
X-19D01*
X-540Y3423D02*
X-19D01*
Y2902D02*
Y3423D01*
X-540Y2902D02*
Y3423D01*
X82Y2753D02*
X172D01*
X82Y2923D02*
X172D01*
Y2753D02*
Y2923D01*
X82Y2753D02*
Y2923D01*
X127Y2810D02*
Y2865D01*
X100Y2838D02*
X154D01*
X222Y2753D02*
X312D01*
X222Y2923D02*
X312D01*
Y2753D02*
Y2923D01*
X222Y2753D02*
Y2923D01*
X267Y2810D02*
Y2865D01*
X239Y2838D02*
X294D01*
X-791Y3041D02*
Y3131D01*
X-961Y3041D02*
Y3131D01*
X-791D01*
X-961Y3041D02*
X-791D01*
X-904Y3086D02*
X-849D01*
X-876Y3059D02*
Y3114D01*
X420Y2104D02*
X720D01*
X420Y1934D02*
X720D01*
X570Y1969D02*
Y2069D01*
X520Y2019D02*
X620D01*
X420Y1934D02*
Y2104D01*
X720Y1934D02*
Y2104D01*
X446Y2587D02*
X746D01*
X446Y2417D02*
X746D01*
X596Y2452D02*
Y2552D01*
X546Y2502D02*
X646D01*
X446Y2417D02*
Y2587D01*
X746Y2417D02*
Y2587D01*
X-150Y1880D02*
X200D01*
X-150Y1358D02*
X200D01*
X-150D02*
Y1880D01*
X200Y1358D02*
Y1880D01*
X-870Y3287D02*
Y3342D01*
X-898Y3315D02*
X-843D01*
X-956Y3360D02*
X-786D01*
X-956Y3270D02*
X-786D01*
Y3360D01*
X-956Y3270D02*
Y3360D01*
X637Y2976D02*
Y3146D01*
X937Y2976D02*
Y3146D01*
X737Y3061D02*
X837D01*
X787Y3011D02*
Y3111D01*
X637Y3146D02*
X937D01*
X637Y2976D02*
X937D01*
X-477Y2361D02*
Y2481D01*
X-717Y2361D02*
Y2481D01*
X-477D01*
X-717Y2361D02*
X-477D01*
X-644Y2421D02*
X-549D01*
X-597Y2374D02*
Y2469D01*
X-477Y2543D02*
Y2664D01*
X-717Y2543D02*
Y2664D01*
X-477D01*
X-717Y2543D02*
X-477D01*
X-644Y2603D02*
X-549D01*
X-597Y2556D02*
Y2651D01*
M02*
