G04*
G04 #@! TF.GenerationSoftware,Altium Limited,Altium Designer,23.10.1 (27)*
G04*
G04 Layer_Physical_Order=4*
G04 Layer_Color=8421376*
%FSLAX42Y42*%
%MOMM*%
G71*
G04*
G04 #@! TF.SameCoordinates,D788F153-7B32-47A3-9728-DC68925F5BF0*
G04*
G04*
G04 #@! TF.FilePolarity,Negative*
G04*
G01*
G75*
%ADD16C,0.25*%
%ADD50C,1.02*%
%ADD51C,2.67*%
%ADD52C,1.91*%
G04:AMPARAMS|DCode=53|XSize=4.024mm|YSize=4.024mm|CornerRadius=0mm|HoleSize=0mm|Usage=FLASHONLY|Rotation=0.000|XOffset=0mm|YOffset=0mm|HoleType=Round|Shape=Relief|Width=0.25mm|Gap=0.25mm|Entries=4|*
%AMTHD53*
7,0,0,4.02,3.52,0.25,45*
%
%ADD53THD53*%
G04:AMPARAMS|DCode=55|XSize=2.413mm|YSize=2.413mm|CornerRadius=0mm|HoleSize=0mm|Usage=FLASHONLY|Rotation=0.000|XOffset=0mm|YOffset=0mm|HoleType=Round|Shape=Relief|Width=0.25mm|Gap=0.25mm|Entries=4|*
%AMTHD55*
7,0,0,2.41,1.91,0.25,45*
%
%ADD55THD55*%
%ADD56C,2.34*%
%ADD57C,4.57*%
%ADD58C,3.41*%
G04:AMPARAMS|DCode=59|XSize=1.774mm|YSize=1.774mm|CornerRadius=0mm|HoleSize=0mm|Usage=FLASHONLY|Rotation=0.000|XOffset=0mm|YOffset=0mm|HoleType=Round|Shape=Relief|Width=0.25mm|Gap=0.25mm|Entries=4|*
%AMTHD59*
7,0,0,1.77,1.27,0.25,45*
%
%ADD59THD59*%
%ADD60C,1.32*%
%ADD61C,1.73*%
%ADD64C,3.52*%
%ADD66C,1.27*%
G04:AMPARAMS|DCode=67|XSize=2.2352mm|YSize=2.2352mm|CornerRadius=0mm|HoleSize=0mm|Usage=FLASHONLY|Rotation=0.000|XOffset=0mm|YOffset=0mm|HoleType=Round|Shape=Relief|Width=0.25mm|Gap=0.25mm|Entries=4|*
%AMTHD67*
7,0,0,2.24,1.73,0.25,45*
%
%ADD67THD67*%
G04:AMPARAMS|DCode=68|XSize=1.8237mm|YSize=1.8237mm|CornerRadius=0mm|HoleSize=0mm|Usage=FLASHONLY|Rotation=0.000|XOffset=0mm|YOffset=0mm|HoleType=Round|Shape=Relief|Width=0.25mm|Gap=0.25mm|Entries=4|*
%AMTHD68*
7,0,0,1.82,1.32,0.25,45*
%
%ADD68THD68*%
G36*
X12560Y-5563D02*
X2057D01*
Y-4498D01*
X2045Y-3416D01*
Y3835D01*
Y3861D01*
X1308Y4597D01*
X12560D01*
Y-5563D01*
D02*
G37*
G36*
X-2374Y3389D02*
X-1892D01*
X-1790Y3287D01*
X-1803Y-3760D01*
X-940Y-4623D01*
Y-5563D01*
X-2680D01*
Y3632D01*
X-2374Y3389D01*
D02*
G37*
D16*
X1270Y3467D02*
X2032D01*
X673Y4064D02*
X1270Y3467D01*
X-864Y4064D02*
X673D01*
X-1067Y3861D02*
X-864Y4064D01*
X-1067Y3607D02*
Y3861D01*
X1880Y1981D02*
Y2756D01*
X1803Y1905D02*
X1880Y1981D01*
X1753Y1905D02*
X1803D01*
X1562Y1613D02*
X2045D01*
X1499Y1676D02*
X1562Y1613D01*
X1499Y1676D02*
Y1842D01*
X1562Y1905D01*
X1753D01*
X-1486Y3048D02*
X-902D01*
X-241D02*
X63Y3353D01*
X952D01*
X1219Y3086D01*
Y2756D02*
Y3086D01*
X1080Y2515D02*
Y2756D01*
X1080Y2515D02*
X1080Y2515D01*
Y-1321D02*
X2045D01*
X1080Y2515D02*
X1080Y-1321D01*
X559Y2756D02*
X1880D01*
X305D02*
X559D01*
X279Y2731D02*
X305Y2756D01*
X279Y2451D02*
Y2731D01*
Y2451D02*
X330Y2400D01*
X559D01*
X559Y-2997D01*
X724Y-3162D01*
X2045D01*
X-1867Y3327D02*
X-1588Y3607D01*
X-1067D01*
X-902Y3442D01*
Y3048D02*
Y3442D01*
X-1486Y2362D02*
Y3048D01*
X-330Y2362D02*
Y2553D01*
X-241Y3048D02*
X-102Y2908D01*
Y2807D02*
Y2908D01*
X-743Y1060D02*
X-317Y635D01*
Y-5588D02*
Y635D01*
X178Y2502D02*
Y2731D01*
X-330Y2553D02*
Y2642D01*
X-267D01*
X-102Y2807D01*
X102D01*
X178Y2731D01*
X51Y2375D02*
X178Y2502D01*
X51Y2032D02*
Y2375D01*
X-102Y1880D02*
X51Y2032D01*
X-368Y1880D02*
X-102D01*
X-1854Y1054D02*
X-737D01*
X-743Y1060D02*
X-368Y1435D01*
Y2057D01*
X-330Y2095D01*
Y2362D01*
X-1486D02*
X-330D01*
D50*
X1308Y4597D02*
X2045Y3861D01*
X-2680Y4597D02*
X1308D01*
X2045Y3835D02*
Y3861D01*
X-1803Y-3760D02*
X-1790Y3287D01*
X-1803Y-3760D02*
X-940Y-4623D01*
Y-5563D02*
Y-4623D01*
Y-5563D02*
X2057D01*
X-2680Y3632D02*
Y4597D01*
Y3632D02*
X-2374Y3389D01*
X-1892D01*
X-1790Y3287D01*
X2057Y-5563D02*
Y-4498D01*
X2045Y-3416D02*
X2057Y-4498D01*
X2045Y-3416D02*
Y3835D01*
D51*
X1435Y475D02*
D03*
Y871D02*
D03*
X1435Y2652D02*
D03*
Y3048D02*
D03*
D52*
X1359Y1765D02*
D03*
Y2019D02*
D03*
X1613Y1511D02*
D03*
X1359D02*
D03*
X1613Y2019D02*
D03*
D53*
X-2223Y3962D02*
D03*
X-546Y-5169D02*
D03*
X1270Y4013D02*
D03*
D55*
X1613Y1765D02*
D03*
D56*
X-495Y-3340D02*
D03*
Y3882D02*
D03*
D57*
X-1295Y3031D02*
D03*
X305Y-2489D02*
D03*
D58*
Y3851D02*
D03*
D59*
X978Y4432D02*
D03*
X470D02*
D03*
X-38D02*
D03*
X-546D02*
D03*
X-521Y749D02*
D03*
Y241D02*
D03*
Y-267D02*
D03*
Y-775D02*
D03*
Y-1283D02*
D03*
Y-1791D02*
D03*
Y-2299D02*
D03*
Y-2807D02*
D03*
Y-3823D02*
D03*
Y-4331D02*
D03*
X-1029D02*
D03*
Y-3823D02*
D03*
Y-3315D02*
D03*
Y-2807D02*
D03*
Y-2299D02*
D03*
Y-1791D02*
D03*
Y-1283D02*
D03*
Y-775D02*
D03*
Y-267D02*
D03*
Y241D02*
D03*
Y749D02*
D03*
Y4432D02*
D03*
X-1524Y-3823D02*
D03*
Y-3315D02*
D03*
Y-2807D02*
D03*
Y-2299D02*
D03*
Y-1791D02*
D03*
Y-1283D02*
D03*
Y-775D02*
D03*
Y-267D02*
D03*
Y241D02*
D03*
Y749D02*
D03*
Y3924D02*
D03*
Y4432D02*
D03*
X-2019Y3683D02*
D03*
X-2515Y3696D02*
D03*
X-2019Y4445D02*
D03*
X-2540Y4458D02*
D03*
D60*
X-597Y3404D02*
D03*
X172Y3461D02*
D03*
X103Y3271D02*
D03*
X-109Y3436D02*
D03*
X-468Y2942D02*
D03*
X362Y2502D02*
D03*
X-823Y3200D02*
D03*
X-823Y2979D02*
D03*
X178Y2095D02*
D03*
X-317Y3581D02*
D03*
D61*
X317Y-5182D02*
D03*
X1092Y-5271D02*
D03*
X495D02*
D03*
X851D02*
D03*
X140D02*
D03*
X-38Y2883D02*
D03*
X940Y1968D02*
D03*
X876Y3238D02*
D03*
X25Y1130D02*
D03*
X749Y3759D02*
D03*
X381Y1575D02*
D03*
D64*
X1346Y-3302D02*
D03*
D66*
X1511Y241D02*
D03*
X-13Y-267D02*
D03*
X495D02*
D03*
Y-775D02*
D03*
X-13D02*
D03*
Y-1283D02*
D03*
X495D02*
D03*
X1511Y-1791D02*
D03*
Y-2299D02*
D03*
X1003D02*
D03*
Y-1791D02*
D03*
X495D02*
D03*
X-13D02*
D03*
Y-2299D02*
D03*
X495Y-2807D02*
D03*
X-13D02*
D03*
Y-3315D02*
D03*
X495D02*
D03*
X1003D02*
D03*
Y241D02*
D03*
Y749D02*
D03*
Y1257D02*
D03*
X495D02*
D03*
Y749D02*
D03*
Y241D02*
D03*
X-13D02*
D03*
Y749D02*
D03*
X-38Y3924D02*
D03*
X-1029Y1257D02*
D03*
Y2273D02*
D03*
Y3924D02*
D03*
X-1524Y1257D02*
D03*
Y1765D02*
D03*
Y2273D02*
D03*
Y2781D02*
D03*
Y3416D02*
D03*
D67*
X1600Y-5182D02*
D03*
X1778Y-5271D02*
D03*
X1422D02*
D03*
X1337Y2340D02*
D03*
X394Y2642D02*
D03*
X914Y2883D02*
D03*
X-216Y2045D02*
D03*
X-1092Y2769D02*
D03*
Y1562D02*
D03*
Y3416D02*
D03*
X-470Y1130D02*
D03*
X851Y-2692D02*
D03*
X1283Y-991D02*
D03*
D68*
X-279Y2807D02*
D03*
X-470Y2159D02*
D03*
X51Y2591D02*
D03*
M02*
