G04*
G04 #@! TF.GenerationSoftware,Altium Limited,Altium Designer,23.10.1 (27)*
G04*
G04 Layer_Color=2752767*
%FSLAX42Y42*%
%MOMM*%
G71*
G04*
G04 #@! TF.SameCoordinates,D788F153-7B32-47A3-9728-DC68925F5BF0*
G04*
G04*
G04 #@! TF.FilePolarity,Positive*
G04*
G01*
G75*
%ADD13C,0.13*%
%ADD98C,0.17*%
%ADD99C,0.10*%
D13*
X1435Y424D02*
X1460Y450D01*
X1486D01*
X1460Y475D01*
X1486Y501D01*
X1460D01*
X1435Y526D01*
X1409Y501D01*
X1384D01*
X1409Y475D01*
X1384Y450D01*
X1409D01*
X1435Y424D01*
Y820D02*
X1460Y846D01*
X1486D01*
X1460Y871D01*
X1486Y897D01*
X1460D01*
X1435Y922D01*
X1409Y897D01*
X1384D01*
X1409Y871D01*
X1384Y846D01*
X1409D01*
X1435Y820D01*
X1308Y1715D02*
X1334Y1765D01*
X1308Y1816D01*
X1359Y1791D01*
X1410Y1816D01*
X1384Y1765D01*
X1410Y1715D01*
X1359Y1740D01*
X1308Y1715D01*
Y1968D02*
X1334Y2019D01*
X1308Y2070D01*
X1359Y2045D01*
X1410Y2070D01*
X1384Y2019D01*
X1410Y1968D01*
X1359Y1994D01*
X1308Y1968D01*
X1562Y1460D02*
X1588Y1511D01*
X1562Y1562D01*
X1613Y1537D01*
X1664Y1562D01*
X1638Y1511D01*
X1664Y1460D01*
X1613Y1486D01*
X1562Y1460D01*
Y1715D02*
X1588Y1765D01*
X1562Y1816D01*
X1613Y1791D01*
X1664Y1816D01*
X1638Y1765D01*
X1664Y1715D01*
X1613Y1740D01*
X1562Y1715D01*
X-2248Y3937D02*
Y3912D01*
X-2197D01*
Y3937D01*
X-2172D01*
Y3988D01*
X-2197D01*
Y4013D01*
X-2248D01*
Y3988D01*
X-2273D01*
Y3937D01*
X-2248D01*
X-572Y-5194D02*
Y-5220D01*
X-521D01*
Y-5194D01*
X-495D01*
Y-5144D01*
X-521D01*
Y-5118D01*
X-572D01*
Y-5144D01*
X-597D01*
Y-5194D01*
X-572D01*
X1321Y-3327D02*
Y-3353D01*
X1372D01*
Y-3327D01*
X1397D01*
Y-3277D01*
X1372D01*
Y-3251D01*
X1321D01*
Y-3277D01*
X1295D01*
Y-3327D01*
X1321D01*
X1245Y3988D02*
Y3962D01*
X1295D01*
Y3988D01*
X1321D01*
Y4039D01*
X1295D01*
Y4064D01*
X1245D01*
Y4039D01*
X1219D01*
Y3988D01*
X1245D01*
X1435Y2601D02*
X1460Y2627D01*
X1486D01*
X1460Y2652D01*
X1486Y2677D01*
X1460D01*
X1435Y2703D01*
X1410Y2677D01*
X1384D01*
X1410Y2652D01*
X1384Y2627D01*
X1410D01*
X1435Y2601D01*
Y2997D02*
X1460Y3023D01*
X1486D01*
X1460Y3048D01*
X1486Y3073D01*
X1460D01*
X1435Y3099D01*
X1410Y3073D01*
X1384D01*
X1410Y3048D01*
X1384Y3023D01*
X1410D01*
X1435Y2997D01*
X1308Y1460D02*
X1334Y1511D01*
X1308Y1562D01*
X1359Y1537D01*
X1410Y1562D01*
X1384Y1511D01*
X1410Y1460D01*
X1359Y1486D01*
X1308Y1460D01*
X1562Y1968D02*
X1588Y2019D01*
X1562Y2070D01*
X1613Y2045D01*
X1664Y2070D01*
X1638Y2019D01*
X1664Y1968D01*
X1613Y1994D01*
X1562Y1968D01*
X-546Y-3391D02*
Y-3289D01*
X-445D01*
Y-3391D01*
X-546D01*
Y3831D02*
Y3933D01*
X-445D01*
Y3831D01*
X-546D01*
X305Y3800D02*
X254Y3902D01*
X356D01*
X305Y3800D01*
X-648Y3353D02*
Y3454D01*
X-546D01*
Y3353D01*
X-648D01*
X-627Y3373D02*
Y3434D01*
X-566D01*
Y3373D01*
X-627D01*
X267Y-5232D02*
X292D01*
X317Y-5207D01*
X343Y-5232D01*
X368D01*
Y-5207D01*
X343Y-5182D01*
X368Y-5156D01*
Y-5131D01*
X343D01*
X317Y-5156D01*
X292Y-5131D01*
X267D01*
Y-5156D01*
X292Y-5182D01*
X267Y-5207D01*
Y-5232D01*
X1549D02*
X1575D01*
X1600Y-5207D01*
X1626Y-5232D01*
X1651D01*
Y-5207D01*
X1626Y-5182D01*
X1651Y-5156D01*
Y-5131D01*
X1626D01*
X1600Y-5156D01*
X1575Y-5131D01*
X1549D01*
Y-5156D01*
X1575Y-5182D01*
X1549Y-5207D01*
Y-5232D01*
X1727Y-5321D02*
X1753D01*
X1778Y-5296D01*
X1803Y-5321D01*
X1829D01*
Y-5296D01*
X1803Y-5271D01*
X1829Y-5245D01*
Y-5220D01*
X1803D01*
X1778Y-5245D01*
X1753Y-5220D01*
X1727D01*
Y-5245D01*
X1753Y-5271D01*
X1727Y-5296D01*
Y-5321D01*
X1041D02*
X1067D01*
X1092Y-5296D01*
X1118Y-5321D01*
X1143D01*
Y-5296D01*
X1118Y-5271D01*
X1143Y-5245D01*
Y-5220D01*
X1118D01*
X1092Y-5245D01*
X1067Y-5220D01*
X1041D01*
Y-5245D01*
X1067Y-5271D01*
X1041Y-5296D01*
Y-5321D01*
X445D02*
X470D01*
X495Y-5296D01*
X521Y-5321D01*
X546D01*
Y-5296D01*
X521Y-5271D01*
X546Y-5245D01*
Y-5220D01*
X521D01*
X495Y-5245D01*
X470Y-5220D01*
X445D01*
Y-5245D01*
X470Y-5271D01*
X445Y-5296D01*
Y-5321D01*
X1372D02*
X1397D01*
X1422Y-5296D01*
X1448Y-5321D01*
X1473D01*
Y-5296D01*
X1448Y-5271D01*
X1473Y-5245D01*
Y-5220D01*
X1448D01*
X1422Y-5245D01*
X1397Y-5220D01*
X1372D01*
Y-5245D01*
X1397Y-5271D01*
X1372Y-5296D01*
Y-5321D01*
X800D02*
X826D01*
X851Y-5296D01*
X876Y-5321D01*
X902D01*
Y-5296D01*
X876Y-5271D01*
X902Y-5245D01*
Y-5220D01*
X876D01*
X851Y-5245D01*
X826Y-5220D01*
X800D01*
Y-5245D01*
X826Y-5271D01*
X800Y-5296D01*
Y-5321D01*
X89D02*
X114D01*
X140Y-5296D01*
X165Y-5321D01*
X190D01*
Y-5296D01*
X165Y-5271D01*
X190Y-5245D01*
Y-5220D01*
X165D01*
X140Y-5245D01*
X114Y-5220D01*
X89D01*
Y-5245D01*
X114Y-5271D01*
X89Y-5296D01*
Y-5321D01*
X-89Y2832D02*
X-63D01*
X-38Y2858D01*
X-13Y2832D01*
X13D01*
Y2858D01*
X-13Y2883D01*
X13Y2908D01*
Y2934D01*
X-13D01*
X-38Y2908D01*
X-63Y2934D01*
X-89D01*
Y2908D01*
X-63Y2883D01*
X-89Y2858D01*
Y2832D01*
X1286Y2290D02*
X1312D01*
X1337Y2315D01*
X1362Y2290D01*
X1388D01*
Y2315D01*
X1362Y2340D01*
X1388Y2366D01*
Y2391D01*
X1362D01*
X1337Y2366D01*
X1312Y2391D01*
X1286D01*
Y2366D01*
X1312Y2340D01*
X1286Y2315D01*
Y2290D01*
X121Y3410D02*
Y3512D01*
X222D01*
Y3410D01*
X121D01*
X141Y3430D02*
Y3491D01*
X202D01*
Y3430D01*
X141D01*
X52Y3221D02*
Y3322D01*
X154D01*
Y3221D01*
X52D01*
X73Y3241D02*
Y3302D01*
X133D01*
Y3241D01*
X73D01*
X-160Y3386D02*
Y3487D01*
X-58D01*
Y3386D01*
X-160D01*
X-140Y3406D02*
Y3467D01*
X-79D01*
Y3406D01*
X-140D01*
X-330Y2756D02*
Y2858D01*
X-228D01*
Y2756D01*
X-330D01*
X-310Y2776D02*
Y2837D01*
X-249D01*
Y2776D01*
X-310D01*
X-519Y2891D02*
Y2993D01*
X-417D01*
Y2891D01*
X-519D01*
X-499Y2911D02*
Y2972D01*
X-438D01*
Y2911D01*
X-499D01*
X343Y2591D02*
X368D01*
X394Y2616D01*
X419Y2591D01*
X445D01*
Y2616D01*
X419Y2642D01*
X445Y2667D01*
Y2692D01*
X419D01*
X394Y2667D01*
X368Y2692D01*
X343D01*
Y2667D01*
X368Y2642D01*
X343Y2616D01*
Y2591D01*
X311Y2451D02*
Y2553D01*
X413D01*
Y2451D01*
X311D01*
X331Y2471D02*
Y2532D01*
X392D01*
Y2471D01*
X331D01*
X889Y1918D02*
X914D01*
X940Y1943D01*
X965Y1918D01*
X991D01*
Y1943D01*
X965Y1968D01*
X991Y1994D01*
Y2019D01*
X965D01*
X940Y1994D01*
X914Y2019D01*
X889D01*
Y1994D01*
X914Y1968D01*
X889Y1943D01*
Y1918D01*
X864Y2832D02*
X889D01*
X914Y2858D01*
X940Y2832D01*
X965D01*
Y2858D01*
X940Y2883D01*
X965Y2908D01*
Y2934D01*
X940D01*
X914Y2908D01*
X889Y2934D01*
X864D01*
Y2908D01*
X889Y2883D01*
X864Y2858D01*
Y2832D01*
X-267Y1994D02*
X-241D01*
X-216Y2019D01*
X-190Y1994D01*
X-165D01*
Y2019D01*
X-190Y2045D01*
X-165Y2070D01*
Y2095D01*
X-190D01*
X-216Y2070D01*
X-241Y2095D01*
X-267D01*
Y2070D01*
X-241Y2045D01*
X-267Y2019D01*
Y1994D01*
X-521Y2108D02*
Y2210D01*
X-419D01*
Y2108D01*
X-521D01*
X-500Y2129D02*
Y2189D01*
X-439D01*
Y2129D01*
X-500D01*
X-1143Y2718D02*
X-1118D01*
X-1092Y2743D01*
X-1067Y2718D01*
X-1041D01*
Y2743D01*
X-1067Y2769D01*
X-1041Y2794D01*
Y2819D01*
X-1067D01*
X-1092Y2794D01*
X-1118Y2819D01*
X-1143D01*
Y2794D01*
X-1118Y2769D01*
X-1143Y2743D01*
Y2718D01*
Y1511D02*
X-1118D01*
X-1092Y1537D01*
X-1067Y1511D01*
X-1041D01*
Y1537D01*
X-1067Y1562D01*
X-1041Y1588D01*
Y1613D01*
X-1067D01*
X-1092Y1588D01*
X-1118Y1613D01*
X-1143D01*
Y1588D01*
X-1118Y1562D01*
X-1143Y1537D01*
Y1511D01*
X826Y3188D02*
X851D01*
X876Y3213D01*
X902Y3188D01*
X927D01*
Y3213D01*
X902Y3238D01*
X927Y3264D01*
Y3289D01*
X902D01*
X876Y3264D01*
X851Y3289D01*
X826D01*
Y3264D01*
X851Y3238D01*
X826Y3213D01*
Y3188D01*
X0Y2540D02*
Y2642D01*
X102D01*
Y2540D01*
X0D01*
X20Y2560D02*
Y2621D01*
X81D01*
Y2560D01*
X20D01*
X-874Y3150D02*
Y3251D01*
X-773D01*
Y3150D01*
X-874D01*
X-854Y3170D02*
Y3231D01*
X-793D01*
Y3170D01*
X-854D01*
X-873Y2928D02*
Y3030D01*
X-772D01*
Y2928D01*
X-873D01*
X-853Y2948D02*
Y3009D01*
X-792D01*
Y2948D01*
X-853D01*
X127Y2045D02*
Y2146D01*
X229D01*
Y2045D01*
X127D01*
X147Y2065D02*
Y2126D01*
X208D01*
Y2065D01*
X147D01*
X-1143Y3365D02*
X-1118D01*
X-1092Y3391D01*
X-1067Y3365D01*
X-1041D01*
Y3391D01*
X-1067Y3416D01*
X-1041Y3442D01*
Y3467D01*
X-1067D01*
X-1092Y3442D01*
X-1118Y3467D01*
X-1143D01*
Y3442D01*
X-1118Y3416D01*
X-1143Y3391D01*
Y3365D01*
X-25Y1080D02*
X0D01*
X25Y1105D01*
X51Y1080D01*
X76D01*
Y1105D01*
X51Y1130D01*
X76Y1156D01*
Y1181D01*
X51D01*
X25Y1156D01*
X0Y1181D01*
X-25D01*
Y1156D01*
X0Y1130D01*
X-25Y1105D01*
Y1080D01*
X-521D02*
X-495D01*
X-470Y1105D01*
X-445Y1080D01*
X-419D01*
Y1105D01*
X-445Y1130D01*
X-419Y1156D01*
Y1181D01*
X-445D01*
X-470Y1156D01*
X-495Y1181D01*
X-521D01*
Y1156D01*
X-495Y1130D01*
X-521Y1105D01*
Y1080D01*
X800Y-2743D02*
X826D01*
X851Y-2718D01*
X876Y-2743D01*
X902D01*
Y-2718D01*
X876Y-2692D01*
X902Y-2667D01*
Y-2642D01*
X876D01*
X851Y-2667D01*
X826Y-2642D01*
X800D01*
Y-2667D01*
X826Y-2692D01*
X800Y-2718D01*
Y-2743D01*
X1232Y-1041D02*
X1257D01*
X1283Y-1016D01*
X1308Y-1041D01*
X1334D01*
Y-1016D01*
X1308Y-991D01*
X1334Y-965D01*
Y-940D01*
X1308D01*
X1283Y-965D01*
X1257Y-940D01*
X1232D01*
Y-965D01*
X1257Y-991D01*
X1232Y-1016D01*
Y-1041D01*
X699Y3708D02*
X724D01*
X749Y3734D01*
X775Y3708D01*
X800D01*
Y3734D01*
X775Y3759D01*
X800Y3785D01*
Y3810D01*
X775D01*
X749Y3785D01*
X724Y3810D01*
X699D01*
Y3785D01*
X724Y3759D01*
X699Y3734D01*
Y3708D01*
X330Y1524D02*
X356D01*
X381Y1549D01*
X406Y1524D01*
X432D01*
Y1549D01*
X406Y1575D01*
X432Y1600D01*
Y1626D01*
X406D01*
X381Y1600D01*
X356Y1626D01*
X330D01*
Y1600D01*
X356Y1575D01*
X330Y1549D01*
Y1524D01*
X-368Y3531D02*
Y3632D01*
X-267D01*
Y3531D01*
X-368D01*
X-348Y3551D02*
Y3612D01*
X-287D01*
Y3551D01*
X-348D01*
D98*
X-1244Y3031D02*
G03*
X-1244Y3031I-51J0D01*
G01*
X356Y-2489D02*
G03*
X356Y-2489I-51J0D01*
G01*
X1562Y241D02*
G03*
X1562Y241I-51J0D01*
G01*
X38Y-267D02*
G03*
X38Y-267I-51J0D01*
G01*
X546D02*
G03*
X546Y-267I-51J0D01*
G01*
Y-775D02*
G03*
X546Y-775I-51J0D01*
G01*
X38D02*
G03*
X38Y-775I-51J0D01*
G01*
Y-1283D02*
G03*
X38Y-1283I-51J0D01*
G01*
X546D02*
G03*
X546Y-1283I-51J0D01*
G01*
X1562Y-1791D02*
G03*
X1562Y-1791I-51J0D01*
G01*
Y-2299D02*
G03*
X1562Y-2299I-51J0D01*
G01*
X1054D02*
G03*
X1054Y-2299I-51J0D01*
G01*
Y-1791D02*
G03*
X1054Y-1791I-51J0D01*
G01*
X546D02*
G03*
X546Y-1791I-51J0D01*
G01*
X38D02*
G03*
X38Y-1791I-51J0D01*
G01*
Y-2299D02*
G03*
X38Y-2299I-51J0D01*
G01*
X546Y-2807D02*
G03*
X546Y-2807I-51J0D01*
G01*
X38D02*
G03*
X38Y-2807I-51J0D01*
G01*
Y-3315D02*
G03*
X38Y-3315I-51J0D01*
G01*
X546D02*
G03*
X546Y-3315I-51J0D01*
G01*
X1054D02*
G03*
X1054Y-3315I-51J0D01*
G01*
Y241D02*
G03*
X1054Y241I-51J0D01*
G01*
Y749D02*
G03*
X1054Y749I-51J0D01*
G01*
Y1257D02*
G03*
X1054Y1257I-51J0D01*
G01*
X546D02*
G03*
X546Y1257I-51J0D01*
G01*
Y749D02*
G03*
X546Y749I-51J0D01*
G01*
Y241D02*
G03*
X546Y241I-51J0D01*
G01*
X38D02*
G03*
X38Y241I-51J0D01*
G01*
Y749D02*
G03*
X38Y749I-51J0D01*
G01*
X1029Y4432D02*
G03*
X1029Y4432I-51J0D01*
G01*
X521D02*
G03*
X521Y4432I-51J0D01*
G01*
X13Y3924D02*
G03*
X13Y3924I-51J0D01*
G01*
Y4432D02*
G03*
X13Y4432I-51J0D01*
G01*
X-495D02*
G03*
X-495Y4432I-51J0D01*
G01*
X-470Y749D02*
G03*
X-470Y749I-51J0D01*
G01*
Y241D02*
G03*
X-470Y241I-51J0D01*
G01*
Y-267D02*
G03*
X-470Y-267I-51J0D01*
G01*
Y-775D02*
G03*
X-470Y-775I-51J0D01*
G01*
Y-1283D02*
G03*
X-470Y-1283I-51J0D01*
G01*
Y-1791D02*
G03*
X-470Y-1791I-51J0D01*
G01*
Y-2299D02*
G03*
X-470Y-2299I-51J0D01*
G01*
Y-2807D02*
G03*
X-470Y-2807I-51J0D01*
G01*
Y-3823D02*
G03*
X-470Y-3823I-51J0D01*
G01*
Y-4331D02*
G03*
X-470Y-4331I-51J0D01*
G01*
X-978D02*
G03*
X-978Y-4331I-51J0D01*
G01*
Y-3823D02*
G03*
X-978Y-3823I-51J0D01*
G01*
Y-3315D02*
G03*
X-978Y-3315I-51J0D01*
G01*
Y-2807D02*
G03*
X-978Y-2807I-51J0D01*
G01*
Y-2299D02*
G03*
X-978Y-2299I-51J0D01*
G01*
Y-1791D02*
G03*
X-978Y-1791I-51J0D01*
G01*
Y-1283D02*
G03*
X-978Y-1283I-51J0D01*
G01*
Y-775D02*
G03*
X-978Y-775I-51J0D01*
G01*
Y-267D02*
G03*
X-978Y-267I-51J0D01*
G01*
Y241D02*
G03*
X-978Y241I-51J0D01*
G01*
Y749D02*
G03*
X-978Y749I-51J0D01*
G01*
Y1257D02*
G03*
X-978Y1257I-51J0D01*
G01*
Y2273D02*
G03*
X-978Y2273I-51J0D01*
G01*
Y3924D02*
G03*
X-978Y3924I-51J0D01*
G01*
Y4432D02*
G03*
X-978Y4432I-51J0D01*
G01*
X-1473Y-3823D02*
G03*
X-1473Y-3823I-51J0D01*
G01*
Y-3315D02*
G03*
X-1473Y-3315I-51J0D01*
G01*
Y-2807D02*
G03*
X-1473Y-2807I-51J0D01*
G01*
Y-2299D02*
G03*
X-1473Y-2299I-51J0D01*
G01*
Y-1791D02*
G03*
X-1473Y-1791I-51J0D01*
G01*
Y-1283D02*
G03*
X-1473Y-1283I-51J0D01*
G01*
Y-775D02*
G03*
X-1473Y-775I-51J0D01*
G01*
Y-267D02*
G03*
X-1473Y-267I-51J0D01*
G01*
Y241D02*
G03*
X-1473Y241I-51J0D01*
G01*
Y749D02*
G03*
X-1473Y749I-51J0D01*
G01*
Y1257D02*
G03*
X-1473Y1257I-51J0D01*
G01*
Y1765D02*
G03*
X-1473Y1765I-51J0D01*
G01*
Y2273D02*
G03*
X-1473Y2273I-51J0D01*
G01*
Y2781D02*
G03*
X-1473Y2781I-51J0D01*
G01*
Y3416D02*
G03*
X-1473Y3416I-51J0D01*
G01*
Y3924D02*
G03*
X-1473Y3924I-51J0D01*
G01*
Y4432D02*
G03*
X-1473Y4432I-51J0D01*
G01*
X-1968Y3683D02*
G03*
X-1968Y3683I-51J0D01*
G01*
X-2464Y3696D02*
G03*
X-2464Y3696I-51J0D01*
G01*
X-1968Y4445D02*
G03*
X-1968Y4445I-51J0D01*
G01*
X-2489Y4458D02*
G03*
X-2489Y4458I-51J0D01*
G01*
D99*
X1542Y241D02*
G03*
X1542Y241I-30J0D01*
G01*
X18Y-267D02*
G03*
X18Y-267I-30J0D01*
G01*
X526D02*
G03*
X526Y-267I-30J0D01*
G01*
Y-775D02*
G03*
X526Y-775I-30J0D01*
G01*
X18D02*
G03*
X18Y-775I-30J0D01*
G01*
Y-1283D02*
G03*
X18Y-1283I-30J0D01*
G01*
X526D02*
G03*
X526Y-1283I-30J0D01*
G01*
X1542Y-1791D02*
G03*
X1542Y-1791I-30J0D01*
G01*
Y-2299D02*
G03*
X1542Y-2299I-30J0D01*
G01*
X1034D02*
G03*
X1034Y-2299I-30J0D01*
G01*
Y-1791D02*
G03*
X1034Y-1791I-30J0D01*
G01*
X526D02*
G03*
X526Y-1791I-30J0D01*
G01*
X18D02*
G03*
X18Y-1791I-30J0D01*
G01*
Y-2299D02*
G03*
X18Y-2299I-30J0D01*
G01*
X526Y-2807D02*
G03*
X526Y-2807I-30J0D01*
G01*
X18D02*
G03*
X18Y-2807I-30J0D01*
G01*
Y-3315D02*
G03*
X18Y-3315I-30J0D01*
G01*
X526D02*
G03*
X526Y-3315I-30J0D01*
G01*
X1034D02*
G03*
X1034Y-3315I-30J0D01*
G01*
Y241D02*
G03*
X1034Y241I-30J0D01*
G01*
Y749D02*
G03*
X1034Y749I-30J0D01*
G01*
Y1257D02*
G03*
X1034Y1257I-30J0D01*
G01*
X526D02*
G03*
X526Y1257I-30J0D01*
G01*
Y749D02*
G03*
X526Y749I-30J0D01*
G01*
Y241D02*
G03*
X526Y241I-30J0D01*
G01*
X18D02*
G03*
X18Y241I-30J0D01*
G01*
Y749D02*
G03*
X18Y749I-30J0D01*
G01*
X1008Y4432D02*
G03*
X1008Y4432I-30J0D01*
G01*
X500D02*
G03*
X500Y4432I-30J0D01*
G01*
X-8Y3924D02*
G03*
X-8Y3924I-30J0D01*
G01*
Y4432D02*
G03*
X-8Y4432I-30J0D01*
G01*
X-516D02*
G03*
X-516Y4432I-30J0D01*
G01*
X-490Y749D02*
G03*
X-490Y749I-30J0D01*
G01*
Y241D02*
G03*
X-490Y241I-30J0D01*
G01*
Y-267D02*
G03*
X-490Y-267I-30J0D01*
G01*
Y-775D02*
G03*
X-490Y-775I-30J0D01*
G01*
Y-1283D02*
G03*
X-490Y-1283I-30J0D01*
G01*
Y-1791D02*
G03*
X-490Y-1791I-30J0D01*
G01*
Y-2299D02*
G03*
X-490Y-2299I-30J0D01*
G01*
Y-2807D02*
G03*
X-490Y-2807I-30J0D01*
G01*
Y-3823D02*
G03*
X-490Y-3823I-30J0D01*
G01*
Y-4331D02*
G03*
X-490Y-4331I-30J0D01*
G01*
X-998D02*
G03*
X-998Y-4331I-30J0D01*
G01*
Y-3823D02*
G03*
X-998Y-3823I-30J0D01*
G01*
Y-3315D02*
G03*
X-998Y-3315I-30J0D01*
G01*
Y-2807D02*
G03*
X-998Y-2807I-30J0D01*
G01*
Y-2299D02*
G03*
X-998Y-2299I-30J0D01*
G01*
Y-1791D02*
G03*
X-998Y-1791I-30J0D01*
G01*
Y-1283D02*
G03*
X-998Y-1283I-30J0D01*
G01*
Y-775D02*
G03*
X-998Y-775I-30J0D01*
G01*
Y-267D02*
G03*
X-998Y-267I-30J0D01*
G01*
Y241D02*
G03*
X-998Y241I-30J0D01*
G01*
Y749D02*
G03*
X-998Y749I-30J0D01*
G01*
Y1257D02*
G03*
X-998Y1257I-30J0D01*
G01*
Y2273D02*
G03*
X-998Y2273I-30J0D01*
G01*
Y3924D02*
G03*
X-998Y3924I-30J0D01*
G01*
Y4432D02*
G03*
X-998Y4432I-30J0D01*
G01*
X-1494Y-3823D02*
G03*
X-1494Y-3823I-30J0D01*
G01*
Y-3315D02*
G03*
X-1494Y-3315I-30J0D01*
G01*
Y-2807D02*
G03*
X-1494Y-2807I-30J0D01*
G01*
Y-2299D02*
G03*
X-1494Y-2299I-30J0D01*
G01*
Y-1791D02*
G03*
X-1494Y-1791I-30J0D01*
G01*
Y-1283D02*
G03*
X-1494Y-1283I-30J0D01*
G01*
Y-775D02*
G03*
X-1494Y-775I-30J0D01*
G01*
Y-267D02*
G03*
X-1494Y-267I-30J0D01*
G01*
Y241D02*
G03*
X-1494Y241I-30J0D01*
G01*
Y749D02*
G03*
X-1494Y749I-30J0D01*
G01*
Y1257D02*
G03*
X-1494Y1257I-30J0D01*
G01*
Y1765D02*
G03*
X-1494Y1765I-30J0D01*
G01*
Y2273D02*
G03*
X-1494Y2273I-30J0D01*
G01*
Y2781D02*
G03*
X-1494Y2781I-30J0D01*
G01*
Y3416D02*
G03*
X-1494Y3416I-30J0D01*
G01*
Y3924D02*
G03*
X-1494Y3924I-30J0D01*
G01*
Y4432D02*
G03*
X-1494Y4432I-30J0D01*
G01*
X-1989Y3683D02*
G03*
X-1989Y3683I-30J0D01*
G01*
X-2484Y3696D02*
G03*
X-2484Y3696I-30J0D01*
G01*
X-1989Y4445D02*
G03*
X-1989Y4445I-30J0D01*
G01*
X-2510Y4458D02*
G03*
X-2510Y4458I-30J0D01*
G01*
M02*
