G04*
G04 #@! TF.GenerationSoftware,Altium Limited,Altium Designer,23.10.1 (27)*
G04*
G04 Layer_Physical_Order=3*
G04 Layer_Color=32768*
%FSLAX42Y42*%
%MOMM*%
G71*
G04*
G04 #@! TF.SameCoordinates,D788F153-7B32-47A3-9728-DC68925F5BF0*
G04*
G04*
G04 #@! TF.FilePolarity,Negative*
G04*
G01*
G75*
%ADD16C,0.25*%
%ADD50C,1.02*%
%ADD51C,2.67*%
%ADD52C,1.91*%
G04:AMPARAMS|DCode=53|XSize=4.024mm|YSize=4.024mm|CornerRadius=0mm|HoleSize=0mm|Usage=FLASHONLY|Rotation=0.000|XOffset=0mm|YOffset=0mm|HoleType=Round|Shape=Relief|Width=0.25mm|Gap=0.25mm|Entries=4|*
%AMTHD53*
7,0,0,4.02,3.52,0.25,45*
%
%ADD53THD53*%
%ADD57C,4.57*%
%ADD58C,3.41*%
G04:AMPARAMS|DCode=59|XSize=1.774mm|YSize=1.774mm|CornerRadius=0mm|HoleSize=0mm|Usage=FLASHONLY|Rotation=0.000|XOffset=0mm|YOffset=0mm|HoleType=Round|Shape=Relief|Width=0.25mm|Gap=0.25mm|Entries=4|*
%AMTHD59*
7,0,0,1.77,1.27,0.25,45*
%
%ADD59THD59*%
%ADD60C,1.32*%
%ADD61C,1.73*%
%ADD62C,0.51*%
%ADD63C,1.00*%
%ADD64C,3.52*%
G04:AMPARAMS|DCode=65|XSize=2.844mm|YSize=2.844mm|CornerRadius=0mm|HoleSize=0mm|Usage=FLASHONLY|Rotation=0.000|XOffset=0mm|YOffset=0mm|HoleType=Round|Shape=Relief|Width=0.25mm|Gap=0.25mm|Entries=4|*
%AMTHD65*
7,0,0,2.84,2.34,0.25,45*
%
%ADD65THD65*%
%ADD66C,1.27*%
G04:AMPARAMS|DCode=67|XSize=2.2352mm|YSize=2.2352mm|CornerRadius=0mm|HoleSize=0mm|Usage=FLASHONLY|Rotation=0.000|XOffset=0mm|YOffset=0mm|HoleType=Round|Shape=Relief|Width=0.25mm|Gap=0.25mm|Entries=4|*
%AMTHD67*
7,0,0,2.24,1.73,0.25,45*
%
%ADD67THD67*%
G36*
X12560Y-5563D02*
X2057D01*
Y-4498D01*
X2045Y-3416D01*
Y3835D01*
Y3861D01*
X1308Y4597D01*
X12560D01*
Y-5563D01*
D02*
G37*
G36*
X-2374Y3389D02*
X-1892D01*
X-1790Y3287D01*
X-1803Y-3760D01*
X-940Y-4623D01*
Y-5563D01*
X-2680D01*
Y3632D01*
X-2374Y3389D01*
D02*
G37*
D16*
X-864Y4077D02*
X749D01*
X777Y-4468D02*
X800Y-4445D01*
X-254Y-5156D02*
Y-3505D01*
Y-5156D02*
X-13Y-5397D01*
X686D01*
Y-4559D01*
X777Y-4468D01*
X800Y-4445D02*
X1181D01*
X1270Y-4534D01*
Y-5563D02*
Y-4534D01*
X787Y1854D02*
Y2731D01*
Y2946D02*
X1041Y3200D01*
X-178Y2680D02*
Y2972D01*
X-102Y3048D01*
X51D01*
X152Y2946D01*
X787D01*
X711Y2731D02*
X787D01*
X1118Y-2616D02*
X2045D01*
X711Y-3023D02*
X1118Y-2616D01*
X711Y-4534D02*
Y-3023D01*
X-1016Y3810D02*
X-864D01*
X-1283Y3543D02*
X-1016Y3810D01*
X-1283Y3327D02*
Y3543D01*
X-1867Y3327D02*
X-1283D01*
X1206Y3365D02*
X2045D01*
X749Y3823D02*
X1206Y3365D01*
X749Y3823D02*
Y4077D01*
X-254Y-3505D02*
Y-3048D01*
X-762Y-2540D02*
X-254Y-3048D01*
X-762Y-2540D02*
Y-2515D01*
Y2095D01*
X-127Y2731D01*
X711D01*
X-38Y800D02*
X2032D01*
X-203Y965D02*
X-38Y800D01*
X-203Y965D02*
Y1143D01*
X13Y1359D01*
X521D01*
X787Y1626D01*
Y1854D01*
X1041Y3200D02*
Y3327D01*
X914Y3454D02*
X1041Y3327D01*
X787Y3454D02*
X914D01*
X597Y3645D02*
X787Y3454D01*
X-762Y3645D02*
X597D01*
X-864Y3747D02*
X-762Y3645D01*
X-864Y3747D02*
Y4077D01*
D50*
X1308Y4597D02*
X2045Y3861D01*
X-2680Y4597D02*
X1308D01*
X2045Y3835D02*
Y3861D01*
X-1803Y-3760D02*
X-1790Y3287D01*
X-1803Y-3760D02*
X-940Y-4623D01*
Y-5563D02*
Y-4623D01*
Y-5563D02*
X2057D01*
X-2680Y3632D02*
Y4597D01*
Y3632D02*
X-2374Y3389D01*
X-1892D01*
X-1790Y3287D01*
X2057Y-5563D02*
Y-4498D01*
X2045Y-3416D02*
X2057Y-4498D01*
X2045Y-3416D02*
Y3835D01*
D51*
X1435Y475D02*
D03*
Y871D02*
D03*
X1435Y2652D02*
D03*
Y3048D02*
D03*
D52*
X1359Y1765D02*
D03*
Y2019D02*
D03*
X1613Y1511D02*
D03*
Y1765D02*
D03*
X1359Y1511D02*
D03*
X1613Y2019D02*
D03*
D53*
X-2223Y3962D02*
D03*
X1346Y-3302D02*
D03*
X1270Y4013D02*
D03*
D57*
X-1295Y3031D02*
D03*
X305Y-2489D02*
D03*
D58*
Y3851D02*
D03*
D59*
X1003Y-3315D02*
D03*
X978Y4432D02*
D03*
X470D02*
D03*
X-38D02*
D03*
X-546D02*
D03*
X-1029Y3924D02*
D03*
Y4432D02*
D03*
X-1524Y3416D02*
D03*
Y3924D02*
D03*
Y4432D02*
D03*
X-2019Y3683D02*
D03*
X-2515Y3696D02*
D03*
X-2019Y4445D02*
D03*
X-2540Y4458D02*
D03*
D60*
X-597Y3404D02*
D03*
X172Y3461D02*
D03*
X103Y3271D02*
D03*
X-109Y3436D02*
D03*
X-279Y2807D02*
D03*
X-468Y2942D02*
D03*
X362Y2502D02*
D03*
X-470Y2159D02*
D03*
X51Y2591D02*
D03*
X-823Y3200D02*
D03*
X-823Y2979D02*
D03*
X178Y2095D02*
D03*
X-317Y3581D02*
D03*
D61*
X1600Y-5182D02*
D03*
X1778Y-5271D02*
D03*
X1422D02*
D03*
X1337Y2340D02*
D03*
X394Y2642D02*
D03*
X914Y2883D02*
D03*
X-216Y2045D02*
D03*
X-1092Y2769D02*
D03*
Y1562D02*
D03*
Y3416D02*
D03*
X-470Y1130D02*
D03*
X851Y-2692D02*
D03*
X1283Y-991D02*
D03*
X749Y3759D02*
D03*
D62*
X-284Y2775D02*
X-281D01*
X-262Y2794D01*
D63*
X-1085Y2769D02*
X-1059Y2743D01*
X-1092Y2769D02*
X-1085D01*
D64*
X-546Y-5169D02*
D03*
D65*
X-495Y-3340D02*
D03*
Y3882D02*
D03*
D66*
X1511Y241D02*
D03*
X-13Y-267D02*
D03*
X495D02*
D03*
Y-775D02*
D03*
X-13D02*
D03*
Y-1283D02*
D03*
X495D02*
D03*
X1511Y-1791D02*
D03*
Y-2299D02*
D03*
X1003D02*
D03*
Y-1791D02*
D03*
X495D02*
D03*
X-13D02*
D03*
Y-2299D02*
D03*
X495Y-2807D02*
D03*
X-13D02*
D03*
Y-3315D02*
D03*
X495D02*
D03*
X1003Y241D02*
D03*
Y749D02*
D03*
Y1257D02*
D03*
X495D02*
D03*
Y749D02*
D03*
Y241D02*
D03*
X-13D02*
D03*
Y749D02*
D03*
X-38Y3924D02*
D03*
X-521Y749D02*
D03*
Y241D02*
D03*
Y-267D02*
D03*
Y-775D02*
D03*
Y-1283D02*
D03*
Y-1791D02*
D03*
Y-2299D02*
D03*
Y-2807D02*
D03*
Y-3823D02*
D03*
Y-4331D02*
D03*
X-1029D02*
D03*
Y-3823D02*
D03*
Y-3315D02*
D03*
Y-2807D02*
D03*
Y-2299D02*
D03*
Y-1791D02*
D03*
Y-1283D02*
D03*
Y-775D02*
D03*
Y-267D02*
D03*
Y241D02*
D03*
Y749D02*
D03*
Y1257D02*
D03*
Y2273D02*
D03*
X-1524Y-3823D02*
D03*
Y-3315D02*
D03*
Y-2807D02*
D03*
Y-2299D02*
D03*
Y-1791D02*
D03*
Y-1283D02*
D03*
Y-775D02*
D03*
Y-267D02*
D03*
Y241D02*
D03*
Y749D02*
D03*
Y1257D02*
D03*
Y1765D02*
D03*
Y2273D02*
D03*
Y2781D02*
D03*
D67*
X317Y-5182D02*
D03*
X1092Y-5271D02*
D03*
X495D02*
D03*
X851D02*
D03*
X140D02*
D03*
X-38Y2883D02*
D03*
X940Y1968D02*
D03*
X876Y3238D02*
D03*
X25Y1130D02*
D03*
X381Y1575D02*
D03*
M02*
