G04*
G04 #@! TF.GenerationSoftware,Altium Limited,Altium Designer,23.10.1 (27)*
G04*
G04 Layer_Color=65535*
%FSLAX42Y42*%
%MOMM*%
G71*
G04*
G04 #@! TF.SameCoordinates,D788F153-7B32-47A3-9728-DC68925F5BF0*
G04*
G04*
G04 #@! TF.FilePolarity,Positive*
G04*
G01*
G75*
%ADD10C,0.25*%
%ADD11C,0.20*%
%ADD12C,0.15*%
%ADD13C,0.13*%
%ADD14C,0.40*%
%ADD15C,0.50*%
%ADD16C,0.25*%
%ADD17C,0.06*%
D10*
X1447Y215D02*
G03*
X1447Y215I-12J0D01*
G01*
X1448Y2392D02*
G03*
X1448Y2392I-12J0D01*
G01*
X208Y-3775D02*
G03*
X208Y-3775I-12J0D01*
G01*
D11*
X1840Y2019D02*
G03*
X1840Y2019I-10J0D01*
G01*
X1709Y-2519D02*
X1709Y-1469D01*
X983Y-1469D02*
X984Y-2517D01*
X1915Y280D02*
Y1066D01*
X1065Y405D02*
Y941D01*
Y405D02*
X1235D01*
Y280D02*
Y405D01*
Y280D02*
X1915D01*
X1065Y941D02*
X1235D01*
Y1066D01*
X1915D01*
X1915Y2457D02*
Y3243D01*
X1065Y2582D02*
Y3118D01*
Y2582D02*
X1235D01*
Y2457D02*
Y2582D01*
Y2457D02*
X1915D01*
X1065Y3118D02*
X1235D01*
Y3243D01*
X1915D01*
X1506Y-4966D02*
X1775D01*
X-165D02*
X104D01*
X-165Y-4338D02*
Y-4039D01*
Y-4966D02*
Y-4578D01*
X1506Y-4039D02*
X1775D01*
X-165D02*
X104D01*
X1775Y-4338D02*
Y-4039D01*
Y-4966D02*
Y-4578D01*
X-1540Y-3594D02*
Y4136D01*
X550D01*
Y-3594D02*
Y4136D01*
X-1540Y-3594D02*
X550D01*
X-495Y-3724D02*
Y-3624D01*
X-545Y4216D02*
X-445D01*
X-495Y4166D02*
Y4266D01*
D12*
X1658Y-718D02*
Y-678D01*
X1651Y-160D02*
Y-120D01*
X1658Y-414D02*
Y-374D01*
D13*
X1242Y1405D02*
Y2126D01*
Y1405D02*
X1730D01*
Y2126D01*
X1242D02*
X1730D01*
X1588Y-597D02*
Y-521D01*
X1626D01*
X1639Y-534D01*
Y-559D01*
X1626Y-572D01*
X1588D01*
X1613D02*
X1639Y-597D01*
X1664D02*
X1690D01*
X1677D01*
Y-521D01*
X1664Y-534D01*
X1728D02*
X1740Y-521D01*
X1766D01*
X1779Y-534D01*
Y-585D01*
X1766Y-597D01*
X1740D01*
X1728Y-585D01*
Y-534D01*
X1577Y-28D02*
Y48D01*
X1615D01*
X1628Y36D01*
Y10D01*
X1615Y-3D01*
X1577D01*
X1603D02*
X1628Y-28D01*
X1654Y-15D02*
X1666Y-28D01*
X1692D01*
X1704Y-15D01*
Y36D01*
X1692Y48D01*
X1666D01*
X1654Y36D01*
Y23D01*
X1666Y10D01*
X1704D01*
X1582Y-282D02*
Y-206D01*
X1621D01*
X1633Y-218D01*
Y-244D01*
X1621Y-257D01*
X1582D01*
X1608D02*
X1633Y-282D01*
X1659Y-218D02*
X1671Y-206D01*
X1697D01*
X1709Y-218D01*
Y-231D01*
X1697Y-244D01*
X1709Y-257D01*
Y-269D01*
X1697Y-282D01*
X1671D01*
X1659Y-269D01*
Y-257D01*
X1671Y-244D01*
X1659Y-231D01*
Y-218D01*
X1671Y-244D02*
X1697D01*
X1156Y-533D02*
Y-610D01*
X1194D01*
X1207Y-597D01*
Y-546D01*
X1194Y-533D01*
X1156D01*
X1283Y-546D02*
X1270Y-533D01*
X1245D01*
X1232Y-546D01*
Y-559D01*
X1245Y-572D01*
X1270D01*
X1283Y-584D01*
Y-597D01*
X1270Y-610D01*
X1245D01*
X1232Y-597D01*
X1308Y-546D02*
X1321Y-533D01*
X1346D01*
X1359Y-546D01*
Y-559D01*
X1346Y-572D01*
X1333D01*
X1346D01*
X1359Y-584D01*
Y-597D01*
X1346Y-610D01*
X1321D01*
X1308Y-597D01*
X1155Y38D02*
Y-38D01*
X1193D01*
X1205Y-25D01*
Y25D01*
X1193Y38D01*
X1155D01*
X1281Y25D02*
X1269Y38D01*
X1243D01*
X1231Y25D01*
Y13D01*
X1243Y0D01*
X1269D01*
X1281Y-13D01*
Y-25D01*
X1269Y-38D01*
X1243D01*
X1231Y-25D01*
X1358Y-38D02*
X1307D01*
X1358Y13D01*
Y25D01*
X1345Y38D01*
X1320D01*
X1307Y25D01*
X1156Y-241D02*
Y-317D01*
X1194D01*
X1207Y-305D01*
Y-254D01*
X1194Y-241D01*
X1156D01*
X1283Y-254D02*
X1270Y-241D01*
X1245D01*
X1232Y-254D01*
Y-267D01*
X1245Y-279D01*
X1270D01*
X1283Y-292D01*
Y-305D01*
X1270Y-317D01*
X1245D01*
X1232Y-305D01*
X1308Y-317D02*
X1333D01*
X1321D01*
Y-241D01*
X1308Y-254D01*
D14*
X1509Y-736D02*
Y-656D01*
X1511Y-180D02*
Y-100D01*
X1509Y-445D02*
Y-364D01*
D15*
X-393Y-2498D02*
Y-2398D01*
Y-2448D01*
X-693D01*
X-643Y-2498D01*
Y-2048D02*
X-693Y-2098D01*
Y-2198D01*
X-643Y-2248D01*
X-443D01*
X-393Y-2198D01*
Y-2098D01*
X-443Y-2048D01*
X-393Y-1648D02*
Y-1548D01*
Y-1598D01*
X-693D01*
X-643Y-1648D01*
Y-1398D02*
X-693Y-1348D01*
Y-1248D01*
X-643Y-1198D01*
X-593D01*
X-543Y-1248D01*
X-493Y-1198D01*
X-443D01*
X-393Y-1248D01*
Y-1348D01*
X-443Y-1398D01*
X-493D01*
X-543Y-1348D01*
X-593Y-1398D01*
X-643D01*
X-543Y-1348D02*
Y-1248D01*
X-693Y-898D02*
X-643Y-998D01*
X-543Y-1098D01*
X-443D01*
X-393Y-1048D01*
Y-948D01*
X-443Y-898D01*
X-493D01*
X-543Y-948D01*
Y-1098D01*
X-693Y-599D02*
Y-799D01*
X-543D01*
X-593Y-699D01*
Y-649D01*
X-543Y-599D01*
X-443D01*
X-393Y-649D01*
Y-749D01*
X-443Y-799D01*
X-643Y-499D02*
X-693Y-449D01*
Y-349D01*
X-643Y-299D01*
X-443D01*
X-393Y-349D01*
Y-449D01*
X-443Y-499D01*
X-643D01*
Y301D02*
X-693Y251D01*
Y151D01*
X-643Y101D01*
X-593D01*
X-543Y151D01*
Y251D01*
X-493Y301D01*
X-443D01*
X-393Y251D01*
Y151D01*
X-443Y101D01*
X-393Y401D02*
X-593D01*
Y451D01*
X-543Y501D01*
X-393D01*
X-543D01*
X-593Y551D01*
X-543Y601D01*
X-393D01*
X-593Y751D02*
Y851D01*
X-543Y901D01*
X-393D01*
Y751D01*
X-443Y701D01*
X-493Y751D01*
Y901D01*
X-593Y1001D02*
X-393D01*
X-493D01*
X-543Y1051D01*
X-593Y1101D01*
Y1151D01*
X-643Y1351D02*
X-593D01*
Y1301D01*
Y1401D01*
Y1351D01*
X-443D01*
X-393Y1401D01*
X-693Y1851D02*
X-393D01*
Y2001D01*
X-443Y2051D01*
X-493D01*
X-543Y2001D01*
Y1851D01*
Y2001D01*
X-593Y2051D01*
X-643D01*
X-693Y2001D01*
Y1851D01*
X-393Y2151D02*
X-693D01*
X-593Y2250D01*
X-693Y2350D01*
X-393D01*
X-643Y2650D02*
X-693Y2600D01*
Y2500D01*
X-643Y2450D01*
X-593D01*
X-543Y2500D01*
Y2600D01*
X-493Y2650D01*
X-443D01*
X-393Y2600D01*
Y2500D01*
X-443Y2450D01*
D16*
X1473Y1130D02*
Y1283D01*
X1549D01*
X1575Y1257D01*
Y1206D01*
X1549Y1181D01*
X1473D01*
X1727Y1130D02*
X1626D01*
X1727Y1232D01*
Y1257D01*
X1702Y1283D01*
X1651D01*
X1626Y1257D01*
X1816Y-1930D02*
X1968D01*
Y-2007D01*
X1943Y-2032D01*
X1892D01*
X1867Y-2007D01*
Y-1930D01*
Y-1981D02*
X1816Y-2032D01*
X1968Y-2083D02*
Y-2184D01*
X1943D01*
X1842Y-2083D01*
X1816D01*
X1448Y3315D02*
Y3467D01*
X1524D01*
X1549Y3442D01*
Y3391D01*
X1524Y3366D01*
X1448D01*
X1600Y3315D02*
X1651D01*
X1626D01*
Y3467D01*
X1600Y3442D01*
X-216Y-3874D02*
Y-3925D01*
Y-3899D01*
X-89D01*
X-64Y-3925D01*
Y-3950D01*
X-89Y-3976D01*
X-191Y-3823D02*
X-216Y-3798D01*
Y-3747D01*
X-191Y-3722D01*
X-165D01*
X-140Y-3747D01*
Y-3772D01*
Y-3747D01*
X-115Y-3722D01*
X-89D01*
X-64Y-3747D01*
Y-3798D01*
X-89Y-3823D01*
X1956Y1791D02*
Y1841D01*
Y1816D01*
X1829D01*
X1803Y1841D01*
Y1867D01*
X1829Y1892D01*
X1803Y1638D02*
Y1740D01*
X1905Y1638D01*
X1930D01*
X1956Y1664D01*
Y1715D01*
X1930Y1740D01*
X-1308Y-3708D02*
X-1359D01*
X-1333D01*
Y-3835D01*
X-1359Y-3861D01*
X-1384D01*
X-1410Y-3835D01*
X-1257Y-3861D02*
X-1207D01*
X-1232D01*
Y-3708D01*
X-1257Y-3734D01*
D17*
X989Y-589D02*
X1014D01*
X1001D01*
Y-627D01*
X1027D02*
Y-589D01*
X1046D01*
X1052Y-595D01*
Y-608D01*
X1046Y-614D01*
X1027D01*
X1065Y-620D02*
X1071Y-627D01*
X1084D01*
X1090Y-620D01*
Y-595D01*
X1084Y-589D01*
X1071D01*
X1065Y-595D01*
Y-601D01*
X1071Y-608D01*
X1090D01*
X978Y-19D02*
X1003D01*
X991D01*
Y-57D01*
X1016D02*
Y-19D01*
X1035D01*
X1041Y-25D01*
Y-38D01*
X1035Y-44D01*
X1016D01*
X1054Y-25D02*
X1060Y-19D01*
X1073D01*
X1079Y-25D01*
Y-32D01*
X1073Y-38D01*
X1079Y-44D01*
Y-51D01*
X1073Y-57D01*
X1060D01*
X1054Y-51D01*
Y-44D01*
X1060Y-38D01*
X1054Y-32D01*
Y-25D01*
X1060Y-38D02*
X1073D01*
X991Y-297D02*
X1016D01*
X1003D01*
Y-335D01*
X1029D02*
Y-297D01*
X1048D01*
X1054Y-303D01*
Y-316D01*
X1048Y-322D01*
X1029D01*
X1067Y-297D02*
X1092D01*
Y-303D01*
X1067Y-328D01*
Y-335D01*
M02*
