G04*
G04 #@! TF.GenerationSoftware,Altium Limited,Altium Designer,23.10.1 (27)*
G04*
G04 Layer_Physical_Order=6*
G04 Layer_Color=16711680*
%FSLAX42Y42*%
%MOMM*%
G71*
G04*
G04 #@! TF.SameCoordinates,D788F153-7B32-47A3-9728-DC68925F5BF0*
G04*
G04*
G04 #@! TF.FilePolarity,Positive*
G04*
G01*
G75*
%ADD15C,0.50*%
%ADD16C,0.25*%
G04:AMPARAMS|DCode=19|XSize=0.55mm|YSize=0.5mm|CornerRadius=0.06mm|HoleSize=0mm|Usage=FLASHONLY|Rotation=90.000|XOffset=0mm|YOffset=0mm|HoleType=Round|Shape=RoundedRectangle|*
%AMROUNDEDRECTD19*
21,1,0.55,0.38,0,0,90.0*
21,1,0.43,0.50,0,0,90.0*
1,1,0.13,0.19,0.21*
1,1,0.13,0.19,-0.21*
1,1,0.13,-0.19,-0.21*
1,1,0.13,-0.19,0.21*
%
%ADD19ROUNDEDRECTD19*%
%ADD32R,2.02X2.02*%
%ADD33C,2.02*%
%ADD34C,3.55*%
%ADD35C,2.39*%
%ADD39C,0.60*%
%ADD40C,0.99*%
%ADD41R,2.15X2.15*%
%ADD42C,2.15*%
%ADD43C,1.40*%
%ADD44C,5.00*%
%ADD45R,1.40X1.40*%
%ADD46C,0.50*%
%ADD47C,0.64*%
%ADD48C,1.27*%
%ADD49C,0.51*%
%ADD62C,0.51*%
%ADD63C,1.00*%
G04:AMPARAMS|DCode=69|XSize=0.45mm|YSize=0.3mm|CornerRadius=0.06mm|HoleSize=0mm|Usage=FLASHONLY|Rotation=180.000|XOffset=0mm|YOffset=0mm|HoleType=Round|Shape=RoundedRectangle|*
%AMROUNDEDRECTD69*
21,1,0.45,0.18,0,0,180.0*
21,1,0.33,0.30,0,0,180.0*
1,1,0.12,-0.17,0.09*
1,1,0.12,0.17,0.09*
1,1,0.12,0.17,-0.09*
1,1,0.12,-0.17,-0.09*
%
%ADD69ROUNDEDRECTD69*%
G04:AMPARAMS|DCode=70|XSize=1mm|YSize=0.95mm|CornerRadius=0.05mm|HoleSize=0mm|Usage=FLASHONLY|Rotation=0.000|XOffset=0mm|YOffset=0mm|HoleType=Round|Shape=RoundedRectangle|*
%AMROUNDEDRECTD70*
21,1,1.00,0.85,0,0,0.0*
21,1,0.90,0.95,0,0,0.0*
1,1,0.10,0.45,-0.42*
1,1,0.10,-0.45,-0.42*
1,1,0.10,-0.45,0.42*
1,1,0.10,0.45,0.42*
%
%ADD70ROUNDEDRECTD70*%
%ADD71R,0.30X0.30*%
%ADD72R,1.75X1.15*%
%ADD73R,2.90X2.25*%
%ADD74R,2.90X1.45*%
%ADD75R,2.60X2.60*%
G04:AMPARAMS|DCode=76|XSize=0.89mm|YSize=0.26mm|CornerRadius=0.03mm|HoleSize=0mm|Usage=FLASHONLY|Rotation=90.000|XOffset=0mm|YOffset=0mm|HoleType=Round|Shape=RoundedRectangle|*
%AMROUNDEDRECTD76*
21,1,0.89,0.20,0,0,90.0*
21,1,0.83,0.26,0,0,90.0*
1,1,0.07,0.10,0.41*
1,1,0.07,0.10,-0.41*
1,1,0.07,-0.10,-0.41*
1,1,0.07,-0.10,0.41*
%
%ADD76ROUNDEDRECTD76*%
G04:AMPARAMS|DCode=77|XSize=0.89mm|YSize=0.26mm|CornerRadius=0.03mm|HoleSize=0mm|Usage=FLASHONLY|Rotation=180.000|XOffset=0mm|YOffset=0mm|HoleType=Round|Shape=RoundedRectangle|*
%AMROUNDEDRECTD77*
21,1,0.89,0.20,0,0,180.0*
21,1,0.83,0.26,0,0,180.0*
1,1,0.07,-0.41,0.10*
1,1,0.07,0.41,0.10*
1,1,0.07,0.41,-0.10*
1,1,0.07,-0.41,-0.10*
%
%ADD77ROUNDEDRECTD77*%
G04:AMPARAMS|DCode=78|XSize=0.55mm|YSize=0.5mm|CornerRadius=0.06mm|HoleSize=0mm|Usage=FLASHONLY|Rotation=0.000|XOffset=0mm|YOffset=0mm|HoleType=Round|Shape=RoundedRectangle|*
%AMROUNDEDRECTD78*
21,1,0.55,0.38,0,0,0.0*
21,1,0.43,0.50,0,0,0.0*
1,1,0.13,0.21,-0.19*
1,1,0.13,-0.21,-0.19*
1,1,0.13,-0.21,0.19*
1,1,0.13,0.21,0.19*
%
%ADD78ROUNDEDRECTD78*%
G04:AMPARAMS|DCode=79|XSize=1.3mm|YSize=0.76mm|CornerRadius=0.1mm|HoleSize=0mm|Usage=FLASHONLY|Rotation=90.000|XOffset=0mm|YOffset=0mm|HoleType=Round|Shape=RoundedRectangle|*
%AMROUNDEDRECTD79*
21,1,1.30,0.57,0,0,90.0*
21,1,1.11,0.76,0,0,90.0*
1,1,0.19,0.28,0.56*
1,1,0.19,0.28,-0.56*
1,1,0.19,-0.28,-0.56*
1,1,0.19,-0.28,0.56*
%
%ADD79ROUNDEDRECTD79*%
G04:AMPARAMS|DCode=80|XSize=0.94mm|YSize=0.49mm|CornerRadius=0.24mm|HoleSize=0mm|Usage=FLASHONLY|Rotation=270.000|XOffset=0mm|YOffset=0mm|HoleType=Round|Shape=RoundedRectangle|*
%AMROUNDEDRECTD80*
21,1,0.94,0.00,0,0,270.0*
21,1,0.45,0.49,0,0,270.0*
1,1,0.49,0.00,-0.23*
1,1,0.49,0.00,0.23*
1,1,0.49,0.00,0.23*
1,1,0.49,0.00,-0.23*
%
%ADD80ROUNDEDRECTD80*%
G04:AMPARAMS|DCode=81|XSize=0.76mm|YSize=0.66mm|CornerRadius=0.08mm|HoleSize=0mm|Usage=FLASHONLY|Rotation=90.000|XOffset=0mm|YOffset=0mm|HoleType=Round|Shape=RoundedRectangle|*
%AMROUNDEDRECTD81*
21,1,0.76,0.50,0,0,90.0*
21,1,0.59,0.66,0,0,90.0*
1,1,0.17,0.25,0.30*
1,1,0.17,0.25,-0.30*
1,1,0.17,-0.25,-0.30*
1,1,0.17,-0.25,0.30*
%
%ADD81ROUNDEDRECTD81*%
%ADD82R,0.49X0.94*%
%ADD83R,1.81X1.36*%
%ADD84C,0.20*%
%ADD85C,0.76*%
%ADD86C,0.60*%
G36*
X1284Y4587D02*
X1290Y4579D01*
X2019Y3850D01*
Y3835D01*
Y-3416D01*
X2019Y-3416D01*
X2019Y-3417D01*
X2032Y-4498D01*
Y-5563D01*
X-914D01*
Y-4623D01*
X-916Y-4613D01*
X-921Y-4604D01*
X-1777Y-3749D01*
X-1764Y3287D01*
X-1764Y3287D01*
X-1764Y3287D01*
X-1765Y3292D01*
X-1766Y3297D01*
X-1766Y3297D01*
X-1766Y3297D01*
X-1769Y3301D01*
X-1772Y3306D01*
X-1772Y3306D01*
X-1772Y3306D01*
X-1873Y3407D01*
X-1882Y3413D01*
X-1892Y3415D01*
X-2365D01*
X-2664Y3652D01*
X-2667Y3654D01*
X-2670Y3656D01*
X-2671Y3656D01*
X-2673Y3657D01*
X-2676Y3657D01*
X-2680Y3658D01*
Y4597D01*
X1282D01*
X1284Y4587D01*
D02*
G37*
%LPC*%
G36*
X761Y3848D02*
X738D01*
X715Y3842D01*
X695Y3830D01*
X680Y3816D01*
X584D01*
X584Y3816D01*
X563Y3811D01*
X544Y3799D01*
X544Y3799D01*
X468Y3723D01*
X456Y3705D01*
X452Y3683D01*
X452Y3683D01*
Y3588D01*
X395D01*
Y3422D01*
X621D01*
Y3588D01*
X564D01*
Y3660D01*
X608Y3703D01*
X680D01*
X695Y3688D01*
X715Y3676D01*
X738Y3670D01*
X761D01*
X784Y3676D01*
X804Y3688D01*
X820Y3705D01*
X832Y3725D01*
X838Y3747D01*
Y3771D01*
X832Y3794D01*
X820Y3814D01*
X804Y3830D01*
X784Y3842D01*
X761Y3848D01*
D02*
G37*
G36*
X-479Y4008D02*
X-512D01*
X-544Y4000D01*
X-573Y3983D01*
X-596Y3960D01*
X-613Y3931D01*
X-622Y3899D01*
Y3865D01*
X-613Y3833D01*
X-596Y3804D01*
X-573Y3781D01*
X-544Y3764D01*
X-512Y3756D01*
X-479D01*
X-447Y3764D01*
X-418Y3781D01*
X-394Y3804D01*
X-378Y3833D01*
X-369Y3865D01*
Y3899D01*
X-378Y3931D01*
X-394Y3960D01*
X-418Y3983D01*
X-447Y4000D01*
X-479Y4008D01*
D02*
G37*
G36*
X324Y3996D02*
X286D01*
X249Y3986D01*
X216Y3967D01*
X189Y3940D01*
X170Y3907D01*
X160Y3870D01*
Y3832D01*
X170Y3795D01*
X189Y3762D01*
X216Y3735D01*
X249Y3716D01*
X286Y3706D01*
X324D01*
X361Y3716D01*
X394Y3735D01*
X421Y3762D01*
X440Y3795D01*
X450Y3832D01*
Y3870D01*
X440Y3907D01*
X421Y3940D01*
X394Y3967D01*
X361Y3986D01*
X324Y3996D01*
D02*
G37*
G36*
X-1275Y3234D02*
X-1315D01*
X-1354Y3226D01*
X-1391Y3211D01*
X-1425Y3189D01*
X-1453Y3160D01*
X-1475Y3127D01*
X-1490Y3090D01*
X-1498Y3051D01*
Y3011D01*
X-1490Y2972D01*
X-1475Y2935D01*
X-1453Y2902D01*
X-1425Y2873D01*
X-1391Y2851D01*
X-1354Y2836D01*
X-1315Y2828D01*
X-1275D01*
X-1236Y2836D01*
X-1199Y2851D01*
X-1166Y2873D01*
X-1138Y2902D01*
X-1115Y2935D01*
X-1100Y2972D01*
X-1092Y3011D01*
Y3051D01*
X-1100Y3090D01*
X-1115Y3127D01*
X-1138Y3160D01*
X-1166Y3189D01*
X-1199Y3211D01*
X-1236Y3226D01*
X-1275Y3234D01*
D02*
G37*
G36*
X787Y4116D02*
X-673D01*
X-688Y4113D01*
X-701Y4104D01*
X-853Y3952D01*
X-861Y3939D01*
X-864Y3924D01*
Y3361D01*
X-867Y3359D01*
X-870Y3354D01*
X-874Y3359D01*
X-884Y3366D01*
X-897Y3368D01*
X-934D01*
X-945Y3366D01*
X-969D01*
X-1004Y3401D01*
X-1003Y3405D01*
Y3428D01*
X-1009Y3451D01*
X-1021Y3471D01*
X-1038Y3487D01*
X-1058Y3499D01*
X-1080Y3505D01*
X-1104D01*
X-1127Y3499D01*
X-1147Y3487D01*
X-1163Y3471D01*
X-1175Y3451D01*
X-1181Y3428D01*
Y3405D01*
X-1175Y3382D01*
X-1163Y3362D01*
X-1147Y3345D01*
X-1127Y3333D01*
X-1104Y3327D01*
X-1080D01*
X-1077Y3328D01*
X-1027Y3278D01*
X-1010Y3267D01*
X-991Y3263D01*
X-945D01*
X-934Y3261D01*
X-897D01*
X-884Y3264D01*
X-874Y3271D01*
X-870Y3276D01*
X-867Y3271D01*
X-857Y3264D01*
X-844Y3261D01*
X-807D01*
X-794Y3264D01*
X-784Y3271D01*
X-780Y3276D01*
X-738D01*
X-737Y3275D01*
Y3251D01*
X-734Y3236D01*
X-726Y3224D01*
X-703Y3201D01*
X-759D01*
X-766Y3208D01*
Y3212D01*
X-775Y3233D01*
X-791Y3249D01*
X-812Y3257D01*
X-835D01*
X-856Y3249D01*
X-872Y3233D01*
X-881Y3212D01*
Y3189D01*
X-872Y3168D01*
X-856Y3152D01*
X-835Y3143D01*
X-812D01*
X-811Y3144D01*
X-806Y3138D01*
X-813Y3140D01*
X-850D01*
X-862Y3137D01*
X-873Y3130D01*
X-880Y3120D01*
X-882Y3107D01*
Y3065D01*
X-880Y3053D01*
X-873Y3042D01*
X-862Y3035D01*
X-850Y3033D01*
X-842D01*
X-855Y3027D01*
X-871Y3011D01*
X-880Y2990D01*
Y2968D01*
X-871Y2946D01*
X-855Y2930D01*
X-839Y2924D01*
X-857D01*
X-869Y2921D01*
X-880Y2914D01*
X-887Y2904D01*
X-889Y2891D01*
Y2849D01*
X-887Y2837D01*
X-880Y2826D01*
X-869Y2819D01*
X-857Y2817D01*
X-819D01*
X-807Y2819D01*
X-797Y2826D01*
X-793Y2831D01*
X-708D01*
X-707Y2832D01*
X-697Y2827D01*
X-675D01*
X-654Y2836D01*
X-639Y2852D01*
X-636Y2857D01*
X-631Y2853D01*
X-616Y2850D01*
X-582D01*
X-568Y2853D01*
X-555Y2862D01*
X-553Y2864D01*
X-517D01*
X-503Y2867D01*
X-490Y2875D01*
X-480Y2885D01*
X-480Y2885D01*
X-457D01*
X-436Y2893D01*
X-420Y2909D01*
X-416Y2919D01*
X-410Y2909D01*
X-400Y2903D01*
X-389Y2901D01*
X-370D01*
X-368Y2901D01*
Y2857D01*
X-365Y2842D01*
X-357Y2829D01*
X-336Y2809D01*
Y2795D01*
X-328Y2774D01*
X-312Y2758D01*
X-291Y2750D01*
X-268D01*
X-247Y2758D01*
X-231Y2774D01*
X-222Y2795D01*
Y2818D01*
X-231Y2839D01*
X-247Y2855D01*
X-268Y2864D01*
X-282D01*
X-291Y2873D01*
Y2929D01*
X-290Y2930D01*
Y3013D01*
X-293Y3024D01*
X-299Y3033D01*
X-308Y3040D01*
X-320Y3042D01*
X-339D01*
X-350Y3040D01*
X-354Y3037D01*
X-358Y3040D01*
X-370Y3042D01*
X-389D01*
X-400Y3040D01*
X-406Y3036D01*
X-402Y3041D01*
X-400Y3053D01*
Y3072D01*
X-402Y3083D01*
X-405Y3087D01*
X-402Y3091D01*
X-400Y3103D01*
Y3122D01*
X-402Y3133D01*
X-405Y3137D01*
X-402Y3141D01*
X-400Y3153D01*
Y3172D01*
X-402Y3183D01*
X-405Y3187D01*
X-402Y3191D01*
X-400Y3203D01*
Y3222D01*
X-402Y3233D01*
X-405Y3237D01*
X-402Y3241D01*
X-400Y3253D01*
Y3272D01*
X-402Y3283D01*
X-406Y3289D01*
X-400Y3285D01*
X-389Y3283D01*
X-370D01*
X-358Y3285D01*
X-354Y3288D01*
X-350Y3285D01*
X-339Y3283D01*
X-320D01*
X-308Y3285D01*
X-304Y3288D01*
X-300Y3285D01*
X-289Y3283D01*
X-270D01*
X-258Y3285D01*
X-254Y3288D01*
X-250Y3285D01*
X-239Y3283D01*
X-220D01*
X-208Y3285D01*
X-204Y3288D01*
X-200Y3285D01*
X-189Y3283D01*
X-170D01*
X-158Y3285D01*
X-153Y3289D01*
X-157Y3283D01*
X-159Y3272D01*
Y3253D01*
X-157Y3241D01*
X-154Y3237D01*
X-157Y3233D01*
X-159Y3222D01*
Y3203D01*
X-157Y3191D01*
X-154Y3187D01*
X-157Y3183D01*
X-159Y3172D01*
Y3153D01*
X-157Y3141D01*
X-154Y3137D01*
X-157Y3133D01*
X-159Y3122D01*
Y3103D01*
X-157Y3091D01*
X-154Y3087D01*
X-157Y3083D01*
X-159Y3072D01*
Y3053D01*
X-157Y3041D01*
X-153Y3036D01*
X-158Y3040D01*
X-170Y3042D01*
X-189D01*
X-200Y3040D01*
X-204Y3037D01*
X-208Y3040D01*
X-220Y3042D01*
X-239D01*
X-250Y3040D01*
X-260Y3033D01*
X-266Y3024D01*
X-268Y3013D01*
Y2930D01*
X-266Y2919D01*
X-260Y2909D01*
X-250Y2903D01*
X-239Y2901D01*
X-220D01*
X-208Y2903D01*
X-204Y2906D01*
X-200Y2903D01*
X-189Y2901D01*
X-170D01*
X-158Y2903D01*
X-149Y2909D01*
X-143Y2919D01*
X-140Y2930D01*
Y3013D01*
X-143Y3024D01*
X-146Y3029D01*
X-141Y3026D01*
X-130Y3023D01*
X-47D01*
X-47Y3023D01*
X46D01*
X72Y2998D01*
Y2986D01*
X80Y2966D01*
X88Y2958D01*
Y2928D01*
X83Y2924D01*
X76Y2914D01*
X73Y2902D01*
Y2864D01*
X76Y2852D01*
X83Y2841D01*
X88Y2838D01*
X83Y2834D01*
X79Y2829D01*
X67D01*
X45Y2851D01*
X51Y2871D01*
Y2895D01*
X45Y2917D01*
X33Y2937D01*
X16Y2954D01*
X-4Y2966D01*
X-26Y2972D01*
X-50D01*
X-72Y2966D01*
X-93Y2954D01*
X-109Y2937D01*
X-121Y2917D01*
X-127Y2895D01*
Y2871D01*
X-121Y2849D01*
X-109Y2828D01*
X-93Y2812D01*
X-72Y2800D01*
X-50Y2794D01*
X-26D01*
X-6Y2799D01*
X26Y2767D01*
X26Y2767D01*
X33Y2763D01*
X38Y2759D01*
X52Y2757D01*
X79D01*
X83Y2751D01*
X91Y2746D01*
Y2631D01*
X91Y2631D01*
X67Y2654D01*
X49Y2666D01*
X27Y2671D01*
X27Y2671D01*
X-83D01*
X-83Y2671D01*
X-83Y2671D01*
X-193D01*
X-214Y2666D01*
X-222Y2662D01*
X-224Y2660D01*
X-482D01*
X-489Y2665D01*
X-502Y2668D01*
X-552D01*
X-565Y2665D01*
X-576Y2658D01*
X-583Y2646D01*
X-586Y2633D01*
Y2574D01*
X-583Y2561D01*
X-576Y2549D01*
X-565Y2542D01*
X-552Y2539D01*
X-502D01*
X-489Y2542D01*
X-482Y2547D01*
X-313D01*
Y2542D01*
X-310Y2524D01*
Y2452D01*
X-210D01*
Y2511D01*
X-205Y2520D01*
X-200Y2542D01*
Y2548D01*
X-182Y2551D01*
X-172Y2558D01*
X-132D01*
Y2530D01*
X-132Y2530D01*
X-128Y2509D01*
X-124Y2503D01*
X-120Y2496D01*
X-117Y2482D01*
X-106Y2466D01*
X-89Y2455D01*
X-70Y2451D01*
X-51Y2455D01*
X-34Y2466D01*
X-23Y2482D01*
X-20Y2500D01*
X-18Y2503D01*
X-14Y2525D01*
X-18Y2546D01*
X-19Y2548D01*
Y2558D01*
X4D01*
X11Y2551D01*
X29Y2539D01*
X51Y2534D01*
X72Y2539D01*
X91Y2551D01*
X91Y2551D01*
Y2477D01*
X91Y2476D01*
X94Y2463D01*
X101Y2451D01*
X279Y2273D01*
X279Y2273D01*
X291Y2265D01*
X305Y2262D01*
X777D01*
Y2261D01*
X777Y2261D01*
X779Y2247D01*
X787Y2235D01*
X841Y2181D01*
X841Y2181D01*
X848Y2176D01*
X853Y2173D01*
X862Y2171D01*
Y2113D01*
X869D01*
Y2023D01*
X869Y2023D01*
X857Y2003D01*
X851Y1980D01*
Y1957D01*
X857Y1934D01*
X869Y1914D01*
X885Y1897D01*
X905Y1886D01*
X928Y1880D01*
X952D01*
X974Y1886D01*
X994Y1897D01*
X1011Y1914D01*
X1023Y1934D01*
X1029Y1957D01*
Y1980D01*
X1023Y2003D01*
X1021Y2006D01*
Y2113D01*
X1094D01*
Y2300D01*
X862D01*
Y2263D01*
X849Y2276D01*
Y2287D01*
X846Y2301D01*
X843Y2305D01*
X838Y2312D01*
X838Y2312D01*
X827Y2324D01*
X826Y2324D01*
X838Y2337D01*
X838Y2337D01*
X846Y2348D01*
X849Y2362D01*
X849Y2362D01*
Y2436D01*
X862Y2449D01*
Y2409D01*
X987D01*
X1132Y2263D01*
X1148Y2251D01*
X1166Y2244D01*
X1186Y2241D01*
X1205Y2244D01*
X1223Y2251D01*
X1234Y2259D01*
X1299D01*
X1303Y2257D01*
X1325Y2251D01*
X1349D01*
X1371Y2257D01*
X1392Y2269D01*
X1408Y2286D01*
X1420Y2306D01*
X1426Y2329D01*
Y2352D01*
X1420Y2375D01*
X1408Y2395D01*
X1392Y2411D01*
X1371Y2423D01*
X1349Y2429D01*
X1325D01*
X1303Y2423D01*
X1282Y2411D01*
X1282Y2411D01*
X1204D01*
X1199Y2410D01*
X1094Y2516D01*
Y2595D01*
X862D01*
Y2538D01*
X850Y2535D01*
X845Y2532D01*
X849Y2538D01*
X852Y2553D01*
Y2608D01*
X849Y2623D01*
X840Y2636D01*
X787Y2689D01*
X779Y2694D01*
X742Y2731D01*
X740Y2738D01*
X734Y2748D01*
X732Y2749D01*
X734Y2750D01*
X740Y2760D01*
X743Y2772D01*
Y2790D01*
X742Y2794D01*
X750Y2802D01*
X877D01*
X880Y2800D01*
X903Y2794D01*
X926D01*
X949Y2800D01*
X969Y2812D01*
X986Y2828D01*
X997Y2849D01*
X1003Y2871D01*
Y2895D01*
X997Y2917D01*
X986Y2937D01*
X969Y2954D01*
X949Y2966D01*
X926Y2972D01*
X916D01*
X918Y2972D01*
X930Y2980D01*
X938Y2992D01*
X940Y3005D01*
Y3057D01*
X941Y3061D01*
Y3178D01*
X947Y3184D01*
X959Y3204D01*
X965Y3227D01*
Y3250D01*
X959Y3273D01*
X947Y3293D01*
X931Y3310D01*
X911Y3321D01*
X888Y3327D01*
X865D01*
X842Y3321D01*
X822Y3310D01*
X805Y3293D01*
X793Y3273D01*
X787Y3250D01*
Y3227D01*
X793Y3204D01*
X805Y3184D01*
X812Y3178D01*
Y3061D01*
X812Y3057D01*
Y3005D01*
X815Y2992D01*
X823Y2980D01*
X834Y2972D01*
X848Y2970D01*
X895D01*
X880Y2966D01*
X860Y2954D01*
X860Y2954D01*
X719D01*
X699Y2951D01*
X688Y2947D01*
X681Y2944D01*
X669Y2935D01*
X668Y2937D01*
X668Y2937D01*
X663Y2946D01*
X663D01*
Y2946D01*
X654Y2951D01*
X647Y2953D01*
X644Y2953D01*
X457D01*
X447Y2951D01*
X439Y2946D01*
X426Y2933D01*
X421Y2925D01*
X419Y2915D01*
Y2775D01*
X421Y2765D01*
X426Y2757D01*
X433Y2750D01*
X426Y2742D01*
X421Y2734D01*
X419Y2727D01*
X405Y2731D01*
X382D01*
X359Y2724D01*
X339Y2713D01*
X323Y2696D01*
X311Y2676D01*
X305Y2653D01*
Y2630D01*
X311Y2607D01*
X323Y2587D01*
X339Y2570D01*
X359Y2559D01*
X351D01*
X330Y2550D01*
X314Y2534D01*
X305Y2513D01*
Y2491D01*
X314Y2470D01*
X330Y2453D01*
X351Y2445D01*
X373D01*
X394Y2453D01*
X404Y2463D01*
X443D01*
Y2446D01*
X445Y2433D01*
X453Y2421D01*
X465Y2414D01*
X478Y2411D01*
X535D01*
X549Y2414D01*
X560Y2421D01*
X568Y2433D01*
X571Y2446D01*
Y2557D01*
X568Y2571D01*
X560Y2583D01*
X553Y2587D01*
X567Y2597D01*
X593Y2622D01*
X635D01*
X645Y2624D01*
X653Y2630D01*
X666Y2642D01*
X672Y2651D01*
X674Y2661D01*
Y2676D01*
X678Y2675D01*
X688D01*
X730Y2634D01*
X738Y2628D01*
X774Y2592D01*
Y2569D01*
X759Y2553D01*
X750D01*
Y2557D01*
X747Y2571D01*
X739Y2583D01*
X728Y2590D01*
X714Y2593D01*
X657D01*
X644Y2590D01*
X632Y2583D01*
X624Y2571D01*
X622Y2557D01*
Y2446D01*
X624Y2433D01*
X632Y2421D01*
X644Y2414D01*
X657Y2411D01*
X714D01*
X728Y2414D01*
X739Y2421D01*
X747Y2433D01*
X750Y2446D01*
Y2476D01*
X775D01*
X789Y2479D01*
X787Y2477D01*
X779Y2465D01*
X777Y2451D01*
X777Y2451D01*
Y2386D01*
X345D01*
X227Y2504D01*
Y2702D01*
X267Y2742D01*
X288D01*
X300Y2744D01*
X311Y2751D01*
X318Y2762D01*
X320Y2774D01*
Y2812D01*
X318Y2824D01*
X311Y2834D01*
X306Y2838D01*
X311Y2841D01*
X318Y2852D01*
X320Y2864D01*
Y2902D01*
X318Y2914D01*
X311Y2924D01*
X306Y2928D01*
Y3047D01*
X314Y3055D01*
X322Y3075D01*
Y3090D01*
X366Y3046D01*
X379Y3038D01*
X394Y3035D01*
X505D01*
X506Y3033D01*
X519Y3025D01*
X533Y3022D01*
X633D01*
Y3005D01*
X636Y2992D01*
X644Y2980D01*
X655Y2972D01*
X669Y2970D01*
X726D01*
X739Y2972D01*
X751Y2980D01*
X759Y2992D01*
X761Y3005D01*
Y3116D01*
X759Y3130D01*
X751Y3141D01*
X739Y3149D01*
X726Y3152D01*
X669D01*
X655Y3149D01*
X644Y3141D01*
X636Y3130D01*
X633Y3116D01*
Y3100D01*
X549D01*
X548Y3101D01*
X547Y3102D01*
Y3142D01*
X621D01*
Y3308D01*
X395D01*
Y3142D01*
X469D01*
Y3112D01*
X410D01*
X307Y3215D01*
X294Y3224D01*
X279Y3227D01*
X258D01*
X243Y3224D01*
X230Y3215D01*
X221Y3206D01*
X219Y3209D01*
X207Y3217D01*
X192Y3220D01*
X173D01*
X158Y3235D01*
X150Y3238D01*
X151Y3239D01*
X160Y3260D01*
Y3283D01*
X151Y3304D01*
X135Y3320D01*
X114Y3329D01*
X92D01*
X71Y3320D01*
X58Y3307D01*
Y3330D01*
X79Y3352D01*
X101D01*
X116Y3355D01*
X129Y3363D01*
X169Y3404D01*
X183D01*
X204Y3412D01*
X220Y3429D01*
X229Y3450D01*
Y3472D01*
X220Y3493D01*
X204Y3509D01*
X183Y3518D01*
X160D01*
X139Y3509D01*
X123Y3493D01*
X114Y3472D01*
Y3459D01*
X85Y3429D01*
X63D01*
X48Y3426D01*
X36Y3418D01*
X-8Y3374D01*
X-17Y3361D01*
X-20Y3346D01*
Y3301D01*
X-47D01*
X-47Y3301D01*
X-130D01*
X-141Y3299D01*
X-146Y3295D01*
X-143Y3301D01*
X-140Y3312D01*
Y3387D01*
X-121Y3379D01*
X-98D01*
X-77Y3388D01*
X-61Y3404D01*
X-52Y3425D01*
Y3448D01*
X-61Y3469D01*
X-77Y3485D01*
X-98Y3494D01*
X-121D01*
X-141Y3485D01*
X-143Y3487D01*
X-158Y3490D01*
X-165D01*
X-179Y3487D01*
X-192Y3478D01*
X-207Y3463D01*
X-215Y3451D01*
X-218Y3436D01*
Y3423D01*
X-220Y3424D01*
X-239D01*
X-250Y3422D01*
X-254Y3419D01*
X-258Y3422D01*
X-270Y3424D01*
X-289D01*
X-300Y3422D01*
X-304Y3419D01*
X-308Y3422D01*
X-320Y3424D01*
X-339D01*
X-341Y3423D01*
Y3503D01*
X-320Y3524D01*
X-306D01*
X-285Y3533D01*
X-269Y3549D01*
X-260Y3570D01*
Y3593D01*
X-269Y3614D01*
X-285Y3630D01*
X-306Y3639D01*
X-329D01*
X-350Y3630D01*
X-366Y3614D01*
X-375Y3593D01*
Y3579D01*
X-407Y3547D01*
X-415Y3534D01*
X-418Y3519D01*
Y3395D01*
X-418Y3395D01*
Y3312D01*
X-416Y3301D01*
X-412Y3295D01*
X-418Y3299D01*
X-429Y3301D01*
X-486D01*
X-552Y3368D01*
X-548Y3371D01*
X-540Y3392D01*
Y3415D01*
X-548Y3436D01*
X-565Y3452D01*
X-586Y3461D01*
X-608D01*
X-629Y3452D01*
X-645Y3436D01*
X-654Y3415D01*
Y3392D01*
X-645Y3371D01*
X-635Y3361D01*
Y3356D01*
X-632Y3342D01*
X-624Y3329D01*
X-546Y3251D01*
X-644D01*
X-660Y3267D01*
Y3275D01*
X-652Y3283D01*
X-643Y3304D01*
Y3326D01*
X-652Y3346D01*
X-667Y3362D01*
X-687Y3370D01*
X-710D01*
X-730Y3362D01*
X-738Y3354D01*
X-780D01*
X-784Y3359D01*
X-787Y3361D01*
Y3908D01*
X-657Y4038D01*
X771D01*
X888Y3921D01*
Y3835D01*
X891Y3821D01*
X900Y3808D01*
X1130Y3578D01*
Y2680D01*
X1133Y2665D01*
X1141Y2652D01*
X1169Y2625D01*
X1181Y2616D01*
X1184Y2616D01*
X1196Y2613D01*
X1302D01*
Y2519D01*
X1568D01*
Y2785D01*
X1302D01*
Y2691D01*
X1212D01*
X1207Y2696D01*
Y3594D01*
X1204Y3609D01*
X1196Y3622D01*
X966Y3851D01*
Y3937D01*
X963Y3949D01*
X963Y3952D01*
X955Y3964D01*
X815Y4104D01*
X802Y4113D01*
X787Y4116D01*
D02*
G37*
G36*
X-1080Y2858D02*
X-1104D01*
X-1127Y2851D01*
X-1147Y2840D01*
X-1163Y2823D01*
X-1175Y2803D01*
X-1181Y2780D01*
Y2757D01*
X-1175Y2734D01*
X-1168Y2723D01*
Y2562D01*
X-1263D01*
Y2366D01*
X-922D01*
Y2562D01*
X-1016D01*
Y2723D01*
X-1009Y2734D01*
X-1003Y2757D01*
Y2780D01*
X-1009Y2803D01*
X-1021Y2823D01*
X-1038Y2840D01*
X-1058Y2851D01*
X-1080Y2858D01*
D02*
G37*
G36*
X-70Y2375D02*
X-89Y2371D01*
X-106Y2360D01*
X-117Y2344D01*
X-121Y2324D01*
Y2279D01*
X-117Y2259D01*
X-106Y2243D01*
X-89Y2232D01*
X-70Y2228D01*
X-51Y2232D01*
X-34Y2243D01*
X-23Y2259D01*
X-19Y2279D01*
Y2324D01*
X-23Y2344D01*
X-34Y2360D01*
X-51Y2371D01*
X-70Y2375D01*
D02*
G37*
G36*
X-502Y2485D02*
X-552D01*
X-565Y2483D01*
X-576Y2475D01*
X-583Y2464D01*
X-586Y2451D01*
Y2391D01*
X-583Y2378D01*
X-576Y2367D01*
X-565Y2360D01*
X-552Y2357D01*
X-502D01*
X-489Y2360D01*
X-478Y2367D01*
X-476Y2370D01*
X-461D01*
X-445Y2354D01*
Y2295D01*
X-441Y2276D01*
X-430Y2259D01*
X-382Y2210D01*
X-445D01*
X-459Y2216D01*
X-481D01*
X-502Y2207D01*
X-518Y2191D01*
X-527Y2170D01*
Y2148D01*
X-518Y2127D01*
X-502Y2111D01*
X-481Y2102D01*
X-459D01*
X-445Y2108D01*
X-342D01*
X-323Y2112D01*
X-306Y2123D01*
X-264Y2165D01*
X-224Y2205D01*
X-213Y2222D01*
X-209Y2241D01*
Y2301D01*
X-209Y2305D01*
Y2324D01*
X-213Y2344D01*
X-224Y2360D01*
X-241Y2371D01*
X-260Y2375D01*
X-279Y2371D01*
X-296Y2360D01*
X-307Y2344D01*
X-311Y2324D01*
Y2305D01*
X-311Y2301D01*
Y2286D01*
X-342Y2316D01*
Y2375D01*
X-346Y2395D01*
X-357Y2411D01*
X-404Y2458D01*
X-420Y2469D01*
X-440Y2473D01*
X-476D01*
X-478Y2475D01*
X-489Y2483D01*
X-502Y2485D01*
D02*
G37*
G36*
X-204Y2134D02*
X-228D01*
X-250Y2128D01*
X-270Y2116D01*
X-285Y2101D01*
X-419D01*
X-419Y2101D01*
X-441Y2097D01*
X-459Y2085D01*
X-459Y2085D01*
X-510Y2034D01*
X-522Y2016D01*
X-526Y1994D01*
X-526Y1994D01*
Y1954D01*
X-640D01*
Y1678D01*
X-299D01*
Y1954D01*
X-413D01*
Y1971D01*
X-396Y1988D01*
X-285D01*
X-270Y1974D01*
X-250Y1962D01*
X-228Y1956D01*
X-204D01*
X-182Y1962D01*
X-161Y1974D01*
X-147Y1988D01*
X-36D01*
X-31Y1983D01*
Y1967D01*
X-145D01*
Y1691D01*
X195D01*
X169Y1665D01*
X37D01*
X17Y1661D01*
X1Y1650D01*
X-4Y1642D01*
X-11Y1638D01*
X-22Y1621D01*
X-26Y1601D01*
Y1547D01*
X-145D01*
Y1271D01*
X-51D01*
Y1176D01*
X-57Y1165D01*
X-63Y1142D01*
Y1119D01*
X-57Y1096D01*
X-46Y1076D01*
X-29Y1059D01*
X-9Y1047D01*
X14Y1041D01*
X37D01*
X60Y1047D01*
X80Y1059D01*
X97Y1076D01*
X108Y1096D01*
X114Y1119D01*
Y1142D01*
X108Y1165D01*
X101Y1176D01*
Y1271D01*
X196D01*
Y1547D01*
X77D01*
Y1561D01*
X190D01*
X210Y1565D01*
X227Y1576D01*
X354Y1703D01*
X365Y1720D01*
X369Y1740D01*
Y1764D01*
X406D01*
Y1762D01*
X406Y1759D01*
Y1757D01*
X407Y1754D01*
X408Y1752D01*
X409Y1750D01*
X410Y1747D01*
X412Y1745D01*
X413Y1744D01*
X408Y1737D01*
X406Y1727D01*
Y1660D01*
X393Y1664D01*
X369D01*
X347Y1658D01*
X326Y1646D01*
X310Y1629D01*
X298Y1609D01*
X292Y1587D01*
Y1563D01*
X298Y1540D01*
X310Y1520D01*
X326Y1504D01*
X347Y1492D01*
X369Y1486D01*
X393D01*
X415Y1492D01*
X436Y1504D01*
X452Y1520D01*
X457Y1528D01*
X463D01*
X482Y1532D01*
X499Y1544D01*
X557Y1602D01*
X569Y1618D01*
X570Y1625D01*
X622D01*
X632Y1627D01*
X641Y1633D01*
X646Y1641D01*
X648Y1651D01*
Y1672D01*
X648Y1672D01*
X681D01*
X692Y1674D01*
X773D01*
X788Y1677D01*
X801Y1686D01*
X839Y1724D01*
X848Y1737D01*
X851Y1752D01*
Y2001D01*
X848Y2014D01*
X848Y2016D01*
X839Y2029D01*
X821Y2047D01*
X809Y2055D01*
X794Y2058D01*
X724D01*
Y2075D01*
X722Y2088D01*
X714Y2100D01*
X703Y2108D01*
X689Y2110D01*
X632D01*
X618Y2108D01*
X607Y2100D01*
X599Y2088D01*
X596Y2075D01*
Y1964D01*
X599Y1950D01*
X607Y1939D01*
X618Y1931D01*
X632Y1928D01*
X689D01*
X703Y1931D01*
X714Y1939D01*
X722Y1950D01*
X724Y1964D01*
Y1980D01*
X773D01*
Y1768D01*
X757Y1752D01*
X724D01*
X724Y1753D01*
Y1867D01*
X722Y1877D01*
X717Y1885D01*
X704Y1898D01*
X696Y1904D01*
X686Y1905D01*
X445D01*
X435Y1904D01*
X426Y1898D01*
X413Y1885D01*
X408Y1877D01*
X406Y1868D01*
X347D01*
X327Y1864D01*
X321Y1859D01*
X311Y1853D01*
X311Y1853D01*
X281Y1823D01*
X270Y1806D01*
X266Y1786D01*
Y1761D01*
X196Y1691D01*
Y1967D01*
X82D01*
Y2007D01*
X82Y2007D01*
X78Y2028D01*
X65Y2047D01*
X27Y2085D01*
X9Y2097D01*
X-13Y2101D01*
X-13Y2101D01*
X-147D01*
X-161Y2116D01*
X-182Y2128D01*
X-204Y2134D01*
D02*
G37*
G36*
X189Y2153D02*
X166D01*
X145Y2144D01*
X129Y2128D01*
X121Y2107D01*
Y2084D01*
X129Y2063D01*
X145Y2047D01*
X166Y2038D01*
X189D01*
X210Y2047D01*
X220Y2057D01*
X309D01*
X374Y1992D01*
X386Y1983D01*
X401Y1980D01*
X417D01*
Y1964D01*
X420Y1950D01*
X428Y1939D01*
X439Y1931D01*
X453Y1928D01*
X510D01*
X524Y1931D01*
X535Y1939D01*
X543Y1950D01*
X545Y1964D01*
Y2075D01*
X543Y2088D01*
X535Y2100D01*
X524Y2108D01*
X510Y2110D01*
X453D01*
X439Y2108D01*
X428Y2100D01*
X420Y2088D01*
X417Y2075D01*
Y2058D01*
X417D01*
X352Y2123D01*
X340Y2131D01*
X325Y2134D01*
X220D01*
X210Y2144D01*
X189Y2153D01*
D02*
G37*
G36*
X1708Y2115D02*
X1518D01*
Y1924D01*
X1708D01*
Y2115D01*
D02*
G37*
G36*
X1371D02*
X1346D01*
X1322Y2108D01*
X1300Y2096D01*
X1283Y2078D01*
X1270Y2056D01*
X1264Y2032D01*
Y2007D01*
X1267Y1995D01*
X1154Y1882D01*
X1145Y1869D01*
X1142Y1854D01*
Y729D01*
X1145Y714D01*
X1154Y701D01*
X1302Y553D01*
Y342D01*
X1568D01*
Y608D01*
X1357D01*
X1220Y745D01*
Y1838D01*
X1316Y1934D01*
X1322Y1931D01*
X1346Y1924D01*
X1371D01*
X1396Y1931D01*
X1417Y1943D01*
X1435Y1961D01*
X1448Y1983D01*
X1454Y2007D01*
Y2032D01*
X1448Y2056D01*
X1435Y2078D01*
X1417Y2096D01*
X1396Y2108D01*
X1371Y2115D01*
D02*
G37*
G36*
X1625Y1861D02*
X1600D01*
X1576Y1854D01*
X1554Y1842D01*
X1537Y1824D01*
X1524Y1802D01*
X1518Y1778D01*
Y1753D01*
X1524Y1729D01*
X1537Y1707D01*
X1554Y1689D01*
X1576Y1677D01*
X1600Y1670D01*
X1625D01*
X1650Y1677D01*
X1671Y1689D01*
X1689Y1707D01*
X1702Y1729D01*
X1708Y1753D01*
Y1778D01*
X1702Y1802D01*
X1689Y1824D01*
X1671Y1842D01*
X1650Y1854D01*
X1625Y1861D01*
D02*
G37*
G36*
X1371D02*
X1346D01*
X1322Y1854D01*
X1300Y1842D01*
X1283Y1824D01*
X1270Y1802D01*
X1264Y1778D01*
Y1753D01*
X1270Y1729D01*
X1283Y1707D01*
X1300Y1689D01*
X1322Y1677D01*
X1346Y1670D01*
X1371D01*
X1396Y1677D01*
X1417Y1689D01*
X1435Y1707D01*
X1448Y1729D01*
X1454Y1753D01*
Y1778D01*
X1448Y1802D01*
X1435Y1824D01*
X1417Y1842D01*
X1396Y1854D01*
X1371Y1861D01*
D02*
G37*
G36*
X-922Y1897D02*
X-1263D01*
Y1701D01*
X-1168D01*
Y1608D01*
X-1175Y1596D01*
X-1181Y1574D01*
Y1550D01*
X-1175Y1528D01*
X-1163Y1508D01*
X-1147Y1491D01*
X-1127Y1479D01*
X-1104Y1473D01*
X-1080D01*
X-1058Y1479D01*
X-1038Y1491D01*
X-1021Y1508D01*
X-1009Y1528D01*
X-1003Y1550D01*
Y1574D01*
X-1009Y1596D01*
X-1016Y1608D01*
Y1701D01*
X-922D01*
Y1897D01*
D02*
G37*
G36*
X-299Y1534D02*
X-640D01*
Y1258D01*
X-546D01*
Y1176D01*
X-553Y1165D01*
X-559Y1142D01*
Y1119D01*
X-553Y1096D01*
X-541Y1076D01*
X-524Y1059D01*
X-504Y1047D01*
X-482Y1041D01*
X-458D01*
X-436Y1047D01*
X-415Y1059D01*
X-399Y1076D01*
X-387Y1096D01*
X-381Y1119D01*
Y1142D01*
X-387Y1165D01*
X-394Y1176D01*
Y1258D01*
X-299D01*
Y1534D01*
D02*
G37*
G36*
X1625Y1607D02*
X1600D01*
X1576Y1600D01*
X1554Y1588D01*
X1537Y1570D01*
X1524Y1548D01*
X1518Y1524D01*
Y1499D01*
X1524Y1475D01*
X1537Y1453D01*
X1554Y1435D01*
X1574Y1424D01*
Y1065D01*
X1497Y988D01*
X1486Y995D01*
X1452Y1004D01*
X1417D01*
X1384Y995D01*
X1353Y977D01*
X1328Y953D01*
X1311Y922D01*
X1302Y889D01*
Y854D01*
X1311Y820D01*
X1328Y789D01*
X1353Y765D01*
X1384Y747D01*
X1417Y738D01*
X1452D01*
X1486Y747D01*
X1516Y765D01*
X1541Y789D01*
X1559Y820D01*
X1568Y854D01*
Y889D01*
X1559Y922D01*
X1552Y934D01*
X1640Y1022D01*
X1649Y1034D01*
X1652Y1049D01*
Y1424D01*
X1671Y1435D01*
X1689Y1453D01*
X1702Y1475D01*
X1708Y1499D01*
Y1524D01*
X1702Y1548D01*
X1689Y1570D01*
X1671Y1588D01*
X1650Y1600D01*
X1625Y1607D01*
D02*
G37*
G36*
X1294Y-902D02*
X1271D01*
X1248Y-908D01*
X1228Y-919D01*
X1212Y-936D01*
X1200Y-956D01*
X1194Y-979D01*
Y-1002D01*
X1200Y-1025D01*
X1212Y-1045D01*
X1228Y-1062D01*
X1248Y-1073D01*
X1271Y-1080D01*
X1294D01*
X1317Y-1073D01*
X1337Y-1062D01*
X1354Y-1045D01*
X1366Y-1025D01*
X1372Y-1002D01*
Y-979D01*
X1366Y-956D01*
X1354Y-936D01*
X1337Y-919D01*
X1317Y-908D01*
X1294Y-902D01*
D02*
G37*
G36*
X325Y-2286D02*
X285D01*
X246Y-2294D01*
X209Y-2309D01*
X175Y-2331D01*
X147Y-2360D01*
X125Y-2393D01*
X110Y-2430D01*
X102Y-2469D01*
Y-2509D01*
X110Y-2548D01*
X125Y-2585D01*
X147Y-2618D01*
X175Y-2647D01*
X209Y-2669D01*
X246Y-2684D01*
X285Y-2692D01*
X325D01*
X364Y-2684D01*
X401Y-2669D01*
X434Y-2647D01*
X462Y-2618D01*
X485Y-2585D01*
X500Y-2548D01*
X508Y-2509D01*
Y-2469D01*
X500Y-2430D01*
X485Y-2393D01*
X462Y-2360D01*
X434Y-2331D01*
X401Y-2309D01*
X364Y-2294D01*
X325Y-2286D01*
D02*
G37*
G36*
X863Y-2603D02*
X839D01*
X817Y-2610D01*
X796Y-2621D01*
X780Y-2638D01*
X768Y-2658D01*
X762Y-2681D01*
Y-2704D01*
X768Y-2727D01*
X780Y-2747D01*
X796Y-2764D01*
X817Y-2775D01*
X839Y-2781D01*
X863D01*
X885Y-2775D01*
X905Y-2764D01*
X922Y-2747D01*
X934Y-2727D01*
X940Y-2704D01*
Y-2681D01*
X934Y-2658D01*
X922Y-2638D01*
X905Y-2621D01*
X885Y-2610D01*
X863Y-2603D01*
D02*
G37*
G36*
X-369Y-3214D02*
X-622D01*
Y-3467D01*
X-369D01*
Y-3214D01*
D02*
G37*
G36*
X1612Y-5093D02*
X1588D01*
X1566Y-5099D01*
X1546Y-5110D01*
X1529Y-5127D01*
X1517Y-5147D01*
X1511Y-5170D01*
Y-5193D01*
X1517Y-5216D01*
X1529Y-5236D01*
X1546Y-5253D01*
X1566Y-5264D01*
X1588Y-5271D01*
X1612D01*
X1635Y-5264D01*
X1655Y-5253D01*
X1671Y-5236D01*
X1683Y-5216D01*
X1689Y-5193D01*
Y-5170D01*
X1683Y-5147D01*
X1671Y-5127D01*
X1655Y-5110D01*
X1635Y-5099D01*
X1612Y-5093D01*
D02*
G37*
G36*
X329D02*
X306D01*
X283Y-5099D01*
X263Y-5110D01*
X246Y-5127D01*
X235Y-5147D01*
X229Y-5170D01*
Y-5193D01*
X235Y-5216D01*
X246Y-5236D01*
X263Y-5253D01*
X283Y-5264D01*
X306Y-5271D01*
X329D01*
X352Y-5264D01*
X372Y-5253D01*
X389Y-5236D01*
X400Y-5216D01*
X406Y-5193D01*
Y-5170D01*
X400Y-5147D01*
X389Y-5127D01*
X372Y-5110D01*
X352Y-5099D01*
X329Y-5093D01*
D02*
G37*
G36*
X1790Y-5182D02*
X1766D01*
X1744Y-5188D01*
X1723Y-5199D01*
X1707Y-5216D01*
X1695Y-5236D01*
X1689Y-5259D01*
Y-5282D01*
X1695Y-5305D01*
X1707Y-5325D01*
X1723Y-5342D01*
X1744Y-5353D01*
X1766Y-5359D01*
X1790D01*
X1812Y-5353D01*
X1833Y-5342D01*
X1849Y-5325D01*
X1861Y-5305D01*
X1867Y-5282D01*
Y-5259D01*
X1861Y-5236D01*
X1849Y-5216D01*
X1833Y-5199D01*
X1812Y-5188D01*
X1790Y-5182D01*
D02*
G37*
G36*
X1434D02*
X1411D01*
X1388Y-5188D01*
X1368Y-5199D01*
X1351Y-5216D01*
X1340Y-5236D01*
X1334Y-5259D01*
Y-5282D01*
X1340Y-5305D01*
X1351Y-5325D01*
X1368Y-5342D01*
X1388Y-5353D01*
X1411Y-5359D01*
X1434D01*
X1457Y-5353D01*
X1477Y-5342D01*
X1494Y-5325D01*
X1505Y-5305D01*
X1511Y-5282D01*
Y-5259D01*
X1505Y-5236D01*
X1494Y-5216D01*
X1477Y-5199D01*
X1457Y-5188D01*
X1434Y-5182D01*
D02*
G37*
G36*
X1104D02*
X1080D01*
X1058Y-5188D01*
X1038Y-5199D01*
X1021Y-5216D01*
X1009Y-5236D01*
X1003Y-5259D01*
Y-5282D01*
X1009Y-5305D01*
X1021Y-5325D01*
X1038Y-5342D01*
X1058Y-5353D01*
X1080Y-5359D01*
X1104D01*
X1127Y-5353D01*
X1147Y-5342D01*
X1163Y-5325D01*
X1175Y-5305D01*
X1181Y-5282D01*
Y-5259D01*
X1175Y-5236D01*
X1163Y-5216D01*
X1147Y-5199D01*
X1127Y-5188D01*
X1104Y-5182D01*
D02*
G37*
G36*
X863D02*
X839D01*
X817Y-5188D01*
X796Y-5199D01*
X780Y-5216D01*
X768Y-5236D01*
X762Y-5259D01*
Y-5282D01*
X768Y-5305D01*
X780Y-5325D01*
X796Y-5342D01*
X817Y-5353D01*
X839Y-5359D01*
X863D01*
X885Y-5353D01*
X905Y-5342D01*
X922Y-5325D01*
X934Y-5305D01*
X940Y-5282D01*
Y-5259D01*
X934Y-5236D01*
X922Y-5216D01*
X905Y-5199D01*
X885Y-5188D01*
X863Y-5182D01*
D02*
G37*
G36*
X507D02*
X484D01*
X461Y-5188D01*
X441Y-5199D01*
X424Y-5216D01*
X412Y-5236D01*
X406Y-5259D01*
Y-5282D01*
X412Y-5305D01*
X424Y-5325D01*
X441Y-5342D01*
X461Y-5353D01*
X484Y-5359D01*
X507D01*
X530Y-5353D01*
X550Y-5342D01*
X566Y-5325D01*
X578Y-5305D01*
X584Y-5282D01*
Y-5259D01*
X578Y-5236D01*
X566Y-5216D01*
X550Y-5199D01*
X530Y-5188D01*
X507Y-5182D01*
D02*
G37*
G36*
X151D02*
X128D01*
X105Y-5188D01*
X85Y-5199D01*
X69Y-5216D01*
X57Y-5236D01*
X51Y-5259D01*
Y-5282D01*
X57Y-5305D01*
X69Y-5325D01*
X85Y-5342D01*
X105Y-5353D01*
X128Y-5359D01*
X151D01*
X174Y-5353D01*
X194Y-5342D01*
X211Y-5325D01*
X223Y-5305D01*
X229Y-5282D01*
Y-5259D01*
X223Y-5236D01*
X211Y-5216D01*
X194Y-5199D01*
X174Y-5188D01*
X151Y-5182D01*
D02*
G37*
%LPD*%
G36*
X649Y2916D02*
X632Y2899D01*
X620Y2883D01*
X612Y2864D01*
X610Y2845D01*
X612Y2825D01*
X620Y2807D01*
X632Y2791D01*
X648Y2779D01*
X657Y2775D01*
X655Y2762D01*
X457D01*
X445Y2775D01*
Y2915D01*
X457Y2927D01*
X644D01*
X649Y2916D01*
D02*
G37*
G36*
X457Y2736D02*
X636D01*
X646Y2726D01*
X646Y2725D01*
Y2707D01*
X648Y2698D01*
Y2661D01*
X635Y2648D01*
X457D01*
X445Y2661D01*
Y2724D01*
X457Y2736D01*
X457Y2736D01*
D02*
G37*
G36*
X699Y1867D02*
Y1753D01*
X689D01*
X681Y1754D01*
X648D01*
X641Y1753D01*
X634D01*
X631Y1755D01*
X629Y1757D01*
X627Y1759D01*
X624Y1760D01*
X622Y1761D01*
X620Y1761D01*
X618Y1762D01*
X615Y1762D01*
X612Y1763D01*
X612Y1763D01*
X612D01*
X525D01*
X517Y1765D01*
X515Y1765D01*
X512Y1765D01*
X510Y1766D01*
X499D01*
X497Y1765D01*
X494Y1765D01*
X493Y1765D01*
X484Y1763D01*
X456D01*
X449Y1764D01*
X446D01*
X444Y1765D01*
X441Y1764D01*
X438D01*
X436Y1763D01*
X434Y1763D01*
X432Y1762D01*
Y1867D01*
X445Y1880D01*
X686D01*
X699Y1867D01*
D02*
G37*
G36*
X511Y1739D02*
X523Y1737D01*
X612D01*
X612Y1737D01*
X618Y1731D01*
X616Y1722D01*
Y1704D01*
X619Y1692D01*
X622Y1687D01*
Y1651D01*
X432D01*
Y1727D01*
X444Y1739D01*
X453Y1737D01*
X486D01*
X499Y1739D01*
X499Y1740D01*
X510D01*
X511Y1739D01*
D02*
G37*
D15*
X-470Y2159D02*
X-342D01*
X-300Y2201D01*
X-1092Y3416D02*
X-991Y3315D01*
X-915D01*
X-394Y2295D02*
X-300Y2201D01*
X-260Y2241D01*
X-394Y2295D02*
Y2375D01*
X-440Y2421D02*
X-394Y2375D01*
X-527Y2421D02*
X-440D01*
X-260Y2241D02*
Y2301D01*
D16*
X1168Y2680D02*
Y3594D01*
X927Y3835D02*
Y3937D01*
Y3835D02*
X1168Y3594D01*
X-596Y3356D02*
X-502Y3262D01*
X-597Y3404D02*
X-596Y3403D01*
Y3356D02*
Y3403D01*
X-502Y3262D02*
X-470D01*
X101Y3390D02*
X172Y3461D01*
X97Y3266D02*
X103Y3271D01*
X67Y3266D02*
X97D01*
X14Y3212D02*
X67Y3266D01*
X-165Y3451D02*
X-158D01*
X-151Y3444D01*
X-117D01*
X-109Y3436D01*
X211Y3162D02*
X232D01*
X192Y3181D02*
X211Y3162D01*
X134Y3181D02*
X192D01*
X508Y3073D02*
X521D01*
X394D02*
X508D01*
X232Y3162D02*
X258Y3188D01*
X127D02*
X134Y3181D01*
X258Y3188D02*
X279D01*
X-813Y3200D02*
X-775Y3162D01*
X-823Y3200D02*
X-813D01*
X-775Y3162D02*
X-470D01*
X-280Y2807D02*
X-279D01*
X-329Y2857D02*
X-280Y2807D01*
X-329Y2857D02*
Y2971D01*
X-478Y2942D02*
X-468D01*
X-569Y2903D02*
X-517D01*
X-478Y2942D01*
X-582Y2889D02*
X-569Y2903D01*
X362Y2502D02*
X507D01*
X-179Y3353D02*
Y3436D01*
X-165Y3451D01*
X19Y3346D02*
X63Y3390D01*
X101D01*
X279Y3188D02*
X394Y3073D01*
X43Y3188D02*
X127D01*
X19Y3283D02*
Y3346D01*
X-2Y3262D02*
X19Y3283D01*
X-88Y3262D02*
X-2D01*
X18Y3162D02*
X43Y3188D01*
X-88Y3212D02*
X14D01*
X-765Y3038D02*
Y3086D01*
X-823Y2980D02*
X-765Y3038D01*
X-823Y2979D02*
Y2980D01*
X178Y2095D02*
X325D01*
X-616Y2889D02*
X-582D01*
X-648Y2921D02*
X-616Y2889D01*
X325Y2095D02*
X401Y2019D01*
X481D01*
X665Y1713D02*
X773D01*
X812Y1752D02*
Y2001D01*
X773Y1713D02*
X812Y1752D01*
X-826Y3924D02*
X-673Y4077D01*
X787D01*
X-826Y3315D02*
Y3924D01*
X787Y4077D02*
X927Y3937D01*
X794Y2019D02*
X812Y2001D01*
X660Y2019D02*
X794D01*
X-699Y3251D02*
X-660Y3212D01*
X-470D01*
X-699Y3251D02*
Y3315D01*
X760Y2661D02*
X813Y2608D01*
X702Y2716D02*
X757Y2661D01*
X813Y2553D02*
Y2608D01*
X757Y2661D02*
X760D01*
X694Y2716D02*
X702D01*
X-379Y3353D02*
Y3519D01*
X-317Y3581D01*
X1181Y729D02*
X1435Y475D01*
X1181Y729D02*
Y1854D01*
X1346Y2019D01*
X1435Y871D02*
X1613Y1049D01*
Y1511D01*
X-88Y3162D02*
X18D01*
X-648Y2921D02*
X-610Y2959D01*
X-686Y2883D02*
X-648Y2921D01*
X-765Y3086D02*
X-699D01*
X-831D02*
X-765D01*
X-708Y2870D02*
X-695Y2883D01*
X-686D01*
X-838Y2870D02*
X-708D01*
X-635Y3086D02*
X-609Y3112D01*
X-471D01*
X-699Y3086D02*
X-635D01*
X-471Y3112D02*
X-470Y3112D01*
X-1092Y2464D02*
X-1020D01*
X775Y2515D02*
X813Y2553D01*
X699Y2515D02*
X775D01*
X686Y2502D02*
X699Y2515D01*
X1196Y2652D02*
X1435D01*
X1168Y2680D02*
X1196Y2652D01*
X-610Y2959D02*
Y3035D01*
X-583Y3062D02*
X-470D01*
X-610Y3035D02*
X-583Y3062D01*
X-826Y3315D02*
X-699D01*
X267Y2883D02*
Y3086D01*
X166D02*
X267D01*
X140Y3112D02*
X166Y3086D01*
X62Y3062D02*
X127Y2997D01*
X-88Y3062D02*
X62D01*
X533Y3061D02*
X697D01*
X508Y3086D02*
X521Y3073D01*
X508Y3086D02*
Y3225D01*
X521Y3073D02*
X533Y3061D01*
X-88Y3112D02*
X140D01*
X127Y2883D02*
Y2997D01*
D19*
X-838Y2870D02*
D03*
X-928D02*
D03*
X-831Y3086D02*
D03*
X-921D02*
D03*
X-915Y3315D02*
D03*
X-826D02*
D03*
D32*
X-495Y-3340D02*
D03*
D33*
Y3882D02*
D03*
D34*
X-1295Y3031D02*
D03*
X305Y-2489D02*
D03*
D35*
Y3851D02*
D03*
D39*
X127Y3188D02*
D03*
X-699Y3315D02*
D03*
Y3086D02*
D03*
X127Y2997D02*
D03*
X267Y3086D02*
D03*
X-686Y2883D02*
D03*
D40*
X1332Y2335D02*
X1337Y2340D01*
X1204Y2335D02*
X1332D01*
X1186Y2317D02*
X1204Y2335D01*
X1001Y2502D02*
X1186Y2317D01*
X978Y2502D02*
X1001D01*
X381Y1575D02*
X386Y1580D01*
D41*
X1435Y475D02*
D03*
X1435Y2652D02*
D03*
D42*
X1435Y871D02*
D03*
X1435Y3048D02*
D03*
D43*
X1359Y1765D02*
D03*
Y2019D02*
D03*
X1613Y1511D02*
D03*
Y1765D02*
D03*
X1359Y1511D02*
D03*
D44*
X-2223Y3962D02*
D03*
X-546Y-5169D02*
D03*
X1346Y-3302D02*
D03*
X1270Y4013D02*
D03*
D45*
X1613Y2019D02*
D03*
D46*
X1511Y241D02*
D03*
X-13Y-267D02*
D03*
X495D02*
D03*
Y-775D02*
D03*
X-13D02*
D03*
Y-1283D02*
D03*
X495D02*
D03*
X1511Y-1791D02*
D03*
Y-2299D02*
D03*
X1003D02*
D03*
Y-1791D02*
D03*
X495D02*
D03*
X-13D02*
D03*
Y-2299D02*
D03*
X495Y-2807D02*
D03*
X-13D02*
D03*
Y-3315D02*
D03*
X495D02*
D03*
X1003D02*
D03*
Y241D02*
D03*
Y749D02*
D03*
Y1257D02*
D03*
X495D02*
D03*
Y749D02*
D03*
Y241D02*
D03*
X-13D02*
D03*
Y749D02*
D03*
X978Y4432D02*
D03*
X470D02*
D03*
X-38Y3924D02*
D03*
Y4432D02*
D03*
X-546D02*
D03*
X-521Y749D02*
D03*
Y241D02*
D03*
Y-267D02*
D03*
Y-775D02*
D03*
Y-1283D02*
D03*
Y-1791D02*
D03*
Y-2299D02*
D03*
Y-2807D02*
D03*
Y-3823D02*
D03*
Y-4331D02*
D03*
X-1029D02*
D03*
Y-3823D02*
D03*
Y-3315D02*
D03*
Y-2807D02*
D03*
Y-2299D02*
D03*
Y-1791D02*
D03*
Y-1283D02*
D03*
Y-775D02*
D03*
Y-267D02*
D03*
Y241D02*
D03*
Y749D02*
D03*
Y1257D02*
D03*
Y2273D02*
D03*
Y3924D02*
D03*
Y4432D02*
D03*
X-1524Y-3823D02*
D03*
Y-3315D02*
D03*
Y-2807D02*
D03*
Y-2299D02*
D03*
Y-1791D02*
D03*
Y-1283D02*
D03*
Y-775D02*
D03*
Y-267D02*
D03*
Y241D02*
D03*
Y749D02*
D03*
Y1257D02*
D03*
Y1765D02*
D03*
Y2273D02*
D03*
Y2781D02*
D03*
Y3416D02*
D03*
Y3924D02*
D03*
Y4432D02*
D03*
X-2019Y3683D02*
D03*
X-2515Y3696D02*
D03*
X-2019Y4445D02*
D03*
X-2540Y4458D02*
D03*
D47*
X-597Y3404D02*
D03*
X172Y3461D02*
D03*
X103Y3271D02*
D03*
X-109Y3436D02*
D03*
X-279Y2807D02*
D03*
X-468Y2942D02*
D03*
X362Y2502D02*
D03*
X-470Y2159D02*
D03*
X-823Y3200D02*
D03*
X-823Y2979D02*
D03*
X178Y2095D02*
D03*
X-317Y3581D02*
D03*
D48*
X317Y-5182D02*
D03*
X1600D02*
D03*
X1778Y-5271D02*
D03*
X1092D02*
D03*
X495D02*
D03*
X1422D02*
D03*
X851D02*
D03*
X140D02*
D03*
X-38Y2883D02*
D03*
X1337Y2340D02*
D03*
X394Y2642D02*
D03*
X940Y1968D02*
D03*
X914Y2883D02*
D03*
X-216Y2045D02*
D03*
X-1092Y2769D02*
D03*
Y1562D02*
D03*
X876Y3238D02*
D03*
X-1092Y3416D02*
D03*
X25Y1130D02*
D03*
X-470D02*
D03*
X851Y-2692D02*
D03*
X1283Y-991D02*
D03*
X749Y3759D02*
D03*
X381Y1575D02*
D03*
D49*
X51Y2591D02*
D03*
D62*
X386Y1580D02*
X463D01*
X521Y1638D01*
Y1693D01*
X525Y1698D01*
X1613Y2019D02*
X1645Y1988D01*
X1346Y2019D02*
X1359D01*
X25Y1409D02*
Y1601D01*
X425Y1816D02*
X432Y1810D01*
X347Y1816D02*
X425D01*
X317Y1786D02*
X347Y1816D01*
X317Y1740D02*
Y1786D01*
X190Y1613D02*
X317Y1740D01*
X37Y1613D02*
X190D01*
D63*
X945Y1974D02*
Y2189D01*
X963Y2207D02*
X978D01*
X945Y2189D02*
X963Y2207D01*
X940Y1968D02*
X945Y1974D01*
X719Y2878D02*
X909D01*
X686Y2845D02*
X719Y2878D01*
X909D02*
X914Y2883D01*
X-1092Y2464D02*
Y2769D01*
X25Y1130D02*
Y1409D01*
X-470Y1130D02*
Y1396D01*
X-1092Y1562D02*
Y1799D01*
D69*
X665Y1843D02*
D03*
Y1778D02*
D03*
X470Y1713D02*
D03*
Y1778D02*
D03*
Y1843D02*
D03*
X665Y1713D02*
D03*
X694Y2846D02*
D03*
Y2781D02*
D03*
X499D02*
D03*
Y2846D02*
D03*
X694Y2716D02*
D03*
X499D02*
D03*
D70*
X567Y1810D02*
D03*
X597Y2814D02*
D03*
D71*
X558Y1713D02*
D03*
X587Y2716D02*
D03*
D72*
X508Y3225D02*
D03*
Y3505D02*
D03*
D73*
X-470Y1396D02*
D03*
Y1816D02*
D03*
X25Y1829D02*
D03*
Y1409D02*
D03*
D74*
X-1092Y1799D02*
D03*
Y2464D02*
D03*
D75*
X-279Y3162D02*
D03*
D76*
X-179Y2971D02*
D03*
X-229D02*
D03*
X-279D02*
D03*
X-379D02*
D03*
X-329Y3353D02*
D03*
X-279D02*
D03*
X-229D02*
D03*
X-179D02*
D03*
X-329Y2971D02*
D03*
X-379Y3353D02*
D03*
D77*
X-88Y3212D02*
D03*
Y3162D02*
D03*
Y3112D02*
D03*
Y3062D02*
D03*
X-470D02*
D03*
Y3112D02*
D03*
Y3212D02*
D03*
Y3262D02*
D03*
X-88D02*
D03*
X-470Y3162D02*
D03*
D78*
X127Y2793D02*
D03*
Y2883D02*
D03*
X267Y2793D02*
D03*
Y2883D02*
D03*
D79*
X481Y2019D02*
D03*
X660D02*
D03*
X507Y2502D02*
D03*
X686D02*
D03*
X697Y3061D02*
D03*
X876D02*
D03*
D80*
X-260Y2301D02*
D03*
X-70D02*
D03*
Y2525D02*
D03*
X-165D02*
D03*
D81*
X-527Y2421D02*
D03*
X-667D02*
D03*
X-527Y2603D02*
D03*
X-667D02*
D03*
D82*
X-260Y2525D02*
D03*
D83*
X978Y2207D02*
D03*
Y2502D02*
D03*
D84*
X-38Y2883D02*
X52Y2793D01*
X127D01*
X867Y2207D02*
X963D01*
X127Y2476D02*
Y2793D01*
Y2476D02*
X305Y2299D01*
X25Y1601D02*
X37Y1613D01*
X305Y2299D02*
X801D01*
X330Y2350D02*
X800D01*
X190Y2717D02*
X267Y2793D01*
X190Y2489D02*
X330Y2350D01*
X190Y2489D02*
Y2717D01*
X801Y2299D02*
X813Y2287D01*
Y2261D02*
Y2287D01*
Y2261D02*
X867Y2207D01*
X800Y2350D02*
X813Y2362D01*
Y2451D01*
X864Y2502D02*
X978D01*
X813Y2451D02*
X864Y2502D01*
D85*
X394Y2642D02*
X395Y2643D01*
X522D01*
X559Y2680D01*
X876Y3061D02*
Y3238D01*
D86*
X-419Y2045D02*
X-13D01*
X-470Y1994D02*
X-419Y2045D01*
X-13D02*
X25Y2007D01*
X-83Y2614D02*
X27D01*
X-193D02*
X-83D01*
X-76Y2530D02*
Y2607D01*
Y2530D02*
X-70Y2525D01*
X-83Y2614D02*
X-76Y2607D01*
X-257Y2542D02*
Y2603D01*
X-204D02*
X-193Y2614D01*
X27D02*
X51Y2591D01*
X-257Y2603D02*
X-204D01*
X25Y1829D02*
Y2007D01*
X-527Y2603D02*
X-257D01*
X584Y3759D02*
X749D01*
X508Y3683D02*
X584Y3759D01*
X508Y3505D02*
Y3683D01*
X-470Y1816D02*
Y1994D01*
M02*
