G04*
G04 #@! TF.GenerationSoftware,Altium Limited,Altium Designer,23.10.1 (27)*
G04*
G04 Layer_Color=128*
%FSLAX42Y42*%
%MOMM*%
G71*
G04*
G04 #@! TF.SameCoordinates,D788F153-7B32-47A3-9728-DC68925F5BF0*
G04*
G04*
G04 #@! TF.FilePolarity,Positive*
G04*
G01*
G75*
%ADD13C,0.13*%
D13*
X1352Y475D02*
X1517D01*
X1435Y393D02*
Y558D01*
X1352Y871D02*
X1517D01*
X1435Y789D02*
Y954D01*
X1314Y1765D02*
X1403D01*
X1359Y1721D02*
Y1810D01*
X1314Y2019D02*
X1403D01*
X1359Y1975D02*
Y2064D01*
X1568Y1511D02*
X1657D01*
X1613Y1467D02*
Y1556D01*
X1568Y1765D02*
X1657D01*
X1613Y1721D02*
Y1810D01*
X-2348Y3962D02*
X-2098D01*
X-2223Y3837D02*
Y4087D01*
X-671Y-5169D02*
X-421D01*
X-546Y-5294D02*
Y-5044D01*
X1221Y-3302D02*
X1471D01*
X1346Y-3427D02*
Y-3177D01*
X1145Y4013D02*
X1395D01*
X1270Y3888D02*
Y4138D01*
X1353Y2652D02*
X1518D01*
X1435Y2569D02*
Y2734D01*
X1353Y3048D02*
X1518D01*
X1435Y2966D02*
Y3131D01*
X1314Y1511D02*
X1403D01*
X1359Y1467D02*
Y1556D01*
X1568Y2019D02*
X1657D01*
X1613Y1975D02*
Y2064D01*
X-561Y-3340D02*
X-429D01*
X-495Y-3406D02*
Y-3274D01*
X-561Y3882D02*
X-429D01*
X-495Y3816D02*
Y3948D01*
X-1473Y3031D02*
X-1118D01*
X-1295Y2853D02*
Y3208D01*
X127Y-2489D02*
X482D01*
X305Y-2667D02*
Y-2312D01*
X185Y3851D02*
X424D01*
X305Y3731D02*
Y3970D01*
X1499Y241D02*
X1524D01*
X1511Y229D02*
Y254D01*
X-25Y-267D02*
X-0D01*
X-13Y-279D02*
Y-254D01*
X483Y-267D02*
X508D01*
X495Y-279D02*
Y-254D01*
X483Y-775D02*
X508D01*
X495Y-787D02*
Y-762D01*
X-25Y-775D02*
X-0D01*
X-13Y-787D02*
Y-762D01*
X-25Y-1283D02*
X-0D01*
X-13Y-1295D02*
Y-1270D01*
X483Y-1283D02*
X508D01*
X495Y-1295D02*
Y-1270D01*
X1499Y-1791D02*
X1524D01*
X1511Y-1803D02*
Y-1778D01*
X1499Y-2299D02*
X1524D01*
X1511Y-2311D02*
Y-2286D01*
X991Y-2299D02*
X1016D01*
X1003Y-2311D02*
Y-2286D01*
X991Y-1791D02*
X1016D01*
X1003Y-1803D02*
Y-1778D01*
X483Y-1791D02*
X508D01*
X495Y-1803D02*
Y-1778D01*
X-25Y-1791D02*
X-0D01*
X-13Y-1803D02*
Y-1778D01*
X-25Y-2299D02*
X-0D01*
X-13Y-2311D02*
Y-2286D01*
X483Y-2807D02*
X508D01*
X495Y-2819D02*
Y-2794D01*
X-25Y-2807D02*
X-0D01*
X-13Y-2819D02*
Y-2794D01*
X-25Y-3315D02*
X-0D01*
X-13Y-3327D02*
Y-3302D01*
X483Y-3315D02*
X508D01*
X495Y-3327D02*
Y-3302D01*
X991Y-3315D02*
X1016D01*
X1003Y-3327D02*
Y-3302D01*
X991Y241D02*
X1016D01*
X1003Y229D02*
Y254D01*
X991Y749D02*
X1016D01*
X1003Y737D02*
Y762D01*
X991Y1257D02*
X1016D01*
X1003Y1245D02*
Y1270D01*
X483Y1257D02*
X508D01*
X495Y1245D02*
Y1270D01*
X483Y749D02*
X508D01*
X495Y737D02*
Y762D01*
X483Y241D02*
X508D01*
X495Y229D02*
Y254D01*
X-25Y241D02*
X-0D01*
X-13Y229D02*
Y254D01*
X-25Y749D02*
X-0D01*
X-13Y737D02*
Y762D01*
X965Y4432D02*
X990D01*
X978Y4420D02*
Y4445D01*
X457Y4432D02*
X482D01*
X470Y4420D02*
Y4445D01*
X-51Y3924D02*
X-26D01*
X-38Y3912D02*
Y3937D01*
X-51Y4432D02*
X-26D01*
X-38Y4420D02*
Y4445D01*
X-559Y4432D02*
X-534D01*
X-546Y4420D02*
Y4445D01*
X-533Y749D02*
X-508D01*
X-521Y737D02*
Y762D01*
X-533Y241D02*
X-508D01*
X-521Y229D02*
Y254D01*
X-533Y-267D02*
X-508D01*
X-521Y-279D02*
Y-254D01*
X-533Y-775D02*
X-508D01*
X-521Y-787D02*
Y-762D01*
X-533Y-1283D02*
X-508D01*
X-521Y-1295D02*
Y-1270D01*
X-533Y-1791D02*
X-508D01*
X-521Y-1803D02*
Y-1778D01*
X-533Y-2299D02*
X-508D01*
X-521Y-2311D02*
Y-2286D01*
X-533Y-2807D02*
X-508D01*
X-521Y-2819D02*
Y-2794D01*
X-533Y-3823D02*
X-508D01*
X-521Y-3835D02*
Y-3810D01*
X-533Y-4331D02*
X-508D01*
X-521Y-4343D02*
Y-4318D01*
X-1041Y-4331D02*
X-1016D01*
X-1029Y-4343D02*
Y-4318D01*
X-1041Y-3823D02*
X-1016D01*
X-1029Y-3835D02*
Y-3810D01*
X-1041Y-3315D02*
X-1016D01*
X-1029Y-3327D02*
Y-3302D01*
X-1041Y-2807D02*
X-1016D01*
X-1029Y-2819D02*
Y-2794D01*
X-1041Y-2299D02*
X-1016D01*
X-1029Y-2311D02*
Y-2286D01*
X-1041Y-1791D02*
X-1016D01*
X-1029Y-1803D02*
Y-1778D01*
X-1041Y-1283D02*
X-1016D01*
X-1029Y-1295D02*
Y-1270D01*
X-1041Y-775D02*
X-1016D01*
X-1029Y-787D02*
Y-762D01*
X-1041Y-267D02*
X-1016D01*
X-1029Y-279D02*
Y-254D01*
X-1041Y241D02*
X-1016D01*
X-1029Y229D02*
Y254D01*
X-1041Y749D02*
X-1016D01*
X-1029Y737D02*
Y762D01*
X-1041Y1257D02*
X-1016D01*
X-1029Y1245D02*
Y1270D01*
X-1041Y2273D02*
X-1016D01*
X-1029Y2261D02*
Y2286D01*
X-1041Y3924D02*
X-1016D01*
X-1029Y3912D02*
Y3937D01*
X-1041Y4432D02*
X-1016D01*
X-1029Y4420D02*
Y4445D01*
X-1536Y-3823D02*
X-1511D01*
X-1524Y-3835D02*
Y-3810D01*
X-1536Y-3315D02*
X-1511D01*
X-1524Y-3327D02*
Y-3302D01*
X-1536Y-2807D02*
X-1511D01*
X-1524Y-2819D02*
Y-2794D01*
X-1536Y-2299D02*
X-1511D01*
X-1524Y-2311D02*
Y-2286D01*
X-1536Y-1791D02*
X-1511D01*
X-1524Y-1803D02*
Y-1778D01*
X-1536Y-1283D02*
X-1511D01*
X-1524Y-1295D02*
Y-1270D01*
X-1536Y-775D02*
X-1511D01*
X-1524Y-787D02*
Y-762D01*
X-1536Y-267D02*
X-1511D01*
X-1524Y-279D02*
Y-254D01*
X-1536Y241D02*
X-1511D01*
X-1524Y229D02*
Y254D01*
X-1536Y749D02*
X-1511D01*
X-1524Y737D02*
Y762D01*
X-1536Y1257D02*
X-1511D01*
X-1524Y1245D02*
Y1270D01*
X-1536Y1765D02*
X-1511D01*
X-1524Y1753D02*
Y1778D01*
X-1536Y2273D02*
X-1511D01*
X-1524Y2261D02*
Y2286D01*
X-1536Y2781D02*
X-1511D01*
X-1524Y2769D02*
Y2794D01*
X-1536Y3416D02*
X-1511D01*
X-1524Y3404D02*
Y3429D01*
X-1536Y3924D02*
X-1511D01*
X-1524Y3912D02*
Y3937D01*
X-1536Y4432D02*
X-1511D01*
X-1524Y4420D02*
Y4445D01*
X-2032Y3683D02*
X-2007D01*
X-2019Y3671D02*
Y3696D01*
X-2527Y3696D02*
X-2502D01*
X-2515Y3683D02*
Y3708D01*
X-2032Y4445D02*
X-2007D01*
X-2019Y4433D02*
Y4458D01*
X-2552Y4458D02*
X-2527D01*
X-2540Y4445D02*
Y4470D01*
X-612Y3404D02*
X-582D01*
X-597Y3389D02*
Y3419D01*
X282Y-5182D02*
X353D01*
X317Y-5217D02*
Y-5146D01*
X1565Y-5182D02*
X1636D01*
X1600Y-5217D02*
Y-5146D01*
X1742Y-5271D02*
X1814D01*
X1778Y-5306D02*
Y-5235D01*
X1057Y-5271D02*
X1128D01*
X1092Y-5306D02*
Y-5235D01*
X460Y-5271D02*
X531D01*
X495Y-5306D02*
Y-5235D01*
X1387Y-5271D02*
X1458D01*
X1422Y-5306D02*
Y-5235D01*
X815Y-5271D02*
X886D01*
X851Y-5306D02*
Y-5235D01*
X104Y-5271D02*
X175D01*
X140Y-5306D02*
Y-5235D01*
X-74Y2883D02*
X-3D01*
X-38Y2847D02*
Y2918D01*
X1301Y2340D02*
X1373D01*
X1337Y2305D02*
Y2376D01*
X157Y3461D02*
X187D01*
X172Y3446D02*
Y3476D01*
X88Y3271D02*
X118D01*
X103Y3256D02*
Y3286D01*
X-124Y3436D02*
X-94D01*
X-109Y3421D02*
Y3451D01*
X-294Y2807D02*
X-264D01*
X-279Y2792D02*
Y2822D01*
X-483Y2942D02*
X-453D01*
X-468Y2927D02*
Y2957D01*
X358Y2642D02*
X429D01*
X394Y2606D02*
Y2677D01*
X347Y2502D02*
X377D01*
X362Y2487D02*
Y2517D01*
X904Y1968D02*
X975D01*
X940Y1933D02*
Y2004D01*
X879Y2883D02*
X950D01*
X914Y2847D02*
Y2918D01*
X-251Y2045D02*
X-180D01*
X-216Y2009D02*
Y2080D01*
X-485Y2159D02*
X-455D01*
X-470Y2144D02*
Y2174D01*
X-1128Y2769D02*
X-1057D01*
X-1092Y2733D02*
Y2804D01*
X-1128Y1562D02*
X-1057D01*
X-1092Y1527D02*
Y1598D01*
X841Y3238D02*
X912D01*
X876Y3203D02*
Y3274D01*
X36Y2591D02*
X66D01*
X51Y2576D02*
Y2606D01*
X-838Y3200D02*
X-808D01*
X-823Y3185D02*
Y3215D01*
X-838Y2979D02*
X-808D01*
X-823Y2964D02*
Y2994D01*
X163Y2095D02*
X193D01*
X178Y2081D02*
Y2110D01*
X-1128Y3416D02*
X-1057D01*
X-1092Y3381D02*
Y3452D01*
X-10Y1130D02*
X61D01*
X25Y1095D02*
Y1166D01*
X-505Y1130D02*
X-434D01*
X-470Y1095D02*
Y1166D01*
X815Y-2692D02*
X886D01*
X851Y-2728D02*
Y-2657D01*
X1247Y-991D02*
X1318D01*
X1283Y-1026D02*
Y-955D01*
X714Y3759D02*
X785D01*
X749Y3724D02*
Y3795D01*
X345Y1575D02*
X417D01*
X381Y1539D02*
Y1610D01*
X-332Y3581D02*
X-303D01*
X-317Y3566D02*
Y3596D01*
M02*
