G04*
G04 #@! TF.GenerationSoftware,Altium Limited,Altium Designer,23.10.1 (27)*
G04*
G04 Layer_Color=16711935*
%FSLAX42Y42*%
%MOMM*%
G71*
G04*
G04 #@! TF.SameCoordinates,D788F153-7B32-47A3-9728-DC68925F5BF0*
G04*
G04*
G04 #@! TF.FilePolarity,Negative*
G04*
G01*
G75*
%ADD24C,0.80*%
G04:AMPARAMS|DCode=25|XSize=0.75mm|YSize=0.7mm|CornerRadius=0.16mm|HoleSize=0mm|Usage=FLASHONLY|Rotation=90.000|XOffset=0mm|YOffset=0mm|HoleType=Round|Shape=RoundedRectangle|*
%AMROUNDEDRECTD25*
21,1,0.75,0.38,0,0,90.0*
21,1,0.43,0.70,0,0,90.0*
1,1,0.33,0.19,0.21*
1,1,0.33,0.19,-0.21*
1,1,0.33,-0.19,-0.21*
1,1,0.33,-0.19,0.21*
%
%ADD25ROUNDEDRECTD25*%
%ADD27R,2.35X2.35*%
%ADD28C,2.35*%
%ADD29C,1.60*%
%ADD30C,5.20*%
%ADD31R,1.60X1.60*%
%ADD32R,2.02X2.02*%
%ADD33C,2.02*%
%ADD34C,3.55*%
%ADD35C,2.39*%
%ADD36C,0.84*%
%ADD37C,1.47*%
%ADD38C,0.71*%
G04:AMPARAMS|DCode=80|XSize=0.94mm|YSize=0.49mm|CornerRadius=0.24mm|HoleSize=0mm|Usage=FLASHONLY|Rotation=270.000|XOffset=0mm|YOffset=0mm|HoleType=Round|Shape=RoundedRectangle|*
%AMROUNDEDRECTD80*
21,1,0.94,0.00,0,0,270.0*
21,1,0.45,0.49,0,0,270.0*
1,1,0.49,0.00,-0.23*
1,1,0.49,0.00,0.23*
1,1,0.49,0.00,0.23*
1,1,0.49,0.00,-0.23*
%
%ADD80ROUNDEDRECTD80*%
%ADD82R,0.49X0.94*%
%ADD83R,1.81X1.36*%
%ADD87R,1.95X1.35*%
%ADD88R,3.10X2.45*%
%ADD89R,3.10X1.65*%
%ADD90R,2.80X2.80*%
G04:AMPARAMS|DCode=91|XSize=1.09mm|YSize=0.46mm|CornerRadius=0.13mm|HoleSize=0mm|Usage=FLASHONLY|Rotation=90.000|XOffset=0mm|YOffset=0mm|HoleType=Round|Shape=RoundedRectangle|*
%AMROUNDEDRECTD91*
21,1,1.09,0.20,0,0,90.0*
21,1,0.83,0.46,0,0,90.0*
1,1,0.27,0.10,0.41*
1,1,0.27,0.10,-0.41*
1,1,0.27,-0.10,-0.41*
1,1,0.27,-0.10,0.41*
%
%ADD91ROUNDEDRECTD91*%
G04:AMPARAMS|DCode=92|XSize=1.09mm|YSize=0.46mm|CornerRadius=0.13mm|HoleSize=0mm|Usage=FLASHONLY|Rotation=180.000|XOffset=0mm|YOffset=0mm|HoleType=Round|Shape=RoundedRectangle|*
%AMROUNDEDRECTD92*
21,1,1.09,0.20,0,0,180.0*
21,1,0.83,0.46,0,0,180.0*
1,1,0.27,-0.41,0.10*
1,1,0.27,0.41,0.10*
1,1,0.27,0.41,-0.10*
1,1,0.27,-0.41,-0.10*
%
%ADD92ROUNDEDRECTD92*%
G04:AMPARAMS|DCode=93|XSize=0.75mm|YSize=0.7mm|CornerRadius=0.16mm|HoleSize=0mm|Usage=FLASHONLY|Rotation=0.000|XOffset=0mm|YOffset=0mm|HoleType=Round|Shape=RoundedRectangle|*
%AMROUNDEDRECTD93*
21,1,0.75,0.38,0,0,0.0*
21,1,0.43,0.70,0,0,0.0*
1,1,0.33,0.21,-0.19*
1,1,0.33,-0.21,-0.19*
1,1,0.33,-0.21,0.19*
1,1,0.33,0.21,0.19*
%
%ADD93ROUNDEDRECTD93*%
G04:AMPARAMS|DCode=94|XSize=1.5mm|YSize=0.96mm|CornerRadius=0.2mm|HoleSize=0mm|Usage=FLASHONLY|Rotation=90.000|XOffset=0mm|YOffset=0mm|HoleType=Round|Shape=RoundedRectangle|*
%AMROUNDEDRECTD94*
21,1,1.50,0.57,0,0,90.0*
21,1,1.11,0.96,0,0,90.0*
1,1,0.39,0.28,0.56*
1,1,0.39,0.28,-0.56*
1,1,0.39,-0.28,-0.56*
1,1,0.39,-0.28,0.56*
%
%ADD94ROUNDEDRECTD94*%
G04:AMPARAMS|DCode=95|XSize=0.96mm|YSize=0.86mm|CornerRadius=0.18mm|HoleSize=0mm|Usage=FLASHONLY|Rotation=90.000|XOffset=0mm|YOffset=0mm|HoleType=Round|Shape=RoundedRectangle|*
%AMROUNDEDRECTD95*
21,1,0.96,0.50,0,0,90.0*
21,1,0.59,0.86,0,0,90.0*
1,1,0.37,0.25,0.30*
1,1,0.37,0.25,-0.30*
1,1,0.37,-0.25,-0.30*
1,1,0.37,-0.25,0.30*
%
%ADD95ROUNDEDRECTD95*%
G36*
X683Y1863D02*
X683Y1863D01*
X684Y1863D01*
X684Y1863D01*
X685Y1863D01*
X685Y1863D01*
X686Y1862D01*
X686Y1862D01*
X687Y1862D01*
X687Y1862D01*
X688Y1861D01*
X688Y1861D01*
X689Y1861D01*
X689Y1860D01*
X689Y1860D01*
X690Y1860D01*
X690Y1859D01*
X690Y1859D01*
X691Y1858D01*
X691Y1858D01*
X691Y1858D01*
X692Y1857D01*
X692Y1857D01*
X692Y1856D01*
X692Y1856D01*
X692Y1855D01*
X692Y1855D01*
X692Y1854D01*
X692Y1854D01*
X692Y1853D01*
Y1833D01*
X692Y1832D01*
X692Y1832D01*
X692Y1831D01*
X692Y1831D01*
X692Y1830D01*
X692Y1830D01*
X692Y1829D01*
X692Y1829D01*
X691Y1828D01*
X691Y1828D01*
X691Y1828D01*
X690Y1827D01*
X690Y1827D01*
X690Y1826D01*
X689Y1826D01*
X689Y1826D01*
X689Y1825D01*
X688Y1825D01*
X688Y1825D01*
X687Y1824D01*
X687Y1824D01*
X686Y1824D01*
X686Y1824D01*
X685Y1823D01*
X685Y1823D01*
X684Y1823D01*
X684Y1823D01*
X683Y1823D01*
X683Y1823D01*
X682Y1823D01*
X647D01*
X647Y1823D01*
X646Y1823D01*
X646Y1823D01*
X645Y1823D01*
X645Y1823D01*
X644Y1823D01*
X644Y1824D01*
X643Y1824D01*
X643Y1824D01*
X642Y1824D01*
X642Y1825D01*
X642Y1825D01*
X641Y1825D01*
X641Y1826D01*
X640Y1826D01*
X640Y1826D01*
X640Y1827D01*
X639Y1827D01*
X639Y1828D01*
X639Y1828D01*
X638Y1828D01*
X638Y1829D01*
X638Y1829D01*
X638Y1830D01*
X638Y1830D01*
X638Y1831D01*
X638Y1831D01*
X637Y1832D01*
X637Y1832D01*
X637Y1833D01*
Y1853D01*
X637Y1854D01*
X637Y1854D01*
X638Y1855D01*
X638Y1855D01*
X638Y1856D01*
X638Y1856D01*
X638Y1857D01*
X638Y1857D01*
X638Y1858D01*
X639Y1858D01*
X639Y1858D01*
X639Y1859D01*
X640Y1859D01*
X640Y1860D01*
X640Y1860D01*
X641Y1860D01*
X641Y1861D01*
X642Y1861D01*
X642Y1861D01*
X642Y1862D01*
X643Y1862D01*
X643Y1862D01*
X644Y1862D01*
X644Y1863D01*
X645Y1863D01*
X645Y1863D01*
X646Y1863D01*
X646Y1863D01*
X647Y1863D01*
X647Y1863D01*
X682D01*
X683Y1863D01*
D02*
G37*
G36*
X488D02*
X488Y1863D01*
X489Y1863D01*
X489Y1863D01*
X490Y1863D01*
X490Y1863D01*
X491Y1862D01*
X491Y1862D01*
X492Y1862D01*
X492Y1862D01*
X493Y1861D01*
X493Y1861D01*
X494Y1861D01*
X494Y1860D01*
X494Y1860D01*
X495Y1860D01*
X495Y1859D01*
X495Y1859D01*
X496Y1858D01*
X496Y1858D01*
X496Y1858D01*
X497Y1857D01*
X497Y1857D01*
X497Y1856D01*
X497Y1856D01*
X497Y1855D01*
X497Y1855D01*
X497Y1854D01*
X497Y1854D01*
X497Y1853D01*
Y1833D01*
X497Y1832D01*
X497Y1832D01*
X497Y1831D01*
X497Y1831D01*
X497Y1830D01*
X497Y1830D01*
X497Y1829D01*
X497Y1829D01*
X496Y1828D01*
X496Y1828D01*
X496Y1828D01*
X495Y1827D01*
X495Y1827D01*
X495Y1826D01*
X494Y1826D01*
X494Y1826D01*
X494Y1825D01*
X493Y1825D01*
X493Y1825D01*
X492Y1824D01*
X492Y1824D01*
X491Y1824D01*
X491Y1824D01*
X490Y1823D01*
X490Y1823D01*
X489Y1823D01*
X489Y1823D01*
X488Y1823D01*
X488Y1823D01*
X487Y1823D01*
X452D01*
X452Y1823D01*
X451Y1823D01*
X451Y1823D01*
X450Y1823D01*
X450Y1823D01*
X449Y1823D01*
X449Y1824D01*
X448Y1824D01*
X448Y1824D01*
X447Y1824D01*
X447Y1825D01*
X447Y1825D01*
X446Y1825D01*
X446Y1826D01*
X445Y1826D01*
X445Y1826D01*
X445Y1827D01*
X444Y1827D01*
X444Y1828D01*
X444Y1828D01*
X443Y1828D01*
X443Y1829D01*
X443Y1829D01*
X443Y1830D01*
X443Y1830D01*
X443Y1831D01*
X443Y1831D01*
X442Y1832D01*
X442Y1832D01*
X442Y1833D01*
Y1853D01*
X442Y1854D01*
X442Y1854D01*
X443Y1855D01*
X443Y1855D01*
X443Y1856D01*
X443Y1856D01*
X443Y1857D01*
X443Y1857D01*
X443Y1858D01*
X444Y1858D01*
X444Y1858D01*
X444Y1859D01*
X445Y1859D01*
X445Y1860D01*
X445Y1860D01*
X446Y1860D01*
X446Y1861D01*
X447Y1861D01*
X447Y1861D01*
X447Y1862D01*
X448Y1862D01*
X448Y1862D01*
X449Y1862D01*
X449Y1863D01*
X450Y1863D01*
X450Y1863D01*
X451Y1863D01*
X451Y1863D01*
X452Y1863D01*
X452Y1863D01*
X487D01*
X488Y1863D01*
D02*
G37*
G36*
X683Y1798D02*
X683Y1798D01*
X684Y1798D01*
X684Y1798D01*
X685Y1798D01*
X685Y1798D01*
X686Y1797D01*
X686Y1797D01*
X687Y1797D01*
X687Y1797D01*
X688Y1796D01*
X688Y1796D01*
X689Y1796D01*
X689Y1795D01*
X689Y1795D01*
X690Y1795D01*
X690Y1794D01*
X690Y1794D01*
X691Y1793D01*
X691Y1793D01*
X691Y1793D01*
X692Y1792D01*
X692Y1792D01*
X692Y1791D01*
X692Y1791D01*
X692Y1790D01*
X692Y1790D01*
X692Y1789D01*
X692Y1789D01*
X692Y1788D01*
Y1768D01*
X692Y1767D01*
X692Y1767D01*
X692Y1766D01*
X692Y1766D01*
X692Y1765D01*
X692Y1765D01*
X692Y1764D01*
X692Y1764D01*
X691Y1763D01*
X691Y1763D01*
X691Y1763D01*
X690Y1762D01*
X690Y1762D01*
X690Y1761D01*
X689Y1761D01*
X689Y1761D01*
X689Y1760D01*
X688Y1760D01*
X688Y1760D01*
X687Y1759D01*
X687Y1759D01*
X686Y1759D01*
X686Y1759D01*
X685Y1758D01*
X685Y1758D01*
X684Y1758D01*
X684Y1758D01*
X683Y1758D01*
X683Y1758D01*
X682Y1758D01*
X647D01*
X647Y1758D01*
X646Y1758D01*
X646Y1758D01*
X645Y1758D01*
X645Y1758D01*
X644Y1758D01*
X644Y1759D01*
X643Y1759D01*
X643Y1759D01*
X642Y1759D01*
X642Y1760D01*
X642Y1760D01*
X641Y1760D01*
X641Y1761D01*
X640Y1761D01*
X640Y1761D01*
X640Y1762D01*
X639Y1762D01*
X639Y1763D01*
X639Y1763D01*
X638Y1763D01*
X638Y1764D01*
X638Y1764D01*
X638Y1765D01*
X638Y1765D01*
X638Y1766D01*
X638Y1766D01*
X637Y1767D01*
X637Y1767D01*
X637Y1768D01*
Y1788D01*
X637Y1789D01*
X637Y1789D01*
X638Y1790D01*
X638Y1790D01*
X638Y1791D01*
X638Y1791D01*
X638Y1792D01*
X638Y1792D01*
X638Y1793D01*
X639Y1793D01*
X639Y1793D01*
X639Y1794D01*
X640Y1794D01*
X640Y1795D01*
X640Y1795D01*
X641Y1795D01*
X641Y1796D01*
X642Y1796D01*
X642Y1796D01*
X642Y1797D01*
X643Y1797D01*
X643Y1797D01*
X644Y1797D01*
X644Y1798D01*
X645Y1798D01*
X645Y1798D01*
X646Y1798D01*
X646Y1798D01*
X647Y1798D01*
X647Y1798D01*
X682D01*
X683Y1798D01*
D02*
G37*
G36*
X613Y1863D02*
X613Y1863D01*
X614Y1863D01*
X614Y1863D01*
X615Y1863D01*
X615Y1863D01*
X616Y1862D01*
X616Y1862D01*
X617Y1862D01*
X617Y1862D01*
X618Y1861D01*
X618Y1861D01*
X619Y1861D01*
X619Y1860D01*
X619Y1860D01*
X620Y1860D01*
X620Y1859D01*
X620Y1859D01*
X621Y1858D01*
X621Y1858D01*
X621Y1858D01*
X622Y1857D01*
X622Y1857D01*
X622Y1856D01*
X622Y1856D01*
X622Y1855D01*
X622Y1855D01*
X622Y1854D01*
X622Y1854D01*
X622Y1853D01*
Y1768D01*
X622Y1767D01*
X622Y1767D01*
X622Y1766D01*
X622Y1766D01*
X622Y1765D01*
X622Y1765D01*
X622Y1764D01*
X622Y1764D01*
X621Y1763D01*
X621Y1763D01*
X621Y1763D01*
X620Y1762D01*
X620Y1762D01*
X620Y1761D01*
X619Y1761D01*
X619Y1761D01*
X619Y1760D01*
X618Y1760D01*
X618Y1760D01*
X617Y1759D01*
X617Y1759D01*
X616Y1759D01*
X616Y1759D01*
X615Y1758D01*
X615Y1758D01*
X614Y1758D01*
X614Y1758D01*
X613Y1758D01*
X613Y1758D01*
X612Y1758D01*
X522D01*
X522Y1758D01*
X521Y1758D01*
X521Y1758D01*
X520Y1758D01*
X520Y1758D01*
X519Y1758D01*
X519Y1759D01*
X518Y1759D01*
X518Y1759D01*
X517Y1759D01*
X517Y1760D01*
X517Y1760D01*
X516Y1760D01*
X516Y1761D01*
X515Y1761D01*
X515Y1761D01*
X515Y1762D01*
X514Y1762D01*
X514Y1763D01*
X514Y1763D01*
X513Y1763D01*
X513Y1764D01*
X513Y1764D01*
X513Y1765D01*
X513Y1765D01*
X513Y1766D01*
X513Y1766D01*
X512Y1767D01*
X512Y1767D01*
X512Y1768D01*
Y1853D01*
X512Y1854D01*
X512Y1854D01*
X513Y1855D01*
X513Y1855D01*
X513Y1856D01*
X513Y1856D01*
X513Y1857D01*
X513Y1857D01*
X513Y1858D01*
X514Y1858D01*
X514Y1858D01*
X514Y1859D01*
X515Y1859D01*
X515Y1860D01*
X515Y1860D01*
X516Y1860D01*
X516Y1861D01*
X517Y1861D01*
X517Y1861D01*
X517Y1862D01*
X518Y1862D01*
X518Y1862D01*
X519Y1862D01*
X519Y1863D01*
X520Y1863D01*
X520Y1863D01*
X521Y1863D01*
X521Y1863D01*
X522Y1863D01*
X522Y1863D01*
X612D01*
X613Y1863D01*
D02*
G37*
G36*
X488Y1798D02*
X488Y1798D01*
X489Y1798D01*
X489Y1798D01*
X490Y1798D01*
X490Y1798D01*
X491Y1797D01*
X491Y1797D01*
X492Y1797D01*
X492Y1797D01*
X493Y1796D01*
X493Y1796D01*
X494Y1796D01*
X494Y1795D01*
X494Y1795D01*
X495Y1795D01*
X495Y1794D01*
X495Y1794D01*
X496Y1793D01*
X496Y1793D01*
X496Y1793D01*
X497Y1792D01*
X497Y1792D01*
X497Y1791D01*
X497Y1791D01*
X497Y1790D01*
X497Y1790D01*
X497Y1789D01*
X497Y1789D01*
X497Y1788D01*
Y1768D01*
X497Y1767D01*
X497Y1767D01*
X497Y1766D01*
X497Y1766D01*
X497Y1765D01*
X497Y1765D01*
X497Y1764D01*
X497Y1764D01*
X496Y1763D01*
X496Y1763D01*
X496Y1763D01*
X495Y1762D01*
X495Y1762D01*
X495Y1761D01*
X494Y1761D01*
X494Y1761D01*
X494Y1760D01*
X493Y1760D01*
X493Y1760D01*
X492Y1759D01*
X492Y1759D01*
X491Y1759D01*
X491Y1759D01*
X490Y1758D01*
X490Y1758D01*
X489Y1758D01*
X489Y1758D01*
X488Y1758D01*
X488Y1758D01*
X487Y1758D01*
X452D01*
X452Y1758D01*
X451Y1758D01*
X451Y1758D01*
X450Y1758D01*
X450Y1758D01*
X449Y1758D01*
X449Y1759D01*
X448Y1759D01*
X448Y1759D01*
X447Y1759D01*
X447Y1760D01*
X447Y1760D01*
X446Y1760D01*
X446Y1761D01*
X445Y1761D01*
X445Y1761D01*
X445Y1762D01*
X444Y1762D01*
X444Y1763D01*
X444Y1763D01*
X443Y1763D01*
X443Y1764D01*
X443Y1764D01*
X443Y1765D01*
X443Y1765D01*
X443Y1766D01*
X443Y1766D01*
X442Y1767D01*
X442Y1767D01*
X442Y1768D01*
Y1788D01*
X442Y1789D01*
X442Y1789D01*
X443Y1790D01*
X443Y1790D01*
X443Y1791D01*
X443Y1791D01*
X443Y1792D01*
X443Y1792D01*
X443Y1793D01*
X444Y1793D01*
X444Y1793D01*
X444Y1794D01*
X445Y1794D01*
X445Y1795D01*
X445Y1795D01*
X446Y1795D01*
X446Y1796D01*
X447Y1796D01*
X447Y1796D01*
X447Y1797D01*
X448Y1797D01*
X448Y1797D01*
X449Y1797D01*
X449Y1798D01*
X450Y1798D01*
X450Y1798D01*
X451Y1798D01*
X451Y1798D01*
X452Y1798D01*
X452Y1798D01*
X487D01*
X488Y1798D01*
D02*
G37*
G36*
X683Y1733D02*
X683Y1733D01*
X684Y1733D01*
X684Y1733D01*
X685Y1733D01*
X685Y1733D01*
X686Y1732D01*
X686Y1732D01*
X687Y1732D01*
X687Y1732D01*
X688Y1731D01*
X688Y1731D01*
X689Y1731D01*
X689Y1730D01*
X689Y1730D01*
X690Y1730D01*
X690Y1729D01*
X690Y1729D01*
X691Y1728D01*
X691Y1728D01*
X691Y1728D01*
X692Y1727D01*
X692Y1727D01*
X692Y1726D01*
X692Y1726D01*
X692Y1725D01*
X692Y1725D01*
X692Y1724D01*
X692Y1724D01*
X692Y1723D01*
Y1703D01*
X692Y1702D01*
X692Y1702D01*
X692Y1701D01*
X692Y1701D01*
X692Y1700D01*
X692Y1700D01*
X692Y1699D01*
X692Y1699D01*
X691Y1698D01*
X691Y1698D01*
X691Y1698D01*
X690Y1697D01*
X690Y1697D01*
X690Y1696D01*
X689Y1696D01*
X689Y1696D01*
X689Y1695D01*
X688Y1695D01*
X688Y1695D01*
X687Y1694D01*
X687Y1694D01*
X686Y1694D01*
X686Y1694D01*
X685Y1693D01*
X685Y1693D01*
X684Y1693D01*
X684Y1693D01*
X683Y1693D01*
X683Y1693D01*
X682Y1693D01*
X647D01*
X647Y1693D01*
X646Y1693D01*
X646Y1693D01*
X645Y1693D01*
X645Y1693D01*
X644Y1693D01*
X644Y1694D01*
X643Y1694D01*
X643Y1694D01*
X642Y1694D01*
X642Y1695D01*
X642Y1695D01*
X641Y1695D01*
X641Y1696D01*
X640Y1696D01*
X640Y1696D01*
X640Y1697D01*
X639Y1697D01*
X639Y1698D01*
X639Y1698D01*
X638Y1698D01*
X638Y1699D01*
X638Y1699D01*
X638Y1700D01*
X638Y1700D01*
X638Y1701D01*
X638Y1701D01*
X637Y1702D01*
X637Y1702D01*
X637Y1703D01*
Y1723D01*
X637Y1724D01*
X637Y1724D01*
X638Y1725D01*
X638Y1725D01*
X638Y1726D01*
X638Y1726D01*
X638Y1727D01*
X638Y1727D01*
X638Y1728D01*
X639Y1728D01*
X639Y1728D01*
X639Y1729D01*
X640Y1729D01*
X640Y1730D01*
X640Y1730D01*
X641Y1730D01*
X641Y1731D01*
X642Y1731D01*
X642Y1731D01*
X642Y1732D01*
X643Y1732D01*
X643Y1732D01*
X644Y1732D01*
X644Y1733D01*
X645Y1733D01*
X645Y1733D01*
X646Y1733D01*
X646Y1733D01*
X647Y1733D01*
X647Y1733D01*
X682D01*
X683Y1733D01*
D02*
G37*
G36*
X591D02*
X591Y1733D01*
X592Y1733D01*
X592Y1733D01*
X593Y1733D01*
X593Y1733D01*
X594Y1732D01*
X594Y1732D01*
X595Y1732D01*
X595Y1732D01*
X596Y1731D01*
X596Y1731D01*
X597Y1731D01*
X597Y1730D01*
X597Y1730D01*
X598Y1730D01*
X598Y1729D01*
X598Y1729D01*
X599Y1728D01*
X599Y1728D01*
X599Y1728D01*
X600Y1727D01*
X600Y1727D01*
X600Y1726D01*
X600Y1726D01*
X600Y1725D01*
X600Y1725D01*
X600Y1724D01*
X600Y1724D01*
X600Y1723D01*
Y1703D01*
X600Y1702D01*
X600Y1702D01*
X600Y1701D01*
X600Y1701D01*
X600Y1700D01*
X600Y1700D01*
X600Y1699D01*
X600Y1699D01*
X599Y1698D01*
X599Y1698D01*
X599Y1698D01*
X598Y1697D01*
X598Y1697D01*
X598Y1696D01*
X597Y1696D01*
X597Y1696D01*
X597Y1695D01*
X596Y1695D01*
X596Y1695D01*
X595Y1694D01*
X595Y1694D01*
X594Y1694D01*
X594Y1694D01*
X593Y1693D01*
X593Y1693D01*
X592Y1693D01*
X592Y1693D01*
X591Y1693D01*
X591Y1693D01*
X590Y1693D01*
X525D01*
X525Y1693D01*
X524Y1693D01*
X524Y1693D01*
X523Y1693D01*
X523Y1693D01*
X522Y1693D01*
X522Y1694D01*
X521Y1694D01*
X521Y1694D01*
X520Y1694D01*
X520Y1695D01*
X520Y1695D01*
X519Y1695D01*
X519Y1696D01*
X518Y1696D01*
X518Y1696D01*
X518Y1697D01*
X517Y1697D01*
X517Y1698D01*
X517Y1698D01*
X516Y1698D01*
X516Y1699D01*
X516Y1699D01*
X516Y1700D01*
X516Y1700D01*
X516Y1701D01*
X516Y1701D01*
X515Y1702D01*
X515Y1702D01*
X515Y1703D01*
Y1723D01*
X515Y1724D01*
X515Y1724D01*
X516Y1725D01*
X516Y1725D01*
X516Y1726D01*
X516Y1726D01*
X516Y1727D01*
X516Y1727D01*
X516Y1728D01*
X517Y1728D01*
X517Y1728D01*
X517Y1729D01*
X518Y1729D01*
X518Y1730D01*
X518Y1730D01*
X519Y1730D01*
X519Y1731D01*
X520Y1731D01*
X520Y1731D01*
X520Y1732D01*
X521Y1732D01*
X521Y1732D01*
X522Y1732D01*
X522Y1733D01*
X523Y1733D01*
X523Y1733D01*
X524Y1733D01*
X524Y1733D01*
X525Y1733D01*
X525Y1733D01*
X590D01*
X591Y1733D01*
D02*
G37*
G36*
X488D02*
X488Y1733D01*
X489Y1733D01*
X489Y1733D01*
X490Y1733D01*
X490Y1733D01*
X491Y1732D01*
X491Y1732D01*
X492Y1732D01*
X492Y1732D01*
X493Y1731D01*
X493Y1731D01*
X494Y1731D01*
X494Y1730D01*
X494Y1730D01*
X495Y1730D01*
X495Y1729D01*
X495Y1729D01*
X496Y1728D01*
X496Y1728D01*
X496Y1728D01*
X497Y1727D01*
X497Y1727D01*
X497Y1726D01*
X497Y1726D01*
X497Y1725D01*
X497Y1725D01*
X497Y1724D01*
X497Y1724D01*
X497Y1723D01*
Y1703D01*
X497Y1702D01*
X497Y1702D01*
X497Y1701D01*
X497Y1701D01*
X497Y1700D01*
X497Y1700D01*
X497Y1699D01*
X497Y1699D01*
X496Y1698D01*
X496Y1698D01*
X496Y1698D01*
X495Y1697D01*
X495Y1697D01*
X495Y1696D01*
X494Y1696D01*
X494Y1696D01*
X494Y1695D01*
X493Y1695D01*
X493Y1695D01*
X492Y1694D01*
X492Y1694D01*
X491Y1694D01*
X491Y1694D01*
X490Y1693D01*
X490Y1693D01*
X489Y1693D01*
X489Y1693D01*
X488Y1693D01*
X488Y1693D01*
X487Y1693D01*
X452D01*
X452Y1693D01*
X451Y1693D01*
X451Y1693D01*
X450Y1693D01*
X450Y1693D01*
X449Y1693D01*
X449Y1694D01*
X448Y1694D01*
X448Y1694D01*
X447Y1694D01*
X447Y1695D01*
X447Y1695D01*
X446Y1695D01*
X446Y1696D01*
X445Y1696D01*
X445Y1696D01*
X445Y1697D01*
X444Y1697D01*
X444Y1698D01*
X444Y1698D01*
X443Y1698D01*
X443Y1699D01*
X443Y1699D01*
X443Y1700D01*
X443Y1700D01*
X443Y1701D01*
X443Y1701D01*
X442Y1702D01*
X442Y1702D01*
X442Y1703D01*
Y1723D01*
X442Y1724D01*
X442Y1724D01*
X443Y1725D01*
X443Y1725D01*
X443Y1726D01*
X443Y1726D01*
X443Y1727D01*
X443Y1727D01*
X443Y1728D01*
X444Y1728D01*
X444Y1728D01*
X444Y1729D01*
X445Y1729D01*
X445Y1730D01*
X445Y1730D01*
X446Y1730D01*
X446Y1731D01*
X447Y1731D01*
X447Y1731D01*
X447Y1732D01*
X448Y1732D01*
X448Y1732D01*
X449Y1732D01*
X449Y1733D01*
X450Y1733D01*
X450Y1733D01*
X451Y1733D01*
X451Y1733D01*
X452Y1733D01*
X452Y1733D01*
X487D01*
X488Y1733D01*
D02*
G37*
G36*
X712Y2866D02*
X713Y2866D01*
X713Y2866D01*
X714Y2866D01*
X714Y2866D01*
X715Y2866D01*
X715Y2866D01*
X716Y2865D01*
X716Y2865D01*
X717Y2865D01*
X717Y2865D01*
X718Y2864D01*
X718Y2864D01*
X719Y2864D01*
X719Y2863D01*
X719Y2863D01*
X720Y2863D01*
X720Y2862D01*
X720Y2862D01*
X721Y2861D01*
X721Y2861D01*
X721Y2860D01*
X721Y2860D01*
X721Y2859D01*
X722Y2859D01*
X722Y2858D01*
X722Y2858D01*
X722Y2857D01*
X722Y2857D01*
X722Y2856D01*
Y2836D01*
X722Y2836D01*
X722Y2835D01*
X722Y2835D01*
X722Y2834D01*
X722Y2834D01*
X721Y2833D01*
X721Y2833D01*
X721Y2832D01*
X721Y2832D01*
X721Y2831D01*
X720Y2831D01*
X720Y2830D01*
X720Y2830D01*
X719Y2830D01*
X719Y2829D01*
X719Y2829D01*
X718Y2829D01*
X718Y2828D01*
X717Y2828D01*
X717Y2828D01*
X716Y2827D01*
X716Y2827D01*
X715Y2827D01*
X715Y2827D01*
X714Y2827D01*
X714Y2827D01*
X713Y2826D01*
X713Y2826D01*
X712Y2826D01*
X712Y2826D01*
X677D01*
X676Y2826D01*
X676Y2826D01*
X675Y2826D01*
X675Y2827D01*
X674Y2827D01*
X674Y2827D01*
X673Y2827D01*
X673Y2827D01*
X672Y2827D01*
X672Y2828D01*
X671Y2828D01*
X671Y2828D01*
X671Y2829D01*
X670Y2829D01*
X670Y2829D01*
X669Y2830D01*
X669Y2830D01*
X669Y2830D01*
X669Y2831D01*
X668Y2831D01*
X668Y2832D01*
X668Y2832D01*
X668Y2833D01*
X667Y2833D01*
X667Y2834D01*
X667Y2834D01*
X667Y2835D01*
X667Y2835D01*
X667Y2836D01*
X667Y2836D01*
Y2856D01*
X667Y2857D01*
X667Y2857D01*
X667Y2858D01*
X667Y2858D01*
X667Y2859D01*
X667Y2859D01*
X668Y2860D01*
X668Y2860D01*
X668Y2861D01*
X668Y2861D01*
X669Y2862D01*
X669Y2862D01*
X669Y2863D01*
X669Y2863D01*
X670Y2863D01*
X670Y2864D01*
X671Y2864D01*
X671Y2864D01*
X671Y2865D01*
X672Y2865D01*
X672Y2865D01*
X673Y2865D01*
X673Y2866D01*
X674Y2866D01*
X674Y2866D01*
X675Y2866D01*
X675Y2866D01*
X676Y2866D01*
X676Y2866D01*
X677Y2866D01*
X712D01*
X712Y2866D01*
D02*
G37*
G36*
X517D02*
X518Y2866D01*
X518Y2866D01*
X519Y2866D01*
X519Y2866D01*
X520Y2866D01*
X520Y2866D01*
X521Y2865D01*
X521Y2865D01*
X522Y2865D01*
X522Y2865D01*
X523Y2864D01*
X523Y2864D01*
X524Y2864D01*
X524Y2863D01*
X524Y2863D01*
X525Y2863D01*
X525Y2862D01*
X525Y2862D01*
X526Y2861D01*
X526Y2861D01*
X526Y2860D01*
X526Y2860D01*
X526Y2859D01*
X527Y2859D01*
X527Y2858D01*
X527Y2858D01*
X527Y2857D01*
X527Y2857D01*
X527Y2856D01*
Y2836D01*
X527Y2836D01*
X527Y2835D01*
X527Y2835D01*
X527Y2834D01*
X527Y2834D01*
X526Y2833D01*
X526Y2833D01*
X526Y2832D01*
X526Y2832D01*
X526Y2831D01*
X525Y2831D01*
X525Y2830D01*
X525Y2830D01*
X524Y2830D01*
X524Y2829D01*
X524Y2829D01*
X523Y2829D01*
X523Y2828D01*
X522Y2828D01*
X522Y2828D01*
X521Y2827D01*
X521Y2827D01*
X520Y2827D01*
X520Y2827D01*
X519Y2827D01*
X519Y2827D01*
X518Y2826D01*
X518Y2826D01*
X517Y2826D01*
X517Y2826D01*
X482D01*
X481Y2826D01*
X481Y2826D01*
X480Y2826D01*
X480Y2827D01*
X479Y2827D01*
X479Y2827D01*
X478Y2827D01*
X478Y2827D01*
X477Y2827D01*
X477Y2828D01*
X476Y2828D01*
X476Y2828D01*
X476Y2829D01*
X475Y2829D01*
X475Y2829D01*
X474Y2830D01*
X474Y2830D01*
X474Y2830D01*
X474Y2831D01*
X473Y2831D01*
X473Y2832D01*
X473Y2832D01*
X473Y2833D01*
X472Y2833D01*
X472Y2834D01*
X472Y2834D01*
X472Y2835D01*
X472Y2835D01*
X472Y2836D01*
X472Y2836D01*
Y2856D01*
X472Y2857D01*
X472Y2857D01*
X472Y2858D01*
X472Y2858D01*
X472Y2859D01*
X472Y2859D01*
X473Y2860D01*
X473Y2860D01*
X473Y2861D01*
X473Y2861D01*
X474Y2862D01*
X474Y2862D01*
X474Y2863D01*
X474Y2863D01*
X475Y2863D01*
X475Y2864D01*
X476Y2864D01*
X476Y2864D01*
X476Y2865D01*
X477Y2865D01*
X477Y2865D01*
X478Y2865D01*
X478Y2866D01*
X479Y2866D01*
X479Y2866D01*
X480Y2866D01*
X480Y2866D01*
X481Y2866D01*
X481Y2866D01*
X482Y2866D01*
X517D01*
X517Y2866D01*
D02*
G37*
G36*
X712Y2801D02*
X713Y2801D01*
X713Y2801D01*
X714Y2801D01*
X714Y2801D01*
X715Y2801D01*
X715Y2801D01*
X716Y2800D01*
X716Y2800D01*
X717Y2800D01*
X717Y2800D01*
X718Y2799D01*
X718Y2799D01*
X719Y2799D01*
X719Y2798D01*
X719Y2798D01*
X720Y2798D01*
X720Y2797D01*
X720Y2797D01*
X721Y2796D01*
X721Y2796D01*
X721Y2795D01*
X721Y2795D01*
X721Y2794D01*
X722Y2794D01*
X722Y2793D01*
X722Y2793D01*
X722Y2792D01*
X722Y2792D01*
X722Y2791D01*
Y2771D01*
X722Y2771D01*
X722Y2770D01*
X722Y2770D01*
X722Y2769D01*
X722Y2769D01*
X721Y2768D01*
X721Y2768D01*
X721Y2767D01*
X721Y2767D01*
X721Y2766D01*
X720Y2766D01*
X720Y2765D01*
X720Y2765D01*
X719Y2765D01*
X719Y2764D01*
X719Y2764D01*
X718Y2764D01*
X718Y2763D01*
X717Y2763D01*
X717Y2763D01*
X716Y2762D01*
X716Y2762D01*
X715Y2762D01*
X715Y2762D01*
X714Y2762D01*
X714Y2762D01*
X713Y2761D01*
X713Y2761D01*
X712Y2761D01*
X712Y2761D01*
X677D01*
X676Y2761D01*
X676Y2761D01*
X675Y2761D01*
X675Y2762D01*
X674Y2762D01*
X674Y2762D01*
X673Y2762D01*
X673Y2762D01*
X672Y2762D01*
X672Y2763D01*
X671Y2763D01*
X671Y2763D01*
X671Y2764D01*
X670Y2764D01*
X670Y2764D01*
X669Y2765D01*
X669Y2765D01*
X669Y2765D01*
X669Y2766D01*
X668Y2766D01*
X668Y2767D01*
X668Y2767D01*
X668Y2768D01*
X667Y2768D01*
X667Y2769D01*
X667Y2769D01*
X667Y2770D01*
X667Y2770D01*
X667Y2771D01*
X667Y2771D01*
Y2791D01*
X667Y2792D01*
X667Y2792D01*
X667Y2793D01*
X667Y2793D01*
X667Y2794D01*
X667Y2794D01*
X668Y2795D01*
X668Y2795D01*
X668Y2796D01*
X668Y2796D01*
X669Y2797D01*
X669Y2797D01*
X669Y2798D01*
X669Y2798D01*
X670Y2798D01*
X670Y2799D01*
X671Y2799D01*
X671Y2799D01*
X671Y2800D01*
X672Y2800D01*
X672Y2800D01*
X673Y2800D01*
X673Y2801D01*
X674Y2801D01*
X674Y2801D01*
X675Y2801D01*
X675Y2801D01*
X676Y2801D01*
X676Y2801D01*
X677Y2801D01*
X712D01*
X712Y2801D01*
D02*
G37*
G36*
X642Y2866D02*
X643Y2866D01*
X643Y2866D01*
X644Y2866D01*
X644Y2866D01*
X645Y2866D01*
X645Y2866D01*
X646Y2865D01*
X646Y2865D01*
X647Y2865D01*
X647Y2865D01*
X648Y2864D01*
X648Y2864D01*
X649Y2864D01*
X649Y2863D01*
X649Y2863D01*
X650Y2863D01*
X650Y2862D01*
X650Y2862D01*
X651Y2861D01*
X651Y2861D01*
X651Y2860D01*
X651Y2860D01*
X651Y2859D01*
X652Y2859D01*
X652Y2858D01*
X652Y2858D01*
X652Y2857D01*
X652Y2857D01*
X652Y2856D01*
Y2771D01*
X652Y2771D01*
X652Y2770D01*
X652Y2770D01*
X652Y2769D01*
X652Y2769D01*
X651Y2768D01*
X651Y2768D01*
X651Y2767D01*
X651Y2767D01*
X651Y2766D01*
X650Y2766D01*
X650Y2765D01*
X650Y2765D01*
X649Y2765D01*
X649Y2764D01*
X649Y2764D01*
X648Y2764D01*
X648Y2763D01*
X647Y2763D01*
X647Y2763D01*
X646Y2762D01*
X646Y2762D01*
X645Y2762D01*
X645Y2762D01*
X644Y2762D01*
X644Y2762D01*
X643Y2761D01*
X643Y2761D01*
X642Y2761D01*
X642Y2761D01*
X552D01*
X551Y2761D01*
X551Y2761D01*
X550Y2761D01*
X550Y2762D01*
X549Y2762D01*
X549Y2762D01*
X548Y2762D01*
X548Y2762D01*
X547Y2762D01*
X547Y2763D01*
X546Y2763D01*
X546Y2763D01*
X546Y2764D01*
X545Y2764D01*
X545Y2764D01*
X544Y2765D01*
X544Y2765D01*
X544Y2765D01*
X544Y2766D01*
X543Y2766D01*
X543Y2767D01*
X543Y2767D01*
X543Y2768D01*
X542Y2768D01*
X542Y2769D01*
X542Y2769D01*
X542Y2770D01*
X542Y2770D01*
X542Y2771D01*
X542Y2771D01*
Y2856D01*
X542Y2857D01*
X542Y2857D01*
X542Y2858D01*
X542Y2858D01*
X542Y2859D01*
X542Y2859D01*
X543Y2860D01*
X543Y2860D01*
X543Y2861D01*
X543Y2861D01*
X544Y2862D01*
X544Y2862D01*
X544Y2863D01*
X544Y2863D01*
X545Y2863D01*
X545Y2864D01*
X546Y2864D01*
X546Y2864D01*
X546Y2865D01*
X547Y2865D01*
X547Y2865D01*
X548Y2865D01*
X548Y2866D01*
X549Y2866D01*
X549Y2866D01*
X550Y2866D01*
X550Y2866D01*
X551Y2866D01*
X551Y2866D01*
X552Y2866D01*
X642D01*
X642Y2866D01*
D02*
G37*
G36*
X517Y2801D02*
X518Y2801D01*
X518Y2801D01*
X519Y2801D01*
X519Y2801D01*
X520Y2801D01*
X520Y2801D01*
X521Y2800D01*
X521Y2800D01*
X522Y2800D01*
X522Y2800D01*
X523Y2799D01*
X523Y2799D01*
X524Y2799D01*
X524Y2798D01*
X524Y2798D01*
X525Y2798D01*
X525Y2797D01*
X525Y2797D01*
X526Y2796D01*
X526Y2796D01*
X526Y2795D01*
X526Y2795D01*
X526Y2794D01*
X527Y2794D01*
X527Y2793D01*
X527Y2793D01*
X527Y2792D01*
X527Y2792D01*
X527Y2791D01*
Y2771D01*
X527Y2771D01*
X527Y2770D01*
X527Y2770D01*
X527Y2769D01*
X527Y2769D01*
X526Y2768D01*
X526Y2768D01*
X526Y2767D01*
X526Y2767D01*
X526Y2766D01*
X525Y2766D01*
X525Y2765D01*
X525Y2765D01*
X524Y2765D01*
X524Y2764D01*
X524Y2764D01*
X523Y2764D01*
X523Y2763D01*
X522Y2763D01*
X522Y2763D01*
X521Y2762D01*
X521Y2762D01*
X520Y2762D01*
X520Y2762D01*
X519Y2762D01*
X519Y2762D01*
X518Y2761D01*
X518Y2761D01*
X517Y2761D01*
X517Y2761D01*
X482D01*
X481Y2761D01*
X481Y2761D01*
X480Y2761D01*
X480Y2762D01*
X479Y2762D01*
X479Y2762D01*
X478Y2762D01*
X478Y2762D01*
X477Y2762D01*
X477Y2763D01*
X476Y2763D01*
X476Y2763D01*
X476Y2764D01*
X475Y2764D01*
X475Y2764D01*
X474Y2765D01*
X474Y2765D01*
X474Y2765D01*
X474Y2766D01*
X473Y2766D01*
X473Y2767D01*
X473Y2767D01*
X473Y2768D01*
X472Y2768D01*
X472Y2769D01*
X472Y2769D01*
X472Y2770D01*
X472Y2770D01*
X472Y2771D01*
X472Y2771D01*
Y2791D01*
X472Y2792D01*
X472Y2792D01*
X472Y2793D01*
X472Y2793D01*
X472Y2794D01*
X472Y2794D01*
X473Y2795D01*
X473Y2795D01*
X473Y2796D01*
X473Y2796D01*
X474Y2797D01*
X474Y2797D01*
X474Y2798D01*
X474Y2798D01*
X475Y2798D01*
X475Y2799D01*
X476Y2799D01*
X476Y2799D01*
X476Y2800D01*
X477Y2800D01*
X477Y2800D01*
X478Y2800D01*
X478Y2801D01*
X479Y2801D01*
X479Y2801D01*
X480Y2801D01*
X480Y2801D01*
X481Y2801D01*
X481Y2801D01*
X482Y2801D01*
X517D01*
X517Y2801D01*
D02*
G37*
G36*
X712Y2736D02*
X713Y2736D01*
X713Y2736D01*
X714Y2736D01*
X714Y2736D01*
X715Y2736D01*
X715Y2736D01*
X716Y2735D01*
X716Y2735D01*
X717Y2735D01*
X717Y2735D01*
X718Y2734D01*
X718Y2734D01*
X719Y2734D01*
X719Y2733D01*
X719Y2733D01*
X720Y2733D01*
X720Y2732D01*
X720Y2732D01*
X721Y2731D01*
X721Y2731D01*
X721Y2730D01*
X721Y2730D01*
X721Y2729D01*
X722Y2729D01*
X722Y2728D01*
X722Y2728D01*
X722Y2727D01*
X722Y2727D01*
X722Y2726D01*
Y2706D01*
X722Y2706D01*
X722Y2705D01*
X722Y2705D01*
X722Y2704D01*
X722Y2704D01*
X721Y2703D01*
X721Y2703D01*
X721Y2702D01*
X721Y2702D01*
X721Y2701D01*
X720Y2701D01*
X720Y2700D01*
X720Y2700D01*
X719Y2700D01*
X719Y2699D01*
X719Y2699D01*
X718Y2699D01*
X718Y2698D01*
X717Y2698D01*
X717Y2698D01*
X716Y2697D01*
X716Y2697D01*
X715Y2697D01*
X715Y2697D01*
X714Y2697D01*
X714Y2697D01*
X713Y2696D01*
X713Y2696D01*
X712Y2696D01*
X712Y2696D01*
X677D01*
X676Y2696D01*
X676Y2696D01*
X675Y2696D01*
X675Y2697D01*
X674Y2697D01*
X674Y2697D01*
X673Y2697D01*
X673Y2697D01*
X672Y2697D01*
X672Y2698D01*
X671Y2698D01*
X671Y2698D01*
X671Y2699D01*
X670Y2699D01*
X670Y2699D01*
X669Y2700D01*
X669Y2700D01*
X669Y2700D01*
X669Y2701D01*
X668Y2701D01*
X668Y2702D01*
X668Y2702D01*
X668Y2703D01*
X667Y2703D01*
X667Y2704D01*
X667Y2704D01*
X667Y2705D01*
X667Y2705D01*
X667Y2706D01*
X667Y2706D01*
Y2726D01*
X667Y2727D01*
X667Y2727D01*
X667Y2728D01*
X667Y2728D01*
X667Y2729D01*
X667Y2729D01*
X668Y2730D01*
X668Y2730D01*
X668Y2731D01*
X668Y2731D01*
X669Y2732D01*
X669Y2732D01*
X669Y2733D01*
X669Y2733D01*
X670Y2733D01*
X670Y2734D01*
X671Y2734D01*
X671Y2734D01*
X671Y2735D01*
X672Y2735D01*
X672Y2735D01*
X673Y2735D01*
X673Y2736D01*
X674Y2736D01*
X674Y2736D01*
X675Y2736D01*
X675Y2736D01*
X676Y2736D01*
X676Y2736D01*
X677Y2736D01*
X712D01*
X712Y2736D01*
D02*
G37*
G36*
X620D02*
X621Y2736D01*
X621Y2736D01*
X622Y2736D01*
X622Y2736D01*
X623Y2736D01*
X623Y2736D01*
X624Y2735D01*
X624Y2735D01*
X625Y2735D01*
X625Y2735D01*
X626Y2734D01*
X626Y2734D01*
X627Y2734D01*
X627Y2733D01*
X627Y2733D01*
X628Y2733D01*
X628Y2732D01*
X628Y2732D01*
X629Y2731D01*
X629Y2731D01*
X629Y2730D01*
X629Y2730D01*
X629Y2729D01*
X630Y2729D01*
X630Y2728D01*
X630Y2728D01*
X630Y2727D01*
X630Y2727D01*
X630Y2726D01*
Y2706D01*
X630Y2706D01*
X630Y2705D01*
X630Y2705D01*
X630Y2704D01*
X630Y2704D01*
X629Y2703D01*
X629Y2703D01*
X629Y2702D01*
X629Y2702D01*
X629Y2701D01*
X628Y2701D01*
X628Y2700D01*
X628Y2700D01*
X627Y2700D01*
X627Y2699D01*
X627Y2699D01*
X626Y2699D01*
X626Y2698D01*
X625Y2698D01*
X625Y2698D01*
X624Y2697D01*
X624Y2697D01*
X623Y2697D01*
X623Y2697D01*
X622Y2697D01*
X622Y2697D01*
X621Y2696D01*
X621Y2696D01*
X620Y2696D01*
X620Y2696D01*
X555D01*
X554Y2696D01*
X554Y2696D01*
X553Y2696D01*
X553Y2697D01*
X552Y2697D01*
X552Y2697D01*
X551Y2697D01*
X551Y2697D01*
X550Y2697D01*
X550Y2698D01*
X549Y2698D01*
X549Y2698D01*
X549Y2699D01*
X548Y2699D01*
X548Y2699D01*
X547Y2700D01*
X547Y2700D01*
X547Y2700D01*
X547Y2701D01*
X546Y2701D01*
X546Y2702D01*
X546Y2702D01*
X546Y2703D01*
X545Y2703D01*
X545Y2704D01*
X545Y2704D01*
X545Y2705D01*
X545Y2705D01*
X545Y2706D01*
X545Y2706D01*
Y2726D01*
X545Y2727D01*
X545Y2727D01*
X545Y2728D01*
X545Y2728D01*
X545Y2729D01*
X545Y2729D01*
X546Y2730D01*
X546Y2730D01*
X546Y2731D01*
X546Y2731D01*
X547Y2732D01*
X547Y2732D01*
X547Y2733D01*
X547Y2733D01*
X548Y2733D01*
X548Y2734D01*
X549Y2734D01*
X549Y2734D01*
X549Y2735D01*
X550Y2735D01*
X550Y2735D01*
X551Y2735D01*
X551Y2736D01*
X552Y2736D01*
X552Y2736D01*
X553Y2736D01*
X553Y2736D01*
X554Y2736D01*
X554Y2736D01*
X555Y2736D01*
X620D01*
X620Y2736D01*
D02*
G37*
G36*
X517D02*
X518Y2736D01*
X518Y2736D01*
X519Y2736D01*
X519Y2736D01*
X520Y2736D01*
X520Y2736D01*
X521Y2735D01*
X521Y2735D01*
X522Y2735D01*
X522Y2735D01*
X523Y2734D01*
X523Y2734D01*
X524Y2734D01*
X524Y2733D01*
X524Y2733D01*
X525Y2733D01*
X525Y2732D01*
X525Y2732D01*
X526Y2731D01*
X526Y2731D01*
X526Y2730D01*
X526Y2730D01*
X526Y2729D01*
X527Y2729D01*
X527Y2728D01*
X527Y2728D01*
X527Y2727D01*
X527Y2727D01*
X527Y2726D01*
Y2706D01*
X527Y2706D01*
X527Y2705D01*
X527Y2705D01*
X527Y2704D01*
X527Y2704D01*
X526Y2703D01*
X526Y2703D01*
X526Y2702D01*
X526Y2702D01*
X526Y2701D01*
X525Y2701D01*
X525Y2700D01*
X525Y2700D01*
X524Y2700D01*
X524Y2699D01*
X524Y2699D01*
X523Y2699D01*
X523Y2698D01*
X522Y2698D01*
X522Y2698D01*
X521Y2697D01*
X521Y2697D01*
X520Y2697D01*
X520Y2697D01*
X519Y2697D01*
X519Y2697D01*
X518Y2696D01*
X518Y2696D01*
X517Y2696D01*
X517Y2696D01*
X482D01*
X481Y2696D01*
X481Y2696D01*
X480Y2696D01*
X480Y2697D01*
X479Y2697D01*
X479Y2697D01*
X478Y2697D01*
X478Y2697D01*
X477Y2697D01*
X477Y2698D01*
X476Y2698D01*
X476Y2698D01*
X476Y2699D01*
X475Y2699D01*
X475Y2699D01*
X474Y2700D01*
X474Y2700D01*
X474Y2700D01*
X474Y2701D01*
X473Y2701D01*
X473Y2702D01*
X473Y2702D01*
X473Y2703D01*
X472Y2703D01*
X472Y2704D01*
X472Y2704D01*
X472Y2705D01*
X472Y2705D01*
X472Y2706D01*
X472Y2706D01*
Y2726D01*
X472Y2727D01*
X472Y2727D01*
X472Y2728D01*
X472Y2728D01*
X472Y2729D01*
X472Y2729D01*
X473Y2730D01*
X473Y2730D01*
X473Y2731D01*
X473Y2731D01*
X474Y2732D01*
X474Y2732D01*
X474Y2733D01*
X474Y2733D01*
X475Y2733D01*
X475Y2734D01*
X476Y2734D01*
X476Y2734D01*
X476Y2735D01*
X477Y2735D01*
X477Y2735D01*
X478Y2735D01*
X478Y2736D01*
X479Y2736D01*
X479Y2736D01*
X480Y2736D01*
X480Y2736D01*
X481Y2736D01*
X481Y2736D01*
X482Y2736D01*
X517D01*
X517Y2736D01*
D02*
G37*
D24*
X127Y3188D02*
D03*
X-699Y3315D02*
D03*
Y3086D02*
D03*
X127Y2997D02*
D03*
X267Y3086D02*
D03*
X-686Y2883D02*
D03*
D25*
X-838Y2870D02*
D03*
X-928D02*
D03*
X-831Y3086D02*
D03*
X-921D02*
D03*
X-915Y3315D02*
D03*
X-826D02*
D03*
D27*
X1435Y475D02*
D03*
X1435Y2652D02*
D03*
D28*
X1435Y871D02*
D03*
X1435Y3048D02*
D03*
D29*
X1359Y1765D02*
D03*
Y2019D02*
D03*
X1613Y1511D02*
D03*
Y1765D02*
D03*
X1359Y1511D02*
D03*
D30*
X-2223Y3962D02*
D03*
X-546Y-5169D02*
D03*
X1346Y-3302D02*
D03*
X1270Y4013D02*
D03*
D31*
X1613Y2019D02*
D03*
D32*
X-495Y-3340D02*
D03*
D33*
Y3882D02*
D03*
D34*
X-1295Y3031D02*
D03*
X305Y-2489D02*
D03*
D35*
Y3851D02*
D03*
D36*
X-597Y3404D02*
D03*
X172Y3461D02*
D03*
X103Y3271D02*
D03*
X-109Y3436D02*
D03*
X-279Y2807D02*
D03*
X-468Y2942D02*
D03*
X362Y2502D02*
D03*
X-470Y2159D02*
D03*
X-823Y3200D02*
D03*
X-823Y2979D02*
D03*
X178Y2095D02*
D03*
X-317Y3581D02*
D03*
D37*
X317Y-5182D02*
D03*
X1600D02*
D03*
X1778Y-5271D02*
D03*
X1092D02*
D03*
X495D02*
D03*
X1422D02*
D03*
X851D02*
D03*
X140D02*
D03*
X-38Y2883D02*
D03*
X1337Y2340D02*
D03*
X394Y2642D02*
D03*
X940Y1968D02*
D03*
X914Y2883D02*
D03*
X-216Y2045D02*
D03*
X-1092Y2769D02*
D03*
Y1562D02*
D03*
X876Y3238D02*
D03*
X-1092Y3416D02*
D03*
X25Y1130D02*
D03*
X-470D02*
D03*
X851Y-2692D02*
D03*
X1283Y-991D02*
D03*
X749Y3759D02*
D03*
X381Y1575D02*
D03*
D38*
X51Y2591D02*
D03*
D80*
X-260Y2301D02*
D03*
X-70D02*
D03*
Y2525D02*
D03*
X-165D02*
D03*
D82*
X-260D02*
D03*
D83*
X978Y2207D02*
D03*
Y2502D02*
D03*
D87*
X508Y3225D02*
D03*
Y3505D02*
D03*
D88*
X-470Y1396D02*
D03*
Y1816D02*
D03*
X25Y1829D02*
D03*
Y1409D02*
D03*
D89*
X-1092Y1799D02*
D03*
Y2464D02*
D03*
D90*
X-279Y3162D02*
D03*
D91*
X-179Y2971D02*
D03*
X-229D02*
D03*
X-279D02*
D03*
X-379D02*
D03*
X-329Y3353D02*
D03*
X-279D02*
D03*
X-229D02*
D03*
X-179D02*
D03*
X-329Y2971D02*
D03*
X-379Y3353D02*
D03*
D92*
X-88Y3212D02*
D03*
Y3162D02*
D03*
Y3112D02*
D03*
Y3062D02*
D03*
X-470D02*
D03*
Y3112D02*
D03*
Y3212D02*
D03*
Y3262D02*
D03*
X-88D02*
D03*
X-470Y3162D02*
D03*
D93*
X127Y2793D02*
D03*
Y2883D02*
D03*
X267Y2793D02*
D03*
Y2883D02*
D03*
D94*
X481Y2019D02*
D03*
X660D02*
D03*
X507Y2502D02*
D03*
X686D02*
D03*
X697Y3061D02*
D03*
X876D02*
D03*
D95*
X-527Y2421D02*
D03*
X-667D02*
D03*
X-527Y2603D02*
D03*
X-667D02*
D03*
M02*
