G04*
G04 #@! TF.GenerationSoftware,Altium Limited,Altium Designer,23.10.1 (27)*
G04*
G04 Layer_Color=8388736*
%FSLAX42Y42*%
%MOMM*%
G71*
G04*
G04 #@! TF.SameCoordinates,D788F153-7B32-47A3-9728-DC68925F5BF0*
G04*
G04*
G04 #@! TF.FilePolarity,Negative*
G04*
G01*
G75*
%ADD20R,1.27X2.54*%
%ADD21R,3.43X1.65*%
%ADD23R,7.65X3.20*%
%ADD24C,0.80*%
G04:AMPARAMS|DCode=25|XSize=0.75mm|YSize=0.7mm|CornerRadius=0.16mm|HoleSize=0mm|Usage=FLASHONLY|Rotation=90.000|XOffset=0mm|YOffset=0mm|HoleType=Round|Shape=RoundedRectangle|*
%AMROUNDEDRECTD25*
21,1,0.75,0.38,0,0,90.0*
21,1,0.43,0.70,0,0,90.0*
1,1,0.33,0.19,0.21*
1,1,0.33,0.19,-0.21*
1,1,0.33,-0.19,-0.21*
1,1,0.33,-0.19,0.21*
%
%ADD25ROUNDEDRECTD25*%
%ADD26R,1.00X1.00*%
%ADD27R,2.35X2.35*%
%ADD28C,2.35*%
%ADD29C,1.60*%
%ADD30C,5.20*%
%ADD31R,1.60X1.60*%
%ADD32R,2.02X2.02*%
%ADD33C,2.02*%
%ADD34C,3.55*%
%ADD35C,2.39*%
%ADD36C,0.84*%
%ADD37C,1.47*%
%ADD38C,0.71*%
D20*
X205Y-3988D02*
D03*
X505D02*
D03*
X805D02*
D03*
X1105D02*
D03*
X1405D02*
D03*
X205Y-4928D02*
D03*
X505D02*
D03*
X805D02*
D03*
X1105D02*
D03*
X1405D02*
D03*
D21*
X1794Y-4458D02*
D03*
X-183D02*
D03*
D23*
X1346Y-1295D02*
D03*
Y-2692D02*
D03*
D24*
X1041Y-140D02*
D03*
X1054Y-696D02*
D03*
Y-405D02*
D03*
D25*
X1703Y-699D02*
D03*
X1613D02*
D03*
X1696Y-140D02*
D03*
X1606D02*
D03*
X1703Y-394D02*
D03*
X1613D02*
D03*
D26*
X1269Y-696D02*
D03*
X1419D02*
D03*
X1271Y-140D02*
D03*
X1421D02*
D03*
X1269Y-405D02*
D03*
X1419D02*
D03*
D27*
X1435Y475D02*
D03*
X1435Y2652D02*
D03*
D28*
X1435Y871D02*
D03*
X1435Y3048D02*
D03*
D29*
X1359Y1765D02*
D03*
Y2019D02*
D03*
X1613Y1511D02*
D03*
Y1765D02*
D03*
X1359Y1511D02*
D03*
D30*
X-2223Y3962D02*
D03*
X-546Y-5169D02*
D03*
X1346Y-3302D02*
D03*
X1270Y4013D02*
D03*
D31*
X1613Y2019D02*
D03*
D32*
X-495Y-3340D02*
D03*
D33*
Y3882D02*
D03*
D34*
X-1295Y3031D02*
D03*
X305Y-2489D02*
D03*
D35*
Y3851D02*
D03*
D36*
X-597Y3404D02*
D03*
X172Y3461D02*
D03*
X103Y3271D02*
D03*
X-109Y3436D02*
D03*
X-279Y2807D02*
D03*
X-468Y2942D02*
D03*
X362Y2502D02*
D03*
X-470Y2159D02*
D03*
X-823Y3200D02*
D03*
X-823Y2979D02*
D03*
X178Y2095D02*
D03*
X-317Y3581D02*
D03*
D37*
X317Y-5182D02*
D03*
X1600D02*
D03*
X1778Y-5271D02*
D03*
X1092D02*
D03*
X495D02*
D03*
X1422D02*
D03*
X851D02*
D03*
X140D02*
D03*
X-38Y2883D02*
D03*
X1337Y2340D02*
D03*
X394Y2642D02*
D03*
X940Y1968D02*
D03*
X914Y2883D02*
D03*
X-216Y2045D02*
D03*
X-1092Y2769D02*
D03*
Y1562D02*
D03*
X876Y3238D02*
D03*
X-1092Y3416D02*
D03*
X25Y1130D02*
D03*
X-470D02*
D03*
X851Y-2692D02*
D03*
X1283Y-991D02*
D03*
X749Y3759D02*
D03*
X381Y1575D02*
D03*
D38*
X51Y2591D02*
D03*
M02*
