G04*
G04 #@! TF.GenerationSoftware,Altium Limited,Altium Designer,23.10.1 (27)*
G04*
G04 Layer_Color=128*
%FSLAX42Y42*%
%MOMM*%
G71*
G04*
G04 #@! TF.SameCoordinates,D788F153-7B32-47A3-9728-DC68925F5BF0*
G04*
G04*
G04 #@! TF.FilePolarity,Positive*
G04*
G01*
G75*
G04:AMPARAMS|DCode=19|XSize=0.55mm|YSize=0.5mm|CornerRadius=0.06mm|HoleSize=0mm|Usage=FLASHONLY|Rotation=90.000|XOffset=0mm|YOffset=0mm|HoleType=Round|Shape=RoundedRectangle|*
%AMROUNDEDRECTD19*
21,1,0.55,0.38,0,0,90.0*
21,1,0.43,0.50,0,0,90.0*
1,1,0.13,0.19,0.21*
1,1,0.13,0.19,-0.21*
1,1,0.13,-0.19,-0.21*
1,1,0.13,-0.19,0.21*
%
%ADD19ROUNDEDRECTD19*%
G04:AMPARAMS|DCode=69|XSize=0.45mm|YSize=0.3mm|CornerRadius=0.06mm|HoleSize=0mm|Usage=FLASHONLY|Rotation=180.000|XOffset=0mm|YOffset=0mm|HoleType=Round|Shape=RoundedRectangle|*
%AMROUNDEDRECTD69*
21,1,0.45,0.18,0,0,180.0*
21,1,0.33,0.30,0,0,180.0*
1,1,0.12,-0.17,0.09*
1,1,0.12,0.17,0.09*
1,1,0.12,0.17,-0.09*
1,1,0.12,-0.17,-0.09*
%
%ADD69ROUNDEDRECTD69*%
%ADD72R,1.75X1.15*%
%ADD73R,2.90X2.25*%
%ADD74R,2.90X1.45*%
G04:AMPARAMS|DCode=76|XSize=0.89mm|YSize=0.26mm|CornerRadius=0.03mm|HoleSize=0mm|Usage=FLASHONLY|Rotation=90.000|XOffset=0mm|YOffset=0mm|HoleType=Round|Shape=RoundedRectangle|*
%AMROUNDEDRECTD76*
21,1,0.89,0.20,0,0,90.0*
21,1,0.83,0.26,0,0,90.0*
1,1,0.07,0.10,0.41*
1,1,0.07,0.10,-0.41*
1,1,0.07,-0.10,-0.41*
1,1,0.07,-0.10,0.41*
%
%ADD76ROUNDEDRECTD76*%
G04:AMPARAMS|DCode=77|XSize=0.89mm|YSize=0.26mm|CornerRadius=0.03mm|HoleSize=0mm|Usage=FLASHONLY|Rotation=180.000|XOffset=0mm|YOffset=0mm|HoleType=Round|Shape=RoundedRectangle|*
%AMROUNDEDRECTD77*
21,1,0.89,0.20,0,0,180.0*
21,1,0.83,0.26,0,0,180.0*
1,1,0.07,-0.41,0.10*
1,1,0.07,0.41,0.10*
1,1,0.07,0.41,-0.10*
1,1,0.07,-0.41,-0.10*
%
%ADD77ROUNDEDRECTD77*%
G04:AMPARAMS|DCode=78|XSize=0.55mm|YSize=0.5mm|CornerRadius=0.06mm|HoleSize=0mm|Usage=FLASHONLY|Rotation=0.000|XOffset=0mm|YOffset=0mm|HoleType=Round|Shape=RoundedRectangle|*
%AMROUNDEDRECTD78*
21,1,0.55,0.38,0,0,0.0*
21,1,0.43,0.50,0,0,0.0*
1,1,0.13,0.21,-0.19*
1,1,0.13,-0.21,-0.19*
1,1,0.13,-0.21,0.19*
1,1,0.13,0.21,0.19*
%
%ADD78ROUNDEDRECTD78*%
G04:AMPARAMS|DCode=79|XSize=1.3mm|YSize=0.76mm|CornerRadius=0.1mm|HoleSize=0mm|Usage=FLASHONLY|Rotation=90.000|XOffset=0mm|YOffset=0mm|HoleType=Round|Shape=RoundedRectangle|*
%AMROUNDEDRECTD79*
21,1,1.30,0.57,0,0,90.0*
21,1,1.11,0.76,0,0,90.0*
1,1,0.19,0.28,0.56*
1,1,0.19,0.28,-0.56*
1,1,0.19,-0.28,-0.56*
1,1,0.19,-0.28,0.56*
%
%ADD79ROUNDEDRECTD79*%
G04:AMPARAMS|DCode=80|XSize=0.94mm|YSize=0.49mm|CornerRadius=0.24mm|HoleSize=0mm|Usage=FLASHONLY|Rotation=270.000|XOffset=0mm|YOffset=0mm|HoleType=Round|Shape=RoundedRectangle|*
%AMROUNDEDRECTD80*
21,1,0.94,0.00,0,0,270.0*
21,1,0.45,0.49,0,0,270.0*
1,1,0.49,0.00,-0.23*
1,1,0.49,0.00,0.23*
1,1,0.49,0.00,0.23*
1,1,0.49,0.00,-0.23*
%
%ADD80ROUNDEDRECTD80*%
G04:AMPARAMS|DCode=81|XSize=0.76mm|YSize=0.66mm|CornerRadius=0.08mm|HoleSize=0mm|Usage=FLASHONLY|Rotation=90.000|XOffset=0mm|YOffset=0mm|HoleType=Round|Shape=RoundedRectangle|*
%AMROUNDEDRECTD81*
21,1,0.76,0.50,0,0,90.0*
21,1,0.59,0.66,0,0,90.0*
1,1,0.17,0.25,0.30*
1,1,0.17,0.25,-0.30*
1,1,0.17,-0.25,-0.30*
1,1,0.17,-0.25,0.30*
%
%ADD81ROUNDEDRECTD81*%
%ADD82R,0.49X0.94*%
%ADD83R,1.81X1.36*%
G36*
X528Y1727D02*
X527Y1727D01*
X527Y1727D01*
X527Y1727D01*
X527Y1727D01*
X526Y1727D01*
X526Y1727D01*
X526Y1727D01*
X526Y1727D01*
X525Y1727D01*
X525Y1727D01*
X525Y1727D01*
X525Y1726D01*
X525Y1726D01*
X524Y1726D01*
X524Y1726D01*
X524Y1726D01*
X524Y1725D01*
X524Y1725D01*
X524Y1725D01*
X523Y1725D01*
X523Y1725D01*
X523Y1724D01*
X523Y1724D01*
X523Y1724D01*
X523Y1724D01*
X523Y1723D01*
X523Y1723D01*
X523Y1723D01*
X523Y1723D01*
Y1703D01*
X523Y1703D01*
X523Y1703D01*
X523Y1703D01*
X523Y1702D01*
X523Y1702D01*
X523Y1702D01*
X523Y1702D01*
X523Y1701D01*
X523Y1701D01*
X524Y1701D01*
X524Y1701D01*
X524Y1701D01*
X524Y1700D01*
X524Y1700D01*
X524Y1700D01*
X525Y1700D01*
X525Y1700D01*
X525Y1699D01*
X525Y1699D01*
X525Y1699D01*
X526Y1699D01*
X526Y1699D01*
X526Y1699D01*
X526Y1699D01*
X527Y1699D01*
X527Y1699D01*
X527Y1699D01*
X527Y1699D01*
X528Y1699D01*
X528Y1699D01*
X588D01*
X588Y1699D01*
X588Y1699D01*
X589Y1699D01*
X589Y1699D01*
X589Y1699D01*
X589Y1699D01*
X590Y1699D01*
X590Y1699D01*
X590Y1699D01*
X590Y1699D01*
X591Y1699D01*
X591Y1699D01*
X591Y1700D01*
X591Y1700D01*
X591Y1700D01*
X592Y1700D01*
X592Y1700D01*
X592Y1701D01*
X592Y1701D01*
X592Y1701D01*
X592Y1701D01*
X592Y1701D01*
X593Y1702D01*
X593Y1702D01*
X593Y1702D01*
X593Y1702D01*
X593Y1703D01*
X593Y1703D01*
X593Y1703D01*
X593Y1703D01*
Y1723D01*
X593Y1723D01*
X593Y1723D01*
X593Y1723D01*
X593Y1724D01*
X593Y1724D01*
X593Y1724D01*
X593Y1724D01*
X592Y1725D01*
X592Y1725D01*
X592Y1725D01*
X592Y1725D01*
X592Y1725D01*
X592Y1726D01*
X592Y1726D01*
X591Y1726D01*
X591Y1726D01*
X591Y1726D01*
X591Y1727D01*
X591Y1727D01*
X590Y1727D01*
X590Y1727D01*
X590Y1727D01*
X590Y1727D01*
X589Y1727D01*
X589Y1727D01*
X589Y1727D01*
X589Y1727D01*
X588Y1727D01*
X588Y1727D01*
X588Y1727D01*
X528D01*
X528Y1727D01*
D02*
G37*
G36*
X527Y1853D02*
X527Y1853D01*
X527Y1853D01*
X526Y1853D01*
X526Y1853D01*
X526Y1853D01*
X526Y1853D01*
X525Y1853D01*
X525Y1853D01*
X525Y1853D01*
X525Y1853D01*
X524Y1853D01*
X524Y1852D01*
X524Y1852D01*
X524Y1852D01*
X524Y1852D01*
X524Y1852D01*
X523Y1851D01*
X523Y1851D01*
X523Y1851D01*
X523Y1851D01*
X523Y1851D01*
X523Y1850D01*
X523Y1850D01*
X523Y1850D01*
X523Y1850D01*
X522Y1849D01*
X522Y1849D01*
X522Y1849D01*
X522Y1849D01*
Y1773D01*
X522Y1772D01*
X522Y1772D01*
X522Y1772D01*
X523Y1771D01*
X523Y1771D01*
X523Y1771D01*
X523Y1771D01*
X523Y1770D01*
X523Y1770D01*
X523Y1770D01*
X523Y1770D01*
X523Y1770D01*
X524Y1769D01*
X524Y1769D01*
X524Y1769D01*
X524Y1769D01*
X524Y1769D01*
X524Y1768D01*
X525Y1768D01*
X525Y1768D01*
X525Y1768D01*
X525Y1768D01*
X526Y1768D01*
X526Y1768D01*
X526Y1768D01*
X526Y1768D01*
X527Y1768D01*
X527Y1768D01*
X527Y1768D01*
X527Y1767D01*
X607D01*
X608Y1768D01*
X608Y1768D01*
X608Y1768D01*
X608Y1768D01*
X609Y1768D01*
X609Y1768D01*
X609Y1768D01*
X609Y1768D01*
X610Y1768D01*
X610Y1768D01*
X610Y1768D01*
X610Y1768D01*
X611Y1769D01*
X611Y1769D01*
X611Y1769D01*
X611Y1769D01*
X611Y1769D01*
X611Y1770D01*
X612Y1770D01*
X612Y1770D01*
X612Y1770D01*
X612Y1770D01*
X612Y1771D01*
X612Y1771D01*
X612Y1771D01*
X612Y1771D01*
X612Y1772D01*
X612Y1772D01*
X612Y1772D01*
X612Y1773D01*
Y1849D01*
X612Y1849D01*
X612Y1849D01*
X612Y1849D01*
X612Y1850D01*
X612Y1850D01*
X612Y1850D01*
X612Y1850D01*
X612Y1851D01*
X612Y1851D01*
X612Y1851D01*
X612Y1851D01*
X611Y1851D01*
X611Y1852D01*
X611Y1852D01*
X611Y1852D01*
X611Y1852D01*
X611Y1852D01*
X610Y1853D01*
X610Y1853D01*
X610Y1853D01*
X610Y1853D01*
X609Y1853D01*
X609Y1853D01*
X609Y1853D01*
X609Y1853D01*
X608Y1853D01*
X608Y1853D01*
X608Y1853D01*
X608Y1853D01*
X607Y1853D01*
X527D01*
X527Y1853D01*
D02*
G37*
G36*
X-197Y3080D02*
X-361D01*
Y3244D01*
X-197D01*
Y3080D01*
D02*
G37*
G36*
X637Y2857D02*
X637Y2857D01*
X638Y2857D01*
X638Y2857D01*
X638Y2857D01*
X638Y2857D01*
X639Y2856D01*
X639Y2856D01*
X639Y2856D01*
X639Y2856D01*
X640Y2856D01*
X640Y2856D01*
X640Y2856D01*
X640Y2856D01*
X640Y2855D01*
X641Y2855D01*
X641Y2855D01*
X641Y2855D01*
X641Y2855D01*
X641Y2854D01*
X641Y2854D01*
X641Y2854D01*
X642Y2854D01*
X642Y2853D01*
X642Y2853D01*
X642Y2853D01*
X642Y2853D01*
X642Y2852D01*
X642Y2852D01*
X642Y2852D01*
Y2776D01*
X642Y2776D01*
X642Y2775D01*
X642Y2775D01*
X642Y2775D01*
X642Y2775D01*
X642Y2774D01*
X642Y2774D01*
X641Y2774D01*
X641Y2774D01*
X641Y2773D01*
X641Y2773D01*
X641Y2773D01*
X641Y2773D01*
X641Y2772D01*
X640Y2772D01*
X640Y2772D01*
X640Y2772D01*
X640Y2772D01*
X640Y2772D01*
X639Y2771D01*
X639Y2771D01*
X639Y2771D01*
X639Y2771D01*
X638Y2771D01*
X638Y2771D01*
X638Y2771D01*
X638Y2771D01*
X637Y2771D01*
X637Y2771D01*
X637Y2771D01*
X557D01*
X557Y2771D01*
X556Y2771D01*
X556Y2771D01*
X556Y2771D01*
X556Y2771D01*
X555Y2771D01*
X555Y2771D01*
X555Y2771D01*
X555Y2771D01*
X554Y2771D01*
X554Y2772D01*
X554Y2772D01*
X554Y2772D01*
X554Y2772D01*
X553Y2772D01*
X553Y2772D01*
X553Y2773D01*
X553Y2773D01*
X553Y2773D01*
X553Y2773D01*
X552Y2774D01*
X552Y2774D01*
X552Y2774D01*
X552Y2774D01*
X552Y2775D01*
X552Y2775D01*
X552Y2775D01*
X552Y2775D01*
X552Y2776D01*
X552Y2776D01*
Y2852D01*
X552Y2852D01*
X552Y2852D01*
X552Y2853D01*
X552Y2853D01*
X552Y2853D01*
X552Y2853D01*
X552Y2854D01*
X552Y2854D01*
X552Y2854D01*
X553Y2854D01*
X553Y2855D01*
X553Y2855D01*
X553Y2855D01*
X553Y2855D01*
X553Y2855D01*
X554Y2856D01*
X554Y2856D01*
X554Y2856D01*
X554Y2856D01*
X554Y2856D01*
X555Y2856D01*
X555Y2856D01*
X555Y2856D01*
X555Y2857D01*
X556Y2857D01*
X556Y2857D01*
X556Y2857D01*
X556Y2857D01*
X557Y2857D01*
X557Y2857D01*
X637D01*
X637Y2857D01*
D02*
G37*
G36*
X618Y2731D02*
X618Y2731D01*
X618Y2731D01*
X618Y2731D01*
X619Y2731D01*
X619Y2731D01*
X619Y2730D01*
X619Y2730D01*
X620Y2730D01*
X620Y2730D01*
X620Y2730D01*
X620Y2730D01*
X621Y2730D01*
X621Y2730D01*
X621Y2729D01*
X621Y2729D01*
X621Y2729D01*
X621Y2729D01*
X622Y2729D01*
X622Y2728D01*
X622Y2728D01*
X622Y2728D01*
X622Y2728D01*
X622Y2727D01*
X622Y2727D01*
X622Y2727D01*
X622Y2727D01*
X622Y2726D01*
X622Y2726D01*
X622Y2726D01*
Y2707D01*
X622Y2707D01*
X622Y2706D01*
X622Y2706D01*
X622Y2706D01*
X622Y2706D01*
X622Y2705D01*
X622Y2705D01*
X622Y2705D01*
X622Y2705D01*
X622Y2704D01*
X622Y2704D01*
X621Y2704D01*
X621Y2704D01*
X621Y2703D01*
X621Y2703D01*
X621Y2703D01*
X621Y2703D01*
X620Y2703D01*
X620Y2703D01*
X620Y2702D01*
X620Y2702D01*
X619Y2702D01*
X619Y2702D01*
X619Y2702D01*
X619Y2702D01*
X618Y2702D01*
X618Y2702D01*
X618Y2702D01*
X618Y2702D01*
X617Y2702D01*
X557D01*
X557Y2702D01*
X557Y2702D01*
X557Y2702D01*
X556Y2702D01*
X556Y2702D01*
X556Y2702D01*
X556Y2702D01*
X555Y2702D01*
X555Y2702D01*
X555Y2702D01*
X555Y2703D01*
X554Y2703D01*
X554Y2703D01*
X554Y2703D01*
X554Y2703D01*
X554Y2703D01*
X554Y2704D01*
X553Y2704D01*
X553Y2704D01*
X553Y2704D01*
X553Y2705D01*
X553Y2705D01*
X553Y2705D01*
X553Y2705D01*
X553Y2706D01*
X553Y2706D01*
X552Y2706D01*
X552Y2706D01*
X552Y2707D01*
X552Y2707D01*
Y2726D01*
X552Y2726D01*
X552Y2726D01*
X552Y2727D01*
X553Y2727D01*
X553Y2727D01*
X553Y2727D01*
X553Y2728D01*
X553Y2728D01*
X553Y2728D01*
X553Y2728D01*
X553Y2729D01*
X553Y2729D01*
X554Y2729D01*
X554Y2729D01*
X554Y2729D01*
X554Y2730D01*
X554Y2730D01*
X554Y2730D01*
X555Y2730D01*
X555Y2730D01*
X555Y2730D01*
X555Y2730D01*
X556Y2730D01*
X556Y2731D01*
X556Y2731D01*
X556Y2731D01*
X557Y2731D01*
X557Y2731D01*
X557Y2731D01*
X557Y2731D01*
X617D01*
X618Y2731D01*
D02*
G37*
D19*
X-838Y2870D02*
D03*
X-928D02*
D03*
X-831Y3086D02*
D03*
X-921D02*
D03*
X-915Y3315D02*
D03*
X-826D02*
D03*
D69*
X665Y1843D02*
D03*
Y1778D02*
D03*
X470Y1713D02*
D03*
Y1778D02*
D03*
Y1843D02*
D03*
X665Y1713D02*
D03*
X694Y2846D02*
D03*
Y2781D02*
D03*
X499D02*
D03*
Y2846D02*
D03*
X694Y2716D02*
D03*
X499D02*
D03*
D72*
X508Y3225D02*
D03*
Y3505D02*
D03*
D73*
X-470Y1396D02*
D03*
Y1816D02*
D03*
X25Y1829D02*
D03*
Y1409D02*
D03*
D74*
X-1092Y1799D02*
D03*
Y2464D02*
D03*
D76*
X-179Y2971D02*
D03*
X-229D02*
D03*
X-279D02*
D03*
X-379D02*
D03*
X-329Y3353D02*
D03*
X-279D02*
D03*
X-229D02*
D03*
X-179D02*
D03*
X-329Y2971D02*
D03*
X-379Y3353D02*
D03*
D77*
X-88Y3212D02*
D03*
Y3162D02*
D03*
Y3112D02*
D03*
Y3062D02*
D03*
X-470D02*
D03*
Y3112D02*
D03*
Y3212D02*
D03*
Y3262D02*
D03*
X-88D02*
D03*
X-470Y3162D02*
D03*
D78*
X127Y2793D02*
D03*
Y2883D02*
D03*
X267Y2793D02*
D03*
Y2883D02*
D03*
D79*
X481Y2019D02*
D03*
X660D02*
D03*
X507Y2502D02*
D03*
X686D02*
D03*
X697Y3061D02*
D03*
X876D02*
D03*
D80*
X-260Y2301D02*
D03*
X-70D02*
D03*
Y2525D02*
D03*
X-165D02*
D03*
D81*
X-527Y2421D02*
D03*
X-667D02*
D03*
X-527Y2603D02*
D03*
X-667D02*
D03*
D82*
X-260Y2525D02*
D03*
D83*
X978Y2207D02*
D03*
Y2502D02*
D03*
M02*
